<svg id="Layer_1" data-name="Layer 1" xmlns="http://www.w3.org/2000/svg" viewBox="0 0 32 32"><defs><style>.cls-1{fill:#45283c;}.cls-2{fill:#222034;}.cls-3{fill:#37936e;}.cls-4{fill:#4b692f;}.cls-5{fill:#663931;}.cls-6{fill:#323c39;}.cls-7{fill:#edc299;}.cls-8{fill:#de7126;}.cls-9{fill:#639afe;}.cls-10{fill:#5b6ee0;}</style></defs><title>icon</title><path class="cls-1" d="M10.07,32v0c0-.07,0-.16,0-.21s-.14,0-.21,0-.06,0,0-.06a1,1,0,0,1,0-.17s0,0-.05,0H9.59c-.05,0-.07,0-.07-.06s0-.16,0-.2-.13,0-.19,0a.05.05,0,0,1-.06-.06v-.21h.37c.05,0,.12,0,.16,0s0,.11,0,.16v0c0,.05,0,.06,0,.06s.16,0,.2,0,0,.13,0,.2,0,.06,0,.06.16,0,.2,0,0,.14,0,.21,0,.05.05.05h.49V32Z"/><path d="M17.39.27V0h1.08V.27H17.39Z"/><path d="M4.1,26.31H3.83V26H4.1v.27Z"/><path d="M10.88,32v-.27h.27V32Z"/><path d="M24.17,22.24c0,.09,0,.18,0,.26H20.64v-.26a.82.82,0,0,0-.27,0h-.25a.78.78,0,0,1,0-.26h.81a1.33,1.33,0,0,1,0,.2c0,.06,0,.07.08.07h3.18Z"/><path d="M25,11.39h0c.07,0,.16,0,.21,0s0,.13,0,.2,0,.06.08.06h1.2c.08,0,.08,0,.08.08v.19h-1a0,0,0,0,0-.05.05,1.62,1.62,0,0,1,0,.22V13h-.28V12s0-.06-.05-.06H25v-.54Z"/><path d="M26.61,13.83v.46c0,.08,0,.08.09.08h.61c.13,0,.11,0,.11.13v.14h-.76s-.05,0-.05,0v1h-.27V14.18c0-.06,0-.08-.07-.08h-.2v-.27Z"/><path d="M27.69,17.09v0c0,.07,0,.16,0,.21s-.13,0-.2,0-.06,0-.06.07v2c0,.11,0,.1-.09.1h-.18V17.08h.54Z"/><path d="M12.51,29.56v1c0,.08,0,.08-.08.08h-.19v-.25a.78.78,0,0,0-.26,0h-.28V30.1h.21s.07,0,.07-.07a.27.27,0,0,1,0-.18c0-.05.12,0,.19,0s.07,0,.07-.07,0-.15,0-.19.13,0,.19,0Z"/><path d="M23.63,5.7a.77.77,0,0,1,.26,0c0,.08,0,.17,0,.25V7.23c0,.11,0,.09-.1.09h-.17V5.69Z"/><path d="M15.49,26.58a1.15,1.15,0,0,1,0,.26,2.18,2.18,0,0,1-.25,0H15s-.05,0-.05,0a.85.85,0,0,0,0,.16c0,.06,0,.07-.07.07h-.2V26.9s0,0-.06,0h-.23a1.06,1.06,0,0,1-.25,0,2.09,2.09,0,0,1,0-.25Z"/><path d="M23.9,8.41a.82.82,0,0,1,0-.27h1.51c.12,0,.1,0,.1.11v.16H23.9Z"/><path d="M28,15.46a.82.82,0,0,1,.27,0,2.09,2.09,0,0,1,0,.25v1c0,.11,0,.09-.1.09H28V15.46Z"/><path d="M26.88,12.2a1.1,1.1,0,0,1,.26,0,1,1,0,0,1,0,.25v1c0,.1,0,.09-.09.09h-.18V12.2Z"/><path d="M23.36,7.59v.82h-.27v-.5s0,0,0,0h-.23V7.59h.55Z"/><path d="M25.8,8.68a1.15,1.15,0,0,1,.26,0,1,1,0,0,1,0,.25v.74c0,.08,0,.08-.09.08H25.8V8.68Z"/><path d="M22.27,5.42a1.15,1.15,0,0,1,0-.26,1.13,1.13,0,0,1,.26,0h.71c.12,0,.1,0,.1.11a.85.85,0,0,1,0,.16H22.27Z"/><path d="M21.73,5.42h.54v.27H22s0,0,0,0v.5h-.27V5.42Z"/><path d="M16.57,26.3a1,1,0,0,1,0,.17c0,.12,0,.11-.11.11h-1v-.27h1.08Z"/><path d="M19.56,23.59v.06c0,.07,0,.16,0,.2s-.13,0-.19,0-.06,0-.06.06,0,.16,0,.21-.13,0-.2,0H19v-.28a2.62,2.62,0,0,1,0-.28.7.7,0,0,1,0-.25h.26v.26a1.22,1.22,0,0,0,.27,0Z"/><path d="M23.36,8.41h.54v.27h-.26a.82.82,0,0,0,0,.27h-.27V8.41Z"/><path d="M27.15,19.53v.71c0,.11,0,.1-.1.1h-.17v-.81Z"/><path d="M25,22v.17c0,.11,0,.1-.1.1h-.71V22H25Z"/><path d="M26.07,21.42a1.61,1.61,0,0,0,0,.22c0,.05,0,.06-.06.06h-.49v-.26h.54Z"/><path d="M25.52,21.7a1.48,1.48,0,0,0,0,.21c0,.05,0,.06-.07.06H25V21.7h.54Z"/><path d="M19,.81h.21c.05,0,.06,0,.06.07v.48H19V.81Z"/><path d="M19.56,1.63h.21c.05,0,.06,0,.06.06v.48h-.27V1.63Z"/><path d="M19,24.14v.48s0,.06-.06.06h-.21v-.54Z"/><path d="M19.83,2.17H20c.05,0,.06,0,.06.06v.48h-.27V2.17Z"/><path d="M20.37,3a1.61,1.61,0,0,0,.22,0s.05,0,.05.06v.49h-.27V3Z"/><path d="M20.64,3.53h.22c.05,0,.06,0,.06.07s0,.32,0,.48h-.27V3.53Z"/><path d="M17.66,25.76V26s0,.06-.06.05h-.48v-.26Z"/><path d="M17.12,26v.22c0,.05,0,.06-.06.06h-.48V26Z"/><path d="M21.19,4.34h.21c.05,0,.06,0,.06.06v.48h-.27V4.34Z"/><path d="M21.46,4.88h.21s.06,0,.06.06v.48h-.27V4.88Z"/><path d="M13.59,28.2v.48c0,.05,0,.07-.07.07a1.33,1.33,0,0,0-.2,0h0v-.28a.78.78,0,0,1,0-.26Z"/><path d="M25.8,9.76c0,.16,0,.32,0,.48s0,.07-.07.07h-.21V9.76Z"/><path d="M25,10.85v.54h-.27v-.54Z"/><path d="M27.69,14.92h.22c.05,0,.06,0,.06.07s0,.32,0,.48H27.7v-.55Z"/><path d="M26.88,20.34v.48s0,.06-.06.06h-.21v-.54Z"/><path d="M18.47.27h.23s.05,0,.05,0a1.62,1.62,0,0,0,0,.22h-.28V.27Z"/><path d="M18.75.54H19s.05,0,.05,0V.81h-.27V.54Z"/><path d="M19.29,1.36h.22s0,0,0,0v.23h-.27V1.36Z"/><path d="M20.1,2.71h.23s0,0,0,0V3H20.1V2.71Z"/><path d="M20.91,4.07h.23s.05,0,.05,0a1.77,1.77,0,0,0,0,.23h-.28V4.07Z"/><path d="M23.35,5.42h.23a0,0,0,0,1,.05,0V5.7h-.27V5.42Z"/><path d="M23.63,7.32a.82.82,0,0,1,0,.27h-.26V7.32h.27Z"/><path d="M25.52,8.41h.23s.05,0,.05,0a1.77,1.77,0,0,0,0,.23h-.27V8.41Z"/><path d="M27.42,14.64h.23s.05,0,0,0v.23h-.27v-.27Z"/><path d="M28,16.81a1.23,1.23,0,0,1,0,.27h-.26v-.25a.78.78,0,0,1,.26,0Z"/><path d="M26.61,11.93h.22s.05,0,.05.05v.22h-.27v-.27Z"/><path d="M26.61,20.88v.23s0,0-.05,0h-.22v-.27h.27Z"/><path d="M26.34,21.15v.23s0,0-.05,0h-.22v-.27h.27Z"/><path d="M26.88,13.56a1.22,1.22,0,0,1,0,.27h-.26v-.27Z"/><path d="M20.64,22.51a1.11,1.11,0,0,1,0,.26h-.26v-.26a1.11,1.11,0,0,1,.26,0Z"/><path d="M20.37,22.78a1.22,1.22,0,0,1,0,.27H20.1v-.27h.27Z"/><path d="M20.1,23.05a1.22,1.22,0,0,1,0,.27h-.26v-.27h.27Z"/><path d="M19.83,23.32a.82.82,0,0,1,0,.27h-.25v-.27h.27Z"/><path d="M18.74,24.68a1.62,1.62,0,0,0,0,.22s0,.05-.05.05h-.23v-.23s0,0,.05,0h.22Z"/><path d="M18.47,25v.22s0,0,0,0H18.2V25Z"/><path d="M18.2,25.22v.23s0,0,0,0h-.23v-.27Z"/><path d="M17.93,25.49v.23s0,0,0,0h-.23v-.27Z"/><path d="M25.25,10.58a1.13,1.13,0,0,1,0,.26H25v-.26a1.11,1.11,0,0,1,.26,0Z"/><path d="M14.68,27.12c0,.09,0,.18,0,.26h-.25v-.26a1.22,1.22,0,0,1,.27,0Z"/><path d="M14.41,27.39a1.23,1.23,0,0,1,0,.27h-.26v-.25a.82.82,0,0,1,.27,0Z"/><path d="M14.14,27.66a1.23,1.23,0,0,1,0,.27h-.26v-.25a.78.78,0,0,1,.26,0Z"/><path d="M13.86,27.93a1.22,1.22,0,0,1,0,.27h-.26V28c.08,0,.18,0,.26,0Z"/><path d="M25.53,10.31a1.18,1.18,0,0,1,0,.26h-.26v-.27h.28Z"/><path d="M13.32,28.75a1.15,1.15,0,0,1,0,.26h-.26v-.26a1.11,1.11,0,0,1,.26,0Z"/><path d="M13.05,29a1.11,1.11,0,0,1,0,.26h-.26V29a1.22,1.22,0,0,1,.27,0Z"/><path d="M12.78,29.29c0,.09,0,.18,0,.26h-.25V29.3a1.22,1.22,0,0,1,.27,0Z"/><path d="M12.24,30.64a.82.82,0,0,1,0,.27H12v-.27h.27Z"/><path d="M12,30.92a1.18,1.18,0,0,1,0,.26h-.26v-.27H12Z"/><path d="M11.69,31.19a1.11,1.11,0,0,1,0,.26h-.26v-.27h.27Z"/><path d="M11.42,31.46a1.11,1.11,0,0,1,0,.26h-.26v-.27h.27Z"/><path d="M7.36,20.34V15.5s0,0,0,0h.23v4.61c0,.09,0,.17,0,.25a.82.82,0,0,1-.27,0Z"/><path d="M4.91,25a1.23,1.23,0,0,1,0-.27h.48s0,0,0-.05v-.11c0-.13,0-.11.11-.11h.16V25H5.47a.75.75,0,0,0,0,.26H5.19V25a1.15,1.15,0,0,0-.26,0Z"/><path d="M7.08,21.7V20.44c0-.12,0-.1.11-.1h.16v.42c0,.31,0,.62,0,.93H7.08Z"/><path d="M7.63,15.46v-1c0-.12,0-.11.11-.11H7.9v1.09Z"/><path d="M16.57,1.63h0a1.06,1.06,0,0,1-.25,0,1.93,1.93,0,0,0,0-.24V.89c0-.07,0-.08.09-.08h.19v.82Z"/><path d="M18.47,5.69V4.88h.26a1.14,1.14,0,0,1,0,.26v.54h-.27Z"/><path d="M12.78,7.05a1.22,1.22,0,0,1-.27,0,2.08,2.08,0,0,1,0-.25V6.33c0-.11,0-.09.09-.09h.18v.81Z"/><path d="M15.76,6.24v.54h-.54V6.51h.26a1.11,1.11,0,0,0,0-.26Z"/><path d="M6.81,22.51v-.74c0-.07,0-.07.07-.07h.2v.82Z"/><path d="M7.9,14.37v-.73c0-.08,0-.08.07-.08h.2v.81Z"/><path d="M13.32,8.14V7.92s0,0-.06-.06-.16,0-.2,0,0-.13,0-.19V7.59h.54v.54h-.27Z"/><path d="M16.85.54V.29a.82.82,0,0,1,.27,0h.27V.54h-.54Z"/><path d="M12.78,9.22V8.74s0-.07.06-.06h.21v.54Z"/><path d="M6.54,23.05v-.48s0-.06.06-.06h.21v.54Z"/><path d="M6.27,23.59v-.48s0-.06.06-.06h.21v.54Z"/><path d="M16.85,2.17a.82.82,0,0,1-.27,0V1.9a2.44,2.44,0,0,1,0-.27h.21s.07,0,.07.07,0,.31,0,.47Z"/><path d="M6,24.14v-.49s0-.06.06-.06a1.47,1.47,0,0,0,.21,0h0v.54H6Z"/><path d="M17.12,2.71a1.22,1.22,0,0,1-.27,0V2.17h.2c.05,0,.07,0,.07.07v.47Z"/><path d="M4.64,25.49c0-.16,0-.32,0-.47s0-.08.07-.07h.21v.54H4.64Z"/><path d="M17.66,3.53a1.23,1.23,0,0,1-.27,0V3h0a1.33,1.33,0,0,0,.2,0c.06,0,.07,0,.07.07v.47Z"/><path d="M17.93,4.07c-.09,0-.18,0-.26,0a2.09,2.09,0,0,1,0-.25V3.53h.2c.06,0,.07,0,.07.07v.48Z"/><path d="M18.47,4.88a1.11,1.11,0,0,1-.26,0c0-.09,0-.17,0-.26V4.34h.21c.05,0,.07,0,.06.07v.47Z"/><path d="M14.68,5.15V5.09c0-.07,0-.15,0-.2s.12,0,.18,0h.22c.13,0,.13,0,.13.14v.13h-.54Z"/><path d="M14.13,5.42a1.47,1.47,0,0,0,0-.21s0-.06.07-.06h.48a1.47,1.47,0,0,0,0,.21s0,.07-.07.06h-.48Z"/><path d="M13.59,5.69V5.48c0-.05,0-.06.06-.06h.49v.27h-.54Z"/><path d="M13.05,6V5.75s0-.06.06-.06h.48V6h-.54Z"/><path d="M15.76,5.69h0c.08,0,.17,0,.22,0s0,.15,0,.22v.22c0,.11,0,.09-.09.09h-.18V5.7Z"/><path d="M17.93,6V5.75s0-.06.06-.06h.48V6h-.54Z"/><path d="M11.42,10.31a1.61,1.61,0,0,0,0-.22c0-.05,0-.06.06-.06H12v.27h-.54Z"/><path d="M17.39,6.24V6s0-.06.06,0h.48v.27h-.54Z"/><path d="M10.61,10.85v-.22s0-.06.06-.05h.48v.26h-.54Z"/><path d="M16.85,6.51V6.29s0,0,.06,0h.48v.27h-.54Z"/><path d="M9.8,11.39a1.48,1.48,0,0,0,0-.21s0-.06.07-.06h.48v.27H9.8Z"/><path d="M16.3,6.78a1.47,1.47,0,0,0,0-.21c0-.05,0-.06.07-.06h.48v.27H16.3Z"/><path d="M8.44,13v-.48s0-.07.06-.07h.21V13Z"/><path d="M15.76,6.78h.54v.27h-.54V6.78Z"/><path d="M8.17,13.56v-.48c0-.05,0-.07.06-.06h.21v.54Z"/><path d="M13.05,7.59h-.21c-.05,0-.06,0-.06-.06V7.05h.27v.54Z"/><path d="M13.05,8.68V8.2s0-.07.06-.07h.21v.54Z"/><path d="M16.57.81a1.1,1.1,0,0,1,0-.26h.26V.81h-.28Z"/><path d="M17.39,3a1.22,1.22,0,0,1-.27,0V2.71h.25c0,.08,0,.17,0,.26Z"/><path d="M18.2,4.34c-.09,0-.18,0-.26,0V4.07h.26a1.22,1.22,0,0,1,0,.27Z"/><path d="M15.22,5.15h.22s.05,0,.05,0v.22h-.27V5.15Z"/><path d="M15.49,5.42a1.23,1.23,0,0,1,.27,0v.25h-.27V5.42Z"/><path d="M12.78,6.24V6s0,0,0,0h.23v.27h-.27Z"/><path d="M12.51,9.49V9.27s0,0,0,0h.23v.27h-.27Z"/><path d="M12.24,9.76V9.54s0,0,0,0h.23v.27h-.27Z"/><path d="M12,10a1.62,1.62,0,0,0,0-.22,0,0,0,0,1,0-.05h.23V10H12Z"/><path d="M8.71,12.48v-.23s0-.05,0-.05H9v.27H8.71Z"/><path d="M9,12.2V12s0-.05,0-.05h.22v.27H9Z"/><path d="M9.25,11.93v-.22s0-.05.05-.05h.22v.27H9.25Z"/><path d="M9.53,11.66c0-.07,0-.15,0-.22s0,0,.05,0h.22v.27H9.53Z"/><path d="M5.73,24.41v-.23s0-.05,0,0H6v.28H5.73Z"/><path d="M4.37,25.76c0-.09,0-.18,0-.26h.25v.27H4.37Z"/><path d="M4.1,26c0-.08,0-.18,0-.26h.25V26Z"/><path d="M10.34,11.12v-.23s0,0,0,0h.23v.27h-.27Z"/><path d="M11.15,10.58v-.23s0,0,0,0h.22v.28h-.27Z"/><path class="cls-1" d="M9,30.65H8.76s0,0,0-.05,0-.16,0-.21-.13,0-.2,0-.05,0-.05-.06v-.48h.22s.05,0,.05,0v-.22H9a1.11,1.11,0,0,0,0-.26h.26a1.11,1.11,0,0,0,0-.26h.27v.25a.82.82,0,0,0,.27,0c0,.16,0,.31,0,.47s0,.07-.07.07-.14,0-.18,0,0,.13,0,.19,0,.08-.07.07-.14,0-.19,0,0,.13,0,.19,0,.08-.07.07-.15,0-.2,0,0,.13,0,.2v.05Z"/><path class="cls-1" d="M7.08,29H6.61c-.05,0-.07,0-.07-.07v-.2h.27a.82.82,0,0,1,.27,0V29Z"/><path class="cls-1" d="M7.9,29.83a1.22,1.22,0,0,1-.27,0v-.26h.55v.27H7.9Z"/><path class="cls-1" d="M4.37,26.58c-.09,0-.18,0-.26,0v-.25h.22s0,0,0,.06v.22Z"/><path class="cls-1" d="M4.64,26.85c-.09,0-.18,0-.26,0v-.25h.26a1.22,1.22,0,0,1,0,.27Z"/><path class="cls-1" d="M4.91,27.12c-.08,0-.18,0-.26,0v-.25H4.9a2.45,2.45,0,0,1,0,.27Z"/><path class="cls-1" d="M5.18,27.39a.78.78,0,0,1-.26,0v-.25h.26a.82.82,0,0,1,0,.27Z"/><path class="cls-1" d="M5.46,27.66a1.22,1.22,0,0,1-.27,0v-.26h.26c0,.08,0,.17,0,.26Z"/><path class="cls-1" d="M5.73,27.93a1.22,1.22,0,0,1-.27,0v-.26h.25c0,.08,0,.17,0,.26Z"/><path class="cls-1" d="M6,28.21a2.45,2.45,0,0,1-.27,0v-.26H6c0,.08,0,.17,0,.26Z"/><path class="cls-1" d="M6.27,28.48a2.45,2.45,0,0,1-.27,0v-.25h.25a.78.78,0,0,1,0,.26Z"/><path class="cls-1" d="M6.54,28.75a1.1,1.1,0,0,1-.26,0v-.25h.26a1.15,1.15,0,0,1,0,.26Z"/><path class="cls-1" d="M7.35,29.29a.78.78,0,0,1-.26,0V29h.26a1.23,1.23,0,0,1,0,.27Z"/><path class="cls-1" d="M7.62,29.56a.78.78,0,0,1-.26,0v-.25h.26a.82.82,0,0,1,0,.27Z"/><path d="M8.17,29.83v-.27h.27v.27H8.17Z"/><path d="M7.9,29.83h.27V30c0,.06,0,.08-.08.07s-.14,0-.18,0,0-.12,0-.18Z"/><path class="cls-1" d="M9.25,30.92c-.09,0-.18,0-.26,0v-.25H9.2s.05,0,.05.06a1.48,1.48,0,0,0,0,.21Z"/><path class="cls-2" d="M9.26,30.91a1.48,1.48,0,0,1,0-.21s0-.06-.05-.06H9v-.05c0-.07,0-.15,0-.2s.13,0,.2,0,.06,0,.07-.07,0-.15,0-.19.13,0,.19,0,.07,0,.07-.07,0-.15,0-.19.12,0,.18,0,.07,0,.07-.07,0-.31,0-.47h.27v.22s0,0,0,0h.23v.26a1.22,1.22,0,0,0,.27,0h.27v.26a1.11,1.11,0,0,0,.26,0h.27v.26a1.15,1.15,0,0,0,.26,0H12v.27h-.23a0,0,0,0,0-.05.05v.23h-.22s-.05,0-.05,0v.23H11.2s0,0,0,0v.23h-.22s0,0,0,0v.23h-.49s-.05,0-.05-.05,0-.17,0-.21-.13,0-.2,0,0,0,0-.06,0-.16,0-.2-.13,0-.2,0-.06,0,0-.06v0c0-.05,0-.12,0-.16s-.11,0-.16,0Z"/><path class="cls-3" d="M16,7.05h.48s.07,0,.07-.07a1.33,1.33,0,0,1,0-.2h.47c.05,0,.07,0,.07-.07a1.33,1.33,0,0,1,0-.2h.47c.05,0,.08,0,.07-.07v-.2h.47c.05,0,.08,0,.07-.07V6h.5a0,0,0,0,0,.05,0,1.77,1.77,0,0,1,0-.23V5.42h.47s.07,0,.07,0,0-.16,0-.2.14,0,.21,0,0,0,0-.05V4.78s0-.12,0-.15-.11,0-.17,0h0s-.05,0-.05-.06V4.27c0-.06,0-.14,0-.18s-.11,0-.17,0h0S19,4.05,19,4s0-.15,0-.19-.13,0-.2,0a.05.05,0,0,1-.06-.06,1.31,1.31,0,0,0,0-.28c0-.07,0-.14,0-.19s-.11,0-.18,0h0s-.06,0-.06,0,0-.15,0-.2-.13,0-.2,0-.06,0-.06,0V2.64c0-.06,0-.14,0-.18s-.12,0-.18,0h0s-.06,0-.06,0v-.3c0-.06,0-.13,0-.17s-.12,0-.18,0h0c-.06,0-.07,0-.07-.07V1.42s0-.07-.07-.07-.14,0-.18,0,0-.12,0-.19,0-.07-.07-.07-.15,0-.19,0,0-.13,0-.19V.81h.22s.05,0,.05,0V.54h.21s.06,0,.06-.05V.27h.54V.53a1.15,1.15,0,0,0,.26,0h0V.77s0,0,.05,0h.23a1.55,1.55,0,0,1,0,.22.05.05,0,0,0,.06.06,1.47,1.47,0,0,1,.21,0v.49s0,0,0,0h.23v.21s0,.06.05.06h.22v.47s0,.08.06.07h.21v.5s0,0,.05,0h.22V3.2s0,.06,0,0h.22v.47s0,.07.07.07h.2v.49a0,0,0,0,0,.05,0h.22a1.47,1.47,0,0,1,0,.21.05.05,0,0,0,.06.06h.21v.27a1.27,1.27,0,0,1,0,.2s0,.08.07.07h.2v.48s0,.07.06.07h.21v.74s0,.07.06.07H22V7s0,.08.07.07h.2v.48s0,.07.06.06h.21v.26a.76.76,0,0,0,.26,0h0v.22s0,.06.06.06h.21v.27c0,.06,0,.13,0,.2s0,.07.07.07h.2V9a1.34,1.34,0,0,1,0,.2s0,.08.07.07h.2v.47c0,.05,0,.08.06.07h.21v.48s0,.07.06.07h.21v.48s0,.06.06.06h.21v.25c.08,0,.17,0,.26,0v.47c0,.05,0,.08.07.07H25v.27a1.33,1.33,0,0,1,0,.2s0,.08.07.07h.2V13a1.33,1.33,0,0,1,0,.2s0,.07.07.07h.2v.27a1.48,1.48,0,0,1,0,.21.05.05,0,0,0,.06.06h.21v.26a1.22,1.22,0,0,0,.27,0h0v.49s0,.06.05.05h.22v1.28c0,.05,0,.07.06.07h.21v.74c0,.05,0,.08.07.07h.2v.75c0,.05,0,.07.07.07h.2V19H27c-.06,0-.07,0-.07.07v1h-.26a1.11,1.11,0,0,0,0,.26v.27h-.26a1.11,1.11,0,0,0,0,.26h-.23s0,0,0,.05v.22h-.22s-.06,0-.05.06a1.48,1.48,0,0,1,0,.21h-.47c-.05,0-.07,0-.07.07a1.34,1.34,0,0,1,0,.2h-.47c-.05,0-.07,0-.07.07V22H24s-.08,0-.07.06v.21H21.46V22s0-.05-.06-.05h-.49a1.62,1.62,0,0,1,0-.22c0-.05,0-.06-.07-.06h-.48v-.05c0-.07,0-.15,0-.2s-.13,0-.19,0h0c-.05,0-.06,0-.06-.05s0-.15,0-.2-.14,0-.21,0-.05,0-.05,0,0-.16,0-.2-.14,0-.21,0-.05,0-.05-.05,0-.16,0-.2-.14,0-.21,0-.05,0-.05-.05,0-.16,0-.2-.13,0-.2,0-.06,0-.05-.06V20c0-.06,0-.14,0-.18s-.11,0-.17,0h0a.05.05,0,0,1-.06-.06,1.31,1.31,0,0,0,0-.28c0-.07,0-.14,0-.19s-.11,0-.18,0h0s-.06,0-.06-.05v-.29c0-.06,0-.14,0-.18s-.12,0-.18,0h0c-.05,0-.06,0-.06-.05v-.29c0-.06,0-.14,0-.18s-.12,0-.18,0h0s-.05,0-.05-.06,0-.15,0-.19-.14,0-.21,0-.05,0-.05-.06v-.28c0-.06,0-.14,0-.19s-.12,0-.18,0h0s-.05,0-.05-.06,0-.15,0-.2-.14,0-.21,0-.05,0-.05-.06v-.29c0-.06,0-.14,0-.18s-.12,0-.18,0h0s0,0,0-.05,0-.16,0-.2-.13,0-.2,0-.06,0-.06-.05a2.81,2.81,0,0,0,0-.29c0-.06,0-.14,0-.18s-.11,0-.18,0h0a.05.05,0,0,1-.06-.06,1.31,1.31,0,0,0,0-.28c0-.06,0-.14,0-.18s-.12,0-.18,0h0c-.05,0-.06,0-.06-.06v-.28c0-.07,0-.14,0-.19s-.12,0-.18,0h0s-.05,0-.05-.05,0-.16,0-.2-.14,0-.21,0,0,0,0,0v-.49H16v.26a1.22,1.22,0,0,0,.27,0h2.42a1,1,0,0,0,0-.24v0H19a1.15,1.15,0,0,0,.26,0v-.26h.48s.06,0,.06-.05v-.22h.54v.27h-.2c-.06,0-.07,0-.07.07v1.22c0,.05,0,.07.07.07h.2v.21s0,.06.06.06h1c.05,0,.07,0,.07-.07a1.34,1.34,0,0,1,0-.2H22s.05,0,.05-.05v-1s0-.06-.06-.06h-.21v-.26a1.11,1.11,0,0,0-.26,0,1.47,1.47,0,0,1,0-.21s0-.06-.06-.06h-1V13h.26a1.11,1.11,0,0,0,0-.26h.48c.05,0,.07,0,.07-.06a1.47,1.47,0,0,1,0-.21h.25a.82.82,0,0,0,0-.27h.25a.82.82,0,0,0,0-.27H22a.82.82,0,0,0,0-.27h.21c.05,0,.06,0,.06-.06v-.48h.26a1.11,1.11,0,0,0,0-.26h.21c.05,0,.06,0,.06-.07V9.56c0-.05,0-.07-.06-.07h-.21a2.43,2.43,0,0,0,0-.27.75.75,0,0,0,0-.26h-.26V8.68a1.22,1.22,0,0,0,0-.27H22V8.15c-.08,0-.17,0-.26,0V7.65a.05.05,0,0,0-.06-.06h-.21V7.34a.78.78,0,0,0-.26,0V7.07a.78.78,0,0,0-.26,0V6.8a.82.82,0,0,0-.27,0V6.61c0-.09,0-.1-.09-.1H19.09c-.05,0-.08,0-.08.06a1.48,1.48,0,0,1,0,.21h-.48c-.05,0-.07,0-.07.07a1.33,1.33,0,0,1,0,.2H18c-.05,0-.07,0-.07.07v.2h-.47c-.05,0-.08,0-.07.07v.2h-.47c-.05,0-.08,0-.07.07v.2h-.48c-.05,0-.07,0-.07.06a1.47,1.47,0,0,1,0,.21h-.25a.78.78,0,0,0,0,.26h-.27V8.35c0-.06,0-.15,0-.19s-.13,0-.19,0-.07,0-.07-.07V7.32H16c.05,0,.08,0,.07-.06Zm5.7,9.49v.26a1.22,1.22,0,0,0,.27,0V17a.05.05,0,0,0,.06.06h.21a2.43,2.43,0,0,0,.27,0h.26a1.22,1.22,0,0,0,0-.27H23c.09,0,.09,0,.09-.09V15.47a.82.82,0,0,0-.27,0v-.22s0-.05,0-.05h-.69c-.05,0-.08,0-.07.06v.21h-.48c-.05,0-.07,0-.06.06v.21h-.22s-.06,0,0,0v.44s0,.05,0,.05h.22v.26A1.22,1.22,0,0,0,21.73,16.54Zm0,2.17H21s-.06,0-.06.06,0,.25,0,.37,0,.11.13.11h.15v.22s0,.06,0,.06a1.22,1.22,0,0,1,.27,0c.07,0,.16,0,.21,0s0,.12,0,.18h0s0,.06.05.06H22V20s0,.06.05.06h.27c.07,0,.15,0,.2,0s0,.13,0,.19h0s0,.06.06.06h.21v.26a1.15,1.15,0,0,0,.26,0h.26a1.1,1.1,0,0,1,0,.26H22.6c-.05,0-.06,0-.06.06v.37c0,.13,0,.11.13.11h.14v.22s0,.06.05.06h.45s.05,0,.05-.06a1.62,1.62,0,0,1,0-.22v-.54h.28v.22s0,0,.05,0h.44s.05,0,.05-.06v-.75h.27v.21s0,.06,0,.06h.44c.05,0,.05,0,.05-.06V19.8h.56a1.06,1.06,0,0,0,.25,0v-.53h.27a2.62,2.62,0,0,0,.28,0,.69.69,0,0,0,.25,0v-.48s0-.05-.05-.05H25.8v-.27a1.62,1.62,0,0,1,0-.22s0,0-.05,0H25v-.5s0,0,0,0h-.77v-.55h.27v.22s0,.06,0,.06h.44c.05,0,.05,0,.05-.06v-.71s0-.05,0-.05h-.5a1.47,1.47,0,0,1-.21,0c-.05,0-.06,0-.06.06v.49h-.76s-.06,0-.06.07,0,.32,0,.48H22.6c-.05,0-.06,0-.06.06v.48h-.75c-.05,0-.06,0-.06.06ZM20.1,16.54v-1s0,0-.05,0H18.81s-.07,0-.07.06a1.47,1.47,0,0,1,0,.21h-.21s-.06,0-.06,0v.71s0,.05.06.05h.21a1.61,1.61,0,0,1,0,.22s0,.06.07,0h1.24s.05,0,.05,0Zm2.71-2.44v.21s0,.07.06.06h1.25s.05,0,.05,0V13.06s0,0-.05,0H22.87s-.06,0-.06.06v.21H22.6c-.05,0-.06,0-.06.05v.71s0,0,.06,0Z"/><path class="cls-4" d="M17.66.27V.49s0,.05-.06.05h-.21V.27Z"/><path class="cls-4" d="M18.47.54a1.15,1.15,0,0,1-.26,0V.27h.27Z"/><path class="cls-5" d="M7.63,29.56a.82.82,0,0,0,0-.27H7.36a1.23,1.23,0,0,0,0-.27H7.09v-.26a.82.82,0,0,0-.27,0H6.54a1.15,1.15,0,0,0,0-.26H6.27a.78.78,0,0,0,0-.26H6c0-.09,0-.18,0-.26H5.73c0-.09,0-.18,0-.26H5.46c0-.09,0-.18,0-.26H5.19a.82.82,0,0,0,0-.27H4.92a2.45,2.45,0,0,0,0-.27H4.64a1.22,1.22,0,0,0,0-.27H4.37v-.22s0-.06,0-.06H4.1V26h.5s0,0,0,0v-.23h.23s0,0,0,0v-.23h.55v.26a1.22,1.22,0,0,0,.27,0V26A1.22,1.22,0,0,0,6,26v.26a1.1,1.1,0,0,0,.26,0v.25c.08,0,.17,0,.26,0v.25c.08,0,.17,0,.26,0v.25a.78.78,0,0,0,.26,0v.25a.78.78,0,0,0,.26,0,1.77,1.77,0,0,1,0,.23s0,0,.05,0h.5v.26a1.22,1.22,0,0,0,.27,0v.26a1.22,1.22,0,0,0,.27,0v.26c.08,0,.17,0,.26,0V29H8.46a.82.82,0,0,0,0,.27H8.18a1.22,1.22,0,0,0,0,.27H7.63Z"/><path class="cls-1" d="M10.88,31.73V31.5s0,0,0,0h.22v.27Z"/><path class="cls-5" d="M20.37,22.78H20.1v-.22s0,0-.05,0-.16,0-.2,0,0-.14,0-.21,0-.05,0-.05h-.3a.44.44,0,0,1-.17,0s0-.12,0-.18v0c0-.05,0-.07-.07-.07H18.8a.05.05,0,0,1-.06-.06c0-.07,0-.15,0-.19s-.13,0-.2,0-.06,0-.06-.06,0-.15,0-.2-.13,0-.2,0-.06,0-.06-.05,0-.15,0-.2-.13,0-.2,0-.06,0-.06,0,0-.16,0-.2-.14,0-.21,0-.05,0-.05-.05,0-.16,0-.2-.14,0-.21,0-.05,0-.05-.05,0-.16,0-.2-.14,0-.21,0-.05,0-.05-.06,0-.15,0-.19-.13,0-.2,0,0,0,0-.06,0-.15,0-.19-.13,0-.2,0a.05.05,0,0,1-.06-.06c0-.07,0-.15,0-.19s-.13,0-.2,0-.06,0-.06-.06,0-.21,0-.31,0-.12,0-.16-.11,0-.16,0h0C16,19,16,19,16,18.91s0-.15,0-.19-.13,0-.2,0-.05,0-.05.06,0,.15,0,.19-.14,0-.21,0,0,0,0,.06v.31s0,.12,0,.16-.11,0-.17,0h0s0,0,0,0v.29c0,.22,0,.21-.22.2,0,0-.05,0-.05-.06V17.55c0-.06,0-.14,0-.17s-.12,0-.18,0-.08,0-.08-.09V16.19a.46.46,0,0,0,0-.17s-.12,0-.18,0h0s-.06,0-.05-.05v-.3c0-.06,0-.13,0-.17s-.11,0-.17,0h0s-.07,0-.07-.07,0-.16,0-.19-.13,0-.19,0h-.06V15s0-.05,0,0h-.23v-.73c0-.09,0-.09-.08-.09h-.19v-.81h.27v.48s0,.06.06.06h.21v.23s0,0,.05,0h.23c0,.16,0,.32,0,.48s0,.07.06.06h.22v.48c0,.05,0,.07.05.07h.22v.22s0,.05,0,.05H15v.48S15,16,15,16h.21v.48s0,.07.06.06h.21v.23s0,0,0,0h.22v.48c0,.05,0,.07.06.07H16v.48s0,.06.06.06h.21a1.62,1.62,0,0,1,0,.22s0,.05.05.05h.23c0,.16,0,.32,0,.48s0,.06.06.06h.22v.48s0,.07,0,.07h.22v.23s0,.05,0,.05a1.77,1.77,0,0,1,.23,0V20s0,.06.06.06h.21v.22s0,.05.05.05h.22v.22s0,.05.05.05h.22v.22s0,.05.05.05h.22v.23s0,0,.05,0h.23a1.77,1.77,0,0,1,0,.23s0,0,.05,0H19v.22c0,.05,0,.06.06.06h.48v.22c0,.05,0,.06.06.06h.48a.78.78,0,0,0,0,.26h.25a.82.82,0,0,1,.27,0v.26a1.11,1.11,0,0,0-.26,0Z"/><path class="cls-4" d="M20.37,21.69h.48s.07,0,.07.06a1.62,1.62,0,0,0,0,.22h-.54Z"/><path class="cls-4" d="M20.91,22h.49s.06,0,.06.05v.22H21s-.08,0-.08-.07A1.33,1.33,0,0,0,20.91,22Z"/><path class="cls-6" d="M20.37,21.69V22H20.1V21.7Z"/><path class="cls-4" d="M23.9,22.24V22c0-.05,0-.07.07-.06h.2v.27Z"/><path class="cls-7" d="M26.88,12.48V13h-.26a1.22,1.22,0,0,0,0,.27H25.8V13a1.21,1.21,0,0,1,0-.19c0-.08,0-.09-.1-.08h-.17V12.2h.25a.78.78,0,0,0,0-.26h.54a1,1,0,0,0,0,.25.75.75,0,0,0,.26,0h0v.2s0,.08.06.08Z"/><path class="cls-8" d="M26.61,12.2a.75.75,0,0,1-.26,0,1,1,0,0,1,0-.25h.27Z"/><path class="cls-4" d="M25.52,13.29h-.2c-.06,0-.07,0-.07-.07a1.33,1.33,0,0,0,0-.2h.27Z"/><path class="cls-8" d="M25.53,12.74h.17c.1,0,.1,0,.1.08a1.21,1.21,0,0,0,0,.19h-.26Z"/><path class="cls-8" d="M25.8,11.94a.78.78,0,0,1,0,.26h-.25a1.62,1.62,0,0,0,0-.22,0,0,0,0,1,.05-.05Z"/><path class="cls-4" d="M25.25,12.2h-.2c-.06,0-.07,0-.07-.07a1.33,1.33,0,0,0,0-.2h.22s.06,0,.05.06Z"/><path class="cls-4" d="M25,11.66h-.2c-.06,0-.07,0-.07-.07v-.2H25Z"/><path class="cls-7" d="M27.69,15.19v.27c0,.15,0,.31,0,.47s0,.08-.06.07-.14,0-.19,0,0,.12,0,.19,0,.07-.08.07h-.46v-.73c0-.08,0-.08-.09-.08h-.18v-.54h.26a1.15,1.15,0,0,0,0-.26h.27a2.09,2.09,0,0,0,0,.25.77.77,0,0,0,.26,0h0a1.47,1.47,0,0,1,0,.21c0,.05,0,.07.07.07Z"/><path class="cls-5" d="M26.61,13.56v.27h-.54v-.27Z"/><path class="cls-4" d="M26.34,14.65h-.22s-.05,0-.05-.05V14.1h.2c.06,0,.07,0,.07.08Z"/><path class="cls-8" d="M27.42,14.91a.77.77,0,0,1-.26,0,2.09,2.09,0,0,1,0-.25h.27Z"/><path class="cls-4" d="M26.07,14.1a1.22,1.22,0,0,1-.27,0v-.26h.28Z"/><path class="cls-8" d="M26.61,15.46h.18c.09,0,.09,0,.09.08v.19h-.27Z"/><path class="cls-8" d="M26.88,14.65a1.15,1.15,0,0,1,0,.26h-.26v-.23s0,0,.05,0Z"/><path class="cls-4" d="M26.61,16H26.4s-.07,0-.06-.07v-.2h.27Z"/><path class="cls-5" d="M28,16.81a.78.78,0,0,0-.26,0v.25h-.54v-.55c.11,0,.23,0,.34,0s.15,0,.19,0,0-.12,0-.18,0-.07.07-.07H28Z"/><path class="cls-4" d="M27.15,17.63H27c-.06,0-.07,0-.07-.07v-.48h.27Z"/><path class="cls-4" d="M26.88,19.53v-.48c0-.05,0-.07.07-.07h.2v.55Z"/><path class="cls-5" d="M12.78,29.29a1.22,1.22,0,0,0-.27,0v.26h-.06c-.06,0-.15,0-.19,0s0,.13,0,.19,0,.07-.07.07-.15,0-.19,0A.27.27,0,0,0,12,30c0,.06,0,.08-.07.07h-.21v-.21c0-.05,0-.06-.06-.06h-.48v-.27h.47c.05,0,.08,0,.08-.07s0-.14,0-.18.13,0,.2,0,.07,0,.07-.07a2.54,2.54,0,0,1,0-.39c0-.08,0-.08.08-.08s.13,0,.17,0,0-.12,0-.18,0-.08.08-.09.13,0,.17,0,0-.11,0-.17,0-.08.08-.09.13,0,.17,0,0-.11,0-.18,0-.08.08-.08.13,0,.17,0,0-.12,0-.18,0-.08.08-.08.13,0,.17,0,0-.12,0-.18,0-.08.08-.08.14,0,.17,0,0-.12,0-.18,0-.08.08-.08.15,0,.18,0,0-.12,0-.19,0-.06-.07-.06-.15,0-.19,0,0-.13,0-.2,0-.05.06-.05h.49a2.09,2.09,0,0,0,0,.25,1.06,1.06,0,0,0,.25,0h.23s.06,0,.06,0v.22a1.22,1.22,0,0,0-.27,0v.26a.82.82,0,0,0-.27,0v.25a.78.78,0,0,0-.26,0v.25c-.08,0-.18,0-.26,0v.25h-.25a.78.78,0,0,0,0,.26v.28a1.11,1.11,0,0,0-.26,0V29a1.22,1.22,0,0,0-.27,0Z"/><path class="cls-1" d="M11.69,30.37a1.15,1.15,0,0,1-.26,0V30.1h.27Z"/><path class="cls-1" d="M12,30.64v-.27a.78.78,0,0,1,.26,0v.25Z"/><path class="cls-8" d="M23.36,5.69h.27V7.05h-.25a1.1,1.1,0,0,0,0,.26h-.53a1.55,1.55,0,0,1,0-.22s0,0,0,0h-.22V6.78H23c.08,0,.08,0,.08-.08s0-.14,0-.18.12,0,.18,0,.08,0,.08-.08S23.36,5.94,23.36,5.69Z"/><path class="cls-5" d="M23.35,7.32a1.1,1.1,0,0,1,0-.26h.25v.27Z"/><path class="cls-8" d="M14.14,26.58h-.49s-.06,0-.06.05,0,.15,0,.2.13,0,.19,0,.08,0,.07.06,0,.14,0,.19-.11,0-.18,0-.07,0-.08.08,0,.14,0,.18-.11,0-.17,0-.07,0-.08.08,0,.14,0,.18-.11,0-.17,0-.08,0-.08.08,0,.14,0,.18-.11,0-.17,0-.08,0-.08.08,0,.15,0,.18-.11,0-.17,0-.08,0-.08.09,0,.14,0,.17-.11,0-.17,0-.08,0-.08.09,0,.14,0,.18-.12,0-.17,0-.08,0-.08.08a2.54,2.54,0,0,0,0,.39c0,.06,0,.07-.07.07s-.16,0-.2,0,0,.12,0,.18,0,.07-.08.07h-.74V29.3a1.11,1.11,0,0,0-.26,0h0v-.61c0-.23,0-.23-.22-.21,0,0-.05,0-.05.05v.15c0,.07,0,.07-.07.08H9.53v-.27h0c.07,0,.16,0,.21,0s0-.13,0-.2,0-.06.06-.06.15,0,.2,0,0-.13,0-.2,0-.06.06-.06h.27c.07,0,.15,0,.2,0s0-.12,0-.18,0-.07.06-.07H11c.06,0,.14,0,.19,0s0-.12,0-.18,0-.07.08-.07h.27c.06,0,.14,0,.18,0s0-.11,0-.17,0-.08.08-.08.13,0,.17,0,0-.12,0-.18,0-.08.08-.08.14,0,.18,0,0-.12,0-.18,0-.08.08-.08.13,0,.17,0,0-.12,0-.18,0-.08.08-.09.14,0,.18,0,0-.12,0-.19,0-.07-.08-.07h-.41s0,0,0-.05,0-.15,0-.2-.14,0-.21,0-.06,0-.06-.06a1.22,1.22,0,0,0,0-.27c0-.07,0-.16,0-.2s-.12,0-.19,0-.07,0-.07-.07,0-.25,0-.37,0-.1-.09-.1h-.78c-.07,0-.15,0-.2,0s0-.12,0-.18,0-.07-.08-.07h-.41s0,0,0-.06,0-.15,0-.19-.14,0-.21,0-.06,0,0-.06,0-.15,0-.19-.14,0-.21,0-.06,0-.06-.06,0-.15,0-.2-.13,0-.2,0-.06,0-.06-.06V23.2c0-.15,0-.15.15-.15s.12,0,.12.12a.33.33,0,0,1,0,.1s0,.05.06.05.15,0,.19,0,0,.14,0,.21,0,.05.06.05.15,0,.2,0,0,.14,0,.21,0,.06.06.05h.3c.06,0,.13,0,.17,0s0,.11,0,.16,0,.1.09.1h.92c.05,0,.08,0,.08.07a.31.31,0,0,0,0,.19c0,.05.13,0,.2,0s.07,0,.07.06a.3.3,0,0,0,0,.19c0,.05.12,0,.19,0s.07,0,.07.08v.4s0,.06,0,.06.15,0,.2,0,0,.14,0,.21,0,0,.05,0,.15,0,.2,0,0,.14,0,.21,0,.05.06.05h.28c.06,0,.15,0,.19,0s0,.12,0,.18,0,.08.07.08h.28c.06,0,.14,0,.18,0s0,.11,0,.17,0,.08.08.08h1.55v.27Zm-.82-.13c0-.15,0-.15-.14-.14h-.1a0,0,0,0,0,0,0c0,.08,0,.16,0,.22s.12,0,.18,0h0s.05,0,.05,0Z"/><path class="cls-7" d="M24.17,8.41h1.08a2,2,0,0,0,0,.25.82.82,0,0,0,.27,0h0c0,.15,0,.31,0,.47s0,.08-.07.07-.14,0-.19,0,0,.13,0,.19,0,.08-.06.07-.14,0-.19,0,0,.13,0,.19,0,.07-.08.07h-.73V9.3c0-.08,0-.08-.09-.08H23.9V8.68h.2s.07,0,.07-.07Z"/><path class="cls-8" d="M24.17,8.41v.2c0,.06,0,.07-.07.07h-.2V8.41Z"/><path class="cls-8" d="M25.53,8.68a.82.82,0,0,1-.27,0,2,2,0,0,1,0-.25h.28Z"/><path class="cls-8" d="M28,16.27h-.2c-.06,0-.07,0-.07.07s0,.14,0,.18-.13,0-.19,0-.23,0-.34,0h-.27v-.27h.46c.08,0,.08,0,.08-.07s0-.15,0-.19.13,0,.19,0,.07,0,.06-.07,0-.32,0-.47H28Z"/><path class="cls-8" d="M26.61,13.29a1.22,1.22,0,0,1,0-.27h.26v.27Z"/><path class="cls-8" d="M26.88,12.48h-.21c-.05,0-.06,0-.06-.08v-.2h.27Z"/><path class="cls-5" d="M26.61,13.29h.27v.27h-.27v-.27Z"/><path class="cls-5" d="M22.82,7.32h.54v.27h-.54V7.32Z"/><path class="cls-4" d="M22.81,7.86a.76.76,0,0,1-.26,0V7.59h.27Z"/><path class="cls-4" d="M23.08,8.14h-.21c-.05,0-.06,0-.06-.06V7.86H23s0,0,0,0Z"/><path class="cls-4" d="M23.35,8.68h-.2c-.06,0-.07,0-.07-.07s0-.14,0-.2h.26Z"/><path class="cls-8" d="M24.17,9.76h.73c.08,0,.08,0,.08-.07s0-.15,0-.19.13,0,.19,0,.06,0,.06-.07,0-.15,0-.19.13,0,.19,0,.07,0,.07-.07,0-.32,0-.47h.28v.81h-.25a.77.77,0,0,0,0,.26V10h-.25a.82.82,0,0,0,0,.27h-.81v-.25a1.1,1.1,0,0,0-.26,0Z"/><path class="cls-5" d="M25.53,9.76a.77.77,0,0,1,0-.26h.25v.27Z"/><path class="cls-7" d="M23.36,5.69c0,.25,0,.5,0,.74s0,.08-.08.08-.14,0-.18,0,0,.12,0,.18,0,.08-.08.08h-.46v-.2s0-.08-.06-.07h-.21V6.25a1.11,1.11,0,0,0-.26,0h0V6a2.26,2.26,0,0,0,.26,0,1.22,1.22,0,0,0,0-.27h.2c.05,0,.08,0,.07-.07v-.2h.54a2.09,2.09,0,0,0,0,.25.82.82,0,0,0,.27,0Z"/><path class="cls-8" d="M22.54,5.43v.2c0,.06,0,.07-.07.07h-.2V5.42Z"/><path class="cls-8" d="M23.36,5.69a.82.82,0,0,1-.27,0,2.09,2.09,0,0,1,0-.25h.28Z"/><path class="cls-4" d="M21.73,5.7h-.21c-.05,0-.07,0-.06-.07V5.42h.27Z"/><path class="cls-8" d="M22.27,5.69a1.22,1.22,0,0,1,0,.27A2.26,2.26,0,0,1,22,6V5.74s0,0,0,0Z"/><path class="cls-4" d="M22,6.51h-.21c-.05,0-.07,0-.06-.07v-.2H22Z"/><path class="cls-8" d="M16.58,26v.27H15.49v-.21c0-.05,0-.06.06-.06h1Z"/><path class="cls-8" d="M13.86,15.19h.06c.06,0,.15,0,.19,0s0,.12,0,.19,0,.08.07.07h0c.06,0,.14,0,.17,0s0,.11,0,.17V16s0,.05.05.05h0c.06,0,.14,0,.18,0a.46.46,0,0,1,0,.17v1.08c0,.08,0,.08.08.09s.14,0,.18,0,0,.11,0,.17V20s0,.06.05.06c.22,0,.22,0,.22-.2v-.29s0-.06,0,0h0c.06,0,.13,0,.17,0s0-.11,0-.16V19s0-.06,0-.06.17,0,.21,0,0-.13,0-.19,0-.06.05-.06.16,0,.2,0,0,.13,0,.19,0,.08.07.07h0c.05,0,.13,0,.16,0s0,.1,0,.16,0,.21,0,.31,0,.05.06.06.16,0,.2,0,0,.12,0,.19a.05.05,0,0,0,.06.06c.07,0,.16,0,.2,0s0,.13,0,.19,0,.06,0,.06.16,0,.2,0,0,.13,0,.19,0,.06.05.06.16,0,.21,0,0,.13,0,.2,0,.05.05.05.17,0,.21,0,0,.13,0,.2,0,.05.05.05.17,0,.21,0,0,.13,0,.2,0,0,.06,0,.16,0,.2,0,0,.13,0,.2,0,.05.06.05.16,0,.2,0,0,.13,0,.2,0,.05.06.06.16,0,.2,0,0,.12,0,.19a.05.05,0,0,0,.06.06h.42c.05,0,.08,0,.07.07v0c0,.06,0,.14,0,.18a.44.44,0,0,0,.17,0h.3s0,0,0,.05,0,.16,0,.21.13,0,.2,0,.05,0,.05,0v.22h-.25c0,.08,0,.17,0,.26h-.26a1.11,1.11,0,0,0,0,.26H19a.7.7,0,0,0,0,.25,2.62,2.62,0,0,0,0,.28h-.25a.82.82,0,0,0,0,.27v.54h-.23s-.05,0-.05,0V25H18.2V23.39c0-.06,0-.07-.07-.07s-.14,0-.18,0,0-.13,0-.19,0-.07-.07-.07-.15,0-.19,0,0-.13,0-.2v0h.08c.2,0,.2,0,.19-.21,0,0,0-.06-.06-.06h-.21v-.23s0,0-.05,0h-.22V22s0,0-.05,0h-.22v-.23a0,0,0,0,0-.05,0h-.22v-.08c0-.21,0-.21-.21-.2-.05,0-.07,0-.07.06a1.55,1.55,0,0,1,0,.22h-.06c-.07,0-.15,0-.2,0s0-.12,0-.19,0-.07-.07-.07H15c-.06,0-.07,0-.07.07v.41c0,.05,0,.07-.07.07s-.15,0-.19,0,0,.13,0,.19v.06c0,.08,0,.17,0,.25a.78.78,0,0,1-.26,0v-.82h.23s0,0,0,0V19.72c0-.22,0-.21-.23-.2,0,0,0,0,0,.05V21.7h-.19c-.08,0-.09,0-.09.1s0,.48,0,.72h-.27c0-.05,0-.1,0-.15v-4c0-.06,0-.15,0-.19s-.12,0-.18,0-.07,0-.07-.08v-.53c0-.06,0-.15,0-.19a.27.27,0,0,0-.18,0c-.05,0-.07,0-.07-.07v-.53c0-.07,0-.16,0-.21s-.12,0-.18,0h0s-.06,0-.06-.05v-.3c0-.06,0-.14,0-.18s-.11,0-.17,0-.08,0-.08-.08v-.66c0-.06,0-.08-.07-.07s-.14,0-.18,0,0-.13,0-.2,0-.07-.07-.07a.27.27,0,0,1-.18,0c-.06,0,0-.12,0-.19s0-.07-.07-.07-.16,0-.19,0,0-.13,0-.19,0,0,0-.06h.75s.07,0,.07.07,0,.14,0,.18.13,0,.19,0,.07,0,.07.07,0,.16,0,.19.13,0,.2,0h.05v.25c.08,0,.17,0,.26,0h0v.48s0,.06.06.06h.21v.89c0,.06,0,.14,0,.18s.12,0,.18,0,.07,0,.07-.07c0-.25,0-.5,0-.74v-.26a1.22,1.22,0,0,0-.27,0v-.54Zm.55,2.3v-.21c0-.2,0-.2-.21-.2,0,0-.07,0-.07.07s0,.37,0,.56,0,.19.21.19c.05,0,.07,0,.07-.07S14.41,17.61,14.41,17.49Z"/><path class="cls-5" d="M19.29,23.32h.27v.27a1.22,1.22,0,0,1-.27,0Z"/><path class="cls-5" d="M18.75,24.14a.82.82,0,0,1,0-.27H19v.28Z"/><path class="cls-8" d="M23.9,8.68V9h-.26a.82.82,0,0,1,0-.27Z"/><path class="cls-4" d="M23.62,9.22h-.2c-.06,0-.07,0-.07-.07a1.34,1.34,0,0,0,0-.2h.27Z"/><path class="cls-4" d="M26.61,20.34a1.11,1.11,0,0,1,0-.26h.26v.27Z"/><path class="cls-4" d="M24.71,22v-.2c0-.06,0-.07.07-.07H25V22Z"/><path class="cls-4" d="M25.79,21.42a1.48,1.48,0,0,0,0-.21c0-.05,0-.06.05-.06h.22v.27Z"/><path class="cls-4" d="M25.25,21.69a1.34,1.34,0,0,0,0-.2c0-.06,0-.07.07-.07h.21v.26Z"/><path class="cls-4" d="M19,1.09a1.47,1.47,0,0,0-.21,0A.05.05,0,0,1,18.74,1a1.55,1.55,0,0,0,0-.22H19Z"/><path class="cls-4" d="M19.29,1.63h-.23s0,0,0,0V1.35h.27Z"/><path class="cls-4" d="M19.56,1.9h-.22s-.05,0-.05-.06V1.63h.27Z"/><path class="cls-4" d="M19.83,2.44h-.21c-.05,0-.06,0-.06-.07v-.2h.27Z"/><path class="cls-4" d="M20.1,3h-.22s-.05,0-.05,0V2.71h.27Z"/><path class="cls-4" d="M20.37,3.26h-.22s0,0,0,0V3h.27Z"/><path class="cls-4" d="M20.64,3.8h-.2c-.06,0-.07,0-.07-.07V3.52h.27Z"/><path class="cls-4" d="M20.91,4.34h-.22a0,0,0,0,1-.05,0V4.07h.27Z"/><path class="cls-8" d="M17.66,25.49v.27h-.55a1.34,1.34,0,0,0,0-.2c0-.06,0-.07.07-.07Z"/><path class="cls-8" d="M17.12,26h-.55a1.34,1.34,0,0,0,0-.2c0-.06,0-.07.07-.07h.48Z"/><path class="cls-4" d="M21.18,4.61H21a.05.05,0,0,1-.06-.06,1.47,1.47,0,0,0,0-.21h.28Z"/><path class="cls-4" d="M21.45,5.15h-.2c-.06,0-.07,0-.07-.07a1.27,1.27,0,0,0,0-.2h.27Z"/><path class="cls-5" d="M25.25,10.31a.82.82,0,0,1,0-.27h.25v.27Z"/><path class="cls-5" d="M24.44,10.3h.81v.27a1.11,1.11,0,0,0-.26,0v.26h-.27v-.23s0,0-.05,0h-.22Z"/><path class="cls-4" d="M24.71,11.12c-.09,0-.18,0-.26,0v-.25h.27Z"/><path class="cls-8" d="M27.69,15.19h-.2c-.06,0-.07,0-.07-.07a1.47,1.47,0,0,0,0-.21h.27Z"/><path class="cls-4" d="M26.34,20.88a1.11,1.11,0,0,1,0-.26h.26v.27Z"/><path class="cls-4" d="M18.75.81h-.23s-.05,0-.05,0V.54h.27Z"/><path class="cls-4" d="M26.07,21.15v-.22s0-.05,0-.05h.23v.27Z"/><path class="cls-5" d="M19.83,23.05c0-.09,0-.18,0-.26h.25v.27Z"/><path class="cls-5" d="M19.56,23.32a1.11,1.11,0,0,1,0-.26h.26v.27Z"/><path class="cls-8" d="M18.2,25.22h-.27V25S18,25,18,25h.22Z"/><path class="cls-8" d="M17.93,25.49h-.27v-.22s0-.05.05-.05h.22Z"/><path class="cls-1" d="M11.69,30.92v-.23a0,0,0,0,1,.05-.05H12v.27Z"/><path class="cls-1" d="M11.42,31.19V31s0-.05.05,0h.22v.27Z"/><path class="cls-1" d="M11.15,31.46v-.23s0,0,0,0h.22v.27Z"/><path class="cls-7" d="M17.93,25.22h-.22s-.05,0-.05.05v.22h-.47c-.06,0-.08,0-.07.07a1.34,1.34,0,0,1,0,.2h-.47c-.05,0-.07,0-.07.07a1.34,1.34,0,0,1,0,.2h-1s-.06,0-.06.06v.21H13.94c-.07,0-.07,0-.08-.08s0-.13,0-.17-.12,0-.18,0h-.28c-.06,0-.07,0-.07-.08s0-.14,0-.18-.13,0-.19,0h-.28s-.06,0-.06-.05,0-.17,0-.21-.13,0-.2,0-.05,0-.05,0,0-.17,0-.21-.13,0-.2,0,0,0,0-.06v-.4c0-.08,0-.08-.07-.08s-.16,0-.19,0a.3.3,0,0,1,0-.19s0-.06-.07-.06-.16,0-.2,0a.31.31,0,0,1,0-.19c0-.06,0-.07-.08-.07H10.7c-.1,0-.09,0-.09-.1s0-.12,0-.16-.11,0-.17,0h-.3s-.06,0-.06-.05,0-.16,0-.21-.13,0-.2,0,0,0-.06-.05,0-.17,0-.21-.13,0-.19,0-.06,0-.06-.05a.33.33,0,0,0,0-.1c0-.14,0-.12-.12-.12s-.15,0-.15.15v.33s0,.06.06.06.16,0,.2,0,0,.14,0,.2,0,.05.06.06.16,0,.21,0,0,.13,0,.19,0,.05,0,.06.16,0,.21,0,0,.13,0,.19,0,.06,0,.06h.41c.08,0,.08,0,.08.07s0,.14,0,.18.13,0,.2,0h.78c.11,0,.09,0,.09.1s0,.25,0,.37,0,.07.07.07.15,0,.19,0,0,.13,0,.2a1.22,1.22,0,0,1,0,.27s0,.06.06.06.16,0,.21,0,0,.13,0,.2,0,.05,0,.05h.41c.08,0,.08,0,.08.07s0,.14,0,.19-.12,0-.18,0-.08,0-.08.09,0,.14,0,.18-.12,0-.17,0-.08,0-.08.08,0,.14,0,.18-.12,0-.18,0-.07,0-.08.08,0,.14,0,.18-.11,0-.17,0-.07,0-.08.08,0,.13,0,.17-.12,0-.18,0h-.27c-.08,0-.08,0-.08.07s0,.14,0,.18-.13,0-.19,0h-.28c-.05,0-.06,0-.06.07s0,.14,0,.18-.13,0-.2,0h-.27s-.06,0-.06.06,0,.16,0,.2-.14,0-.2,0,0,0-.06.06,0,.17,0,.2-.14,0-.21,0H9.25v-.25a1.18,1.18,0,0,0-.26,0A1.48,1.48,0,0,1,9,28s0-.06-.05-.06H8.71v-.22s0-.05-.05-.05H8.44a2.26,2.26,0,0,0,0-.26,1.15,1.15,0,0,0-.26,0H7.9v-.26a1.11,1.11,0,0,0-.26,0V26.9s0,0-.06,0H7.36a1.47,1.47,0,0,1,0-.21s0-.05-.06-.05H7.09c0-.07,0-.14,0-.21s0-.06,0-.06H6.82a1.48,1.48,0,0,1,0-.21s0-.06,0-.06H6.54v-.21s0-.06,0-.06H6.27v-.21s0-.06,0-.06H6v-.22s0-.05,0-.05H5.73v-.54a2.26,2.26,0,0,0,.26,0,1.15,1.15,0,0,0,0-.26h.22s0,0,0-.05v-.49h.18c.09,0,.09,0,.09-.08v-.46h.17c.1,0,.09,0,.09-.08v-.46H7c.1,0,.1,0,.09-.08V22h.17c.1,0,.1,0,.1-.09a1.15,1.15,0,0,1,0-.19c0-.31,0-.62,0-.93v-.15H7.9v.48s0,.07.06.06h.21v.2c0,.07,0,.08.08.07.24,0,.18,0,.19-.19,0-.05,0-.08-.07-.08a1.34,1.34,0,0,1-.2,0v-.48s0-.06-.06-.06H7.9v-3.2c0-.05,0-.06-.07-.05h-.2V15.73h.18c.09,0,.09,0,.09-.09a1.09,1.09,0,0,0,0-.18v-.81h.18c.09,0,.09,0,.09-.08v-.73h.18c.09,0,.09,0,.09-.08v-.46h.18c.09,0,.09,0,.09-.09v-.45H9a1.22,1.22,0,0,0,0-.27h.23s0,0,0,0V12.2h.23s0,0,0,0v-.23h.23s.05,0,.05,0a1.77,1.77,0,0,1,0-.23H10c.05,0,.07,0,.07-.06a1.47,1.47,0,0,1,0-.21h.49s0,0,0-.05v-.22h.2s.08,0,.07-.07v-.2h.5s0,0,0,0v-.22h.2c.05,0,.08,0,.08-.07a.67.67,0,0,1,0-.2h.49a0,0,0,0,0,.05-.05V10h.22s0,0,0,0V9.76h.22s0,0,0,0V9.49h.48s.06,0,.06-.06V9.22h.23s0,0,0-.05V8.68a1.07,1.07,0,0,0,.25,0,.77.77,0,0,0,0-.26V7.86h.54c0,.07,0,.14,0,.21s0,.06.05.06h.21v1c0,.1,0,.2,0,.3s0,.06-.06.06h-.17s0,0,0,0v.09c0,.21,0,.41,0,.61,0,0,0,.07-.06.07h-.14c-.07,0-.07,0-.07.07a2.67,2.67,0,0,0,0,.4c0,.05,0,.07-.06.07s-.15,0-.2,0,0,.14,0,.21,0,0,0,0h-.49v-.2c0-.06,0-.08-.08-.07-.24,0-.18,0-.19.19,0,.06,0,.08.07.08h.2v.32c0,.07,0,.15,0,.2s-.13,0-.19,0h0s0,0,0,.05V12c0,.06,0,.15,0,.19s-.13,0-.19,0h0s-.05,0-.05.06v.31a.42.42,0,0,1,0,.16s-.11,0-.17,0-.09,0-.09.09v.65s0,.07-.06.07-.15,0-.19,0,0,.14,0,.21,0,.05-.06.05h-.3c-.05,0-.13,0-.17,0s0,.12,0,.18,0,.08-.08.08H10.54c-.22,0-.22,0-.2.22h0s0,0,0,0H12s0,0,0,.06,0,.15,0,.19.12,0,.19,0,.07,0,.07.07,0,.15,0,.19a.27.27,0,0,0,.18,0c.05,0,.07,0,.07.07s0,.16,0,.2.12,0,.18,0,.07,0,.07.07v.66c0,.08,0,.08.08.08S13,16,13,16s0,.12,0,.18v.3s0,.06.06.05h0c.06,0,.15,0,.18,0s0,.14,0,.21v.53c0,.06,0,.07.07.07a.27.27,0,0,1,.18,0s0,.13,0,.19v.53c0,.08,0,.08.07.08s.15,0,.18,0,0,.13,0,.19v4c0,.05,0,.1,0,.15v.27h-.2c-.06,0-.07,0-.07.08v.46h-.22s0,0,0,.05v.22H13.1s0,0,0,.05v.22a1.34,1.34,0,0,1-.2,0c-.06,0-.07,0-.07.08,0,.24,0,.19.19.2.06,0,.09,0,.08-.08v-.2h.22s.05,0,.05,0v-.23h.23s0,0,0,0v-.23h.2c.07,0,.08,0,.07-.07v0s0-.12,0-.16.1,0,.15,0,.11,0,.1-.1a1,1,0,0,1,0-.17h.22s.05,0,.05-.05v-.22h0a.78.78,0,0,0,.26,0c0-.08,0-.17,0-.25v-.06c0-.06,0-.15,0-.19s.12,0,.19,0S15,22,15,21.9v-.41s0-.07.07-.07h1.22c.05,0,.07,0,.07.07s0,.16,0,.19.13,0,.2,0h.05a1.77,1.77,0,0,1,0,.23s0,0,0,0h.23v.22s0,0,0,0h.23v.22s0,.05,0,.05h.23v.22s0,.05.05.05h.22v0c0,.07,0,.15,0,.2s.13,0,.19,0,.07,0,.07.07,0,.15,0,.19.12,0,.18,0,.07,0,.07.07V25H18s-.06,0-.06.05Zm-6.78,1.09h.06c.06,0,.15,0,.19,0s0-.12,0-.19,0-.07.07-.07.16,0,.19,0,0-.13,0-.19,0-.06,0-.06h-.7s-.06,0-.06.06V26h-.26a1.15,1.15,0,0,0,0,.26h-.22s-.05,0-.05.06v.28c0,.07,0,.15,0,.19s-.12,0-.18,0h0s0,0,0,0v.29c0,.22,0,.22.21.2,0,0,.06,0,.06-.05s0-.16,0-.2.13,0,.2,0,.06,0,.06-.05,0-.16,0-.2.13,0,.21,0,.05,0,.05-.06v-.21h.26A1.15,1.15,0,0,0,11.15,26.31Z"/><path class="cls-8" d="M7.9,20.61H7.36v-.27a.82.82,0,0,0,.27,0c0-.08,0-.16,0-.25V17.35h.2s.07,0,.07.05v3.2Z"/><path class="cls-8" d="M7.89,15.46a1.09,1.09,0,0,1,0,.18c0,.09,0,.09-.09.09H7.63v-.27Z"/><path class="cls-1" d="M5.46,25.49H4.91v-.27h.54v.27Z"/><path class="cls-8" d="M6,24.41a1.15,1.15,0,0,1,0,.26,2.26,2.26,0,0,1-.26,0v-.27Z"/><path class="cls-2" d="M5.19,25.22H4.92V25a1.15,1.15,0,0,1,.26,0Z"/><path class="cls-8" d="M5.73,25v.27H5.46a.75.75,0,0,1,0-.26Z"/><path class="cls-8" d="M7.35,21.69a1.15,1.15,0,0,0,0,.19c0,.09,0,.09-.1.09H7.09v-.28Z"/><path class="cls-8" d="M8.17,14.37v.19c0,.08,0,.09-.09.08H7.9v-.28Z"/><path class="cls-6" d="M18.2,4.34a1.22,1.22,0,0,0,0-.27h-.26V3.59s0-.07-.07-.07h-.2V3.05s0-.07-.07-.07a1.33,1.33,0,0,1-.2,0c0-.09,0-.18,0-.26h-.25V2.24c0-.06,0-.07-.07-.07h-.2c0-.16,0-.32,0-.47s0-.08-.07-.07h-.2V.81h.27v.33c0,.07,0,.15,0,.2s.12,0,.19,0h0s.06,0,.06,0a2.43,2.43,0,0,0,0,.27c0,.07,0,.16,0,.21s.12,0,.18,0h0s.06,0,.06.05v.27c0,.07,0,.16,0,.21s.12,0,.18,0h0s.06,0,.06.05,0,.16,0,.2.14,0,.21,0,.05,0,.05.06V3c0,.07,0,.16,0,.2s.12,0,.18,0h0s.05,0,.05.06v.27c0,.07,0,.16,0,.2s.12,0,.18,0h0s0,0,0,.05,0,.15,0,.2.13,0,.2,0,.06,0,.06,0a1.22,1.22,0,0,0,0,.27c0,.07,0,.16,0,.21s.12,0,.19,0h0s.06,0,.06,0V5.1s0,.05-.06.05h-.21a1.14,1.14,0,0,0,0-.26h-.26V4.41c0-.06,0-.08-.06-.07Z"/><path class="cls-4" d="M18.75,5.15H19s.06,0,.06-.05V4.66s0,0-.06,0h0c-.07,0-.15,0-.19,0s0-.14,0-.21a1.22,1.22,0,0,1,0-.27s0,0-.06,0-.16,0-.2,0,0-.13,0-.2,0-.06,0-.05h0c-.06,0-.14,0-.18,0s0-.13,0-.2V3.31s0-.06-.05-.06h0c-.06,0-.14,0-.18,0s0-.13,0-.2V2.77s0-.06-.05-.06-.17,0-.21,0,0-.13,0-.2,0-.05-.06-.05h0c-.06,0-.14,0-.18,0s0-.14,0-.21V2s0-.06-.06-.05h0c-.06,0-.15,0-.18,0s0-.14,0-.21a2.43,2.43,0,0,1,0-.27s0-.06-.06,0h0c-.07,0-.16,0-.19,0s0-.13,0-.2V.81h.27V.87c0,.06,0,.15,0,.19s.13,0,.19,0,.07,0,.07.07,0,.15,0,.19.12,0,.18,0,.07,0,.07.07v.41s0,.08.07.07h0c.06,0,.14,0,.18,0s0,.11,0,.17v.3s0,0,.06,0h0c.06,0,.15,0,.18,0s0,.12,0,.18v.29s0,0,.06,0,.16,0,.2,0,0,.13,0,.2,0,.06.06,0h0c.07,0,.15,0,.18,0s0,.12,0,.19a1.31,1.31,0,0,1,0,.28.05.05,0,0,0,.06.06c.07,0,.16,0,.2,0S19,4,19,4s0,.06.05.06h0c.06,0,.14,0,.17,0s0,.12,0,.18v.28s0,.06.05.06h0c.06,0,.13,0,.17,0s0,.1,0,.15V5.1s0,.05,0,.05-.17,0-.21,0,0,.13,0,.2,0,0-.07,0h-.47Z"/><path class="cls-4" d="M18.74,5.69a1.77,1.77,0,0,0,0,.23,0,0,0,0,1-.05,0h-.23V5.7Z"/><path class="cls-3" d="M13.05,7.32V6.85s0-.08-.07-.07h-.2V6.51H13a1.15,1.15,0,0,0,0-.26h.27v.62c0,.2,0,.2.2.19s.07,0,.07-.07V6.25a1.22,1.22,0,0,0-.27,0V6h.54v.62c0,.2,0,.2.21.19,0,0,.07,0,.07-.07s0-.31,0-.47V6a1.22,1.22,0,0,0-.27,0V5.7h.55v.62c0,.2,0,.2.2.19s.07,0,.07-.07,0-.15,0-.19.13,0,.19,0H15v.54h-.47c-.05,0-.08,0-.08.07a.67.67,0,0,1,0,.2h-.47s-.07,0-.07.07a1.33,1.33,0,0,1,0,.2h-.81Z"/><path class="cls-4" d="M13.05,6.24a1.15,1.15,0,0,1,0,.26h-.26V6.24Z"/><path class="cls-4" d="M12.78,6.78H13c.06,0,.07,0,.07.07v.2h-.27Z"/><path class="cls-6" d="M15.49,5.69h.27v.54h-.27Z"/><path class="cls-4" d="M15,6.78V6.24h.27v.54H15Z"/><path class="cls-6" d="M15.22,6.51V6.24h.27a1.11,1.11,0,0,1,0,.26Z"/><path class="cls-6" d="M15.22,6.78h.27v.27h-.27V6.78Z"/><path class="cls-4" d="M15.49,7.05V6.78h.27v.27h-.27Z"/><path class="cls-8" d="M7.08,22.51v.19c0,.08,0,.08-.09.08H6.82v-.27Z"/><path class="cls-8" d="M8.44,13.56v.19c0,.08,0,.08-.09.08H8.17v-.27Z"/><path class="cls-4" d="M13.05,7.32h.54v.27h-.54Z"/><path class="cls-9" d="M13.86,7.86v.55h-.27V7.87Z"/><path class="cls-10" d="M13.86,7.86H13.6V7.59h.27v.26Z"/><path class="cls-10" d="M13.59,8.13v.28h-.26V8.13Z"/><path class="cls-6" d="M17.12.81h-.27V.54h.27V.81Z"/><path class="cls-4" d="M17.12.81V.54h.27V.77s0,0-.05,0Z"/><path class="cls-8" d="M13.32,9.22v.21c0,.05,0,.06-.06.06h-.48V9.22h.54Z"/><path class="cls-10" d="M13.05,8.68h.27V9h-.27Z"/><path class="cls-9" d="M13.05,9h.27v.27h-.27Z"/><path class="cls-8" d="M6.81,23.05v.19c0,.08,0,.08-.09.08H6.55v-.27Z"/><path class="cls-8" d="M6.54,23.59v.19c0,.08,0,.09-.09.08H6.27v-.28Z"/><path class="cls-8" d="M6.27,24.13v.23s0,.05,0,.05H6v-.28Z"/><path class="cls-1" d="M4.91,25.49v.23s0,0,0,0H4.64v-.27Z"/><path class="cls-4" d="M14.41,5.7h-.28V5.42h.47c.05,0,.07,0,.07-.06a1.47,1.47,0,0,1,0-.21h.54v.27H15c-.06,0-.07,0-.07.07v.75h-.06c-.06,0-.15,0-.19,0s0,.13,0,.19,0,.07-.07.07-.2,0-.2-.19V6h.19c.08,0,.08,0,.08-.09a.47.47,0,0,0,0-.17s-.12,0-.18,0Z"/><path class="cls-4" d="M13.86,6h-.27V5.7h.27V6Z"/><path class="cls-4" d="M13.32,6v.27h-.27V6Z"/><path class="cls-4" d="M18.2,6v.2c0,.06,0,.07-.07.07h-.2V6Z"/><path class="cls-8" d="M11.7,10.31a.67.67,0,0,0,0,.2c0,.06,0,.07-.08.07h-.2V10.3Z"/><path class="cls-8" d="M12.24,10v.23a0,0,0,0,1-.05.05H12V10Z"/><path class="cls-4" d="M17.66,6.24v.2c0,.06,0,.07-.07.07h-.2V6.24Z"/><path class="cls-8" d="M10.88,10.85v.2c0,.06,0,.07-.07.07h-.2v-.27Z"/><path class="cls-8" d="M11.42,10.58v.22s0,0,0,0h-.23v-.26Z"/><path class="cls-4" d="M17.12,6.51a1.33,1.33,0,0,0,0,.2c0,.06,0,.07-.07.07h-.21V6.51Z"/><path class="cls-8" d="M10.07,11.39a1.47,1.47,0,0,0,0,.21c0,.05,0,.06-.07.06H9.79v-.27Z"/><path class="cls-8" d="M10.61,11.12v.22s0,.05,0,.05h-.22v-.27Z"/><path class="cls-4" d="M16.58,6.78a1.33,1.33,0,0,0,0,.2c0,.06,0,.07-.07.07H16.3V6.78Z"/><path class="cls-8" d="M8.71,13v.19c0,.09,0,.09-.09.09H8.44V13Z"/><path class="cls-8" d="M9,12.47a1.22,1.22,0,0,1,0,.27H8.72v-.28Z"/><path class="cls-4" d="M16,7.05v.21s0,.07-.07.06h-.2V7.05H16Z"/><path class="cls-9" d="M13.32,9V8.41h.26V9Z"/><path class="cls-4" d="M15.49,6.24h-.27V5.42h.27v.82Z"/><path class="cls-8" d="M12.78,9.49v.23s0,0,0,0h-.22V9.49Z"/><path class="cls-8" d="M12.51,9.76V10s0,0,0,0h-.22V9.76Z"/><path class="cls-8" d="M9.25,12.2v.23s0,.05,0,0H9V12.2Z"/><path class="cls-8" d="M9.52,11.93v.23s0,0,0,0H9.25v-.27Z"/><path class="cls-8" d="M9.8,11.66a1.77,1.77,0,0,0,0,.23s0,0-.05,0H9.52v-.27Z"/><path class="cls-1" d="M4.64,25.76V26s0,0,0,0H4.37v-.27Z"/><path class="cls-2" d="M9.52,29H9.25v-.23s0,0,.05,0h.23V29Z"/><path class="cls-2" d="M9.25,29a1.11,1.11,0,0,1,0,.26H9V29h.27Z"/><path class="cls-2" d="M9.8,29.29a.82.82,0,0,1-.27,0V29H9.8v.27Z"/><path class="cls-2" d="M9,29.29a1.11,1.11,0,0,1,0,.26H8.71v-.27H9Z"/><path class="cls-2" d="M8.44,29.83v-.27h.27v.22s0,0-.05,0Z"/><path class="cls-1" d="M8.17,29.56a1.22,1.22,0,0,1,0-.27h.26v.27H8.17Z"/><path d="M10.34,29.56h-.23s0,0,0,0v-.22h.54v.27h-.27Z"/><path d="M10.88,29.56h.27v.27h-.54v-.27h.27Z"/><path d="M11.69,30.1h-.54v-.27h.48s.07,0,.06.06Z"/><path d="M9.8,29.29V29h.25a.82.82,0,0,1,0,.27H9.8Z"/><path class="cls-1" d="M10.61,29.56v.27a1.22,1.22,0,0,1-.27,0v-.26Z"/><path class="cls-1" d="M11.15,29.83v.27a1.11,1.11,0,0,1-.26,0v-.26Z"/><path class="cls-4" d="M20.37,21.69h-.54v-.25c-.08,0-.17,0-.26,0h0v-.05c0-.07,0-.15,0-.2s-.13,0-.19,0h0s-.05,0-.05,0,0-.16,0-.2-.14,0-.21,0-.05,0-.05-.05,0-.16,0-.2-.13,0-.2,0-.06,0-.06-.05,0-.16,0-.2-.13,0-.2,0a.05.05,0,0,1-.06-.06c0-.06,0-.15,0-.19s-.13,0-.2,0A.05.05,0,0,1,18.2,20c0-.06,0-.15,0-.19s-.13,0-.21,0-.05,0-.05-.06v-.28c0-.07,0-.14,0-.19s-.12,0-.18,0h0s-.05,0-.05-.05,0-.15,0-.2-.14,0-.21,0-.05,0-.05-.05v-.29c0-.06,0-.14,0-.18s-.12,0-.18,0h0s-.05,0-.05-.05V18.1c0-.06,0-.14,0-.18s-.12,0-.18,0h0s0,0,0-.06,0-.15,0-.19-.13,0-.2,0a.05.05,0,0,1-.06-.06,2.62,2.62,0,0,0,0-.28c0-.07,0-.14,0-.19s-.11,0-.18,0h0s-.06,0-.06,0a1.41,1.41,0,0,0,0-.29c0-.06,0-.14,0-.18s-.12,0-.18,0h0c-.05,0-.06,0-.06-.05s0-.16,0-.2-.13,0-.21,0-.05,0-.05-.05V15.9c0-.05,0-.12,0-.15s-.11,0-.17,0h0s0,0,0-.06v-.31s0-.12,0-.16-.11,0-.17,0h0s0,0,0-.06,0-.15,0-.2-.14,0-.21,0-.05,0-.05-.06v-.31c0-.06,0-.12,0-.16s-.11,0-.17,0h0s-.05,0-.05,0V14c0-.06,0-.13,0-.16s-.11,0-.17,0h0s-.06,0-.05-.06v-.31c0-.05,0-.12,0-.15s-.12,0-.17,0h0s-.07,0-.07-.07c0-.25,0-.5,0-.75V12.2h.28v.52a1.23,1.23,0,0,0,.27,0,2.43,2.43,0,0,0,0,.27.75.75,0,0,0,0,.26H15v.25a.82.82,0,0,0,.27,0v.22s0,.05,0,.05h.22v.49s0,0,0,0,.17,0,.21,0,0,.13,0,.2,0,.06.05.05h0c.06,0,.15,0,.18,0s0,.12,0,.19v.28s0,.06.06.06h0c.06,0,.15,0,.18,0s0,.12,0,.18a1.31,1.31,0,0,1,0,.28.05.05,0,0,0,.06.06h0c.07,0,.15,0,.18,0s0,.12,0,.18a2.81,2.81,0,0,1,0,.29s0,.05.06.05.16,0,.2,0,0,.13,0,.2,0,.06,0,.05h0c.06,0,.14,0,.18,0s0,.12,0,.18V17s0,0,.05.06.16,0,.21,0,0,.13,0,.2,0,.06.05.06h0c.06,0,.14,0,.18,0s0,.13,0,.19v.28s0,.06.05.06.17,0,.21,0,0,.13,0,.19,0,.06.05.06h0c.06,0,.15,0,.18,0s0,.12,0,.18v.29s0,.06.06.05h0c.06,0,.15,0,.18,0s0,.12,0,.18v.29s0,.06.06.05h0c.07,0,.15,0,.18,0s0,.12,0,.19a1.31,1.31,0,0,1,0,.28.05.05,0,0,0,.06.06h0c.06,0,.14,0,.17,0s0,.12,0,.18v.28s0,.06.05.06.16,0,.2,0,0,.13,0,.2,0,.05.05.05.16,0,.21,0,0,.13,0,.2,0,.05.05.05.16,0,.21,0,0,.13,0,.2,0,0,.05,0,.17,0,.21,0,0,.13,0,.2,0,.06.06.05h0c.06,0,.15,0,.19,0s0,.13,0,.2Z"/><path d="M17.93,14.1H16.31v-.27h1.63Z"/><path class="cls-4" d="M15.49,7.32v.75s0,.07.07.07.15,0,.19,0,0,.13,0,.19v.06h-.22s0,0,0,0v.23h-.27V7.32Z"/><path d="M22.81,15.46a.82.82,0,0,1,.27,0v1.25c0,.11,0,.09-.09.09h-.18V15.46Z"/><path class="cls-4" d="M22.54,9.49h.21c.05,0,.06,0,.06.07v1.22c0,.05,0,.07-.06.07h-.21V9.49Z"/><path class="cls-4" d="M20.37,14.92h-.2c-.06,0-.07,0-.07-.07V13.63c0-.05,0-.08.07-.07h.2v1.35Z"/><path class="cls-4" d="M24.44,20.34h-.27v-.19c0-.08,0-.08-.09-.08h-.36c-.1,0-.1,0-.09-.09V19.8h.81Z"/><path class="cls-4" d="M25,18.17h.28v.54H25v-.2c0-.05,0-.07-.07-.07H24.5s-.06,0-.06-.05v-.22H25Z"/><path class="cls-4" d="M22.81,20.34H22.6c-.05,0-.06,0-.06-.06h0c0-.06,0-.15,0-.19s-.13,0-.2,0h-.27S22,20.06,22,20V19.8h.81v.54Z"/><path class="cls-4" d="M25.26,19.8H25v-.19c0-.08,0-.09-.09-.08s-.24,0-.36,0-.09,0-.09-.09v-.19h.82Z"/><path class="cls-4" d="M24.17,17.63h.27v.54h-.27V18c0-.06,0-.07-.07-.07h-.42s-.06,0-.05-.06v-.21h.54Z"/><path class="cls-4" d="M22,19.8h-.22s-.06,0-.05-.06h0c0-.06,0-.15,0-.18s-.14,0-.21,0a1.22,1.22,0,0,0-.27,0s-.06,0,0-.06v-.22H22v.54Z"/><path class="cls-4" d="M26.07,19.25H25.8a1.33,1.33,0,0,1,0-.2c0-.05,0-.07-.07-.07h-.42s-.06,0-.06-.05v-.22h.82Z"/><path class="cls-4" d="M23.63,20.88h-.27a1.1,1.1,0,0,0,0-.26h-.26a1.15,1.15,0,0,1-.26,0v-.26h.82Z"/><path d="M21.73,19.25h-.54v-.54h.27V19a1.22,1.22,0,0,0,.27,0Z"/><path d="M25.8,18.71h-.55v-.54h.26v.26a1.15,1.15,0,0,0,.26,0Z"/><path d="M22,18.17h.27v.26a1.11,1.11,0,0,0,.26,0v.27H22Z"/><path d="M24.44,18.17v-.54h.27v.25c.08,0,.17,0,.26,0v.27Z"/><path d="M23.09,13h.81v.27h-.82Z"/><path class="cls-4" d="M17.93,14.1v-.27h.82v0a1,1,0,0,1,0,.24h-.8Z"/><path d="M22.81,17.63h.27v.25a.78.78,0,0,0,.26,0v.27h-.54Z"/><path d="M19,15.46h.81v.27H19Z"/><path d="M24.17,17.63h-.54v-.54h.27v.25a.82.82,0,0,0,.27,0Z"/><path d="M16,13.83h-.54v-.27H16a1,1,0,0,1,.25,0,.75.75,0,0,1,0,.26H16Z"/><path d="M22.81,20.88h.27v.26a1.15,1.15,0,0,0,.26,0v.27h-.54Z"/><path d="M23.63,20.88v-.54h.27v.25a.82.82,0,0,0,.27,0v.27Z"/><path d="M24.17,13.29v.81H23.9v-.81h.27Z"/><path d="M24.44,20.34V19.8h.27v.25c.08,0,.17,0,.26,0v.27Z"/><path d="M19.29,6.51h.81v.27h-.81Z"/><path d="M23.9,14.37h-.81V14.1h.82Z"/><path d="M19.83,16.81H19v-.27h.81Z"/><path d="M25.26,19.8v-.54h.26v.25a.78.78,0,0,0,.26,0v.25a1.06,1.06,0,0,1-.25,0Z"/><path class="cls-4" d="M22.81,14.1H22.6c-.05,0-.06,0-.06,0v-.71s0-.05.06-.05h.21v.81Z"/><path class="cls-4" d="M18.74,16.54h-.21s-.06,0-.06-.05v-.71s0,0,.06,0h.22v.81Z"/><path d="M26.07,19.25v-.54h.27V19a1.22,1.22,0,0,0,.27,0v.26a.69.69,0,0,1-.25,0A2.62,2.62,0,0,1,26.07,19.25Z"/><path d="M20.1,15.73v.81h-.27v-.81h.27Z"/><path d="M20.1,13.29h-.81V13h.81Z"/><path d="M24.44,16.54h.27v.26c.08,0,.17,0,.26,0v.26h-.54Z"/><path d="M26.88,16.27v.27h-.27v-.81h.27Z"/><path class="cls-4" d="M22.81,21.42h.54a1.62,1.62,0,0,0,0,.22s0,.06-.05.06h-.45s-.05,0-.05-.06Z"/><path class="cls-4" d="M22,8.41h.26a1.22,1.22,0,0,1,0,.27V9H22V8.41Z"/><path class="cls-4" d="M22.27,9h.26a.75.75,0,0,1,0,.26,2.43,2.43,0,0,1,0,.27h-.27V9Z"/><path d="M23.62,9.22V9h.26v.54h-.27Z"/><path d="M24.17,9.76V10H23.9V9.49h.27Z"/><path d="M24.44,10.3v.28h-.27V10h0a1.1,1.1,0,0,1,.26,0Z"/><path d="M22.27,11.12v.27H22v-.54h.27Z"/><path d="M22,6.51V6.24a1.11,1.11,0,0,1,.26,0v.53H22Z"/><path class="cls-4" d="M20.1,6.78V6.51h.45c.11,0,.09,0,.09.1v.17H20.1Z"/><path d="M20.91,12.74h-.54v-.27h.55Z"/><path d="M25.52,13h.27v.54h-.27V13Z"/><path d="M18.75,6.78h.54v.27h-.54Z"/><path class="cls-4" d="M19.29,13.29h.54v.22s0,.05-.06.05h-.48v-.27Z"/><path d="M20.64,13.29h.54v.27h-.55Z"/><path d="M22.54,6.78v.54h-.27V6.78h.27Z"/><path class="cls-4" d="M19.29,13.56v.26a1.15,1.15,0,0,1-.26,0h-.28v-.27Z"/><path d="M15.49,7.32h-.27V7.05h.54v.27Z"/><path class="cls-4" d="M22.81,17.63v.54h-.27v-.48c0-.05,0-.07.06-.06Z"/><path d="M18.2,7.05h.54v.27H18.2Z"/><path d="M22,14.1v.54h-.27V14.1Z"/><path d="M21.73,14.91h-.54v-.28h.54Z"/><path d="M21.18,15.18h-.54v-.26h.55Z"/><path d="M17.66,7.32h.54v.27h-.54Z"/><path d="M22.27,15.19h.49s.06,0,0,.05v.22h-.54Z"/><path d="M21.73,15.46h.54v.27h-.54Z"/><path class="cls-4" d="M21.46,16.27h-.22s-.06,0,0-.05v-.44s0,0,0,0h.22v.54Z"/><path class="cls-4" d="M24.44,16.54v.54h-.27V16.6s0-.06.06-.06A1.47,1.47,0,0,0,24.44,16.54Z"/><path d="M26.88,16.54h.27v.55h-.27v-.54Z"/><path d="M17.12,7.59h.54v.27h-.54Z"/><path d="M22.81,16.81a1.22,1.22,0,0,1,0,.27h-.26a2.43,2.43,0,0,1-.27,0v-.27h.54Z"/><path class="cls-4" d="M23.63,17.09v.54h-.27c0-.16,0-.32,0-.48s0-.07.06-.07Z"/><path class="cls-4" d="M21.46,7.59h.21a.05.05,0,0,1,.06.06v.48h-.27V7.59Z"/><path class="cls-4" d="M24.44,17.08H25v.22s0,.06-.05.06h-.44s0,0,0-.06Z"/><path d="M16.58,7.87h.54v.28h-.55Z"/><path class="cls-4" d="M22,18.17v.54h-.27v-.48s0-.06.06-.06Z"/><path class="cls-4" d="M21.19,18.71v.54H21c-.14,0-.12,0-.13-.11s0-.24,0-.37,0-.06.06-.06Z"/><path class="cls-4" d="M24.44,20.34H25v.21s0,.06-.05.06h-.44s0,0,0-.06Z"/><path class="cls-4" d="M22.81,20.88v.54h-.14c-.14,0-.13,0-.13-.11v-.37s0-.06.06-.06Z"/><path class="cls-4" d="M23.63,20.88h.54v.21s0,.06-.05.06h-.44c-.05,0-.05,0-.05,0Z"/><path d="M15.76,8.41h.54v.27h-.54V8.41Z"/><path class="cls-4" d="M19.29,6.78H19a1.48,1.48,0,0,0,0-.21c0-.05,0-.06.08-.06h.2Z"/><path class="cls-4" d="M18.75,7.05h-.28a1.33,1.33,0,0,0,0-.2c0-.06,0-.07.07-.07h.21Z"/><path class="cls-4" d="M20.64,6.78a.82.82,0,0,1,.27,0v.25h-.28V6.78Z"/><path class="cls-4" d="M22.27,6.78v.27h-.2C22,7.06,22,7,22,7v-.2Z"/><path class="cls-4" d="M18.2,7.32h-.27v-.2c0-.06,0-.07.07-.07h.2Z"/><path class="cls-4" d="M20.92,7.05a.78.78,0,0,1,.26,0v.25h-.28V7.05Z"/><path class="cls-4" d="M17.66,7.59h-.27v-.2c0-.06,0-.07.07-.07h.2Z"/><path class="cls-4" d="M21.19,7.32a.78.78,0,0,1,.26,0v.25h-.27V7.32Z"/><path class="cls-4" d="M22.27,7.32h.27v.27h-.21s-.06,0-.06-.06Z"/><path class="cls-4" d="M17.12,7.86h-.27v-.2c0-.06,0-.07.07-.07h.2Z"/><path class="cls-4" d="M16.58,7.87v.27H16.3a1.47,1.47,0,0,0,0-.21s0-.06.07-.06Z"/><path class="cls-4" d="M16.3,8.41H16a.78.78,0,0,1,0-.26h.26v.27Z"/><path class="cls-4" d="M21.73,8.13c.09,0,.18,0,.26,0v.26h-.27V8.14Z"/><path class="cls-4" d="M23.9,9.49v.27h-.21c-.05,0-.07,0-.06-.07v-.2Z"/><path class="cls-4" d="M19,16.54v.27h-.21s-.07,0-.07,0a1.61,1.61,0,0,0,0-.22H19Z"/><path class="cls-4" d="M19.83,16.54h.27v.23s0,0-.05,0h-.22Z"/><path class="cls-4" d="M22,16.81a1.22,1.22,0,0,1-.27,0v-.26H22v.27Z"/><path class="cls-4" d="M21.19,13.56v-.27h.22s.06,0,.06.06a1.47,1.47,0,0,0,0,.21h-.27Z"/><path class="cls-6" d="M25,16.82c-.09,0-.18,0-.26,0v-.26h.23s0,0,0,.05Z"/><path class="cls-4" d="M26.88,16.54v.27h-.2c-.06,0-.07,0-.07-.07v-.2Z"/><path class="cls-4" d="M22.27,16.81v.27h-.21A.05.05,0,0,1,22,17v-.22h.27Z"/><path class="cls-4" d="M20.64,13.29v.27h-.27v-.27h.27Z"/><path class="cls-4" d="M20.64,14.92v.26h-.21s-.06,0-.06-.06v-.21h.27Z"/><path class="cls-6" d="M24.17,17.36a.82.82,0,0,1-.27,0v-.25h.27Z"/><path class="cls-4" d="M23.9,14.37V14.1h.27v.23s0,0-.05,0Z"/><path class="cls-4" d="M21.18,15.18v-.26h.27a1.34,1.34,0,0,0,0,.2c0,.06,0,.07-.07.07Z"/><path class="cls-6" d="M23.35,17.9a.78.78,0,0,1-.26,0v-.25h.27Z"/><path class="cls-4" d="M24.17,13.29H23.9V13h.22s.05,0,.05,0Z"/><path class="cls-4" d="M23.09,13v.27h-.27v-.21q0-.08.06-.06Z"/><path class="cls-6" d="M25,17.9c-.09,0-.18,0-.26,0v-.25h.23s0,0,0,0Z"/><path class="cls-4" d="M20.1,13.29V13h.27v.27H20.1Z"/><path class="cls-6" d="M22.54,18.44a1.11,1.11,0,0,1-.26,0v-.26h.27Z"/><path class="cls-4" d="M20.37,12.75h.27a1.11,1.11,0,0,1,0,.26h-.26v-.27Z"/><path class="cls-6" d="M25.79,18.44a1.15,1.15,0,0,1-.26,0v-.26h.23s.05,0,.05,0A1.62,1.62,0,0,0,25.79,18.44Z"/><path class="cls-4" d="M22.27,15.46H22v-.21c0-.05,0-.07.07-.06h.2Z"/><path class="cls-4" d="M20.91,12.74v-.27h.27a1.47,1.47,0,0,0,0,.21s0,.06-.07.06Z"/><path class="cls-6" d="M21.73,19a1.22,1.22,0,0,1-.27,0v-.26h.27Z"/><path class="cls-4" d="M21.46,12.2a.82.82,0,0,1,0,.27h-.26V12.2Z"/><path class="cls-6" d="M26.61,19a1.22,1.22,0,0,1-.27,0v-.26h.22s.05,0,.05.05Z"/><path class="cls-4" d="M21.73,11.93a.82.82,0,0,1,0,.27h-.25v-.27Z"/><path class="cls-6" d="M25.79,19.53a.78.78,0,0,1-.26,0v-.25h.28Z"/><path class="cls-4" d="M22,11.66a.82.82,0,0,1,0,.27h-.25v-.27Z"/><path class="cls-6" d="M25,20.07c-.09,0-.18,0-.26,0V19.8H25Z"/><path class="cls-4" d="M22,11.39h.27v.21s0,.06-.06.06H22v-.27Z"/><path class="cls-6" d="M24.17,20.61a.82.82,0,0,1-.27,0v-.25h.27Z"/><path class="cls-4" d="M19,15.46v.27h-.28a1.47,1.47,0,0,0,0-.21s0-.06.07-.06Z"/><path class="cls-6" d="M23.35,21.15a1.15,1.15,0,0,1-.26,0v-.26h.27Z"/><path class="cls-4" d="M20.1,15.73h-.27v-.27h.22s.05,0,.05,0Z"/><path class="cls-4" d="M21.73,15.46v.27h-.27v-.21s0-.06.06-.06Z"/><path class="cls-4" d="M23.08,14.1v.27h-.22s-.06,0-.06-.06V14.1h.27Z"/><path class="cls-4" d="M16,13.83h.27v.27a1.22,1.22,0,0,1-.27,0Z"/><path class="cls-4" d="M25.53,13.56h.27v.27h-.22a.05.05,0,0,1-.06-.06A1.48,1.48,0,0,0,25.53,13.56Z"/><path class="cls-4" d="M22.27,11.12v-.27h.27a1.11,1.11,0,0,1,0,.26Z"/><path class="cls-4" d="M21.46,13.56a1.11,1.11,0,0,1,.26,0v.26h-.27v-.27Z"/><path class="cls-4" d="M21.73,14.91v-.27H22v.23s0,.05-.05.05Z"/><path class="cls-4" d="M24.17,10.57h.27v.27h-.21c-.05,0-.06,0-.06-.06Z"/><path class="cls-4" d="M22,14.1h-.27v-.27h.21s.06,0,.06.06Z"/><path class="cls-4" d="M21.73,16.54a1.22,1.22,0,0,1-.27,0v-.26h.27v.27Z"/><path class="cls-4" d="M24.17,10v.28H24c-.05,0-.07,0-.06-.07V10Z"/><path d="M7.9,27.39h.27v.27H7.63v-.27Z"/><path class="cls-1" d="M8.71,29v-.54H9V29H8.71Z"/><path class="cls-1" d="M5.73,25.76a1.22,1.22,0,0,1-.27,0v-.26h.27v.27Z"/><path class="cls-1" d="M6,26a1.22,1.22,0,0,1-.27,0v-.26H6V26Z"/><path class="cls-1" d="M6.27,26.31a1.1,1.1,0,0,1-.26,0V26h.27v.27Z"/><path class="cls-1" d="M6.54,26.58c-.09,0-.18,0-.26,0v-.25h.27v.28Z"/><path class="cls-1" d="M6.81,26.85c-.09,0-.18,0-.26,0v-.25h.27v.28Z"/><path class="cls-1" d="M7.08,27.12a.78.78,0,0,1-.26,0v-.25h.27v.27Z"/><path class="cls-1" d="M7.35,27.39a.78.78,0,0,1-.26,0v-.25h.28v.27Z"/><path class="cls-1" d="M7.63,27.39v.27H7.4s-.05,0-.05,0a1.77,1.77,0,0,0,0-.23h.28Z"/><path class="cls-1" d="M7.9,27.66h.27v.27h0a1.22,1.22,0,0,1-.27,0Z"/><path class="cls-1" d="M8.44,28.2a1.22,1.22,0,0,1-.27,0v-.26h.27v.27Z"/><path class="cls-1" d="M8.71,28.48c-.09,0-.18,0-.26,0V28.2h.27v.27Z"/><path class="cls-1" d="M8.44,29.29a.82.82,0,0,1,0-.27h.25v.27H8.44Z"/><path d="M13.32,13.29v.81H13.1s0,0,0,0v-.76Z"/><path d="M13.32,14.1h.19c.08,0,.08,0,.08.09v.73h-.27V14.1Z"/><path d="M19.56,21.69h-.48s-.07,0-.06-.06v-.22h.54v.28Z"/><path d="M19.83,21.69h.27V22h-.48s-.06,0-.06-.06v-.22h.27Z"/><path d="M13.59,13.29h-.27v-.54h.27v.54Z"/><path d="M13.86,13.83h-.21c-.05,0-.06,0-.06-.06v-.48h.22s0,0,0,.06v.48Z"/><path d="M14.41,14.64h-.22s-.06,0-.06-.06,0-.32,0-.48h.21c.05,0,.06,0,.06.06s0,.32,0,.48Z"/><path d="M14.68,15.19h-.22s-.06,0-.05-.07v-.48h.21c.05,0,.06,0,.06.07v.48Z"/><path d="M15.22,16H15S15,16,15,15.94v-.48h.21c.05,0,.06,0,.06.06V16Z"/><path d="M15.49,16.54h-.21s-.06,0-.06-.06V16h.21c.05,0,.06,0,.06.06v.48Z"/><path d="M16,17.36h-.21c-.05,0-.06,0-.06-.07v-.48h0a1.47,1.47,0,0,0,.21,0s.06,0,.06.07v.48Z"/><path d="M16.3,17.9h-.21c-.05,0-.06,0-.06-.06v-.48h.22c.05,0,.06,0,.05.06v.48Z"/><path d="M16.85,18.71h-.22c-.05,0-.06,0-.06-.06s0-.32,0-.48h.21c.05,0,.06,0,.06.06v.48Z"/><path d="M17.12,19.25H16.9s0,0,0-.07v-.48h.21c.05,0,.06,0,.06.06v.48Z"/><path d="M17.66,20.07h-.21c-.05,0-.06,0-.06-.06v-.48h.21s.06,0,.06.07v.48Z"/><path d="M15.76,16.81h-.22s0,0,0,0v-.23h.23s0,0,0,.05v.22Z"/><path d="M13.59,14.92h.23s0,0,0,0v.23h-.27v-.28Z"/><path d="M16.58,18.17h-.23s-.05,0-.05-.05a1.62,1.62,0,0,0,0-.22h.23s0,0,0,0a1.77,1.77,0,0,0,0,.23Z"/><path d="M15,15.46h-.23s0,0,0-.05v-.22h.22s0,0,0,0v.23Z"/><path d="M17.39,19.53a1.77,1.77,0,0,0-.23,0s0,0,0-.05v-.23h0a1.62,1.62,0,0,0,.22,0s.05,0,.05.05v.23Z"/><path d="M17.93,20.34h-.22s-.05,0-.05-.05v-.22h.22s.05,0,.05,0v.23Z"/><path d="M18.2,20.61H18s-.05,0-.05-.05v-.22h.23s0,0,0,.05v.22Z"/><path d="M18.47,20.88h-.22s-.05,0-.05-.05v-.22h.23s0,0,0,.05v.22Z"/><path d="M18.75,21.15h-.23s-.05,0-.05,0v-.23h.23s.05,0,.05.05a1.62,1.62,0,0,0,0,.22Z"/><path d="M19,21.42h-.23s-.05,0-.05,0a1.77,1.77,0,0,0,0-.23H19a0,0,0,0,1,.05.05v.22Z"/><path d="M14.14,14.1h-.23s-.05,0-.05,0v-.23h.23s.05,0,0,.05v.22Z"/><path class="cls-8" d="M25.8,13.56v-.27h.81v.27H25.8Z"/><path d="M25.8,13.56h.26v.27H25.8Z"/><path class="cls-5" d="M22.54,7.32V7.05h.22s0,0,0,0a1.55,1.55,0,0,0,0,.22h-.28Z"/><path class="cls-5" d="M10.07,29.29a.82.82,0,0,0,0-.27H9.8v-.27h.48c.07,0,.07,0,.07-.08v-.15s0,0,.05-.05c.22,0,.22,0,.22.21v.61Z"/><path d="M9,29v-.55h.54v.27H9.3s-.05,0-.05,0V29Z"/><path class="cls-5" d="M13.32,26.45v.08s0,0-.05,0h0c-.06,0-.15,0-.18,0s0-.14,0-.22a0,0,0,0,1,0,0h.1C13.32,26.3,13.32,26.3,13.32,26.45Z"/><path d="M9.79,28.75V29H9.52v-.28Z"/><path class="cls-5" d="M10.88,29.56h-.27v-.27a1.11,1.11,0,0,1,.26,0Z"/><path class="cls-8" d="M24.17,9.49H23.9V9.22h.18c.09,0,.09,0,.09.08Z"/><path d="M22.54,7.32h.27v.27h-.27Z"/><path class="cls-8" d="M22.54,6.78h-.27V6.51h.21c.05,0,.06,0,.06.07Z"/><path class="cls-5" d="M13.32,14.1v.82h-.05c-.07,0-.15,0-.2,0s0-.12,0-.19,0-.07-.07-.07-.15,0-.19,0,0-.12,0-.18,0-.07-.07-.07H12a1.41,1.41,0,0,0,0-.2c0-.05,0-.07.07-.07h.54c.07,0,.16,0,.2,0s0-.12,0-.18,0-.07.06-.07h.21v.22s0,0,0,0Z"/><path class="cls-5" d="M14.41,21.7V19.57s0,0,0-.05c.23,0,.23,0,.23.2v1.94s0,0,0,0h-.23Z"/><path class="cls-5" d="M13.86,15.73a1.22,1.22,0,0,1,.27,0V16c0,.24,0,.49,0,.74,0,.07,0,.07-.07.07s-.14,0-.18,0,0-.12,0-.18v-.89Z"/><path class="cls-5" d="M14.14,22.51c0-.24,0-.48,0-.72s0-.1.09-.1h.19v.82h-.27Z"/><path class="cls-5" d="M14.41,17.49c0,.12,0,.23,0,.34s0,.07-.07.07c-.21,0-.21,0-.21-.19s0-.37,0-.56,0-.07.07-.07c.21,0,.21,0,.21.2Z"/><path class="cls-5" d="M13.59,15.19h.27v.54h-.21c-.05,0-.06,0-.06-.06Z"/><path class="cls-5" d="M13.59,14.91v.28c-.09,0-.18,0-.26,0v-.25Z"/><path class="cls-7" d="M16.58,21.7a1.55,1.55,0,0,0,0-.22c0-.05,0-.06.07-.06.21,0,.21,0,.21.2v.08h-.27Z"/><path class="cls-7" d="M16.85,21.7h.22a0,0,0,0,1,.05,0V22h-.27v-.28Z"/><path class="cls-7" d="M17.12,22h.22s.05,0,.05,0v.23h-.27V22Z"/><path class="cls-7" d="M17.39,22.24h.22s.05,0,.05,0v.23h-.27v-.27Z"/><path class="cls-5" d="M13.86,22.78v-.27h.26v.27h-.27Z"/><path class="cls-7" d="M17.66,22.51h.21c.05,0,.06,0,.06.06,0,.21,0,.21-.19.21h-.08v-.27Z"/><path d="M24.44,10.85v-.27h.22s.05,0,.05,0v.23Z"/><path class="cls-8" d="M13.05,13.83h-.21c-.05,0-.06,0-.06.07s0,.14,0,.18-.13,0-.2,0H12s-.07,0-.07.07a1.41,1.41,0,0,1,0,.2H10.38s0,0,0,0h0c0-.22,0-.22.2-.22h1.07c.08,0,.08,0,.08-.08s0-.14,0-.18.12,0,.17,0h.3s.05,0,.06-.05,0-.17,0-.21.13,0,.19,0,.06,0,.06-.07v-.65c0-.09,0-.09.09-.09s.13,0,.17,0a.42.42,0,0,0,0-.16v-.31s0-.06.05-.06h0c.06,0,.15,0,.19,0s0-.13,0-.19v-.28s0-.05,0-.05h0c.06,0,.15,0,.19,0s0-.13,0-.2v-.32h.49s0,0,0,0,0-.16,0-.21.13,0,.2,0,.06,0,.06-.07a2.67,2.67,0,0,1,0-.4c0-.07,0-.07.07-.07h.14c.05,0,.06,0,.06-.07,0-.2,0-.4,0-.61V9.54s0,0,0,0h.17s.06,0,.06-.06,0-.2,0-.3V8.4H15V10h-.26a.82.82,0,0,0,0,.27v.54h-.25a.82.82,0,0,0,0,.27v.27h-.77s0,0,0,0a.53.53,0,0,0,0,.22s.1,0,.16,0h0s0,0,0,.06v.48h-.21s-.06,0-.06.06v.21a2.09,2.09,0,0,0-.25,0,.82.82,0,0,0,0,.27V13h-.26a1.22,1.22,0,0,0,0,.27Z"/><path class="cls-8" d="M10.88,26.58v.21c0,.05,0,.06-.05.06s-.17,0-.21,0,0,.13,0,.2,0,.05-.06.05-.16,0-.2,0,0,.13,0,.2,0,.05-.06.05c-.21,0-.21,0-.21-.2V26.9s0-.06,0,0h0c.06,0,.14,0,.18,0s0-.12,0-.19v-.28s0-.06.05-.06h.22v.25a.57.57,0,0,0,.26,0Z"/><path class="cls-8" d="M10.88,26v-.21c0-.05,0-.06.06-.06h.7s.06,0,0,.06,0,.15,0,.19-.12,0-.19,0-.07,0-.07.07,0,.16,0,.19-.13,0-.19,0h-.06v-.25a.82.82,0,0,0-.27,0Z"/><path class="cls-8" d="M13.86,22.78h.28a1,1,0,0,0,0,.17c0,.11,0,.1-.1.1s-.12,0-.15,0,0,.11,0,.16v0c0,.05,0,.08-.07.07h-.2v-.46c0-.06,0-.09.07-.08Z"/><path class="cls-8" d="M13.87,7.86V7.6h.55v.27h-.54Z"/><path d="M15,8.41h-.27V7.87h.21s.06,0,.06.07v.48Z"/><path class="cls-8" d="M8.17,21.15H8s-.06,0-.06-.06v-.48h.21c.05,0,.06,0,.06.06v.48Z"/><path class="cls-8" d="M14.68,7.87v.27h-.21s-.06,0-.05-.06,0-.14,0-.21h.28Z"/><path class="cls-8" d="M13.6,8.68V8.41h.27a.77.77,0,0,1,0,.26A1.07,1.07,0,0,1,13.6,8.68Z"/><path class="cls-8" d="M13.32,9h.27v.22s0,.05,0,.05h-.23Z"/><path class="cls-8" d="M8.17,21.15a1.34,1.34,0,0,0,.2,0c.06,0,.07,0,.07.08,0,.24.05.19-.19.19-.06,0-.09,0-.08-.07v-.2Z"/><path class="cls-8" d="M16.85,21.69V22h-.23s-.05,0,0,0a1.77,1.77,0,0,0,0-.23Z"/><path class="cls-8" d="M17.12,22v.27h-.23s0,0,0,0V22Z"/><path class="cls-8" d="M17.39,22.24v.27h-.23s0,0,0-.05v-.22Z"/><path class="cls-8" d="M14.13,22.78v-.27h.28v.22s0,.05-.05.05Z"/><path class="cls-8" d="M17.66,22.51v.27h-.22s-.05,0-.05-.05v-.22Z"/><path class="cls-8" d="M13.32,23.59v-.22s0-.05,0-.05h.22v.23s0,0,0,0Z"/><path class="cls-8" d="M13.05,23.86v-.22s0-.05,0-.05h.22v.23s0,.05-.05,0Z"/><path class="cls-8" d="M13.05,23.86v.2c0,.07,0,.08-.08.08-.24,0-.18,0-.19-.2,0-.05,0-.08.07-.08a1.34,1.34,0,0,0,.2,0Z"/><path class="cls-8" d="M13.32,11.12h-.2c-.06,0-.07,0-.07-.08,0-.24-.05-.18.19-.19.06,0,.09,0,.08.07v.2Z"/><path class="cls-8" d="M5.73,25.22H6s0,0,0,.05v.22H5.73v-.27Z"/><path class="cls-8" d="M6,25.49h.22s0,0,0,.06v.21H6v-.27Z"/><path class="cls-8" d="M6.27,25.76h.22s0,0,0,.06V26H6.27v-.26Z"/><path class="cls-8" d="M6.54,26h.22s0,0,0,.06a1.48,1.48,0,0,0,0,.21H6.54V26Z"/><path class="cls-8" d="M10.61,26.3a1.15,1.15,0,0,1,0-.26h.26v.27h-.27Z"/><path class="cls-8" d="M6.82,26.3H7s.06,0,0,.06,0,.14,0,.21H6.81v-.27Z"/><path class="cls-8" d="M11.15,26.31a1.15,1.15,0,0,1,0,.26h-.26V26.3h.27Z"/><path class="cls-8" d="M7.09,26.57H7.3s.06,0,.06.05a1.47,1.47,0,0,0,0,.21H7.09v-.27Z"/><path class="cls-8" d="M7.36,26.84h.21s.06,0,.06,0v.22H7.36v-.27Z"/><path class="cls-8" d="M7.9,27.39H7.63v-.27h0a1.11,1.11,0,0,1,.26,0Z"/><path class="cls-8" d="M8.17,27.66v-.27a1.15,1.15,0,0,1,.26,0,2.26,2.26,0,0,1,0,.26H8.17Z"/><path class="cls-8" d="M8.44,27.66h.22s.05,0,.05.05v.22H8.44v-.27Z"/><path class="cls-8" d="M8.71,27.93h.22S9,28,9,28a1.48,1.48,0,0,0,0,.21H8.71v-.27Z"/><path class="cls-8" d="M9.25,28.47H9v-.26H9a1.18,1.18,0,0,1,.26,0Z"/><path d="M5.73,25.22v.27H5.46v-.27Z"/><path d="M14.41,7.59h-.82V7.32h.49s.06,0,.06-.05a1.62,1.62,0,0,1,0-.22h.54v.27h-.26a1.11,1.11,0,0,0,0,.26Z"/><path class="cls-4" d="M13.86,6a1.22,1.22,0,0,1,.27,0v.26c0,.16,0,.31,0,.47s0,.07-.07.07c-.21,0-.21,0-.21-.19V6Z"/><path class="cls-4" d="M13.32,6.24a1.22,1.22,0,0,1,.27,0V7c0,.06,0,.07-.07.07s-.2,0-.2-.19V6.24Z"/><path d="M15.22,6.78v.27h-.54V6.78h.54Z"/><path class="cls-6" d="M14.41,5.7h.08c.06,0,.14,0,.18,0a.47.47,0,0,1,0,.17c0,.08,0,.08-.08.09h-.19Z"/><path class="cls-4" d="M14.68,6.78v.27H14.4a.67.67,0,0,0,0-.2c0-.06,0-.07.08-.07Z"/><path class="cls-4" d="M14.14,7.05a1.62,1.62,0,0,0,0,.22s0,.05-.06.05h-.22a1.33,1.33,0,0,0,0-.2c0-.06,0-.07.07-.07Z"/><path class="cls-6" d="M15.22,5.42v.82H15V5.49s0-.07.07-.07Z"/><path d="M8.71,29.29V29H9v.27Z"/><path d="M8.44,29.29h.27v.27H8.44Z"/><path class="cls-6" d="M14.13,14.1v-.22s0-.05,0-.05h-.23v-.48s0-.06,0-.06h-.22v-.54h.23s0,0,0-.05v-.23h.27c0,.25,0,.5,0,.75,0,0,0,.08.07.07h0s.13,0,.17,0,0,.1,0,.15v.31s0,.06.05.06h0c.06,0,.13,0,.17,0s0,.1,0,.16v.31s0,.06.05,0h0c.06,0,.13,0,.17,0s0,.1,0,.16v.31s0,.05.05.06.16,0,.21,0,0,.13,0,.2,0,.06,0,.06h0c.06,0,.13,0,.17,0s0,.11,0,.16v.31s0,.06,0,.06h0c.06,0,.14,0,.17,0s0,.1,0,.15v.32s0,.05.05.05.17,0,.21,0,0,.13,0,.2,0,.06.06.05h0c.06,0,.15,0,.18,0s0,.12,0,.18a1.41,1.41,0,0,1,0,.29s0,.06.06,0h0c.07,0,.15,0,.18,0s0,.12,0,.19a2.62,2.62,0,0,1,0,.28.05.05,0,0,0,.06.06c.07,0,.16,0,.2,0s0,.13,0,.19,0,.06,0,.06h0c.06,0,.14,0,.18,0s0,.12,0,.18v.29s0,.05.05.05h0c.06,0,.14,0,.18,0s0,.12,0,.18v.29s0,.05.05.05.16,0,.21,0,0,.13,0,.2,0,.06.05.05h0c.06,0,.15,0,.18,0s0,.12,0,.19v.28s0,.06.05.06.17,0,.21,0,0,.13,0,.19a.05.05,0,0,0,.06.06c.07,0,.16,0,.2,0s0,.13,0,.19a.05.05,0,0,0,.06.06c.07,0,.16,0,.2,0s0,.13,0,.2,0,.05.06.05.16,0,.2,0,0,.13,0,.2,0,.05.05.05.16,0,.21,0,0,.13,0,.2,0,.06.05,0h0c.06,0,.15,0,.19,0s0,.13,0,.2v.05H19V21.2a0,0,0,0,0-.05-.05h-.23a1.62,1.62,0,0,1,0-.22s0-.05-.05-.05h-.23v-.22s0-.05,0-.05H18.2v-.22s0-.05,0-.05h-.23v-.23s0,0-.05,0h-.22v-.48c0-.05,0-.07-.06-.07h-.21V19.3s0-.05-.05-.05a1.62,1.62,0,0,1-.22,0v-.48s0-.06-.06-.06h-.21v-.48s0-.06-.06-.06h-.21a1.77,1.77,0,0,1,0-.23s0,0,0,0H16.3v-.48c0-.05,0-.07-.05-.06H16v-.48c0-.05,0-.07-.06-.07a1.47,1.47,0,0,1-.21,0v-.22s0-.05,0-.05h-.23v-.48s0-.06-.06-.06h-.21v-.48s0-.07-.06-.06H15v-.23s0,0,0,0h-.22v-.48c0-.05,0-.07-.06-.07h-.21c0-.16,0-.32,0-.48s0-.06-.06-.06Z"/><path d="M14.4,11.39v-.27h.27V12.2h-.54c0-.16,0-.32,0-.48s0-.06.07-.06h.14c.05,0,.07,0,.07-.06A1.48,1.48,0,0,1,14.4,11.39Z"/><path class="cls-3" d="M14.41,12.21h.27v.55h0a1.23,1.23,0,0,1-.27,0v-.52Z"/><path class="cls-3" d="M15,13.29h-.26a.75.75,0,0,1,0-.26,2.43,2.43,0,0,1,0-.27H15v.54Z"/><path class="cls-3" d="M15.22,13.56a.82.82,0,0,1-.27,0v-.25h.27v.27Z"/><path d="M14.13,12.47h-.27V12.2h.27Z"/><path class="cls-6" d="M19.83,21.69h-.27v-.28c.09,0,.18,0,.26,0Z"/><path class="cls-3" d="M15.49,13.56v.27h-.22s0,0,0-.05v-.22h.27Z"/><path class="cls-2" d="M14.68,12.2V11.12h.2s.07,0,.07-.07V10.3h.17c.1,0,.1,0,.1-.09V9.29c0-.06,0-.07.07-.07s.15,0,.19,0,0-.13,0-.2V9h.27v.37s0,.12,0,.15-.11,0-.16,0-.1,0-.1.1V10.9c0,.07,0,.15,0,.2s.13,0,.19,0,.07,0,.07.07v.52c0,.07,0,.16,0,.2s.13,0,.19,0S16,12,16,12v.42a.05.05,0,0,0,.06.06c.06,0,.15,0,.19,0s0,.13,0,.2,0,.06.06.06.15,0,.2,0,0,.13,0,.2,0,.06.06.06.15,0,.2,0,0,.13,0,.2,0,.06,0,.06h.29c.06,0,.14,0,.18,0s0,.12,0,.18h0c0,.06,0,.07.07.07h.47v.27H16.3a.75.75,0,0,0,0-.26,1,1,0,0,0-.25,0h-.55v-.23s0,0-.05,0h-.22v-.48c0-.05,0-.07-.06-.06H15v-.48s0-.07-.06-.07a1.47,1.47,0,0,1-.21,0Z"/><path d="M15.49,9V9c0,.07,0,.15,0,.2s-.13,0-.19,0-.07,0-.07.07v.92c0,.09,0,.09-.1.09H15V8.41h.27V8.9s0,0,0,0Z"/><path class="cls-6" d="M15.22,8.41H15V7.93s0-.07-.06-.07h-.21V7.59h.54Z"/><path d="M15.22,7.59h-.54V7.32h.54Z"/><path class="cls-6" d="M15.76,8.41v.27h-.27V8.45s0,0,0,0Z"/><path class="cls-6" d="M15.49,9h-.22s0,0,0,0V8.68h.27V9Z"/><path class="cls-6" d="M22.81,16.81h-.27v-.25a.82.82,0,0,0-.27,0h0v-.25c-.08,0-.17,0-.26,0h0v-.54h.27a.82.82,0,0,0,.27,0v-.25h.27Z"/><path d="M22.54,10.85h-.27V9.49h.27Z"/><path d="M20.64,14.92h-.27V13.56h.27v1.36Z"/><path class="cls-3" d="M24.17,20.34h-.82V19.8h.27V20c0,.09,0,.09.09.09h.36c.09,0,.09,0,.09.08Z"/><path class="cls-3" d="M25,19.8h-.81v-.55h.27v.19c0,.08,0,.09.09.09s.24,0,.36,0,.09,0,.09.08Z"/><path d="M24.17,19.53v.27h-.54v-.54h.27v.25A.82.82,0,0,0,24.17,19.53Z"/><path class="cls-3" d="M24.17,18.17h.27v.22s0,.05.06.05h.41c.06,0,.08,0,.07.07v.2h-.81v-.54Z"/><path class="cls-3" d="M25.8,19.25H25v-.54h.27v.22s0,.05.06.05h.42c.05,0,.07,0,.07.07A1.33,1.33,0,0,0,25.8,19.25Z"/><path class="cls-3" d="M22.81,19.8h-.27v-.55h.27v.25a.77.77,0,0,0,.26,0h.26a.82.82,0,0,1,0,.27h-.54Z"/><path d="M22.81,19.8h.27v.25a.78.78,0,0,0,.26,0v.27h-.54Z"/><path d="M22.54,19.53v.27H22v-.54h.27v.25C22.36,19.55,22.45,19.52,22.54,19.53Z"/><path d="M25,19v.27h-.54v-.54h.27V19A1.11,1.11,0,0,0,25,19Z"/><path class="cls-3" d="M23.35,17.9v-.27h.28v.21c0,.05,0,.06.05.06h.42c.06,0,.07,0,.07.07v.2h-.82Z"/><path class="cls-3" d="M22.27,19.26h-.54v-.54h.54v.21s0,.06.07.06.15,0,.19,0,0,.13,0,.2v.05h-.27Z"/><path class="cls-3" d="M22.54,18.44v-.27h.27v.19c0,.08,0,.08.09.08h.34c.13,0,.11,0,.12.11s0,.11,0,.16h-.81Z"/><path class="cls-4" d="M22.54,18.71h.27v.54h-.27V19.2c0-.07,0-.15,0-.2s-.13,0-.19,0-.07,0-.07-.06v-.21Z"/><path class="cls-6" d="M23.63,14.1h-.27v-.25a.82.82,0,0,0-.27,0v-.27h.26a1.1,1.1,0,0,0,0-.26h.27v.25a.82.82,0,0,0,.27,0v.27h-.26A1.11,1.11,0,0,0,23.63,14.1Z"/><path class="cls-2" d="M23.9,13.56a.82.82,0,0,1-.27,0v-.25h.27Z"/><path class="cls-2" d="M23.36,13.29a1.1,1.1,0,0,1,0,.26h-.26v-.27h.28Z"/><path d="M17.93,13.83v-.27h.81v.27Z"/><path class="cls-4" d="M23.35,18.71c0-.05,0-.11,0-.16s0-.11-.12-.11H22.9c-.09,0-.09,0-.09-.08v-.19h.82v.54h-.28Z"/><path class="cls-6" d="M19.83,16v.27h-.26a1.11,1.11,0,0,0,0,.26h-.27v-.25a.78.78,0,0,0-.26,0V16h.25c0-.08,0-.17,0-.26h.27V16A.82.82,0,0,0,19.83,16Z"/><path class="cls-2" d="M19.29,15.73c0,.09,0,.18,0,.26H19v-.27h.27Z"/><path class="cls-2" d="M19.83,16a.82.82,0,0,1-.27,0v-.25h.27Z"/><path class="cls-2" d="M23.63,14.1a1.11,1.11,0,0,1,0-.26h.26v.27Z"/><path class="cls-6" d="M18.47,13.56h-1c-.05,0-.08,0-.07-.07h0c0-.06,0-.15,0-.18s-.12,0-.18,0H16.9s0,0,0-.06,0-.16,0-.2-.13,0-.2,0-.05,0-.06-.06,0-.16,0-.2-.13,0-.2,0-.05,0-.06-.06,0-.16,0-.2-.13,0-.19,0a.05.05,0,0,1-.06-.06V12c0-.05,0-.07-.07-.07s-.15,0-.19,0,0-.13,0-.2v-.52c0-.06,0-.07-.07-.07s-.15,0-.19,0,0-.13,0-.2V9.59c0-.1,0-.1.1-.1s.13,0,.16,0,0-.1,0-.15V9H16a1.11,1.11,0,0,0,0-.26h.27a.82.82,0,0,0,.27,0V8.41h.25a.78.78,0,0,0,0-.26h.27a1.1,1.1,0,0,0,.26,0V7.87h.27a.75.75,0,0,0,.26,0V7.59h.27a1.22,1.22,0,0,0,.27,0V7.32h.27a1.22,1.22,0,0,0,.27,0V7.05h.27a1.13,1.13,0,0,0,.26,0V6.78h.27V7a1.11,1.11,0,0,0,.26,0h.27v.26a1.15,1.15,0,0,0,.26,0h0v.26a1.15,1.15,0,0,0,.26,0h0a1.23,1.23,0,0,0,0,.27h.25v.5s0,.05,0,.05h.23a1.15,1.15,0,0,0,0,.26h.26V9a1.11,1.11,0,0,0,0,.26H22v.27a1.22,1.22,0,0,0,0,.27h.26v.82H22a1.22,1.22,0,0,0,0,.27v.27h-.26a1.22,1.22,0,0,0,0,.27h-.26a1.11,1.11,0,0,0,0,.26H21.2a.75.75,0,0,0,0,.26h-.26c0,.08,0,.18,0,.26h0a.78.78,0,0,0-.26,0v.25h-.27a.75.75,0,0,0-.26,0v.26h-.25a.82.82,0,0,0,0,.27h-.54A1.22,1.22,0,0,0,19,13v.26h-.27a1.22,1.22,0,0,0-.27,0Zm.82-5.15v.48s0,.06.05.06.15,0,.2,0,0,.13,0,.2,0,.06.05.06.15,0,.2,0,0,.14,0,.21,0,.05.05.05.16,0,.2,0,0,.14,0,.21,0,0,0,0h.71s.06,0,.06,0,0-.15,0-.2.13,0,.2,0,.06,0,.06-.05,0-.18,0-.27,0-.16,0-.21S21.05,9,21,9s-.07,0-.07-.07,0-.27,0-.4,0-.08-.07-.07-.15,0-.19,0,0-.13,0-.2,0-.07-.06-.07-.15,0-.19,0,0-.12,0-.19,0-.07-.07-.07h-.94c-.06,0-.08,0-.07.07Z"/><path class="cls-2" d="M19.56,6.78V7a1.13,1.13,0,0,1-.26,0V6.78Z"/><path class="cls-2" d="M20.1,7.05a1.11,1.11,0,0,1-.26,0V6.78h.27Z"/><path class="cls-2" d="M23.08,13.83a.82.82,0,0,1,.27,0v.25h-.28Z"/><path class="cls-2" d="M19,16.27a.78.78,0,0,1,.26,0v.25H19Z"/><path class="cls-2" d="M19.56,16.54a1.11,1.11,0,0,1,0-.26h.26v.27Z"/><path d="M23.08,13.83v.27h-.27v-.81h.27v.54Z"/><path d="M19,16.27v.27h-.27v-.81H19v.54Z"/><path class="cls-2" d="M19,13.29V13a1.22,1.22,0,0,1,.27,0v.27H19Z"/><path class="cls-2" d="M19.83,13a.82.82,0,0,1,0-.27h.25V13h-.27Z"/><path d="M22,9.49V9h.27v.54H22Z"/><path d="M21.73,9V8.41H22V9h-.27Z"/><path class="cls-2" d="M21.73,11.39a1.22,1.22,0,0,1,0-.27H22v.27h-.27Z"/><path class="cls-2" d="M22,10.85a1.22,1.22,0,0,1,0-.27h.26v.27Z"/><path d="M20.1,7.05V6.78h.54v.27H20.1Z"/><path class="cls-2" d="M20.1,12.75v-.26a.75.75,0,0,1,.26,0v.27H20.1Z"/><path class="cls-2" d="M20.64,12.47v-.25a.78.78,0,0,1,.26,0v.28h-.27Z"/><path class="cls-2" d="M19,7.05v.26a1.22,1.22,0,0,1-.27,0V7.05Z"/><path d="M19,13.29h.27v.27h-.54v-.27Z"/><path class="cls-6" d="M21.46,14.64H21c-.08,0-.09,0-.09-.08v-1h.28v.5s0,0,0,0h.5v.27h-.26A1.15,1.15,0,0,0,21.46,14.64Z"/><path class="cls-2" d="M20.91,13.56v1c0,.08,0,.08.09.08h.19v.28h-.55V13.56Z"/><ellipse class="cls-6" cx="14.95" cy="7.19" rx="0.38" ry="0.19"/><path class="cls-2" d="M18.47,7.32v.26a1.22,1.22,0,0,1-.27,0V7.32Z"/><path class="cls-2" d="M21.46,14.64a1.15,1.15,0,0,1,0-.26h.26v.27Z"/><path class="cls-2" d="M17.93,7.59v.26a.75.75,0,0,1-.26,0V7.59Z"/><path class="cls-2" d="M22.54,15.46v.25a.82.82,0,0,1-.27,0v-.27Z"/><path class="cls-2" d="M22,15.73v.54h-.27v-.54H22Z"/><path d="M21.73,15.73v.54h-.27v-.54Z"/><path class="cls-2" d="M17.39,7.87v.25a1.1,1.1,0,0,1-.26,0V7.86Z"/><path class="cls-2" d="M22.27,16.54a.82.82,0,0,1,.27,0v.25h-.27Z"/><path d="M21.19,8.14V7.59h.27v.55h-.27Z"/><path d="M21.73,8.14v.27h-.27V8.14h.27Z"/><path class="cls-2" d="M16.85,8.14a.78.78,0,0,1,0,.26h-.25V8.13h.27Z"/><path class="cls-2" d="M16.58,8.41v.25a.82.82,0,0,1-.27,0V8.41h.28Z"/><path class="cls-2" d="M16,8.68a1.11,1.11,0,0,1,0,.26h-.26V8.68H16Z"/><path d="M20.91,7.05v.27h-.27V7.05h.27Z"/><path d="M21.18,7.32v.27h-.28V7.32h.27Z"/><path d="M16.58,8.41H16.3V8.14h.27Z"/><path d="M22.27,16.54v.27H22v-.27h.27Z"/><path d="M21.73,16.27H22v.27h-.27Z"/><path d="M21.19,13.83v-.27h.27v.27h-.27Z"/><path d="M20.1,12.75h.27V13H20.1Z"/><path d="M20.91,12.48V12.2h.28v.27Z"/><path d="M21.46,11.93v.27h-.27v-.27h.27Z"/><path d="M21.73,11.66v.27h-.27v-.27h.27Z"/><path d="M21.73,11.39H22v.27h-.27v-.27Z"/><path d="M21.73,14.1h-.27v-.27h.27Z"/><path d="M9,28.21v.26H8.71V28.2Z"/><path d="M6,25.49v.27H5.73v-.27Z"/><path d="M6.27,25.77V26H6v-.27Z"/><path d="M6.54,26v.26H6.27V26Z"/><path d="M6.81,26.31v.27H6.54V26.3Z"/><path d="M7.08,26.58v.27H6.81v-.28Z"/><path d="M7.35,26.85v.27H7.08v-.27Z"/><path d="M7.62,27.12v.27H7.36v-.27Z"/><path d="M8.44,27.66v.27H8.17v-.27Z"/><path d="M8.71,27.93v.27H8.44v-.27Z"/><path class="cls-5" d="M13.05,13.29a1.22,1.22,0,0,1,0-.27h.26v.28Z"/><path class="cls-5" d="M13.32,12.75a.82.82,0,0,1,0-.27,2.09,2.09,0,0,1,.25,0h0v.27h-.27Z"/><path class="cls-5" d="M14.14,12.2h-.28v-.48s0-.06,0-.06h0c-.06,0-.14,0-.16,0a.53.53,0,0,1,0-.22s0,0,0,0h.77a1.48,1.48,0,0,0,0,.21c0,.05,0,.06-.07.06H14.2s-.07,0-.07.06S14.14,12,14.14,12.2Z"/><path d="M15,10.3v.75s0,.07-.07.07h-.2v-.81H15Z"/><path class="cls-5" d="M13.86,12.2v.27h-.27v-.21s0-.06.06-.06Z"/><path class="cls-5" d="M14.67,10.85v.27h-.27a.82.82,0,0,1,0-.27Z"/><path class="cls-5" d="M15,10.31h-.27a.82.82,0,0,1,0-.27H15Z"/><path class="cls-5" d="M10.88,26.3v.27a.57.57,0,0,1-.26,0v-.25Z"/><path class="cls-5" d="M11.15,26.3h-.27V26a.82.82,0,0,1,.27,0Z"/><path d="M14.68,7.59v.28h-.27V7.59h.27Z"/><path class="cls-6" d="M14.68,7.59h-.27a1.11,1.11,0,0,1,0-.26h.26Z"/><path d="M13.59,12.48h.27v.23s0,.05,0,.05h-.23Z"/><path d="M14.68,12.2a1.47,1.47,0,0,0,.21,0s.06,0,.06.07v.48h-.27Z"/><path d="M15,12.75h.21c.05,0,.06,0,.06.06v.48H15Z"/><path d="M15.22,13.29h.22s.05,0,.05,0v.23h-.27Z"/><path d="M15.76,8.68V9h-.27V8.68Z"/><path class="cls-2" d="M22,16.54v-.27c.09,0,.18,0,.26,0v.25Z"/><path class="cls-2" d="M22,9.49h.27v.27H22A1.22,1.22,0,0,1,22,9.49Z"/><path class="cls-4" d="M23.35,19.8a.82.82,0,0,0,0-.27h-.26a.77.77,0,0,1-.26,0v-.25h.82v.54Z"/><path class="cls-6" d="M23.35,20.07a.78.78,0,0,1-.26,0V19.8h.28Z"/><path class="cls-4" d="M24.44,18.71v.54h-.27v-.2c0-.05,0-.07-.07-.07h-.42s-.06,0-.05-.05v-.22h.81Z"/><path class="cls-6" d="M24.17,19.53a.82.82,0,0,1-.27,0v-.25h.27Z"/><path class="cls-3" d="M24.17,19.25h-.82v-.54h.27v.22s0,.05.05.05h.42c.06,0,.07,0,.07.07Z"/><path d="M24.17,18.71h-.54v-.54h.27v.26a1.22,1.22,0,0,0,.27,0Z"/><path class="cls-6" d="M24.17,18.44a1.22,1.22,0,0,1-.27,0v-.26h.27Z"/><path class="cls-6" d="M25,19a1.11,1.11,0,0,1-.26,0v-.26H25Z"/><path class="cls-6" d="M22.27,19.26h.27v.28c-.09,0-.18,0-.26,0Z"/><path d="M23.35,19v.27h-.54v-.54h.27V19A1.15,1.15,0,0,0,23.35,19Z"/><path class="cls-6" d="M23.35,19a1.15,1.15,0,0,1-.26,0v-.26h.28Z"/><path class="cls-2" d="M18.75,13.29v.27h-.28V13.3A1.22,1.22,0,0,1,18.75,13.29Z"/><path class="cls-4" d="M19.29,8.41V7.93s0-.07.07-.07h.94c.06,0,.07,0,.07.07s0,.15,0,.19.12,0,.19,0,.06,0,.06.07,0,.16,0,.2.12,0,.19,0,.07,0,.07.07,0,.27,0,.4,0,.07.07.07.15,0,.19,0,0,.14,0,.21,0,.18,0,.27,0,.05-.06.05-.16,0-.2,0,0,.13,0,.2,0,0-.06,0h-.71s0,0,0,0,0-.16,0-.21-.13,0-.2,0-.05,0-.05-.05,0-.17,0-.21-.13,0-.2,0-.05,0-.05-.06,0-.16,0-.2-.13,0-.2,0-.05,0-.05-.06Z"/><path class="cls-2" d="M20.64,7.05v.27a1.15,1.15,0,0,1-.26,0V7.05Z"/><path class="cls-2" d="M20.91,7.32v.27a1.15,1.15,0,0,1-.26,0V7.32Z"/><path class="cls-2" d="M20.91,7.59h.28v.27h-.25A1.23,1.23,0,0,1,20.91,7.59Z"/><path class="cls-2" d="M21.46,8.14v.27h-.23s-.05,0,0-.05V8.14Z"/><path class="cls-2" d="M21.46,8.41h.27v.27h-.26A1.15,1.15,0,0,1,21.46,8.41Z"/><path class="cls-2" d="M21.73,9H22v.27h-.26A1.11,1.11,0,0,1,21.73,9Z"/><path class="cls-2" d="M21.19,11.93v.27h-.28c0-.08,0-.18,0-.26Z"/><path class="cls-2" d="M21.46,11.66v.27h-.27a.75.75,0,0,1,0-.26Z"/><path class="cls-2" d="M21.73,11.39v.27h-.27a1.11,1.11,0,0,1,0-.26Z"/><path class="cls-2" d="M21.46,13.83v.27h-.23s-.05,0,0,0v-.23Z"/></svg>