<svg id="Layer_1" data-name="Layer 1" xmlns="http://www.w3.org/2000/svg" viewBox="0 0 128 128"><defs><style>.cls-1{fill:#45283c;}.cls-2{fill:#222034;}.cls-3{fill:#37936e;}.cls-4{fill:#4b692f;}.cls-5{fill:#663931;}.cls-6{fill:#323c39;}.cls-7{fill:#edc299;}.cls-8{fill:#de7126;}.cls-9{fill:#639afe;}.cls-10{fill:#5b6ee0;}</style></defs><title>icon</title><path class="cls-1" d="M44.17,128v-.16c0-.29.09-.64-.05-.84s-.53-.07-.81-.08-.24-.08-.23-.26,0-.43,0-.64,0-.19-.19-.19-.43,0-.64,0-.25,0-.26-.23.15-.65-.08-.81-.52-.05-.78,0-.22-.06-.22-.22,0-.57,0-.86l0,0h1.46c.22,0,.48-.09.63,0s.05.44.07.67a.43.43,0,0,1,0,.16c0,.17.07.22.22.22s.62-.09.79,0,0,.54.07.82.07.21.23.21.61-.08.78,0,.06.54.08.82.07.22.22.22c.65,0,1.3,0,2,0V128Z"/><path d="M73.45,1.08V0h4.34V1.08H73.45Z"/><path d="M20.3,105.23H19.22v-1.08H20.3v1.09Z"/><path d="M47.42,128v-1.08h1.09V128Z"/><path d="M100.57,89a4.19,4.19,0,0,1,0,1.06l-1,0h-13l0-1A3.2,3.2,0,0,0,85.38,89l-1,0a3.74,3.74,0,0,1-.06-1.06h3.25c0,.26,0,.53,0,.8s.1.29.31.28h12.71Z"/><path d="M103.83,45.56H104c.29,0,.64-.09.84,0s.07.54.07.82.16.22.32.22H110c.31,0,.31,0,.31.34s0,.5,0,.75h-4.15c-.13,0-.19.05-.18.19,0,.3,0,.6,0,.9v3.25h-1.08l0-3.24c0-.29,0-.58,0-.87s0-.23-.21-.22h-.87V45.56Z"/><path d="M110.34,55.32c0,.61,0,1.22,0,1.83,0,.32,0,.35.37.34h2.42c.55,0,.46-.07.47.5v.59h0l-1.09,0h-2c-.13,0-.19.05-.19.18,0,.3,0,.61,0,.91v3.24h-1.08l0-4.33c0-.62,0-1.25,0-1.87,0-.21,0-.33-.28-.31a7.12,7.12,0,0,1-.8,0h0V55.32h2.18Z"/><path d="M114.68,68.34a.81.81,0,0,1,0,.16c0,.29.09.65,0,.84s-.53.07-.81.08-.23.09-.23.26v8c0,.42,0,.37-.38.37h-.71V68.34h2.18Z"/><path d="M53.93,118.24v4c0,.32,0,.32-.32.33h-.77l0-1a4.2,4.2,0,0,0-1.06-.06H50.68V120.4c.27,0,.55,0,.82,0s.28-.06.27-.27-.08-.57.05-.74.5-.07.76-.07.28-.06.28-.28-.14-.62.07-.76.52,0,.79-.05Z"/><path d="M98.4,22.78a4.19,4.19,0,0,1,1.06,0c0,.34,0,.68,0,1v5.07c0,.42,0,.37-.38.37H98.4V28.2l0-5.42Z"/><path d="M65.86,106.3a4.71,4.71,0,0,1,0,1.06,6.82,6.82,0,0,1-1,0c-.31,0-.61,0-.92,0-.13,0-.19,0-.19.18s0,.43,0,.65-.08.27-.28.26-.54,0-.81,0h0c0-.29,0-.57,0-.86s-.06-.23-.22-.22c-.31,0-.61,0-.92,0a3.07,3.07,0,0,1-1-.06,5.71,5.71,0,0,1,0-1h5.42Z"/><path d="M99.49,33.63a4.19,4.19,0,0,1,.05-1.06l1,0h5c.48,0,.41,0,.42.44,0,.22,0,.43,0,.65h0l-1.09,0h-4.33l-1.1,0Z"/><path d="M115.76,61.83a4.6,4.6,0,0,1,1,.05,5,5,0,0,1,0,1c0,1.33,0,2.66,0,4,0,.43,0,.37-.39.37h-.7V61.83Z"/><path d="M111.42,48.82a3.78,3.78,0,0,1,1.06,0,5.66,5.66,0,0,1,0,1c0,1.33,0,2.66,0,4,0,.42,0,.37-.39.37h-.7V49.9l0-1.09Z"/><path d="M97.32,30.37v3.26H96.24l0-1.07c0-.3,0-.6,0-.9,0-.13,0-.19-.18-.19h-.9V30.37Z"/><path d="M107.08,34.71a4.71,4.71,0,0,1,1.06,0,5.79,5.79,0,0,1,0,1c0,1,0,2,0,3,0,.3,0,.31-.32.31h-.76V34.71Z"/><path d="M93,21.7a4.71,4.71,0,0,1,0-1.06,5.71,5.71,0,0,1,1,0H96.9c.48,0,.42,0,.42.44v.65h0l-1.09,0H94.07l-1.09,0Z"/><path d="M90.81,21.69H93v1.09h-.9c-.14,0-.19.06-.19.19,0,.3,0,.6,0,.9v1.07H90.82l0-2.16V21.7Z"/><path d="M70.2,105.22v.64c0,.48.06.45-.42.45H65.86v-1.08Z"/><path d="M82.13,94.37a1.61,1.61,0,0,1,0,.22c0,.28.13.63-.07.82s-.51,0-.77,0-.24.06-.25.25.15.64-.08.8-.51,0-.78,0H80V95.45c0-.38,0-.76,0-1.13a2.85,2.85,0,0,1,0-1,5.79,5.79,0,0,1,1,0l0,1a3.44,3.44,0,0,0,1.06.06Z"/><path d="M97.32,33.63h2.16v1.09h0l-1,0a3.49,3.49,0,0,0,0,1.07H97.32V33.63Z"/><path d="M112.51,78.1c0,1,0,1.9,0,2.84,0,.46,0,.42-.39.42h-.7V80.27l0-2.16h1.08Z"/><path d="M103.83,87.87v.69c0,.43,0,.39-.42.39h-2.84V87.87h3.25Z"/><path d="M108.17,85.7c0,.28,0,.57,0,.85s-.08.23-.25.23H106V85.7h2.17Z"/><path d="M106,86.78c0,.29,0,.57,0,.85s-.08.24-.25.24c-.64,0-1.28,0-1.92,0h0V86.79l1.08,0H106Z"/><path d="M80,3.25h.86c.19,0,.23.08.23.25,0,.64,0,1.28,0,1.92H80l0-1.08V3.26Z"/><path d="M82.13,6.51H83c.19,0,.23.07.23.25,0,.64,0,1.28,0,1.92H82.14l0-1.07V6.51Z"/><path d="M80,96.54c0,.65,0,1.29,0,1.93,0,.17,0,.25-.24.25s-.57,0-.85,0h0V96.55Z"/><path d="M83.22,8.68c.28,0,.57,0,.85,0s.24.08.23.26v1.92H83.22V8.68Z"/><path d="M85.39,11.93h.85c.2,0,.24.08.23.25V14.1H85.39V11.93Z"/><path d="M86.47,14.1h.86c.19,0,.23.08.23.25,0,.64,0,1.28,0,1.92H86.48l0-1.07V14.1Z"/><path d="M74.54,103.05c0,.28,0,.57,0,.85s-.07.24-.25.24H72.37v-1.08Z"/><path d="M72.37,104.13c0,.29,0,.57,0,.86s-.07.24-.25.23c-.64,0-1.28,0-1.92,0h0v-1.07h2.16Z"/><path d="M88.64,17.35a8.22,8.22,0,0,0,.86,0c.19,0,.23.08.23.25,0,.64,0,1.28,0,1.92H88.65l0-1.08V17.36Z"/><path d="M89.73,19.52c.28,0,.57,0,.85,0s.23.08.23.25v1.92H89.73V19.53Z"/><path d="M58.27,112.82c0,.63,0,1.26,0,1.89,0,.22-.06.29-.27.28a7.48,7.48,0,0,0-.82,0h0c0-.36,0-.72,0-1.08a3.41,3.41,0,0,1,.05-1.06l1,0Z"/><path d="M107.08,39.05c0,.64,0,1.27,0,1.9,0,.22-.06.29-.28.27H106V40.13l0-1.07Z"/><path d="M103.83,43.39v2.17h-1.08l0-1.07V43.39h1.09Z"/><path d="M114.67,59.66c.29,0,.57,0,.86,0s.23.07.23.25c0,.64,0,1.28,0,1.92h-1.07l0-1.07,0-1.09Z"/><path d="M111.42,81.36v1.92c0,.17,0,.26-.23.25s-.57,0-.85,0h0V81.36h1.08Z"/><path d="M77.79,1.08c.3,0,.6,0,.9,0,.14,0,.19,0,.19.19,0,.3,0,.6,0,.9H77.79V1.09Z"/><path d="M78.88,2.17h.9c.13,0,.19.05.18.18v.9H78.88V2.17Z"/><path d="M81.05,5.42H82c.13,0,.19,0,.18.19v.9H81.05V5.43Z"/><path d="M84.3,10.85h.9c.14,0,.19.05.19.18,0,.3,0,.6,0,.9H84.3V10.85Z"/><path d="M87.56,16.27h.9c.13,0,.18.05.18.19v.89H87.56V16.27Z"/><path d="M97.32,21.7h.9c.13,0,.19,0,.18.19v.9H97.32V21.69Z"/><path d="M98.41,29.29a3.79,3.79,0,0,1-.07,1.06l-1,0h0V29.29h1.09Z"/><path d="M106,33.63h.91q.19,0,.18.18v.9H106V33.62Z"/><path d="M113.59,58.58h.9c.14,0,.19.06.19.19,0,.3,0,.6,0,.9h-1.08V58.57Z"/><path d="M115.76,67.26a4.2,4.2,0,0,1-.06,1.06l-1,0h0l0-1a3.76,3.76,0,0,1,1.06-.07Z"/><path d="M110.33,47.73h.91c.13,0,.18.05.18.18v.91h-1.08V47.73Z"/><path d="M110.34,83.53c0,.3,0,.6,0,.9,0,.13,0,.18-.19.18h-.9V83.53h1.09Z"/><path d="M109.25,84.61v.9c0,.14,0,.19-.18.19-.3,0-.6,0-.9,0h0V84.61h1.08Z"/><path d="M111.42,54.24a3.78,3.78,0,0,1-.06,1.06l-1,0h0l0-1.07Z"/><path d="M86.47,90a3.78,3.78,0,0,1-.06,1.06l-1,0h0l0-1A3.79,3.79,0,0,1,86.47,90Z"/><path d="M85.39,91.12a4.2,4.2,0,0,1-.06,1.06l-1,0h0V91.12h1.09Z"/><path d="M84.3,92.21a3.78,3.78,0,0,1-.06,1.06l-1,0h0V92.2H84.3Z"/><path d="M83.22,93.29a4.2,4.2,0,0,1-.06,1.06l-1,0h0V93.29h1.09Z"/><path d="M78.88,98.71c0,.3,0,.6,0,.9,0,.14,0,.19-.19.19H77.8c0-.3,0-.6,0-.9,0-.14,0-.19.19-.19.3,0,.6,0,.9,0Z"/><path d="M77.79,99.79v.91q0,.19-.18.18h-.9V99.81h1.07Z"/><path d="M76.71,100.88c0,.3,0,.6,0,.9,0,.14,0,.19-.19.19h-.89v-1.08Z"/><path d="M75.62,102v.91c0,.13-.05.18-.18.18h-.9V102h1.07Z"/><path d="M104.91,42.31a3.78,3.78,0,0,1-.06,1.06l-1,0h0l0-1a3.79,3.79,0,0,1,1.06-.07Z"/><path d="M62.61,108.48a4.2,4.2,0,0,1-.06,1.06l-1,0h0l0-1a3.69,3.69,0,0,1,1.05-.07Z"/><path d="M61.52,109.56a3.76,3.76,0,0,1-.06,1.06l-1,0h0l0-1a3.78,3.78,0,0,1,1.06-.06Z"/><path d="M60.44,110.65a4.2,4.2,0,0,1-.06,1.06l-1,0h0l0-1a3.74,3.74,0,0,1,1.06-.07Z"/><path d="M59.35,111.73a3.78,3.78,0,0,1-.06,1.06l-1,0h0l0-1a3.78,3.78,0,0,1,1.06-.06Z"/><path d="M106,41.22a4.15,4.15,0,0,1-.06,1.06l-1,0h0V41.22H106Z"/><path d="M57.18,115a3.44,3.44,0,0,1-.06,1.06l-1,0h0l0-1a3.45,3.45,0,0,1,1.06-.07Z"/><path d="M56.1,116.07a4.2,4.2,0,0,1-.06,1.06l-1,0h0l0-1a3.74,3.74,0,0,1,1.06-.06Z"/><path d="M55,117.15a3.83,3.83,0,0,1-.07,1.07l-1,0h0l0-1a3.78,3.78,0,0,1,1.06-.06Z"/><path d="M52.85,122.58a3.79,3.79,0,0,1-.07,1.06l-1,0h0v-1.08h1.09Z"/><path d="M51.76,123.66a4.15,4.15,0,0,1-.06,1.06l-1,0h0v-1.08h1.08Z"/><path d="M50.68,124.75a3.79,3.79,0,0,1-.07,1.06l-1,0h0v-1.08h1.09Z"/><path d="M49.59,125.83a3.74,3.74,0,0,1-.06,1.06l-1,0h0v-1.08h1.08Z"/><path d="M33.32,81.36V62c0-.11.06-.15.17-.15h.91l0,1.09v6.5c0,.2,0,.39,0,.59V80.28c0,.34,0,.68,0,1a3.78,3.78,0,0,1-1.06,0Z"/><path d="M23.55,99.79a4.6,4.6,0,0,1,.06-1.05l1.07,0h.86c.13,0,.19,0,.19-.18a3.08,3.08,0,0,1,0-.43c0-.53-.07-.47.44-.47h.64l0,1.1,0,1.07-1,0a3.44,3.44,0,0,0-.05,1.06H24.64l0-1a3.44,3.44,0,0,0-1.06-.06Z"/><path d="M32.24,86.78c0-1.67,0-3.34,0-5,0-.48,0-.41.44-.41.22,0,.44,0,.65,0h0v1.1c0,.19,0,.39,0,.59,0,1.24,0,2.49,0,3.73H32.24Z"/><path d="M34.41,61.83c0-1.31,0-2.61,0-3.92,0-.48,0-.42.44-.42h.64l0,1.09,0,3.24H34.41Z"/><path d="M70.2,6.51h-.06a4.2,4.2,0,0,1-1,0c0-.32,0-.64,0-1,0-.65,0-1.29,0-1.93,0-.31,0-.31.32-.32h.76V6.51Z"/><path d="M77.79,22.78V19.53h0l1,0a4.2,4.2,0,0,1,.06,1.06V21.7l0,1.07Z"/><path d="M55,28.2a4.09,4.09,0,0,1-1-.05,5.66,5.66,0,0,1,0-1c0-.61,0-1.22,0-1.83,0-.43,0-.36.38-.36H55V28.2Z"/><path d="M67,25v2.17H64.77V26l1,0A3.78,3.78,0,0,0,65.86,25H67Z"/><path d="M31.15,90v-3c0-.29,0-.29.28-.3h.8l0,1.09,0,2.15H31.15Z"/><path d="M35.49,57.49v-3c0-.29,0-.3.28-.3s.54,0,.8,0h0l0,1.1,0,2.15H35.49Z"/><path d="M57.19,32.55c0-.29,0-.58,0-.86s-.08-.23-.25-.24-.64.15-.81-.08,0-.52,0-.78v-.22h2.17v1.09l0,1.07H57.19Z"/><path d="M71.28,2.17l0-1a3.41,3.41,0,0,1,1.06,0c.36,0,.72,0,1.08,0h0V2.17H71.28Z"/><path d="M55,36.88c0-.64,0-1.28,0-1.92,0-.18,0-.26.24-.25h.84l0,1.09v1.07H55Z"/><path d="M30.07,92.21c0-.65,0-1.29,0-1.93,0-.17,0-.26.24-.25h.85v1.09l0,1.07H30.07Z"/><path d="M29,94.38V92.45c0-.18,0-.26.23-.25h.85l0,1.09,0,1.07H29Z"/><path d="M71.28,8.68a4.2,4.2,0,0,1-1.06-.06c0-.34,0-.68,0-1V6.51h0c.27,0,.54,0,.81,0s.28.07.28.28c0,.63,0,1.26,0,1.9Z"/><path d="M27.9,96.54c0-.64,0-1.28,0-1.92,0-.18,0-.26.24-.25H29l0,1.09,0,1.07H27.9Z"/><path d="M72.37,10.85a4.15,4.15,0,0,1-1.06-.06c0-.34,0-.68,0-1s0-.73,0-1.09h0c.27,0,.54,0,.81,0s.28.07.27.28c0,.63,0,1.26,0,1.89Z"/><path d="M22.47,102c0-.63,0-1.26,0-1.89,0-.21.05-.29.27-.28s.54,0,.81,0h0V102H22.47Z"/><path d="M74.54,14.11A4.14,4.14,0,0,1,73.48,14l0-1V11.94h.82c.21,0,.28.06.27.27,0,.64,0,1.27,0,1.9Z"/><path d="M75.62,16.27a3.78,3.78,0,0,1-1.06-.06c0-.34,0-.68,0-1V14.11h.81c.22,0,.28.06.28.27,0,.64,0,1.27,0,1.9Z"/><path d="M77.79,19.53a4.2,4.2,0,0,1-1.06-.06c0-.35,0-.69,0-1s0-.72,0-1.08h0c.27,0,.54,0,.81,0s.28.07.28.28q0,.95,0,1.89Z"/><path d="M62.61,20.61a2.43,2.43,0,0,1,0-.27c0-.26-.12-.59.07-.77s.47,0,.72,0,.57,0,.85,0c.53,0,.53,0,.53.54v.54H62.61Z"/><path d="M60.44,21.69c0-.28,0-.57,0-.85s.08-.23.25-.23h1.93c0,.27,0,.54,0,.81s-.06.28-.28.28H60.44Z"/><path d="M58.27,22.78c0-.29,0-.57,0-.86s.08-.23.26-.23h1.92v1.07l-1.07,0Z"/><path d="M56.1,23.86c0-.28,0-.57,0-.85s.08-.24.26-.23h1.92v1.08H56.1Z"/><path d="M67,22.78h.16c.3,0,.68-.13.87.07s0,.58,0,.88,0,.57,0,.86,0,.36-.38.36h-.71V22.78Z"/><path d="M75.62,23.86c0-.28,0-.57,0-.85s.08-.24.25-.23h1.92v1.08H75.62Z"/><path d="M49.59,41.22c0-.28,0-.57,0-.85s.07-.24.25-.24h1.92v1.08l-1.07,0-1.09,0Z"/><path d="M73.45,25c0-.29,0-.57,0-.86s.08-.23.25-.23c.64,0,1.28,0,1.92,0h0v1.07l-1.08,0H73.45Z"/><path d="M46.34,43.39c0-.28,0-.57,0-.85s.08-.24.25-.24H48.5v1.08l-1.07,0-1.1,0Z"/><path d="M71.28,26c0-.28,0-.57,0-.85s.08-.24.25-.23h1.93V26H71.28Z"/><path d="M43.08,45.56c0-.28,0-.57,0-.85s.07-.24.25-.24h1.92v1.08l-1.07,0-1.09,0Z"/><path d="M69.11,27.12c0-.29,0-.57,0-.86s.08-.23.25-.23h1.93v1.07l-1.08,0H69.11Z"/><path d="M37.66,52.07c0-.64,0-1.28,0-1.92,0-.18,0-.26.24-.26s.57,0,.85,0h0l0,1.09,0,1.07H37.66Z"/><path d="M67,27.12h2.17V28.2H66.94V27.12Z"/><path d="M36.57,54.24c0-.64,0-1.28,0-1.93,0-.17,0-.26.23-.25s.57,0,.86,0h0l0,1.1,0,1.07H36.57Z"/><path d="M56.1,30.37c-.29,0-.57,0-.86,0S55,30.3,55,30.13c0-.64,0-1.29,0-1.93h1.08l0,1.07v1.09Z"/><path d="M56.1,34.72V32.79c0-.18,0-.26.23-.25h.85l0,1.09,0,1.07H56.1Z"/><path d="M70.2,3.25a3.78,3.78,0,0,1,.06-1.06l1,0h0V3.25H70.2Z"/><path d="M73.45,11.94a4.21,4.21,0,0,1-1.06-.07l0-1h0l1,0a3.79,3.79,0,0,1,.07,1.06Z"/><path d="M76.7,17.36a4.09,4.09,0,0,1-1-.06l0-1h0l1,0a3.69,3.69,0,0,1,.06,1.05Z"/><path d="M64.78,20.61h.9c.13,0,.18.05.18.18v.9H64.78V20.61Z"/><path d="M65.86,21.69a4.17,4.17,0,0,1,1.06.06l0,1H65.86V21.7Z"/><path d="M55,25c0-.3,0-.6,0-.9,0-.14.05-.19.19-.19.3,0,.6,0,.9,0h0V25H55Z"/><path d="M53.93,38v-.9c0-.14,0-.19.18-.19H55V38H53.93Z"/><path d="M52.85,39.05c0-.3,0-.6,0-.9,0-.13,0-.19.19-.19h.9v1.09H52.85Z"/><path d="M51.76,40.14v-.9c0-.14.05-.19.18-.19.3,0,.61,0,.91,0h0v1.08H51.76Z"/><path d="M38.74,49.9c0-.3,0-.6,0-.9,0-.14,0-.19.19-.19h.89V49.9H38.74Z"/><path d="M39.83,48.82v-.91q0-.19.18-.18h.9v1.08H39.83Z"/><path d="M40.91,47.73c0-.3,0-.6,0-.9,0-.14.05-.19.19-.19H42v1.09H40.91Z"/><path d="M42,46.65v-.91c0-.13,0-.18.18-.18h.9v1.08H42Z"/><path d="M26.81,97.63v-.9c0-.14.05-.19.18-.19h.9v1.09H26.81Z"/><path d="M21.38,103.05a3.76,3.76,0,0,1,.07-1.06l1,0h0v1.08H21.38Z"/><path d="M20.3,104.13a4.2,4.2,0,0,1,.06-1.06l1,0h0v1.08H20.3Z"/><path d="M45.25,44.48c0-.3,0-.6,0-.91,0-.13,0-.18.19-.18h.89v1.08H45.25Z"/><path d="M48.51,42.31c0-.3,0-.6,0-.91,0-.13,0-.18.19-.18h.9V42.3H48.51Z"/><path class="cls-1" d="M39.82,122.59c-.29,0-.58,0-.87,0s-.2-.07-.21-.22.14-.65-.08-.82-.52-.05-.78,0-.23-.11-.22-.27v-1.92h.9c.13,0,.19,0,.19-.18v-.9l1,0a3.41,3.41,0,0,0,.07-1.06l1,0a3.78,3.78,0,0,0,.06-1.06H42l0,1a3.78,3.78,0,0,0,1.06.06c0,.64,0,1.27,0,1.9,0,.21-.06.29-.28.28s-.57-.09-.73,0-.07.5-.08.76,0,.29-.27.28-.57-.08-.74,0-.06.5-.07.76-.05.29-.27.29-.61-.13-.77.07,0,.51-.05.78a.83.83,0,0,0,0,.22Z"/><path class="cls-1" d="M32.23,116.07H30.34c-.22,0-.29,0-.28-.27s0-.54,0-.81h0c.36,0,.72,0,1.08,0a3.44,3.44,0,0,1,1.06.05l0,1Z"/><path class="cls-1" d="M35.48,119.32a3.78,3.78,0,0,1-1.06-.06l0-1h2.17v1.09h-1.1Z"/><path class="cls-1" d="M21.38,106.31a4.21,4.21,0,0,1-1.06-.07l0-1v0h.86c.16,0,.23,0,.23.21s0,.58,0,.87Z"/><path class="cls-1" d="M22.46,107.4a4.1,4.1,0,0,1-1.05-.07l0-1h0l1,0a4.14,4.14,0,0,1,.07,1.06Z"/><path class="cls-1" d="M23.55,108.48a4.21,4.21,0,0,1-1.06-.07l0-1h0l1,0a3.79,3.79,0,0,1,.07,1.06Z"/><path class="cls-1" d="M24.63,109.57a4.1,4.1,0,0,1-1.05-.07l0-1h0l1,0a4.1,4.1,0,0,1,.07,1Z"/><path class="cls-1" d="M25.72,110.65a4.21,4.21,0,0,1-1.06-.07l0-1,0,0,1,0a3.79,3.79,0,0,1,.07,1.06Z"/><path class="cls-1" d="M26.8,111.74a4.1,4.1,0,0,1-1.05-.07l0-1h0l1,0a3.69,3.69,0,0,1,.06,1Z"/><path class="cls-1" d="M27.89,112.82a4.21,4.21,0,0,1-1.06-.07l0-1v0l1,0a4.21,4.21,0,0,1,.07,1.06Z"/><path class="cls-1" d="M29,113.91a4.6,4.6,0,0,1-1-.07l0-1h0l1,0a3.69,3.69,0,0,1,.06,1Z"/><path class="cls-1" d="M30.06,115a4.21,4.21,0,0,1-1.06-.07l0-1v0l1,0a4.21,4.21,0,0,1,.07,1.06Z"/><path class="cls-1" d="M33.31,117.16a4.1,4.1,0,0,1-1.05-.07l0-1h0l1,0a3.78,3.78,0,0,1,.06,1.06Z"/><path class="cls-1" d="M34.4,118.24a4.2,4.2,0,0,1-1.06-.06l0-1h0l1,0a4.1,4.1,0,0,1,.07,1Z"/><path d="M36.58,119.33v-1.09h1.09v1.09Z"/><path d="M35.48,119.32h1.1c0,.26,0,.53,0,.8s-.1.3-.31.28-.55.1-.72-.06,0-.46-.06-.71C35.48,119.54,35.48,119.43,35.48,119.32Z"/><path class="cls-1" d="M40.9,123.67a4.1,4.1,0,0,1-1-.07l0-1,0,0c.28,0,.57,0,.86,0s.22.06.21.22,0,.57,0,.86Z"/><path class="cls-2" d="M40.92,123.65c0-.29,0-.57,0-.86s0-.22-.21-.22-.58,0-.86,0a.83.83,0,0,1,0-.22c0-.27-.11-.6.05-.78s.5-.07.77-.07.26-.08.27-.29-.14-.6.07-.76.49,0,.74,0,.27-.07.27-.28-.13-.61.08-.76.48-.06.73,0,.28-.07.28-.28c0-.63,0-1.26,0-1.9h1.09v.9c0,.14,0,.19.18.19h.9l0,1a3.41,3.41,0,0,0,1.06.06h1.08l0,1a4.15,4.15,0,0,0,1.06.06h1.08l0,1a3.49,3.49,0,0,0,1.07.06h1.08v1.09h-.9c-.13,0-.19,0-.19.18,0,.3,0,.6,0,.9h-.89c-.14,0-.19,0-.19.19v.9h-.9a.17.17,0,0,0-.19.19c0,.3,0,.6,0,.9h-.9c-.14,0-.19,0-.19.19v.9h0c-.65,0-1.3,0-2,0-.15,0-.21,0-.22-.22s.14-.65-.08-.82-.51,0-.78,0-.22,0-.23-.21.14-.65-.07-.82-.52,0-.79,0-.23,0-.22-.22a.43.43,0,0,0,0-.16c0-.23.1-.51-.07-.67s-.41,0-.63,0Z"/><path class="cls-3" d="M68,28.21h1.08c.27,0,.54,0,.81,0s.3,0,.28-.27,0-.54,0-.81l1.08,0h.81c.2,0,.3,0,.28-.27s0-.54,0-.81h1.08c.27,0,.54,0,.81,0s.3,0,.28-.27,0-.54,0-.81l1.08,0h.81c.2,0,.3,0,.28-.26s0-.55,0-.82h2a.17.17,0,0,0,.19-.19c0-.3,0-.61,0-.91l0-1.07h1.89c.17,0,.28,0,.27-.23s-.08-.62,0-.78.54-.06.82-.08.22-.07.21-.22c0-.42,0-.84,0-1.25,0-.21.09-.48,0-.63s-.44-.05-.67-.07h-.16c-.17,0-.22-.07-.21-.22V17.08c0-.25.07-.56,0-.73s-.47-.05-.72-.08h-.11c-.16,0-.21-.06-.21-.22s.08-.62,0-.78-.54-.06-.82-.08-.22-.07-.21-.23V13.83c0-.25.07-.57,0-.74s-.47,0-.72-.07H78c-.17,0-.22-.07-.22-.22s.09-.62-.05-.79-.54-.06-.82-.07-.22-.07-.21-.23V10.57c0-.25.07-.56,0-.73s-.47-.05-.71-.08h-.11c-.17,0-.22-.06-.22-.22,0-.39,0-.79,0-1.19,0-.23.07-.53,0-.68s-.47,0-.72-.08h0c-.22,0-.28-.06-.28-.27,0-.54,0-1.08,0-1.62,0-.22-.06-.29-.27-.28s-.57.08-.74,0-.07-.51-.07-.77-.07-.28-.28-.28-.62.14-.76-.07,0-.52,0-.79V3.25h.9c.13,0,.19-.06.18-.19v-.9h.87c.15,0,.22,0,.22-.21s0-.58,0-.87H76.7l0,1a3.69,3.69,0,0,0,1.05.06h0c0,.3,0,.6,0,.9a.17.17,0,0,0,.19.19h.9v.87c0,.15,0,.23.21.22H80l0,1.08c0,.3,0,.6,0,.9,0,.13.05.19.19.19h.9v.86c0,.16,0,.23.21.23h.86l0,1.07c0,.27,0,.54,0,.81s0,.3.27.29.54,0,.81,0v2c0,.13,0,.2.18.19h.9c0,.29,0,.58,0,.86s0,.23.21.23h.87V14.1c0,.27,0,.54,0,.81s0,.3.27.28.54,0,.81,0l0,1.07c0,.31,0,.61,0,.91,0,.13,0,.19.19.19h.9c0,.29,0,.58,0,.87s0,.23.22.22h.86l0,1.08c0,.27,0,.54,0,.81s0,.3.26.28h.82v1.08c0,.27,0,.54,0,.81s0,.3.27.28.54,0,.81,0l0,2.16c0,.27,0,.54,0,.81s0,.3.26.29.54,0,.82,0v1.07c0,.27,0,.54,0,.81s0,.3.27.29.54,0,.81,0l0,1.07c0,.28,0,.57,0,.85s0,.25.23.25.57,0,.85,0l0,1a4.2,4.2,0,0,0,1.06.06h0v.86c0,.16,0,.23.21.22h.86l0,1.07c0,.27,0,.54,0,.81s0,.3.27.29a7.3,7.3,0,0,1,.81,0v1.07c0,.27,0,.54,0,.81s0,.3.26.29a7.3,7.3,0,0,1,.81,0l0,1.07c0,.27,0,.54,0,.81s0,.3.27.29.54,0,.81,0v1.08c0,.27,0,.54,0,.81s0,.3.27.28h.81l0,1.08c0,.28,0,.56,0,.84s.05.26.24.25h.84l0,1c.34.15.7,0,1,.07l0,1.07c0,.27,0,.54,0,.81s0,.3.27.29.54,0,.81,0v1.07c0,.27,0,.54,0,.81s0,.3.27.29.54,0,.81,0l0,3.24c0,.27,0,.54,0,.81s0,.3.27.29a7.3,7.3,0,0,1,.81,0v1.07c0,.28,0,.57,0,.85s.05.25.24.25.56,0,.85,0l0,1a4.17,4.17,0,0,0,1.06.06h0c0,.65,0,1.3,0,2,0,.16,0,.23.22.23h.86l0,4.33c0,.27,0,.54,0,.81s0,.3.26.28h.82v2.16c0,.27,0,.54,0,.81s0,.3.27.29.54,0,.81,0l0,1.07c0,.63,0,1.27,0,1.9,0,.2,0,.3.26.28s.54,0,.82,0v5.42c-.28,0-.55,0-.82,0s-.27.08-.26.28c0,.63,0,1.27,0,1.9l0,2.16-1,0a3.78,3.78,0,0,0,0,1.06v1.08l-1,0a3.78,3.78,0,0,0-.06,1.06h-.9c-.13,0-.19.06-.18.19v.9h0c-.29,0-.58,0-.87,0s-.23,0-.22.21,0,.58,0,.87H106c-.27,0-.54,0-.81,0s-.3,0-.28.27,0,.54,0,.81l-1.08,0H103c-.2,0-.3,0-.28.26s0,.54,0,.82h-2.16c-.27,0-.54,0-.81,0s-.3,0-.29.27a7.3,7.3,0,0,1,0,.81H89.73c0-.29,0-.58,0-.87s-.07-.21-.23-.21h-2c0-.29,0-.57,0-.86s-.08-.23-.25-.23H85.39v-.22c0-.27.08-.6,0-.79s-.5,0-.77-.07h0c-.16,0-.22,0-.22-.21s.09-.62,0-.79-.54-.06-.82-.08-.22-.06-.22-.22.09-.61,0-.78-.54-.06-.82-.08-.22-.06-.22-.22.08-.62,0-.79-.54-.06-.82-.07-.22-.07-.22-.23.09-.61,0-.78-.54-.06-.82-.08-.22-.07-.22-.23c0-.37,0-.75,0-1.13s.07-.56,0-.74-.47,0-.71-.07h-.11c-.16,0-.22-.07-.21-.22V77.83c0-.25.07-.56,0-.74s-.47,0-.71-.07H78c-.17,0-.22-.07-.22-.22q0-.57,0-1.14c0-.25.07-.56-.05-.74s-.46,0-.71-.07h-.11c-.16,0-.22-.06-.21-.22V73.49c0-.25.07-.56,0-.74s-.47,0-.71-.07a.2.2,0,0,0-.11,0c-.17,0-.22-.06-.22-.22s.09-.62-.05-.79-.54,0-.82-.07-.22-.07-.21-.23V70.23c0-.25.07-.56-.05-.73s-.47,0-.71-.08h-.11c-.17,0-.22-.06-.22-.22s.09-.61,0-.78-.54-.06-.82-.08-.22-.07-.21-.22V67c0-.25.07-.56-.05-.73s-.47,0-.71-.08H71.5c-.17,0-.22-.07-.22-.22s.09-.62,0-.79-.54,0-.82-.07-.21-.07-.21-.23V63.72c0-.25.07-.56,0-.73s-.47-.05-.71-.07a.2.2,0,0,0-.11,0c-.17,0-.22-.07-.22-.23q0-.57,0-1.14c0-.25.07-.56,0-.73s-.46,0-.71-.07h-.11c-.16,0-.21-.07-.21-.23,0-.38,0-.76,0-1.14s.07-.56,0-.73-.47,0-.71-.07h-.11c-.17,0-.22-.07-.22-.23s.09-.61,0-.78-.54-.06-.82-.07-.21-.08-.21-.23v-2H68l0,1a3.44,3.44,0,0,0,1.06,0h8.75l.95,0a4.2,4.2,0,0,0,.06-1v-.05c.36,0,.72,0,1.08,0A3.13,3.13,0,0,0,81,55.26l0-1h2c.15,0,.22-.05.22-.21s0-.58,0-.87h2.17v1.08c-.27,0-.54,0-.81,0s-.27.07-.27.28c0,.87,0,1.74,0,2.6s0,1.52,0,2.28c0,.2,0,.29.27.28a7.3,7.3,0,0,1,.81,0c0,.28,0,.56,0,.84s.08.24.25.24h3c.27,0,.55,0,.82,0s.29,0,.28-.27,0-.54,0-.81h2c.13,0,.19,0,.19-.19,0-.3,0-.6,0-.9V56.41c0-.28,0-.56,0-.84s-.05-.26-.24-.25h-.85l0-1a4.21,4.21,0,0,0-1.06-.07c0-.28,0-.56,0-.84s-.07-.25-.25-.24H85.39V52.07l1,0A3.78,3.78,0,0,0,86.47,51h1.08c.28,0,.56,0,.85,0s.25-.05.24-.24,0-.56,0-.85l1,0a4.1,4.1,0,0,0,.07-1l1,0a3.76,3.76,0,0,0,.06-1.06l1,0a4.1,4.1,0,0,0,.07-1.05h.85c.19,0,.24-.08.23-.25s0-.57,0-.85l0-1.07,1,0a4.21,4.21,0,0,0,.07-1.06h.81c.22,0,.28-.07.27-.28,0-.88,0-1.76,0-2.65s0-1.48,0-2.22c0-.21-.05-.29-.27-.28s-.54,0-.81,0c0-.36,0-.72,0-1.08A3.16,3.16,0,0,0,94,35.82l-1,0c0-.36,0-.72,0-1.08a3.16,3.16,0,0,0-.06-1.06l-1,0,0-1a3.74,3.74,0,0,0-1.06-.06V30.59c0-.16,0-.22-.22-.22h-.86l0-1a4.1,4.1,0,0,0-1-.07l0-1a3.45,3.45,0,0,0-1.06-.07l0-1a4.1,4.1,0,0,0-1-.07c0-.23,0-.46,0-.69s.06-.39-.36-.39H81.05c-.27,0-.54,0-.81,0s-.3,0-.28.27,0,.54,0,.81H78.07c-.2,0-.3,0-.28.26s0,.54,0,.81l-1.08,0H75.9c-.2,0-.3,0-.28.27s0,.54,0,.81H74.55c-.28,0-.55,0-.82,0s-.3,0-.28.26,0,.54,0,.81l-1.07,0h-.82c-.2,0-.3,0-.28.27s0,.54,0,.81H69.36c-.18,0-.26,0-.25.23s0,.57,0,.85l-1,0A3.78,3.78,0,0,0,68,33.62H67v-.22c0-.27.07-.6,0-.79s-.5-.07-.77-.07-.28-.06-.27-.28c0-1,0-2,0-3l1.08,0h.81c.2,0,.3,0,.28-.27S68,28.48,68,28.21Zm22.78,38,0,1a4.21,4.21,0,0,0,1.06.07c0,.28,0,.56,0,.85s.07.24.25.23h1.93l1,0a4.15,4.15,0,0,0,.06-1.06h.7c.37,0,.39.06.38-.36,0-1.33,0-2.66,0-4,0-.34,0-.68,0-1a3.78,3.78,0,0,0-1.06-.05c0-.29,0-.58,0-.87s-.07-.22-.22-.22H93c-.27,0-.55,0-.82,0s-.3,0-.28.27,0,.54,0,.81l-1.07,0H90c-.18,0-.26,0-.25.23s0,.57,0,.85c-.29,0-.58,0-.86,0s-.22.07-.22.22v1.74c0,.15,0,.22.22.22s.57,0,.86,0l0,1A3.74,3.74,0,0,0,90.81,66.17Zm0,8.68H88.65c-.29,0-.58,0-.86,0s-.24.08-.24.26c0,.48,0,1,0,1.45s-.06.46.49.47h.59c0,.28,0,.57,0,.86s0,.23.22.22c.36,0,.72,0,1.08,0s.64-.14.82.07,0,.48,0,.73V79c0,.15,0,.22.21.22h.87c0,.29,0,.58,0,.87s.07.22.22.21H93.2c.26,0,.6-.08.78,0s0,.5.08.76a.06.06,0,0,1,0,.06c0,.15,0,.22.22.22s.58,0,.86,0l0,1a3.13,3.13,0,0,0,1.06.06l1,0a4.15,4.15,0,0,1,.06,1.06H95.16c-.29,0-.58,0-.86,0s-.24.08-.24.26c0,.48,0,1,0,1.44s0,.47.5.47c.2,0,.39,0,.59,0h0v.86c0,.15,0,.23.2.23h1.77c.18,0,.2-.09.2-.23s0-.58,0-.86V83.52H98.4c0,.29,0,.58,0,.86s0,.23.21.23h1.77c.17,0,.2-.09.19-.23v-3h1.09v.86c0,.15,0,.23.2.23h1.77c.18,0,.2-.09.2-.23s0-.57,0-.86V79.19h1.09c.38,0,.76,0,1.13,0a2.85,2.85,0,0,0,1-.05V77h1.09c.38,0,.76,0,1.14,0a2.81,2.81,0,0,0,1-.05l0-1c0-.3,0-.6,0-.91,0-.13-.06-.19-.19-.18h-3.07V73.77c0-.3,0-.6,0-.9,0-.14,0-.2-.19-.19h-3.07V71.6c0-.3,0-.6,0-.9,0-.14-.06-.19-.19-.19h-3.07V68.34h1.09v.86c0,.14,0,.23.2.23q.89,0,1.77,0c.18,0,.2-.1.2-.24s0-.57,0-.86V67.26c0-.3,0-.6,0-.9,0-.14-.06-.19-.19-.19h-2.83c-.19,0-.24.07-.24.25,0,.64,0,1.28,0,1.92h-3c-.19,0-.24.07-.23.25v1.92h-3c-.19,0-.24.07-.24.25,0,.64,0,1.28,0,1.92h-3c-.2,0-.24.07-.24.24ZM84.3,66.16V62c0-.14,0-.19-.19-.19h-5c-.17,0-.25,0-.25.23s0,.57,0,.85c-.29,0-.57,0-.86,0s-.22.07-.22.23c0,.93,0,1.87,0,2.81,0,.16,0,.23.22.22s.57,0,.86,0c0,.29,0,.57,0,.85s.08.24.25.24h5c.14,0,.19,0,.19-.18Zm10.84-9.75c0,.28,0,.57,0,.85s.07.24.24.23.57,0,.85,0h4.15c.13,0,.19-.05.18-.19v-5c0-.14,0-.2-.18-.19h-5c-.17,0-.25,0-.24.23s0,.57,0,.85h-.86c-.17,0-.22.06-.22.22q0,1.41,0,2.82c0,.16,0,.22.22.22Z"/><path class="cls-4" d="M74.54,1.09c0,.29,0,.58,0,.87s-.07.22-.22.21h-.87V1.09Z"/><path class="cls-4" d="M77.79,2.17a3.69,3.69,0,0,1-1.05-.06l0-1h1.09Z"/><path class="cls-5" d="M34.41,118.23a4.1,4.1,0,0,0-.07-1l-1,0a3.78,3.78,0,0,0-.06-1.06l-1,0,0-1a3.44,3.44,0,0,0-1.06-.05c-.36,0-.72,0-1.08,0a4.21,4.21,0,0,0-.07-1.06l-1,0a3.69,3.69,0,0,0-.06-1l-1,0a4.21,4.21,0,0,0-.07-1.06l-1,0a3.69,3.69,0,0,0-.06-1l-1,0a3.79,3.79,0,0,0-.07-1.06l-1,0a4.1,4.1,0,0,0-.07-1l-1,0a3.79,3.79,0,0,0-.07-1.06l-1,0a4.14,4.14,0,0,0-.07-1.06l-1,0c0-.29,0-.58,0-.87s-.07-.21-.23-.21H20.3v-1.07h2c.14,0,.19,0,.19-.19v-.9h.9c.13,0,.19,0,.19-.19,0-.3,0-.6,0-.9h2.17l0,1a3.76,3.76,0,0,0,1.06.06l0,1a3.79,3.79,0,0,0,1.06.07l0,1a3.76,3.76,0,0,0,1.06.06l0,1a3.79,3.79,0,0,0,1.06.07l0,1a3.76,3.76,0,0,0,1.06.06l0,1a3.79,3.79,0,0,0,1.06.07l0,1a3.74,3.74,0,0,0,1.06.06v.9c0,.14.06.19.19.18h2l0,1a3.78,3.78,0,0,0,1.06.06l0,1a3.74,3.74,0,0,0,1.06.07l0,1a3.78,3.78,0,0,0,1.06.06v2.17l-1,0a3.78,3.78,0,0,0-.06,1.06l-1,0a4.17,4.17,0,0,0-.06,1.06H34.41Z"/><path class="cls-1" d="M47.42,126.92V126c0-.14,0-.19.19-.19h.9v1.08Z"/><path class="cls-5" d="M85.38,91.12H84.3v-.87c0-.16,0-.22-.22-.22s-.61.09-.78,0-.06-.53-.08-.81-.06-.23-.22-.22H81.81c-.24,0-.53.07-.68,0s0-.47-.08-.71c0,0,0,0,0,0,0-.22-.06-.28-.27-.28H79.09c-.16,0-.22-.06-.21-.22s.08-.62,0-.79-.54-.06-.82-.08-.22-.06-.22-.22.09-.61-.05-.78-.53-.06-.82-.08-.22-.06-.21-.22.08-.62,0-.79-.54-.06-.82-.08-.22-.06-.22-.22.09-.61-.05-.78-.54-.06-.82-.08-.21-.06-.21-.22.08-.62-.05-.79-.54-.06-.82-.07-.22-.07-.22-.23.09-.61,0-.78-.54-.06-.82-.08-.21-.07-.21-.22.08-.62-.05-.79-.54-.06-.82-.07-.22-.07-.22-.23.09-.62,0-.78-.54-.06-.82-.08-.21-.07-.21-.23.08-.61,0-.78-.54-.06-.82-.07-.22-.07-.22-.23c0-.42,0-.83,0-1.25,0-.21.07-.49,0-.62s-.44-.05-.67-.08h-.1c-.23,0-.27-.07-.28-.27s.14-.62-.07-.77-.52,0-.79,0-.22.06-.22.22.09.62,0,.78-.54.06-.82.08-.21.07-.21.23c0,.41,0,.83,0,1.24,0,.22.09.48,0,.63s-.44,0-.67.07a.43.43,0,0,1-.16,0c-.17,0-.22.07-.22.23,0,.37,0,.75,0,1.13,0,.88,0,.88-.88.82-.16,0-.22-.08-.21-.23s0-.26,0-.38V70.18c0-.23.07-.53,0-.68s-.47-.06-.72-.07-.32,0-.32-.33V64.76c0-.23.07-.53,0-.68s-.47,0-.71-.08h-.11c-.16,0-.22-.06-.22-.22,0-.39,0-.79,0-1.19,0-.23.07-.53,0-.68s-.47,0-.72-.08h0c-.21,0-.28-.06-.28-.27s.14-.62-.07-.77-.52,0-.79,0h-.22v-.9c0-.14-.05-.19-.18-.19h-.9c0-1,0-1.93,0-2.89,0-.38,0-.37-.34-.36h-.75V53.15h1.09c0,.64,0,1.28,0,1.92,0,.18,0,.26.24.26s.57,0,.85,0c0,.3,0,.6,0,.9,0,.13,0,.19.19.19h.9c0,.64,0,1.28,0,1.92,0,.17,0,.26.24.25h.85c0,.64,0,1.28,0,1.92,0,.17,0,.26.23.25h.86v.9c0,.14,0,.19.18.19h.9c0,.64,0,1.28,0,1.92,0,.17,0,.26.23.25h.86c0,.64,0,1.28,0,1.92,0,.17,0,.26.24.25s.57,0,.85,0v.9c0,.13,0,.19.19.19H67c0,.64,0,1.28,0,1.92,0,.18,0,.27.24.26s.57,0,.85,0c0,.64,0,1.28,0,1.92,0,.18,0,.27.23.26s.57,0,.86,0c0,.3,0,.6,0,.9,0,.14.06.19.19.19.3,0,.6,0,.9,0V74.6c0,.17,0,.26.23.25h.86c0,.64,0,1.28,0,1.92,0,.17,0,.26.24.25h.85v.9c0,.13,0,.18.19.18h.9c0,.64,0,1.28,0,1.92,0,.18,0,.26.24.25h.85v.9c0,.13,0,.19.19.19h.89c0,.3,0,.6,0,.9,0,.14.06.19.19.19h.9v.9c0,.13.05.19.18.19h.9c0,.3,0,.6,0,.9,0,.14.06.19.19.19h.9v.9c0,.13.05.19.18.19H80c0,.29,0,.57,0,.86s.08.23.25.23c.64,0,1.28,0,1.92,0,0,.28,0,.57,0,.85s.08.24.25.24c.64,0,1.28,0,1.92,0h0a3.74,3.74,0,0,0,.06,1.06l1,0a3.2,3.2,0,0,1,1.07.06l0,1a3.79,3.79,0,0,0-1.06.07Z"/><path class="cls-4" d="M85.39,86.78h1.92c.17,0,.26,0,.25.23s0,.57,0,.86H85.39Z"/><path class="cls-4" d="M87.55,87.87h2c.16,0,.23,0,.23.21s0,.58,0,.87H87.86c-.21,0-.33,0-.31-.28S87.55,88.13,87.55,87.87Z"/><path class="cls-6" d="M85.39,86.78v1.08H84.3V86.78Z"/><path class="cls-4" d="M99.48,88.94a7.3,7.3,0,0,0,0-.81c0-.23.09-.28.29-.27s.54,0,.81,0V89Z"/><path class="cls-7" d="M111.4,49.9v2.16l-1,0a4.6,4.6,0,0,0-.06,1H107.1l0-1.07c0-.25,0-.51,0-.76s0-.34-.36-.34-.47,0-.71,0V48.82l1,0a4.1,4.1,0,0,0,.07-1h2.16a7,7,0,0,0,0,1,4.19,4.19,0,0,0,1.06.05h0c0,.27,0,.54,0,.81s0,.3.27.28S111.13,49.9,111.4,49.9Z"/><path class="cls-8" d="M110.34,48.81a4.19,4.19,0,0,1-1.06-.05,7,7,0,0,1,0-1h1.09Z"/><path class="cls-4" d="M106,53.16a7.3,7.3,0,0,0-.81,0c-.23,0-.28-.09-.27-.29s0-.54,0-.81H106Z"/><path class="cls-8" d="M106,51c.24,0,.47,0,.71,0s.37,0,.36.34,0,.51,0,.76l-1.07,0h0Z"/><path class="cls-8" d="M107.09,47.74a4.1,4.1,0,0,1-.07,1l-1,0c0-.3,0-.6,0-.9,0-.14,0-.2.18-.19Z"/><path class="cls-4" d="M104.9,48.82c-.27,0-.54,0-.81,0s-.28-.08-.27-.29,0-.54,0-.81h.87c.17,0,.22.06.21.22S104.91,48.53,104.9,48.82Z"/><path class="cls-4" d="M103.82,46.65c-.27,0-.54,0-.81,0s-.28-.08-.27-.29,0-.54,0-.81h1.08Z"/><path class="cls-7" d="M114.66,60.75l0,1.07c0,.63,0,1.26,0,1.9,0,.19,0,.3-.26.28s-.57-.08-.74,0-.06.5-.09.76,0,.28-.31.28c-.62,0-1.23,0-1.84,0l0-2.15c0-.26,0-.51,0-.76s0-.35-.37-.34h-.7V59.67l1,0a4.1,4.1,0,0,0,.07-1h1.07a8.7,8.7,0,0,0,0,1,4.09,4.09,0,0,0,1,0h0c0,.27,0,.54,0,.81s0,.3.26.28S114.39,60.75,114.66,60.75Z"/><path class="cls-5" d="M110.35,54.25l0,1.07h-2.16V54.25l2.17,0Z"/><path class="cls-4" d="M109.24,58.58h-.86c-.17,0-.22-.07-.22-.23,0-.65,0-1.3,0-2a7.12,7.12,0,0,0,.8,0c.25,0,.29.1.28.31C109.24,57.33,109.24,58,109.24,58.58Z"/><path class="cls-8" d="M113.59,59.66a4.09,4.09,0,0,1-1,0,8.7,8.7,0,0,1,0-1l1.09,0Z"/><path class="cls-4" d="M108.17,56.41a4.17,4.17,0,0,1-1.06-.06l0-1h1.08Z"/><path class="cls-8" d="M110.35,61.83h.7c.38,0,.38,0,.37.34s0,.5,0,.76l-1.07,0h0Z"/><path class="cls-8" d="M111.43,58.59a4.1,4.1,0,0,1-.07,1l-1,0c0-.3,0-.61,0-.91,0-.13.06-.19.19-.18Z"/><path class="cls-4" d="M110.33,64h-.82c-.22,0-.27-.08-.26-.28s0-.54,0-.81h1.08Z"/><path class="cls-5" d="M115.76,67.25a3.76,3.76,0,0,0-1.06.07l0,1h-2.16V66.18h1.35c.27,0,.6.12.78-.07s0-.49,0-.73,0-.31.27-.29.54,0,.81,0Z"/><path class="cls-4" d="M112.5,70.51c-.28,0-.55,0-.82,0s-.27-.08-.26-.28c0-.63,0-1.27,0-1.9h1.07Z"/><path class="cls-4" d="M111.43,78.11c0-.63,0-1.27,0-1.9,0-.2,0-.3.26-.28s.54,0,.82,0V78.1Z"/><path class="cls-5" d="M55,117.15a3.78,3.78,0,0,0-1.06.06l0,1h-.22c-.27,0-.6-.08-.79.05s-.07.5-.07.76-.07.28-.28.28-.61-.14-.76.07-.06.49-.05.74-.06.28-.27.27-.55,0-.82,0h0c0-.29,0-.57,0-.86s-.08-.23-.26-.23c-.64,0-1.28,0-1.92,0v-1.07c.63,0,1.26,0,1.89,0,.21,0,.3,0,.29-.27s-.09-.57,0-.73.5-.07.76-.08.29,0,.28-.27c0-.53,0-1,0-1.58,0-.32,0-.32.32-.33s.53.08.68,0,.06-.47.08-.71,0-.32.33-.33.53.07.68,0,.06-.47.08-.72,0-.32.32-.33.53.07.68,0,.06-.47.08-.72,0-.31.33-.32.53.07.68,0,.06-.47.08-.71,0-.32.33-.33.53.07.68,0,0-.47.07-.72,0-.31.33-.32.53.07.68,0,.06-.47.07-.71,0-.31.34-.33.57.13.71-.08,0-.48,0-.73-.08-.27-.29-.28-.61.14-.76-.07,0-.53,0-.8.07-.21.22-.21l1.95,0a5.71,5.71,0,0,0,0,1,3.07,3.07,0,0,0,1,.06c.31,0,.61,0,.92,0,.16,0,.22.06.22.22s0,.57,0,.86a3.69,3.69,0,0,0-1.05.07l0,1a3.78,3.78,0,0,0-1.06.06l0,1a3.74,3.74,0,0,0-1.06.07l0,1a3.78,3.78,0,0,0-1.06.06l0,1-1,0a3.41,3.41,0,0,0-.05,1.06c0,.36,0,.72,0,1.08a3.45,3.45,0,0,0-1.06.07l0,1a3.74,3.74,0,0,0-1.06.06Z"/><path class="cls-1" d="M50.68,121.49a3.49,3.49,0,0,1-1.07-.06l0-1h1.08Z"/><path class="cls-1" d="M51.76,122.58v-1.09a4.2,4.2,0,0,1,1.06.06l0,1Z"/><path class="cls-8" d="M97.32,22.78h1.09l0,5.42-1,0a3.44,3.44,0,0,0-.06,1.06H95.16c0-.29,0-.57,0-.86s-.06-.22-.22-.22-.57,0-.86,0V27.12h1.83c.33,0,.33,0,.35-.31s-.11-.56.06-.72S96.77,26,97,26s.3,0,.3-.3C97.31,24.75,97.32,23.76,97.32,22.78Z"/><path class="cls-5" d="M97.32,29.29a3.44,3.44,0,0,1,.06-1.06l1,0v1.09Z"/><path class="cls-8" d="M60.44,106.32l-1.95,0c-.15,0-.23,0-.22.21s-.08.61,0,.8.5.07.76.07.31.05.29.28.07.56,0,.73-.47.07-.71.08-.32,0-.34.33.12.56-.07.71-.45,0-.68,0-.31,0-.33.32.12.57-.07.72-.45,0-.68,0-.31,0-.33.33.11.56-.08.71-.45,0-.68,0-.31,0-.33.32.12.57-.08.72-.45,0-.68,0-.3,0-.32.33.12.57-.08.72-.45,0-.68,0-.31,0-.33.33.12.56-.08.71-.45,0-.68,0-.32,0-.32.33c0,.53,0,1,0,1.58,0,.22-.08.26-.28.27s-.61-.14-.76.08-.06.48,0,.73-.08.27-.29.27c-.63,0-1.26,0-1.89,0l-1.07,0,0-1a4.09,4.09,0,0,0-1-.06h0v-2.42c0-.92,0-.92-.9-.83-.14,0-.19,0-.19.19v.59c0,.29,0,.3-.29.3H42v-1.07h.16c.29,0,.64.09.84,0s.06-.54.09-.82,0-.23.21-.23.61.09.79,0,.07-.53.08-.81.1-.24.27-.23h1.08c.27,0,.6.12.78-.07s0-.49,0-.73,0-.3.27-.29.72,0,1.08,0,.6.12.78-.07,0-.48,0-.73,0-.28.32-.28H49.9c.25,0,.56.11.73-.07s0-.45,0-.68,0-.33.32-.34.53.08.69,0,.06-.47.08-.72,0-.32.32-.33.52.07.68,0,.06-.47.08-.71,0-.33.32-.33.53.07.69,0,.06-.47.08-.72,0-.31.32-.33.57.12.71-.07,0-.49,0-.73,0-.28-.31-.28c-.55,0-1.09,0-1.63,0-.15,0-.23,0-.23-.21s.09-.62,0-.79-.54-.07-.82-.08-.23-.11-.22-.27c0-.36,0-.73,0-1.09s.12-.61-.08-.77-.48-.05-.73,0-.29,0-.28-.27c0-.51,0-1,0-1.52s0-.39-.37-.39c-1,0-2.09,0-3.14,0-.27,0-.6.12-.78-.07s0-.48,0-.73,0-.28-.32-.28H44.39c-.15,0-.23,0-.23-.21s.09-.61,0-.79-.53-.06-.81-.08-.23,0-.23-.22.09-.61,0-.79-.54-.05-.82-.08-.23,0-.23-.21.09-.61,0-.79-.53-.07-.81-.08-.23-.1-.23-.27c0-.43,0-.87,0-1.3,0-.61,0-.61.59-.61s.49-.07.5.48v.38c0,.16,0,.23.21.23s.61-.09.78,0,.06.54.09.82,0,.23.21.23.61-.09.79,0,.07.53.08.81.11.23.27.23h1.19c.23,0,.51-.1.67.07s0,.41,0,.62c0,.38,0,.39.38.39h3.68c.2,0,.3,0,.29.27s-.09.56,0,.73.51.07.77.08.3,0,.28.27-.08.57,0,.74.5.06.76.08.28,0,.28.32c0,.54,0,1.08,0,1.63,0,.15,0,.23.21.22s.61-.09.79,0,.06.54.08.82,0,.23.22.23.61-.09.79,0,.06.54.08.82.1.23.27.22h1.08c.27,0,.61-.12.77.08s.06.48,0,.73,0,.29.27.28.76,0,1.13,0,.56-.11.73.07,0,.45,0,.68,0,.33.32.33h6.18l0,0v1.08Zm-3.26-.53c0-.57,0-.57-.57-.57h-.38a.12.12,0,0,0-.13.14c0,.3-.12.66.06.89s.48,0,.73,0H57c.14,0,.19-.06.18-.2Z"/><path class="cls-7" d="M100.58,33.64h4.33a8.69,8.69,0,0,0,0,1,4.19,4.19,0,0,0,1.06.05h0c0,.63,0,1.26,0,1.89,0,.21,0,.3-.27.29s-.57-.09-.73,0-.07.5-.08.77,0,.3-.27.28-.57-.09-.74,0-.06.5-.08.76,0,.28-.32.28h-2.92l0-1.07c0-.26,0-.51,0-.76s0-.35-.36-.34H99.5l0-1.07v-1.1h.8c.2,0,.3,0,.29-.26S100.58,33.91,100.58,33.64Z"/><path class="cls-8" d="M100.58,33.64c0,.27,0,.54,0,.81s-.09.27-.29.26h-.81V33.62Z"/><path class="cls-8" d="M106,34.71a4.19,4.19,0,0,1-1.06-.05,8.69,8.69,0,0,1,0-1l1.09,0Z"/><path class="cls-8" d="M115.75,65.08c-.27,0-.54,0-.81,0s-.27.09-.27.29.11.56,0,.73-.51.06-.78.07h-2.43l0-1.09c.61,0,1.22,0,1.84,0,.3,0,.29,0,.31-.28s-.13-.61.09-.76.49-.05.74,0,.26-.09.26-.28c0-.64,0-1.27,0-1.9h1.07Z"/><path class="cls-8" d="M110.33,53.15a4.6,4.6,0,0,1,.06-1l1,0v1.08Z"/><path class="cls-8" d="M111.4,49.9c-.27,0-.54,0-.8,0s-.28-.08-.27-.28,0-.54,0-.81h1.08Z"/><path class="cls-5" d="M110.33,53.15h1.08v1.1h-1.07l0,0V53.15Z"/><path class="cls-5" d="M95.16,29.28h2.16v1.08H95.15V29.3Z"/><path class="cls-4" d="M95.15,31.46a4.2,4.2,0,0,1-1.06-.06l0-1h1.09Z"/><path class="cls-4" d="M96.22,32.55h-.86c-.17,0-.22-.06-.21-.22v-.86h.9c.14,0,.19.06.18.19C96.23,32,96.23,32.25,96.22,32.55Z"/><path class="cls-4" d="M97.31,34.72a7.3,7.3,0,0,0-.81,0c-.23,0-.28-.09-.27-.29s0-.54,0-.81h1.08Z"/><path class="cls-8" d="M100.59,39.05h2.92c.31,0,.3,0,.32-.28s-.14-.61.08-.76.49-.06.74,0,.26-.09.27-.28-.14-.61.08-.77.48-.05.73,0,.27-.08.27-.29c0-.63,0-1.26,0-1.89h1.08V38l-1,0a3.42,3.42,0,0,0,0,1.06l0,1.07-1,0a4.2,4.2,0,0,0-.06,1.06h-3.24l0-1a3.78,3.78,0,0,0-1.06,0Z"/><path class="cls-5" d="M106,39.06a3.42,3.42,0,0,1,0-1.06l1,0v1.09Z"/><path class="cls-7" d="M97.32,22.78c0,1,0,2,0,3,0,.33-.08.3-.3.3s-.56-.11-.72.05,0,.48-.06.72,0,.31-.35.31H94.06c0-.27,0-.54,0-.81s0-.3-.27-.28-.54,0-.8,0l0-1a4.21,4.21,0,0,0-1.06-.07h0V23.87a8.44,8.44,0,0,0,1,0,3.69,3.69,0,0,0,.06-1h0c.27,0,.54,0,.8,0s.3,0,.29-.26,0-.54,0-.81h2.16a8.46,8.46,0,0,0,0,1,3.78,3.78,0,0,0,1.06.06Z"/><path class="cls-8" d="M94.07,21.71c0,.27,0,.54,0,.81s-.09.27-.29.26-.53,0-.8,0V21.69Z"/><path class="cls-8" d="M97.32,22.78a3.78,3.78,0,0,1-1.06-.06,8.46,8.46,0,0,1,0-1l1.09,0Z"/><path class="cls-4" d="M90.8,22.78c-.27,0-.54,0-.81,0s-.28-.08-.27-.28,0-.54,0-.81h1.08Z"/><path class="cls-8" d="M93,22.78a3.69,3.69,0,0,1-.06,1,8.44,8.44,0,0,1-1,0c0-.3,0-.6,0-.9,0-.13,0-.19.19-.19Z"/><path class="cls-4" d="M91.89,26c-.28,0-.55,0-.82,0s-.27-.08-.26-.29,0-.54,0-.81H91.9Z"/><path class="cls-8" d="M70.21,104.15v1.07H65.87l0,0c0-.29,0-.58,0-.86s.07-.22.22-.22h.38l3.73,0Z"/><path class="cls-8" d="M59.35,60.75h.22c.27,0,.6-.08.79,0s.07.51.07.77.07.3.28.27h0c.25,0,.57-.12.72.08s0,.45,0,.68c0,.4,0,.8,0,1.19,0,.16.06.24.22.22h.11c.24,0,.56-.12.71.08s0,.45,0,.68V69.1c0,.32,0,.31.32.33s.57-.12.72.07,0,.45,0,.68v9.49c0,.12,0,.25,0,.38s.05.21.21.23c.88.06.88.06.88-.82,0-.38,0-.76,0-1.13,0-.16,0-.24.22-.23a.43.43,0,0,0,.16,0c.23,0,.51.1.67-.07s0-.41,0-.63c0-.41,0-.83,0-1.24,0-.16,0-.22.21-.23s.65.14.82-.08,0-.51,0-.78,0-.23.22-.22.6-.08.79,0,.07.5.07.77,0,.31.28.27h.1c.23,0,.53-.1.67.08s0,.41,0,.62c0,.42,0,.83,0,1.25,0,.16,0,.22.22.23s.65-.14.82.07,0,.52,0,.78,0,.22.21.23.65-.14.82.08,0,.51,0,.78,0,.22.22.23.65-.14.82.07.05.52.05.79,0,.21.21.22.65-.14.82.08,0,.51,0,.78.06.21.22.23.65-.15.82.07.05.52.05.79,0,.21.21.22.65-.14.82.08.05.51.05.78.06.21.22.22.65-.14.82.08,0,.52,0,.79.05.21.21.22.65-.14.82.08.05.51.05.78.06.21.22.22.65-.14.82.08,0,.52,0,.79.05.22.21.22h1.69c.21,0,.3.06.27.28,0,0,0,0,0,0,0,.24-.12.57.08.71s.44,0,.68,0H83c.16,0,.21.06.22.22s-.14.65.08.81.52,0,.78,0,.23.06.22.22v.87h0l-1,0a3.44,3.44,0,0,0-.06,1.06h0l-1,0a3.76,3.76,0,0,0-.06,1.06H81a5.79,5.79,0,0,0-1,0,2.85,2.85,0,0,0,0,1c0,.37,0,.75,0,1.13l-1,0a3.43,3.43,0,0,0,0,1.06v2.16c-.3,0-.6,0-.9,0-.14,0-.19.05-.19.19,0,.3,0,.6,0,.9H76.72l0,0q0-3.12,0-6.23c0-.22-.07-.28-.28-.28s-.57.08-.73,0-.07-.51-.07-.77-.07-.27-.28-.27-.62.13-.76-.08,0-.52,0-.79v-.21h.32c.81,0,.8,0,.77-.84,0-.17,0-.26-.24-.25h-.85c0-.3,0-.6,0-.9,0-.14-.05-.19-.19-.19h-.9v-.9c0-.13,0-.19-.18-.19h-.9V87c0-.14-.05-.19-.19-.19h-.9v-.32c0-.81,0-.8-.83-.77-.17,0-.26,0-.25.24s0,.57,0,.85H70c-.26,0-.6.08-.78,0s-.07-.5-.08-.76-.06-.28-.28-.28c-1.62,0-3.25,0-4.88,0-.21,0-.28.06-.27.28,0,.54,0,1.08,0,1.62,0,.22-.06.28-.28.28s-.62-.14-.76.07,0,.52,0,.79a1.62,1.62,0,0,0,0,.22l0,1a3.76,3.76,0,0,1-1.06.07V86.78h.92c.11,0,.16,0,.17-.16V78.89c0-.87,0-.87-.9-.79-.13,0-.2.05-.19.19a2.43,2.43,0,0,1,0,.27v8.22h-.75c-.32,0-.34,0-.33.36V90H59.36c0-.2,0-.4,0-.6V73.5c0-.26.13-.61-.07-.77s-.48,0-.73,0-.28,0-.28-.32c0-.71,0-1.41,0-2.12,0-.26.13-.6-.07-.76s-.48-.06-.73,0-.29-.05-.28-.27c0-.71,0-1.41,0-2.12,0-.28.13-.64-.08-.82s-.48,0-.73,0h0c-.16,0-.23,0-.22-.21,0-.4,0-.8,0-1.2,0-.24.12-.56-.07-.71s-.45,0-.68,0S55,64,55,63.68c0-.89,0-1.77,0-2.66,0-.21-.06-.29-.28-.28s-.57.08-.73,0-.07-.5-.07-.77-.06-.28-.28-.27-.57.08-.74,0-.07-.5-.07-.76-.06-.28-.28-.28-.62.14-.76-.07,0-.52-.05-.79v-.22h3c.21,0,.29,0,.28.27s-.08.57,0,.74.5.07.77.07.27.06.28.28-.14.62.07.76.52,0,.79,0h.21l0,1a3.74,3.74,0,0,0,1.06.07h0c0,.64,0,1.28,0,1.92,0,.17.05.26.24.25h.85c0,1.19,0,2.38,0,3.57,0,.24-.12.55,0,.72s.48,0,.73,0,.29,0,.3-.29V64l0-1a3.78,3.78,0,0,0-1.06,0V60.75ZM61.52,70V69.1c0-.79,0-.79-.81-.77-.2,0-.28,0-.28.28,0,.74,0,1.48,0,2.22s0,.79.81.77c.2,0,.28,0,.28-.27C61.51,70.88,61.52,70.42,61.52,70Z"/><path class="cls-5" d="M81,93.3h1.09v1.08a3.44,3.44,0,0,1-1.06-.06Z"/><path class="cls-5" d="M78.89,96.55a3.43,3.43,0,0,1,0-1.06l1,0v1.09Z"/><path class="cls-8" d="M99.49,34.71v1.1l-1.08,0h0a3.49,3.49,0,0,1,0-1.07Z"/><path class="cls-4" d="M98.39,36.89a7.3,7.3,0,0,0-.81,0c-.23,0-.28-.09-.26-.29s0-.54,0-.81H98.4Z"/><path class="cls-4" d="M110.34,81.36a3.78,3.78,0,0,1,0-1.06l1,0v1.08Z"/><path class="cls-4" d="M102.74,87.86c0-.28,0-.55,0-.82s.08-.27.28-.26h.81v1.07Z"/><path class="cls-4" d="M107.08,85.69c0-.29,0-.58,0-.87s.07-.22.22-.21.58,0,.87,0v1.08Z"/><path class="cls-4" d="M104.91,86.77c0-.27,0-.54,0-.81s.08-.28.28-.27.54,0,.81,0v1.08Z"/><path class="cls-4" d="M80,4.34h-.86c-.17,0-.22-.07-.21-.22V3.25H80Z"/><path class="cls-4" d="M81.05,6.51h-.9c-.14,0-.19-.06-.19-.19,0-.3,0-.6,0-.9h1.08Z"/><path class="cls-4" d="M82.12,7.6h-.86c-.17,0-.22-.07-.21-.23V6.51h1.08Z"/><path class="cls-4" d="M83.21,9.77c-.27,0-.54,0-.81,0s-.28-.09-.27-.29,0-.54,0-.81h1.08Z"/><path class="cls-4" d="M84.3,11.93h-.9c-.14,0-.19-.06-.18-.19v-.9H84.3Z"/><path class="cls-4" d="M85.38,13h-.87c-.16,0-.21-.07-.21-.23s0-.57,0-.86h1.08Z"/><path class="cls-4" d="M86.46,15.19c-.27,0-.54,0-.81,0s-.28-.08-.27-.28,0-.54,0-.81h1.08Z"/><path class="cls-4" d="M87.56,17.35h-.9c-.14,0-.19-.06-.19-.19,0-.3,0-.6,0-.91h1.07Z"/><path class="cls-8" d="M74.55,102v1.07H72.38l0,0c0-.27,0-.54,0-.81s.08-.27.28-.27c.63,0,1.26,0,1.89,0Z"/><path class="cls-8" d="M72.37,104.14H70.21l0,0c0-.26,0-.53,0-.8s.07-.28.27-.27h1.89l0,0Z"/><path class="cls-4" d="M88.63,18.44h-.86c-.17,0-.22-.07-.22-.22s0-.58,0-.87h1.08Z"/><path class="cls-4" d="M89.72,20.61H88.9c-.22,0-.27-.08-.26-.28s0-.54,0-.81h1.07Z"/><path class="cls-5" d="M104.91,41.22a4.2,4.2,0,0,1,.06-1.06l1,0v1.09Z"/><path class="cls-5" d="M101.67,41.21h3.24V42.3a3.79,3.79,0,0,0-1.06.07l0,1h-1.08v-.9c0-.13,0-.19-.18-.19-.3,0-.6,0-.9,0h0Z"/><path class="cls-4" d="M102.73,44.48c-.35,0-.71.08-1-.07l0-1h1.09Z"/><path class="cls-8" d="M114.66,60.75c-.27,0-.54,0-.81,0s-.27-.09-.26-.28,0-.54,0-.81h1.09Z"/><path class="cls-4" d="M109.25,83.53a3.78,3.78,0,0,1,.06-1.06l1,0v1.08Z"/><path class="cls-4" d="M78.88,3.25H78a.17.17,0,0,1-.19-.19c0-.3,0-.6,0-.9h1.09Z"/><path class="cls-4" d="M108.17,84.61v-.9c0-.13,0-.19.18-.19h.9v1.08Z"/><path class="cls-5" d="M83.22,92.2a3.44,3.44,0,0,1,.06-1.06l1,0V92.2Z"/><path class="cls-5" d="M82.13,93.29a3.76,3.76,0,0,1,.06-1.06l1,0v1.09Z"/><path class="cls-8" d="M76.71,100.88H75.63l0,0c0-.29,0-.57,0-.86s.06-.22.22-.22h.86l0,0Z"/><path class="cls-8" d="M75.63,102H74.55l0,0c0-.28,0-.57,0-.85s0-.22.21-.22h.86l0,0Z"/><path class="cls-1" d="M50.67,123.66c0-.3,0-.6,0-.9,0-.13.06-.19.19-.18h.9v1.08Z"/><path class="cls-1" d="M49.59,124.75v-.9c0-.14,0-.19.19-.19h.9v1.08Z"/><path class="cls-1" d="M48.51,125.83c0-.3,0-.6,0-.9a.17.17,0,0,1,.19-.19h.9v1.08Z"/><path class="cls-7" d="M75.61,100.87h-.86c-.16,0-.22.06-.21.22s0,.57,0,.85c-.63,0-1.26,0-1.89,0-.2,0-.29.05-.28.27s0,.54,0,.81H70.47c-.2,0-.29,0-.27.27s0,.54,0,.8l-3.73,0h-.38c-.15,0-.22.05-.22.22s0,.57,0,.86H59.67c-.31,0-.31,0-.32-.33s.1-.53,0-.68-.48-.06-.73-.07-.75,0-1.13,0-.28-.08-.27-.28.08-.58,0-.73-.5-.07-.77-.08H55.28c-.17,0-.26,0-.27-.22s.14-.65-.08-.82-.52-.05-.79,0-.2-.08-.22-.23.15-.65-.08-.82-.52,0-.79,0-.21-.07-.21-.22c0-.55,0-1.09,0-1.63,0-.31,0-.3-.28-.32s-.6.13-.76-.08,0-.49,0-.74-.08-.26-.28-.27-.61.14-.77-.08-.05-.49,0-.73-.09-.27-.29-.27H46.71c-.42,0-.37,0-.38-.39,0-.21.1-.48,0-.62s-.44-.06-.67-.07H44.43c-.16,0-.26,0-.27-.23s.15-.65-.08-.81-.52,0-.79,0-.2-.08-.21-.23.14-.65-.09-.82-.52,0-.78,0-.22-.07-.21-.23v-.38c0-.55.06-.47-.5-.48s-.59,0-.59.61c0,.43,0,.87,0,1.3,0,.17,0,.26.23.27s.65-.15.81.08,0,.52,0,.79.08.2.23.21.65-.14.82.08,0,.53,0,.79.08.2.23.22.65-.15.81.08.05.52,0,.79.08.21.23.21H46c.3,0,.3,0,.32.28s-.11.57,0,.73.51.07.78.07c1.05,0,2.09,0,3.14,0,.42,0,.38,0,.37.39s0,1,0,1.52c0,.23.08.27.28.27s.58-.08.73,0,.07.51.08.77,0,.73,0,1.09c0,.16,0,.26.22.27s.65-.15.82.08.05.52,0,.79.08.21.23.21c.54,0,1.08,0,1.63,0,.3,0,.31,0,.31.28s.07.56,0,.73-.47,0-.71.07-.3,0-.32.33.12.57-.08.72-.46,0-.69,0-.3,0-.32.33.12.57-.08.71-.45,0-.68,0-.3,0-.32.33.12.57-.08.72-.46,0-.69,0-.3,0-.32.34.1.53,0,.68-.48.06-.73.07H48.82c-.3,0-.3,0-.32.28s.11.57,0,.73-.51.06-.78.07-.72,0-1.08,0-.27.09-.27.29.11.56,0,.73-.51.06-.78.07H44.43c-.17,0-.26,0-.27.23s.15.65-.08.81-.52,0-.79,0-.2.08-.21.23.14.66-.09.82-.55,0-.84,0H42l-1.07,0,0-1a5.3,5.3,0,0,0-1-.07c0-.28,0-.57,0-.86s-.06-.22-.22-.21h-.86c0-.29,0-.57,0-.86s-.05-.22-.21-.22-.58,0-.86,0c-.05-.34,0-.68,0-1a3.83,3.83,0,0,0-1.07,0l-1.07,0,0-1a5.25,5.25,0,0,0-1.05-.07c0-.28,0-.57,0-.86s-.06-.22-.22-.21h-.86c0-.29,0-.57,0-.86s-.06-.22-.22-.22-.57,0-.85,0c0-.28,0-.57,0-.85s-.06-.22-.22-.22h-.86c0-.29,0-.57,0-.86s-.06-.22-.22-.22-.57,0-.85,0c0-.28,0-.57,0-.85s-.06-.22-.22-.22H29c0-.29,0-.57,0-.86s-.06-.22-.22-.22-.57,0-.85,0c0-.28,0-.57,0-.85s-.06-.22-.22-.22h-.86l0-1.08,0-1.07a8.61,8.61,0,0,0,1,0,4.17,4.17,0,0,0,.05-1.06h.91c.13,0,.18-.06.18-.19,0-.3,0-.61,0-.91l0-1.07h.7c.37,0,.37,0,.36-.34s0-.5,0-.76l0-1.07h.7c.38,0,.38,0,.37-.34s0-.5,0-.76l0-1.07h.71c.37,0,.37,0,.36-.34s0-.5,0-.76l0-2.15c.23,0,.47,0,.7,0s.38,0,.37-.34,0-.51,0-.76c0-1.24,0-2.49,0-3.73,0-.2,0-.4,0-.59h2.16v1.92c0,.17,0,.26.23.25s.57,0,.85,0c0,.27,0,.53,0,.8s.09.3.31.29c1,0,.74.18.78-.78,0-.22,0-.33-.29-.31s-.53,0-.8,0c0-.64,0-1.28,0-1.92,0-.17,0-.26-.24-.25s-.57,0-.85,0V69.87a1.47,1.47,0,0,1,0-.21c0-.21-.08-.24-.26-.24s-.54,0-.81,0v-6.5c.23,0,.47,0,.7,0,.38,0,.38,0,.37-.34s0-.51,0-.76l0-3.24h.71c.37,0,.37,0,.36-.34s0-.51,0-.76l0-2.15h.7c.38,0,.38,0,.37-.34s0-.5,0-.75l0-1.07h.71c.37,0,.37,0,.36-.34s0-.5,0-.75l0-1.07a8.44,8.44,0,0,0,1,0,3.76,3.76,0,0,0,.06-1.06h.89c.14,0,.19,0,.19-.19v-.9h.9c.13,0,.19-.05.19-.18,0-.3,0-.6,0-.91h.89c.14,0,.19,0,.19-.19v-.9h0c.27,0,.54,0,.81,0s.3,0,.28-.27,0-.54,0-.8l1.07,0h.9c.14,0,.2-.05.2-.18,0-.31,0-.61,0-.91h.81c.2,0,.3,0,.28-.27s0-.53,0-.8l1.07,0h.9c.13,0,.19,0,.19-.18V42.3h.8c.2,0,.3,0,.29-.27s0-.53,0-.8l1.07,0h.9c.13,0,.2,0,.19-.18v-.91h.9c.14,0,.19-.06.19-.19,0-.3,0-.6,0-.9h.9c.13,0,.19,0,.18-.19V38h1.92c.18,0,.26,0,.26-.24s0-.57,0-.85h.9c.13,0,.19-.05.19-.18,0-.3,0-.6,0-.91l0-1.08a7,7,0,0,0,1,0,4.09,4.09,0,0,0,.05-1V31.46h2.17c0,.28,0,.57,0,.85s0,.23.21.22h.86l0,1.07c0,1,0,1.94,0,2.92,0,.39,0,.79,0,1.19,0,.19-.07.25-.25.24h-.65c-.14,0-.19.05-.19.19s0,.25,0,.38V41c0,.18,0,.27-.24.25h-.54c-.29,0-.3,0-.3.29q0,.81,0,1.62c0,.17,0,.27-.23.26s-.61-.11-.78,0-.06.54-.07.83-.08.21-.23.21h-2c0-.27,0-.54,0-.81s-.1-.29-.31-.28c-1,0-.75-.18-.78.78,0,.21,0,.33.28.31s.54,0,.81,0c0,.44,0,.87,0,1.3,0,.27.08.61,0,.79s-.51,0-.77.08h0c-.16,0-.23.06-.22.22v1.08c0,.27.08.61-.05.79s-.5.05-.76.08h-.06c-.16,0-.22.06-.22.22,0,.42,0,.83,0,1.25,0,.21.07.49,0,.63s-.43.06-.66.07c-.38,0-.38,0-.38.38V54c0,.15,0,.28-.22.27s-.61-.09-.78,0-.06.53-.08.82-.06.22-.22.21h-1.2c-.23,0-.53-.07-.68,0s-.06.47-.07.71,0,.33-.33.33H46.06c-.88,0-.88,0-.81.87v0c0,.11.06.16.17.16h6.34v.22c0,.27-.08.6.05.79s.5.07.76.07.28.06.28.28-.13.61.07.76.49.06.74,0,.27.06.28.27-.14.61.07.77.48,0,.73,0,.28.07.28.28c0,.89,0,1.77,0,2.66,0,.31,0,.31.33.32s.53-.07.68,0,.07.47.07.71c0,.4,0,.8,0,1.2,0,.16.06.23.22.21h0c.25,0,.59-.08.73,0s.07.54.08.82c0,.71,0,1.41,0,2.12,0,.22.07.28.28.27s.57-.08.73,0,.07.5.07.76c0,.71,0,1.41,0,2.12,0,.31,0,.31.28.32s.57-.08.73,0,.07.51.07.77V89.44c0,.2,0,.4,0,.6v1.08c-.26,0-.53,0-.8,0s-.29.1-.29.31c0,.63,0,1.25,0,1.87h-.9c-.13,0-.19,0-.19.18,0,.3,0,.6,0,.91h-.91c-.13,0-.18.06-.18.19v.9c-.27,0-.54,0-.8,0s-.3.1-.29.31c0,1-.18.75.78.79.22,0,.33,0,.31-.29s0-.54,0-.8H57c.13,0,.19,0,.18-.19v-.9h.9c.14,0,.19-.05.19-.18,0-.3,0-.6,0-.9.26,0,.53,0,.8,0s.31-.09.28-.31v-.11c0-.2-.09-.46.06-.61s.4-.05.61-.05c.44,0,.42,0,.42-.4v-.69h.9c.13,0,.18-.05.18-.19V90h0A3.76,3.76,0,0,0,62.58,90l0-1a1.62,1.62,0,0,1,0-.22c0-.27-.08-.6,0-.79s.5-.07.76-.07.28-.06.28-.28c0-.54,0-1.08,0-1.62,0-.22.06-.28.27-.28,1.63,0,3.26,0,4.88,0,.22,0,.28.07.28.28s-.14.62.08.76.52,0,.78,0h.22v.9c0,.13,0,.19.19.19.3,0,.6,0,.9,0h0c0,.3,0,.6,0,.9,0,.14.06.19.19.19h.9v.9c0,.13,0,.19.19.18h.89c0,.3,0,.6,0,.9,0,.14.06.19.19.19h.9v.21c0,.27-.08.61,0,.79s.5.07.76.08.28,0,.28.27-.13.61.07.77.48.05.73,0,.28.06.28.28q0,3.1,0,6.23h-.86c-.16,0-.22.06-.22.22S75.62,100.58,75.61,100.87Zm-27.1,4.36h.22c.27,0,.6.08.78,0s.07-.5.07-.77.08-.27.28-.27.62.14.77-.07,0-.52,0-.79-.06-.22-.22-.22H47.64c-.16,0-.23,0-.22.21s0,.58,0,.87l-1,0a4.1,4.1,0,0,0-.07,1c-.29,0-.58,0-.87,0s-.21.06-.21.22c0,.38,0,.76,0,1.14s.07.56,0,.73-.47,0-.71.08h-.11c-.16,0-.22.06-.22.22,0,.38,0,.76,0,1.14,0,.88,0,.87.86.81.16,0,.22,0,.22-.22s-.08-.61,0-.78.53-.06.82-.08.22,0,.22-.22-.09-.61,0-.79.54,0,.82-.08.23,0,.22-.21,0-.58,0-.87l1,0A4.1,4.1,0,0,0,48.51,105.23Z"/><path class="cls-8" d="M35.49,82.44H33.33v-1.1a3.78,3.78,0,0,0,1.06,0c0-.34,0-.68,0-1V70c0-.2,0-.39,0-.59.27,0,.54,0,.81,0s.28,0,.26.24a1.47,1.47,0,0,0,0,.21V82.44Z"/><path class="cls-8" d="M35.48,61.82c0,.25,0,.51,0,.76s0,.34-.37.34c-.23,0-.47,0-.7,0l0-1.09Z"/><path class="cls-1" d="M25.72,102H23.55v-1.09h2.17V102Z"/><path class="cls-8" d="M27.89,97.62a4.17,4.17,0,0,1-.05,1.06,8.61,8.61,0,0,1-1,0l0-1.1Z"/><path class="cls-2" d="M24.64,100.88H23.56V99.8a3.44,3.44,0,0,1,1.06.06Z"/><path class="cls-8" d="M26.8,99.79l0,1.08,0,0-1.07,0h0a3.44,3.44,0,0,1,.05-1.06Z"/><path class="cls-8" d="M33.31,86.77c0,.25,0,.5,0,.76s0,.34-.37.34-.47,0-.7,0l0-1.09Z"/><path class="cls-8" d="M36.56,57.48c0,.25,0,.51,0,.76s0,.34-.36.34H35.5l0-1.09Z"/><path class="cls-6" d="M76.71,17.35a3.69,3.69,0,0,0-.06-1.05l-1,0c0-.63,0-1.26,0-1.9,0-.21-.06-.29-.28-.27h-.81c0-.63,0-1.26,0-1.9,0-.21-.06-.28-.27-.27h-.81a3.79,3.79,0,0,0-.07-1.06l-1,0c0-.63,0-1.26,0-1.89,0-.21-.05-.29-.27-.28s-.54,0-.81,0c0-.64,0-1.27,0-1.9,0-.21-.06-.29-.28-.28s-.54,0-.81,0V3.26h1.08c0,.44,0,.87,0,1.3,0,.27-.09.61,0,.79s.5,0,.77.08h.05c.16,0,.22,0,.22.22q0,.54,0,1.08c0,.28-.13.64.08.82s.48,0,.73,0h0c.16,0,.23,0,.23.22,0,.36,0,.72,0,1.08s-.14.64.07.82.48,0,.73,0h.06c.16,0,.22.05.22.22s-.09.61,0,.78.53.06.81.08.23.06.23.22c0,.36,0,.73,0,1.09s-.14.63.07.82.48,0,.73,0h.06c.16,0,.22.05.22.21,0,.36,0,.72,0,1.08s-.13.64.08.83.48,0,.73,0h0c.16,0,.23,0,.23.21s-.09.61,0,.79.54.06.82.08.22.05.22.22c0,.36,0,.72,0,1.08s-.13.64.08.82.48,0,.73.05h0c.16,0,.23,0,.22.21v1.74c0,.15,0,.23-.21.22h-.87a4.2,4.2,0,0,0-.06-1.06l-1,0q0-.94,0-1.89c0-.21-.06-.29-.28-.28S77,17.35,76.71,17.35Z"/><path class="cls-4" d="M78.88,20.61h.87c.17,0,.22-.07.21-.22V18.65c0-.16-.06-.22-.22-.21h0c-.25,0-.59.08-.73-.05s-.06-.54-.08-.82,0-.72,0-1.08c0-.17-.07-.21-.22-.22s-.65.14-.82-.08,0-.52,0-.79-.07-.23-.23-.21h0c-.25,0-.59.07-.73,0s-.06-.54-.08-.83,0-.72,0-1.08c0-.16-.06-.23-.22-.21h-.06c-.25,0-.58.08-.73,0s-.06-.54-.07-.82,0-.73,0-1.09c0-.16-.07-.21-.23-.22s-.65.15-.81-.08,0-.51,0-.78-.06-.23-.22-.22h-.06c-.25,0-.58.08-.73,0s-.06-.54-.07-.82,0-.72,0-1.08c0-.17-.07-.23-.23-.22h0c-.25,0-.58.08-.73,0s-.06-.54-.08-.82,0-.72,0-1.08c0-.17-.06-.23-.22-.22H72.1c-.27,0-.62.13-.77-.08s0-.52,0-.79c0-.43,0-.86,0-1.3h1.09v.22c0,.27-.08.6,0,.79s.5.07.76.07.28.07.28.28-.13.61.07.77.49,0,.74,0,.28.06.27.28c0,.54,0,1.08,0,1.62,0,.21.06.31.28.27h0c.25,0,.57-.11.72.08s0,.45,0,.68c0,.4,0,.8,0,1.19,0,.16,0,.24.22.22H76c.24,0,.57-.11.71.08s0,.48,0,.73v1.14c0,.16.05.22.21.23s.65-.14.82.07.05.52.05.79,0,.23.22.22h.1c.25,0,.58-.12.72.07s0,.49,0,.74V15c0,.16.05.22.21.23s.65-.14.82.08,0,.51,0,.78.05.24.21.22h.11c.25,0,.58-.12.72.08s0,.48,0,.73v1.14c0,.15,0,.24.21.22h.16c.23,0,.51-.1.67.07s0,.42,0,.63c0,.41,0,.83,0,1.25,0,.15,0,.21-.21.22s-.65-.13-.82.08-.06.51,0,.78-.1.23-.27.23H78.89Z"/><path class="cls-4" d="M78.87,22.77c0,.3,0,.61,0,.91a.17.17,0,0,1-.19.19h-.9V22.78Z"/><path class="cls-3" d="M56.11,29.28l0-1.07c0-.27,0-.54,0-.81s0-.3-.27-.29a7.3,7.3,0,0,1-.81,0V26l1,0A4.2,4.2,0,0,0,56.1,25h1.08v2.49c0,.8,0,.79.82.77.21,0,.28-.06.27-.28,0-.63,0-1.26,0-1.9l0-1A3.76,3.76,0,0,0,57.18,25V23.87h2.16v2.5c0,.79,0,.79.82.76.21,0,.28-.06.27-.27,0-.64,0-1.27,0-1.9l0-1a3.42,3.42,0,0,0-1.06-.06V22.79l1.07,0h1.09v1.08c0,.47,0,.94,0,1.41,0,.8,0,.79.81.77.21,0,.28-.06.28-.28s-.13-.62.08-.76.51,0,.78-.05h.22v2.16H61.8c-.2,0-.3,0-.28.26s0,.54,0,.81l-1.08,0h-.81c-.2,0-.3,0-.28.27s0,.54,0,.81H56.11Z"/><path class="cls-4" d="M56.1,25A4.2,4.2,0,0,1,56,26l-1,0V25Z"/><path class="cls-4" d="M55,27.11a7.3,7.3,0,0,0,.81,0c.23,0,.28.09.27.29s0,.54,0,.81H55Z"/><path class="cls-6" d="M65.86,22.78h1.08V25H65.86Z"/><path class="cls-4" d="M63.69,27.11V25h1.09v2.17H63.69Z"/><path class="cls-6" d="M64.78,26V25h1.08A3.78,3.78,0,0,1,65.8,26Z"/><path class="cls-6" d="M64.77,27.12h1.09V28.2H64.77V27.12Z"/><path class="cls-4" d="M65.86,28.2V27.12h1.08v1.09H65.86Z"/><path class="cls-8" d="M32.22,90c0,.26,0,.51,0,.76s0,.35-.36.34h-.71V90Z"/><path class="cls-8" d="M37.65,54.23c0,.25,0,.5,0,.75s0,.35-.37.34h-.7l0-1.1Z"/><path class="cls-4" d="M56.11,29.28h2.16v1.09H56.1Z"/><path class="cls-9" d="M59.34,31.46v2.17H58.27V32.53l0-1.07Z"/><path class="cls-10" d="M59.34,31.46H58.28V30.37h1.08l0,1.07Z"/><path class="cls-10" d="M58.26,32.53v1.09H57.2l0-1.09Z"/><path class="cls-6" d="M72.37,3.25H71.28V2.17h1.08V3.25Z"/><path class="cls-4" d="M72.37,3.25V2.17h1.08v.9c0,.13,0,.19-.18.19Z"/><path class="cls-8" d="M57.18,36.88c0,.28,0,.57,0,.85s-.08.24-.26.24H55V36.88h2.17Z"/><path class="cls-10" d="M56.09,34.71h1.09v1.09H56.11Z"/><path class="cls-9" d="M56.11,35.8h1.08v1.08H56.1Z"/><path class="cls-8" d="M31.14,92.19c0,.26,0,.51,0,.76s0,.35-.37.34h-.7l0-1.09Z"/><path class="cls-8" d="M30.05,94.36c0,.26,0,.51,0,.76s0,.35-.36.34H29l0-1.09Z"/><path class="cls-8" d="M29,96.53c0,.3,0,.61,0,.91,0,.13-.05.19-.18.19h-.91V96.54Z"/><path class="cls-1" d="M23.55,102c0,.3,0,.6,0,.9,0,.14-.06.19-.19.19h-.9V102Z"/><path class="cls-4" d="M61.52,22.78H60.43V21.7h1.89c.22,0,.29-.06.28-.28s0-.54,0-.81h2.16v1.08h0c-.28,0-.55,0-.82,0s-.28.06-.27.28c0,1,0,2,0,3h-.22c-.27,0-.6-.08-.78.05s-.08.5-.08.76-.07.27-.28.28c-.81,0-.81,0-.81-.77,0-.47,0-.94,0-1.41.25,0,.5,0,.75,0s.32,0,.32-.32.08-.53,0-.68-.47-.05-.71-.08S61.63,22.78,61.52,22.78Z"/><path class="cls-4" d="M59.35,23.86H58.26V22.78h1.09v1.08Z"/><path class="cls-4" d="M57.19,23.87V25H56.1V23.87Z"/><path class="cls-4" d="M76.71,23.87c0,.27,0,.55,0,.82s-.08.27-.28.26h-.81V23.87Z"/><path class="cls-8" d="M50.68,41.24c0,.27,0,.54,0,.8s-.09.28-.29.27h-.8V41.22Z"/><path class="cls-8" d="M52.84,40.13V41c0,.13-.06.18-.19.18h-.9V40.13Z"/><path class="cls-4" d="M74.54,25c0,.27,0,.54,0,.81s-.08.28-.28.27-.54,0-.81,0V25Z"/><path class="cls-8" d="M47.43,43.41c0,.27,0,.54,0,.8s-.08.28-.28.27h-.81V43.39Z"/><path class="cls-8" d="M49.59,42.3v.91c0,.13-.06.18-.19.18h-.9V42.3Z"/><path class="cls-4" d="M72.37,26c0,.27,0,.55,0,.81s-.08.28-.28.27h-.81V26Z"/><path class="cls-8" d="M44.17,45.58c0,.26,0,.54,0,.8s-.09.28-.28.27-.54,0-.81,0V45.56Z"/><path class="cls-8" d="M46.33,44.47c0,.3,0,.6,0,.91,0,.13-.06.18-.2.18h-.9V44.47Z"/><path class="cls-4" d="M70.2,27.13c0,.27,0,.54,0,.81s-.08.28-.28.27-.54,0-.81,0V27.12Z"/><path class="cls-8" d="M38.73,52.06c0,.25,0,.5,0,.75s0,.35-.36.34h-.71l0-1.1Z"/><path class="cls-8" d="M39.83,49.89A3.76,3.76,0,0,1,39.77,51a8.44,8.44,0,0,1-1,0l0-1.09Z"/><path class="cls-4" d="M68,28.21c0,.27,0,.54,0,.81s-.08.28-.28.27h-.81V28.2H68Z"/><path class="cls-9" d="M57.18,35.79V34.7l0-1.07h1.07v1.08l0,1.08H57.18Z"/><path class="cls-4" d="M65.86,25H64.78V21.7h1.08V25Z"/><path class="cls-8" d="M55,38v.9c0,.14,0,.19-.18.19h-.91V38Z"/><path class="cls-8" d="M53.93,39.05c0,.3,0,.6,0,.9,0,.13,0,.19-.19.19h-.9V39.05Z"/><path class="cls-8" d="M40.91,48.81v.9c0,.14,0,.19-.19.19h-.9V48.81Z"/><path class="cls-8" d="M42,47.72c0,.31,0,.61,0,.91,0,.13-.06.19-.19.18h-.9V47.73Z"/><path class="cls-8" d="M43.08,46.64v.9c0,.14,0,.19-.19.19H42V46.64Z"/><path class="cls-1" d="M22.47,103.05v.9c0,.14,0,.19-.19.19h-.9v-1.08Z"/><path class="cls-2" d="M42,116.07H40.91v-.9c0-.14.06-.19.19-.19H42v1.09Z"/><path class="cls-2" d="M40.91,116.07a3.78,3.78,0,0,1-.06,1.06l-1,0h0v-1.08h1.08Z"/><path class="cls-2" d="M43.08,117.15a3.78,3.78,0,0,1-1.06-.06l0-1h1.09v1.08Z"/><path class="cls-2" d="M39.83,117.15a3.41,3.41,0,0,1-.07,1.06l-1,0h0v-1.09h1.09Z"/><path class="cls-2" d="M37.65,119.31v-1.07h1.08v.9c0,.13-.06.19-.19.18Z"/><path class="cls-1" d="M36.57,118.24a4.17,4.17,0,0,1,.06-1.06l1,0h0v1.09H36.57Z"/><path d="M45.25,118.24h-.9c-.13,0-.19,0-.18-.19v-.9h2.17v1.09H45.25Z"/><path d="M47.43,118.23l1.07,0v1.07H46.34v-1.08h1.09Z"/><path d="M50.68,120.41H48.51v-1.09h0c.64,0,1.28,0,1.92,0,.18,0,.27,0,.26.23S50.68,120.12,50.68,120.41Z"/><path d="M43.08,117.15v-1.08l1,0a3.79,3.79,0,0,1,.07,1.06H43.08Z"/><path class="cls-1" d="M46.34,118.24v1.08a3.41,3.41,0,0,1-1.06-.06l0-1Z"/><path class="cls-1" d="M48.51,119.32v1.09a4.15,4.15,0,0,1-1.06-.06l0-1Z"/><path class="cls-4" d="M85.39,86.78H83.22l0-1a3.78,3.78,0,0,0-1.06,0h0v-.22c0-.27.08-.6,0-.79s-.5,0-.76-.08h0c-.17,0-.23,0-.23-.22s.09-.61,0-.78-.54-.06-.82-.08-.22-.06-.22-.22.09-.62,0-.79-.53-.06-.82-.07-.22-.07-.21-.23.08-.61,0-.78-.54-.06-.82-.08-.22-.06-.22-.22.09-.62-.05-.79-.54-.06-.82-.07-.22-.07-.21-.23.08-.61,0-.78-.54-.06-.82-.08-.22-.07-.22-.22q0-.57,0-1.14c0-.25.07-.56-.05-.74s-.46,0-.71-.07h-.11c-.16,0-.21-.07-.21-.22s.08-.62-.05-.79-.54-.06-.82-.07-.22-.07-.22-.23q0-.57,0-1.14c0-.25.07-.56,0-.73s-.46,0-.71-.08h-.11c-.16,0-.22-.06-.21-.22V72.4c0-.25.07-.56-.05-.73s-.47,0-.71-.08H71.5c-.17,0-.22-.06-.22-.22s.09-.61,0-.78-.54-.06-.82-.08-.21-.07-.21-.22V69.15c0-.25.07-.56,0-.74s-.47,0-.71-.07h-.11c-.17,0-.22-.07-.22-.22q0-.57,0-1.14c0-.25.08-.56,0-.73s-.46,0-.71-.08h-.11c-.16,0-.21-.07-.21-.22s.08-.62,0-.79-.54,0-.82-.07-.22-.07-.22-.23c0-.41,0-.83,0-1.24,0-.22.07-.49,0-.63s-.44-.05-.66-.07a.49.49,0,0,0-.17,0c-.16,0-.21-.07-.21-.23,0-.41,0-.83,0-1.24,0-.22.06-.49,0-.63s-.43,0-.66-.07H65c-.17,0-.22-.07-.22-.23s.09-.61,0-.78-.54-.06-.82-.07-.21-.08-.21-.23c0-.42,0-.83,0-1.25,0-.21.09-.48,0-.63s-.44,0-.67-.07h-.16c-.17,0-.22-.07-.22-.22,0-.42,0-.83,0-1.25,0-.21.1-.48,0-.63s-.44,0-.66-.07h-.17c-.16,0-.21-.07-.21-.22,0-.42,0-.83,0-1.25,0-.21.09-.48,0-.63s-.44,0-.67-.07H60.7c-.22,0-.27-.07-.27-.28,0-1,0-2,0-3V48.81h1.09c0,.36,0,.72,0,1.08l0,1a3.41,3.41,0,0,0,1.06.06c0,.36,0,.73,0,1.09a3.16,3.16,0,0,0,.06,1.06l1,0,0,1a3.74,3.74,0,0,0,1.06.06v.9c0,.13,0,.18.19.18h.89v2c0,.15,0,.22.21.23s.65-.14.82.07,0,.52,0,.78,0,.24.22.23h.11c.24,0,.57-.12.71.07s0,.48,0,.73,0,.76,0,1.14c0,.16,0,.24.21.23h.11c.25,0,.58-.12.71.07s0,.48,0,.73,0,.76,0,1.14c0,.16,0,.24.22.23a.2.2,0,0,1,.11,0c.24,0,.57-.12.71.07s0,.48,0,.73v1.14c0,.16,0,.22.21.23s.65-.14.82.07,0,.52,0,.79,0,.24.22.22h.11c.24,0,.57-.12.71.08s.05.48.05.73v1.14c0,.15,0,.21.21.22s.65-.14.82.08,0,.51,0,.78,0,.24.22.22h.11c.24,0,.57-.11.71.08s0,.48.05.73v1.14c0,.16,0,.22.21.23s.65-.14.82.07.05.52.05.79,0,.23.22.22a.2.2,0,0,1,.11,0c.24,0,.57-.12.71.07s0,.49,0,.74v1.14c0,.16.05.23.21.22H77c.25,0,.58-.12.71.07s.05.49.05.74,0,.76,0,1.14c0,.15,0,.23.22.22h.11c.24,0,.57-.12.71.07s0,.49,0,.74V79c0,.15.05.23.21.22h.11c.24,0,.58-.12.71.07s0,.49,0,.74,0,.76,0,1.13c0,.16.05.22.22.23s.65-.14.82.08,0,.51,0,.78.06.21.22.23.65-.15.82.07,0,.52,0,.79.06.21.22.22.65-.14.82.08,0,.51,0,.78.06.21.22.22.65-.14.82.08,0,.52,0,.79.06.23.22.21h0c.27,0,.62-.14.77.07s0,.52,0,.79Z"/><path d="M75.62,56.4h-6.5V55.32h6.51Z"/><path class="cls-4" d="M65.86,29.3c0,1,0,2,0,3,0,.22.06.28.27.28s.62-.14.77.07,0,.52,0,.79v.22h-.9c-.13,0-.19,0-.19.18v.9H64.78V29.29Z"/><path d="M95.15,61.83a3.78,3.78,0,0,1,1.06.05c0,.34,0,.68,0,1,0,1.33,0,2.66,0,4,0,.42,0,.37-.38.36h-.7V61.83Z"/><path class="cls-4" d="M94.07,38c.27,0,.54,0,.81,0s.28.07.27.28c0,.74,0,1.48,0,2.22s0,1.77,0,2.65c0,.21-.05.3-.27.28h-.82V38Z"/><path class="cls-4" d="M85.38,59.67a7.3,7.3,0,0,0-.81,0c-.22,0-.28-.08-.27-.28,0-.76,0-1.52,0-2.28s0-1.73,0-2.6c0-.21,0-.29.27-.28s.54,0,.81,0h0v5.42Z"/><path class="cls-4" d="M101.66,81.35h-1.09v-.75c0-.33,0-.34-.36-.34s-1,0-1.45,0-.36,0-.36-.34,0-.5,0-.75h3.26Z"/><path class="cls-4" d="M103.82,72.68h1.1v2.16h-1.09c0-.27,0-.54,0-.81s-.06-.29-.27-.28h-1.68c-.16,0-.23-.05-.22-.21s0-.58,0-.87h2.17Z"/><path class="cls-4" d="M95.14,81.36c-.28,0-.57,0-.86,0s-.23-.07-.22-.22a.06.06,0,0,0,0-.06c0-.26.13-.62-.08-.76s-.52,0-.78,0H92.11c-.15,0-.22,0-.22-.21s0-.58,0-.87h3.27v2.16Z"/><path class="cls-4" d="M104.92,79.18h-1.09c0-.25,0-.5,0-.75s0-.34-.36-.34-1,0-1.45,0-.37,0-.36-.34V77h3.26Z"/><path class="cls-4" d="M100.57,70.51h1.09v2.16h-1.09c0-.27,0-.54,0-.81s-.06-.29-.28-.28H98.62c-.15,0-.22-.06-.22-.22s0-.58,0-.87h2.17Z"/><path class="cls-4" d="M91.89,79.19H91c-.16,0-.23-.07-.21-.22v-.06c0-.25.08-.58,0-.73s-.54-.06-.82-.07-.72,0-1.08,0c-.17,0-.23-.06-.22-.22s0-.58,0-.86H91.9v2.16Z"/><path class="cls-4" d="M108.17,77h-1.09c0-.27,0-.54,0-.81s0-.29-.27-.28h-1.68c-.16,0-.22-.05-.22-.21s0-.58,0-.87h3.26Z"/><path class="cls-4" d="M98.41,83.52H97.32a4.15,4.15,0,0,0-.06-1.06l-1,0a3.13,3.13,0,0,1-1.06-.06l0-1h3.27Z"/><path d="M90.81,77H88.64V74.85h1.07l0,1a4.1,4.1,0,0,0,1,.07Z"/><path d="M107.08,74.85h-2.16V72.68H106l0,1a4.1,4.1,0,0,0,1,.07Z"/><path d="M91.9,72.68H93l0,1a4.21,4.21,0,0,0,1.06.07v1.08H93l-1.08,0Z"/><path d="M101.66,72.67V70.51h1.08l0,1a4.1,4.1,0,0,0,1,.07v1.08Z"/><path d="M96.24,52.07h3.24v1.08H96.23Z"/><path class="cls-4" d="M75.62,56.4V55.32h3.25v.05a4.2,4.2,0,0,1-.06,1l-.95,0Z"/><path d="M95.16,70.51h1.07l0,1a4.1,4.1,0,0,0,1,.07v1.08H95.15Z"/><path d="M80,61.84h3.24v1.08H80Z"/><path d="M100.57,70.51H98.41V68.34h1.07l0,1a4.21,4.21,0,0,0,1.06.07Z"/><path d="M68,55.33H65.87V54.24c.73,0,1.46,0,2.19,0a4.86,4.86,0,0,1,1,0,4.11,4.11,0,0,1,0,1H68Z"/><path d="M95.16,83.53h1.07l0,1a4.1,4.1,0,0,0,1,.07v1.07H95.15Z"/><path d="M98.41,83.52V81.36h1.07l0,1a4.21,4.21,0,0,0,1.06.07v1.07H98.41Z"/><path d="M100.57,53.16V56.4H99.49V53.15h1.08Z"/><path d="M101.66,81.35V79.19h1.08l0,1a4.1,4.1,0,0,0,1,.07v1.07Z"/><path d="M81.05,26h3.24v1.08H81.05Z"/><path d="M99.48,57.49H96.24V56.41h3.26Z"/><path d="M83.21,67.25H80V66.17h3.26Z"/><path d="M104.92,79.18V77H106l0,1a4.1,4.1,0,0,0,1,.07v1a2.85,2.85,0,0,1-1,.05C105.68,79.2,105.3,79.18,104.92,79.18Z"/><path class="cls-4" d="M95.14,56.41h-.86c-.17,0-.22-.06-.22-.22q0-1.41,0-2.82c0-.16,0-.22.22-.22h.87V56.4Z"/><path class="cls-4" d="M78.87,66.17c-.29,0-.57,0-.86,0s-.22-.06-.22-.22c0-.94,0-1.88,0-2.81,0-.16,0-.23.22-.23s.57,0,.86,0h0v3.24Z"/><path d="M108.17,77V74.85h1.07l0,1a4.21,4.21,0,0,0,1.06.07l0,1a2.81,2.81,0,0,1-1,.05C108.93,77,108.55,77,108.17,77Z"/><path d="M84.3,62.92v3.24H83.22V62.91H84.3Z"/><path d="M84.29,53.15H81.05V52.07H84.3Z"/><path d="M101.66,66.18h1.08l0,1a4.1,4.1,0,0,0,1,.07v1.07h-2.16Z"/><path d="M111.44,65.08l0,1.09h-1.08V62.91l1.07,0Z"/><path class="cls-4" d="M95.15,85.69h2.16c0,.28,0,.57,0,.86s0,.23-.2.23H95.35c-.17,0-.21-.08-.2-.23Z"/><path class="cls-4" d="M91.9,33.62l1,0A3.16,3.16,0,0,1,93,34.71c0,.36,0,.72,0,1.08H91.89V33.63Z"/><path class="cls-4" d="M93,35.79l1,0a3.16,3.16,0,0,1,.06,1.06c0,.36,0,.72,0,1.08H93V35.8Z"/><path d="M98.39,36.89v-1.1l1.08,0,0,1.07V38H98.41Z"/><path d="M100.59,39.05l0,1.09H99.49V38h1.07Z"/><path d="M101.67,41.21v1.1h-1.08l0-1.08V40.13h0a3.78,3.78,0,0,1,1.06,0Z"/><path d="M93,44.48l0,1.07H91.9V43.39H93Z"/><path d="M91.89,26v-1.1A4.21,4.21,0,0,1,93,25l0,1,0,1.09H91.9Z"/><path class="cls-4" d="M84.3,27.12V26h1.82c.42,0,.36,0,.36.39s0,.46,0,.69H84.3Z"/><path d="M87.55,51H85.39V49.9h2.17Z"/><path d="M106,52.06l1.07,0,0,1.07v1.09H106V52.06Z"/><path d="M78.88,27.12h2.17V28.2H78.88Z"/><path class="cls-4" d="M81.05,53.16h2.17c0,.29,0,.58,0,.87s-.07.21-.22.21H81V53.15Z"/><path d="M86.48,53.16h2.15v1.08H86.47Z"/><path d="M94.06,27.12v2.17H93l0-1.07V27.12h1.08Z"/><path class="cls-4" d="M81.05,54.24l0,1a3.13,3.13,0,0,1-1.06.06c-.36,0-.72,0-1.08,0h0V54.24h2.17Z"/><path d="M65.86,29.3H64.78V28.2H67v1.08Z"/><path class="cls-4" d="M95.16,70.51v2.17H94.06c0-.64,0-1.28,0-1.92,0-.18,0-.26.24-.25Z"/><path d="M76.71,28.21l1.08,0h1.09v1.09H76.71Z"/><path d="M91.89,56.41v2.16H90.81V56.4Z"/><path d="M90.8,59.66H88.64V58.58h2.17Z"/><path d="M88.63,60.74H86.48V59.66h2.17Z"/><path d="M74.55,29.29h2.16v1.08H74.54Z"/><path d="M93,60.75h2c.15,0,.22.06.22.22s0,.58,0,.87H93Z"/><path d="M90.82,61.84l1.07,0H93v1.08H90.81Z"/><path class="cls-4" d="M89.72,65.09c-.29,0-.58,0-.86,0s-.22-.07-.22-.22V63.13c0-.15,0-.22.22-.22s.57,0,.86,0h0v2.16Z"/><path class="cls-4" d="M101.66,66.18v2.16h-1.09c0-.64,0-1.28,0-1.92,0-.18.05-.26.24-.25Z"/><path d="M111.42,66.17h1.08v2.16h-1.08l0-1.07V66.17Z"/><path d="M72.38,30.38l1.07,0h1.09v1.09H72.37Z"/><path d="M95.15,67.25a4.15,4.15,0,0,1-.06,1.06l-1,0H93V67.25h2.17Z"/><path class="cls-4" d="M98.41,68.34V70.5H97.32V68.59c0-.18,0-.26.23-.25Z"/><path class="cls-4" d="M89.73,30.37h.86c.17,0,.22.06.22.22v1.95H89.72V30.38Z"/><path class="cls-4" d="M101.66,68.34h2.16c0,.29,0,.57,0,.86s0,.24-.2.24q-.88,0-1.77,0c-.17,0-.21-.09-.2-.23Z"/><path d="M70.21,31.46h2.16v1.08H70.2Z"/><path class="cls-4" d="M91.9,72.68v2.16H90.81V72.92c0-.17,0-.25.24-.24Z"/><path class="cls-4" d="M88.65,74.85V77h-.59c-.55,0-.49.07-.49-.47s0-1,0-1.45c0-.18,0-.27.24-.26S88.36,74.85,88.65,74.85Z"/><path class="cls-4" d="M101.66,81.35h2.16c0,.29,0,.57,0,.86s0,.23-.2.23h-1.77c-.17,0-.21-.08-.2-.23Z"/><path class="cls-4" d="M95.16,83.53v2.16c-.2,0-.39,0-.59,0-.55,0-.49.08-.5-.47s0-1,0-1.44c0-.18,0-.27.24-.26S94.87,83.53,95.16,83.53Z"/><path class="cls-4" d="M98.4,83.52h2.17v.86c0,.14,0,.23-.19.23H98.61c-.18,0-.21-.08-.21-.23S98.4,83.81,98.4,83.52Z"/><path d="M67,33.63h2.16v1.09H66.94V33.63Z"/><path class="cls-4" d="M81.05,27.12H80c0-.27,0-.54,0-.81S80,26,80.24,26s.54,0,.81,0Z"/><path class="cls-4" d="M78.88,28.2H77.79c0-.27,0-.54,0-.81s.08-.28.28-.26h.81Z"/><path class="cls-4" d="M86.48,27.11a4.1,4.1,0,0,1,1,.07l0,1H86.47V27.12Z"/><path class="cls-4" d="M93,27.12v1.09c-.27,0-.54,0-.81,0s-.28-.08-.27-.29,0-.54,0-.81Z"/><path class="cls-4" d="M76.71,29.29H75.62c0-.27,0-.54,0-.81s.08-.28.28-.27h.81Z"/><path class="cls-4" d="M87.56,28.2a3.45,3.45,0,0,1,1.06.07l0,1H87.56V28.21Z"/><path class="cls-4" d="M74.54,30.37H73.45c0-.27,0-.54,0-.81s.08-.28.28-.26.54,0,.82,0Z"/><path class="cls-4" d="M88.65,29.28a4.1,4.1,0,0,1,1,.07l0,1H88.64V29.29Z"/><path class="cls-4" d="M93,29.28h1.07v1.08h0c-.28,0-.57,0-.85,0S93,30.3,93,30.13,93,29.56,93,29.28Z"/><path class="cls-4" d="M72.37,31.46H71.28c0-.27,0-.54,0-.81s.08-.28.28-.27h.82Z"/><path class="cls-4" d="M70.21,31.46v1.08H69.11c0-.28,0-.57,0-.85s.07-.24.25-.23Z"/><path class="cls-4" d="M69.11,33.62H68a3.78,3.78,0,0,1,.06-1.06l1,0h0v1.08Z"/><path class="cls-4" d="M90.81,32.54a3.74,3.74,0,0,1,1.06.06l0,1H90.81V32.55Z"/><path class="cls-4" d="M99.49,38v1.09c-.27,0-.54,0-.81,0s-.28-.09-.27-.29,0-.54,0-.81Z"/><path class="cls-4" d="M80,66.17v1.08h-.85c-.17,0-.25-.05-.25-.24s0-.56,0-.85H80Z"/><path class="cls-4" d="M83.22,66.17H84.3v.91c0,.13,0,.19-.19.18h-.9Z"/><path class="cls-4" d="M91.89,67.26a4.21,4.21,0,0,1-1.06-.07l0-1H91.9v1.08Z"/><path class="cls-4" d="M88.64,54.24V53.16h.85c.18,0,.26.05.25.24s0,.56,0,.84H88.64Z"/><path class="cls-6" d="M103.82,67.26a4.1,4.1,0,0,1-1-.07l0-1h.9c.13,0,.19,0,.19.19C103.82,66.66,103.82,67,103.82,67.26Z"/><path class="cls-4" d="M111.42,66.17v1.09c-.27,0-.54,0-.81,0s-.28-.08-.27-.29,0-.54,0-.81Z"/><path class="cls-4" d="M93,67.25v1.08h-.85c-.18,0-.26,0-.25-.23s0-.57,0-.85H93Z"/><path class="cls-4" d="M86.48,53.16v1.08H85.38V53.15h1.09Z"/><path class="cls-4" d="M86.47,59.66v1.08h-.85c-.17,0-.25,0-.25-.24s0-.56,0-.84h1.09Z"/><path class="cls-6" d="M100.57,69.43a4.21,4.21,0,0,1-1.06-.07l0-1h1.09Z"/><path class="cls-4" d="M99.48,57.49V56.41h1.08v.9c0,.14,0,.19-.18.19Z"/><path class="cls-4" d="M88.63,60.74V59.66h1.09c0,.27,0,.54,0,.81s-.08.28-.28.27S88.9,60.74,88.63,60.74Z"/><path class="cls-6" d="M97.31,71.6a4.1,4.1,0,0,1-1-.07l0-1h1.09Z"/><path class="cls-4" d="M100.57,53.16H99.49V52.07h.91c.13,0,.19,0,.18.19Z"/><path class="cls-4" d="M96.24,52.07v1.08H95.14c0-.28,0-.57,0-.85s.07-.24.24-.23Z"/><path class="cls-6" d="M103.82,71.6a4.1,4.1,0,0,1-1-.07l0-1h.9c.13,0,.19,0,.19.19C103.82,71,103.82,71.3,103.82,71.6Z"/><path class="cls-4" d="M84.29,53.15V52.07h1.09v1.08h-1.1Z"/><path class="cls-6" d="M94.06,73.77A4.21,4.21,0,0,1,93,73.7l0-1h1.09Z"/><path class="cls-4" d="M85.39,51h1.08a3.78,3.78,0,0,1-.06,1.06l-1,0h0V51Z"/><path class="cls-6" d="M107.07,73.77a4.1,4.1,0,0,1-1-.07l0-1h.9c.14,0,.19,0,.19.19C107.08,73.17,107.08,73.47,107.07,73.77Z"/><path class="cls-4" d="M93,61.83H91.89c0-.27,0-.54,0-.81s.08-.28.28-.27.55,0,.82,0Z"/><path class="cls-4" d="M87.55,51V49.9h1.09c0,.29,0,.57,0,.85s-.07.24-.24.24S87.83,51,87.55,51Z"/><path class="cls-6" d="M90.8,75.94a4.1,4.1,0,0,1-1-.07l0-1h1.09Z"/><path class="cls-4" d="M89.73,48.82a4.1,4.1,0,0,1-.07,1l-1,0h0V48.81h1.09Z"/><path class="cls-6" d="M110.33,75.94a4.21,4.21,0,0,1-1.06-.07l0-1h.91c.13,0,.19.05.19.18C110.33,75.34,110.33,75.64,110.33,75.94Z"/><path class="cls-4" d="M90.81,47.73a3.76,3.76,0,0,1-.06,1.06l-1,0h0V47.73h1.09Z"/><path class="cls-6" d="M107.07,78.11a4.1,4.1,0,0,1-1-.07l0-1h1.09Z"/><path class="cls-4" d="M91.9,46.65a4.1,4.1,0,0,1-.07,1.05l-1,0h0V46.64H91.9Z"/><path class="cls-6" d="M103.82,80.28a4.1,4.1,0,0,1-1-.07l0-1h1.09Z"/><path class="cls-4" d="M91.9,45.56H93c0,.28,0,.57,0,.85s0,.25-.23.25h-.86V45.56Z"/><path class="cls-6" d="M100.57,82.45a4.21,4.21,0,0,1-1.06-.07l0-1h1.09Z"/><path class="cls-4" d="M80,61.84v1.07H78.87c0-.28,0-.56,0-.85s.08-.24.25-.23Z"/><path class="cls-6" d="M97.31,84.62a4.1,4.1,0,0,1-1-.07l0-1h1.09Z"/><path class="cls-4" d="M84.3,62.92H83.22V61.84h.9c.14,0,.19.05.19.19Z"/><path class="cls-4" d="M90.82,61.84v1.07H89.72c0-.28,0-.56,0-.85s.07-.24.25-.23Z"/><path class="cls-4" d="M96.23,56.41v1.08c-.28,0-.56,0-.85,0s-.25,0-.24-.23,0-.57,0-.85h1.09Z"/><path class="cls-4" d="M68,55.33h1.09V56.4a3.44,3.44,0,0,1-1.06,0Z"/><path class="cls-4" d="M106,54.23h1.08v1.09h0c-.29,0-.57,0-.85,0s-.24-.08-.24-.25S106,54.51,106,54.23Z"/><path class="cls-4" d="M93,44.48V43.39h1.09A4.21,4.21,0,0,1,94,44.45Z"/><path class="cls-4" d="M89.73,54.23a4.21,4.21,0,0,1,1.06.07l0,1H89.72V54.24Z"/><path class="cls-4" d="M90.8,59.66V58.58h1.08c0,.3,0,.6,0,.9,0,.14-.06.19-.19.19Z"/><path class="cls-4" d="M100.58,42.3h1.08v1.08h-.85c-.19,0-.25-.07-.24-.25S100.58,42.58,100.58,42.3Z"/><path class="cls-4" d="M91.89,56.41H90.81V55.33h.86c.19,0,.24.07.24.25S91.89,56.13,91.89,56.41Z"/><path class="cls-4" d="M90.81,66.17a3.74,3.74,0,0,1-1.06-.06l0-1h1.09v1.07Z"/><path class="cls-4" d="M100.57,40.13v1.09h-.81c-.23,0-.28-.08-.27-.28s0-.54,0-.81Z"/><path d="M35.49,109.54l1.07,0,0,1.07H34.41v-1.09Z"/><path class="cls-1" d="M38.74,116.07V113.9h1.09v2.18H38.74Z"/><path class="cls-1" d="M26.81,103.05a3.76,3.76,0,0,1-1.06-.06l0-1h1.09v1.09Z"/><path class="cls-1" d="M27.89,104.14a3.79,3.79,0,0,1-1.06-.07l0-1H27.9v1.09Z"/><path class="cls-1" d="M29,105.22a3.76,3.76,0,0,1-1.06-.06l0-1H29v1.09Z"/><path class="cls-1" d="M30.06,106.31a3.79,3.79,0,0,1-1.06-.07l0-1h1.09v1.09Z"/><path class="cls-1" d="M31.15,107.39a3.76,3.76,0,0,1-1.06-.06l0-1h1.09v1.09Z"/><path class="cls-1" d="M32.23,108.48a3.79,3.79,0,0,1-1.06-.07l0-1h1.09v1.09Z"/><path class="cls-1" d="M33.32,109.56a3.74,3.74,0,0,1-1.06-.06l0-1h1.09v1.09Z"/><path class="cls-1" d="M34.41,109.55v1.09h-.9c-.13,0-.19,0-.19-.18v-.9h1.09Z"/><path class="cls-1" d="M35.49,110.65h1.08v1.09h0a3.78,3.78,0,0,1-1.06-.06Z"/><path class="cls-1" d="M37.66,112.82a3.74,3.74,0,0,1-1.06-.07l0-1h1.09v1.09Z"/><path class="cls-1" d="M38.74,113.9a3.78,3.78,0,0,1-1.06-.06l0-1h1.08v1.09Z"/><path class="cls-1" d="M37.66,117.15a3.78,3.78,0,0,1,.06-1.06l1,0h0v1.08H37.66Z"/><path d="M57.18,53.15v3.26h-.9c-.14,0-.18-.06-.18-.19,0-.3,0-.61,0-.91l0-2.15Z"/><path d="M57.18,56.41h.75c.33,0,.34,0,.34.36,0,1,0,1.93,0,2.89H57.18V56.4Z"/><path d="M82.13,86.78c-.64,0-1.28,0-1.92,0-.17,0-.26,0-.25-.23s0-.57,0-.86h2.17v1.08Z"/><path d="M83.22,86.77H84.3v1.09c-.64,0-1.28,0-1.92,0-.17,0-.26,0-.25-.24s0-.57,0-.85h1.09Z"/><path d="M58.27,53.15H57.18V52.06l0-1.07h1.08v2.17Z"/><path d="M59.35,55.32c-.28,0-.57,0-.85,0s-.24-.08-.24-.26c0-.64,0-1.28,0-1.92h.85c.2,0,.24.08.23.25v1.92Z"/><path d="M61.52,58.58h-.85c-.2,0-.24-.08-.24-.25,0-.64,0-1.28,0-1.92h0c.28,0,.57,0,.85,0s.24.08.23.26v1.92Z"/><path d="M62.61,60.74h-.86c-.19,0-.23-.08-.23-.25,0-.64,0-1.28,0-1.92h0c.29,0,.57,0,.85,0s.24.08.24.26c0,.64,0,1.28,0,1.92Z"/><path d="M64.78,64h-.86c-.19,0-.23-.08-.23-.25,0-.64,0-1.28,0-1.92h0c.28,0,.57,0,.85,0s.24.08.24.25c0,.64,0,1.28,0,1.92Z"/><path d="M65.86,66.17c-.28,0-.57,0-.85,0s-.24-.08-.24-.25c0-.64,0-1.28,0-1.92h0c.29,0,.57,0,.86,0s.24.08.23.25v1.92Z"/><path d="M68,69.42c-.28,0-.57,0-.85,0s-.24-.08-.24-.26c0-.64,0-1.28,0-1.92h.85c.19,0,.23.08.23.25v1.92Z"/><path d="M69.12,71.59c-.29,0-.57,0-.86,0s-.23-.08-.23-.26c0-.64,0-1.28,0-1.92h0c.28,0,.57,0,.85,0s.24.08.24.25c0,.64,0,1.28,0,1.92Z"/><path d="M71.29,74.85h-.86c-.19,0-.23-.08-.23-.25V72.68h0c.28,0,.57,0,.85,0s.24.08.24.26c0,.64,0,1.28,0,1.92Z"/><path d="M72.37,77h-.85c-.2,0-.24-.08-.24-.25,0-.64,0-1.28,0-1.92h0c.29,0,.57,0,.86,0s.23.08.23.26c0,.64,0,1.28,0,1.92Z"/><path d="M74.54,80.27h-.85c-.2,0-.24-.07-.24-.25,0-.64,0-1.28,0-1.92h0c.29,0,.57,0,.86,0s.23.08.23.25c0,.64,0,1.28,0,1.92Z"/><path d="M67,67.25h-.9c-.14,0-.19-.06-.19-.19v-.9h.9c.13,0,.19,0,.19.19,0,.3,0,.6,0,.9Z"/><path d="M58.27,59.66h.9c.13,0,.19.05.18.19v.9H58.27V59.66Z"/><path d="M70.2,72.68c-.3,0-.6,0-.9,0-.13,0-.19-.05-.19-.19,0-.3,0-.6,0-.9H70c.14,0,.19.06.19.19v.9Z"/><path d="M63.69,61.83h-.9c-.13,0-.19,0-.18-.19v-.9h.89c.14,0,.19.06.19.19v.9Z"/><path d="M73.46,78.1h-.9c-.14,0-.19,0-.19-.18V77h.9q.2,0,.18.18v.9Z"/><path d="M75.62,81.35h-.89c-.14,0-.19-.06-.19-.19v-.9h.9c.13,0,.19,0,.18.19v.9Z"/><path d="M76.71,82.44h-.9c-.13,0-.19,0-.19-.19,0-.3,0-.6,0-.9h.9c.14,0,.19,0,.19.18,0,.3,0,.6,0,.9Z"/><path d="M77.79,83.52h-.9c-.13,0-.18-.06-.18-.19v-.9h.9c.13,0,.19,0,.18.19v.9Z"/><path d="M78.88,84.61H78c-.13,0-.19,0-.19-.19,0-.3,0-.6,0-.9h.9a.17.17,0,0,1,.19.19c0,.3,0,.6,0,.9Z"/><path d="M80,85.69h-.9c-.13,0-.19-.06-.18-.19v-.9h.9c.13,0,.19,0,.18.19v.9Z"/><path d="M60.44,56.41h-.9c-.14,0-.19-.06-.19-.19,0-.3,0-.6,0-.9h.9c.13,0,.19,0,.19.19,0,.3,0,.6,0,.9Z"/><path class="cls-8" d="M107.09,54.24V53.15h3.24v1.08l-2.17,0-1.08,0Z"/><path d="M107.08,54.23l1.08,0v1.07h-1.08Z"/><path class="cls-5" d="M94.07,29.29V28.2c.29,0,.58,0,.86,0s.22.06.22.22,0,.57,0,.86l0,0H94.07Z"/><path class="cls-5" d="M44.17,117.15a3.79,3.79,0,0,0-.07-1.06l-1,0h0V115H45c.28,0,.28,0,.29-.3v-.59c0-.14,0-.18.19-.19.9-.09.9-.09.9.83v2.42Z"/><path d="M39.83,116.07v-2.18h1.09l1.07,0V115h-.9c-.13,0-.19,0-.19.19v.9Z"/><path class="cls-5" d="M57.18,105.79v.32c0,.14,0,.21-.18.2h-.11c-.25,0-.59.12-.73,0s0-.59-.06-.89a.12.12,0,0,1,.13-.14h.38C57.18,105.22,57.18,105.22,57.18,105.79Z"/><path d="M43.07,115v1.08H42V115Z"/><path class="cls-5" d="M47.43,118.23h-1.1v-1.09a4.09,4.09,0,0,1,1,.06Z"/><path class="cls-8" d="M100.56,38H99.49V36.88h.71c.37,0,.37,0,.36.34S100.57,37.72,100.56,38Z"/><path d="M94.06,29.29h1.08v1.08H94.07Z"/><path class="cls-8" d="M94.06,27.12H93L93,26c.26,0,.54,0,.8,0s.28.09.27.28S94.06,26.85,94.06,27.12Z"/><path class="cls-5" d="M57.18,56.4v3.26H57c-.27,0-.61.08-.79,0s-.07-.5-.07-.76-.07-.28-.28-.28-.61.13-.77-.07S55,58,55,57.76s-.07-.27-.28-.27h-3c0-.27,0-.54,0-.81s.05-.28.27-.28h2.16c.27,0,.61.13.77-.07s.06-.48,0-.73,0-.3.27-.28.54,0,.81,0c0,.3,0,.61,0,.91,0,.13,0,.19.18.19Z"/><path class="cls-5" d="M61.52,86.78V78.56a2.43,2.43,0,0,0,0-.27c0-.14.06-.18.19-.19.9-.08.9-.08.9.79v7.73c0,.11-.06.16-.17.16Z"/><path class="cls-5" d="M59.35,62.92a3.78,3.78,0,0,1,1.06,0l0,1v3c0,.29,0,.3-.3.29s-.56.11-.73,0,0-.48,0-.72c0-1.19,0-2.38,0-3.57Z"/><path class="cls-5" d="M60.44,90v-2.9c0-.38,0-.37.33-.36h.75V90H60.44Z"/><path class="cls-5" d="M61.52,70c0,.45,0,.91,0,1.36,0,.22-.08.26-.28.27-.81,0-.81,0-.81-.77s0-1.48,0-2.22c0-.23.08-.27.28-.28.81,0,.81,0,.81.77Z"/><path class="cls-5" d="M58.27,60.75h1.08v2.17H58.5c-.19,0-.24-.08-.24-.25C58.27,62,58.27,61.39,58.27,60.75Z"/><path class="cls-5" d="M58.27,59.66v1.09a3.74,3.74,0,0,1-1.06-.07l0-1Z"/><path class="cls-7" d="M70.2,86.78c0-.28,0-.57,0-.85s.08-.23.25-.24c.84,0,.84,0,.83.77v.32H70.2Z"/><path class="cls-7" d="M71.28,86.78h.9c.14,0,.19,0,.19.19v.9H71.29V86.78Z"/><path class="cls-7" d="M72.37,87.87h.9c.13,0,.19.06.18.19V89H72.37V87.86Z"/><path class="cls-7" d="M73.45,89h.9c.14,0,.19,0,.19.19,0,.3,0,.6,0,.9H73.46V89Z"/><path class="cls-5" d="M59.35,91.12V90h1.07v1.09H59.35Z"/><path class="cls-7" d="M74.54,90h.85c.19,0,.23.08.24.25,0,.84,0,.84-.77.84h-.32V90Z"/><path d="M101.66,43.38V42.3c.3,0,.6,0,.9,0,.13,0,.18.06.18.19v.9Z"/><path class="cls-8" d="M56.09,55.31c-.27,0-.54,0-.81,0s-.28.08-.27.28.08.58,0,.73-.5.07-.77.07H52c-.22,0-.29.07-.27.28s0,.54,0,.81H45.42c-.11,0-.17-.05-.17-.16v0c-.07-.87-.07-.87.81-.87h4.29c.32,0,.31,0,.33-.33s-.12-.56.07-.71.45,0,.68,0h1.2c.16,0,.21,0,.22-.21s-.14-.65.08-.82.51-.06.78,0,.22-.12.22-.27V51.36c0-.37,0-.36.38-.38.23,0,.52.11.66-.07s0-.42,0-.63c0-.42,0-.83,0-1.25,0-.16.06-.23.22-.22h.06c.26,0,.62.13.76-.08s0-.52.05-.79V46.86c0-.16.06-.23.22-.22h0c.26,0,.62.14.77-.08s0-.52,0-.79c0-.43,0-.86,0-1.3h1.94c.15,0,.22,0,.23-.21s-.14-.64.07-.83.51,0,.78,0,.23-.09.23-.26q0-.81,0-1.62c0-.28,0-.28.3-.29h.54c.2,0,.25-.07.24-.25V38.54c0-.13,0-.26,0-.38s0-.2.19-.19h.65c.18,0,.26,0,.25-.24,0-.4,0-.8,0-1.19,0-1,0-1.95,0-2.92h1.07v6.5l-1,0a3.42,3.42,0,0,0,0,1.06l0,2.15-1,0a3.44,3.44,0,0,0,0,1.06l0,1.07H58.43c-.08,0-.16,0-.16.11a2.41,2.41,0,0,0,0,.9c.08.18.43,0,.66.07h.16c.16,0,.22.07.21.22v2h-.86c-.16,0-.23,0-.22.22s0,.57,0,.86a8.7,8.7,0,0,0-1,0A3.78,3.78,0,0,0,57.19,51l0,1.07-1,0a3.43,3.43,0,0,0,0,1.06Z"/><path class="cls-8" d="M47.43,106.31c0,.29,0,.58,0,.87s-.07.2-.22.21-.65-.14-.82.08-.05.52,0,.79-.07.21-.22.22-.65-.14-.82.08,0,.52,0,.78-.06.21-.22.22c-.86.06-.86.07-.86-.81,0-.38,0-.76,0-1.14,0-.16.06-.24.22-.22h.11c.24,0,.58.12.71-.08s0-.48,0-.73,0-.76,0-1.14c0-.16,0-.23.21-.22s.58,0,.87,0v0l0,1a3.36,3.36,0,0,0,1,.06Z"/><path class="cls-8" d="M47.41,104.13c0-.29,0-.58,0-.87s.06-.21.22-.21h2.82c.16,0,.22,0,.22.22s.07.6,0,.79-.5.06-.77.07-.28.06-.28.27.14.62-.07.77-.51,0-.78,0h-.22v0l0-1a3.36,3.36,0,0,0-1-.06Z"/><path class="cls-8" d="M59.35,91.12h1.09v.69c0,.43,0,.39-.42.4-.21,0-.46-.1-.61.05s0,.41-.06.61V93c0,.22,0,.33-.28.31s-.54,0-.8,0h0c0-.62,0-1.24,0-1.87,0-.21,0-.32.29-.31S59.09,91.12,59.35,91.12Z"/><path class="cls-8" d="M59.37,31.46l0-1.07,2.17,0v1.08l0,0Z"/><path d="M63.69,33.63H62.62l0-1.07V31.46c.28,0,.57,0,.85,0s.25.07.24.25v1.93Z"/><path class="cls-8" d="M36.57,84.61c-.28,0-.57,0-.85,0s-.24-.08-.23-.25V82.44h0c.28,0,.57,0,.85,0s.24.08.24.25c0,.64,0,1.28,0,1.92Z"/><path class="cls-8" d="M62.6,31.46v1.09h-.86c-.16,0-.21-.06-.21-.22s0-.57,0-.85l0,0Z"/><path class="cls-8" d="M58.28,34.71V33.63h1.08a4.09,4.09,0,0,1-.05,1A7,7,0,0,1,58.28,34.71Z"/><path class="cls-8" d="M57.19,35.8h1.07c0,.31,0,.61,0,.91,0,.13-.06.18-.19.18h-.9Z"/><path class="cls-8" d="M36.57,84.61c.27,0,.54,0,.8,0s.3.09.29.31c0,1,.18.74-.78.78-.22,0-.33,0-.31-.29s0-.53,0-.8Z"/><path class="cls-8" d="M71.29,86.78v1.09c-.3,0-.6,0-.9,0-.14,0-.19-.06-.19-.19v-.9Z"/><path class="cls-8" d="M72.37,87.86V89h-.9c-.13,0-.19,0-.19-.19,0-.3,0-.6,0-.9Z"/><path class="cls-8" d="M73.46,89V90h-.9c-.14,0-.19,0-.19-.18V89Z"/><path class="cls-8" d="M60.44,91.12V90h1.09v.9c0,.14-.05.19-.18.19Z"/><path class="cls-8" d="M74.54,90v1.09h-.9c-.13,0-.19-.05-.19-.19,0-.3,0-.6,0-.9Z"/><path class="cls-8" d="M57.19,94.38c0-.31,0-.61,0-.91,0-.13.06-.18.19-.18h.9c0,.3,0,.6,0,.9,0,.13-.05.19-.19.18h-.89Z"/><path class="cls-8" d="M56.1,95.46v-.9c0-.13,0-.19.18-.19h.9v.9c0,.14,0,.19-.18.19Z"/><path class="cls-8" d="M56.1,95.46c0,.26,0,.53,0,.8s-.09.29-.31.29c-1,0-.74.17-.78-.79,0-.21,0-.33.29-.31s.53,0,.8,0Z"/><path class="cls-8" d="M57.19,44.47c-.27,0-.54,0-.81,0s-.29-.1-.28-.31c0-1-.18-.75.78-.78.21,0,.33,0,.31.28s0,.54,0,.81Z"/><path class="cls-8" d="M26.82,100.87h.86c.16,0,.22.06.22.22s0,.57,0,.85l0,0-1.07,0h0l0-1.07Z"/><path class="cls-8" d="M27.91,102c.28,0,.57,0,.85,0s.22.06.22.22,0,.57,0,.86l0,0-1.07,0h0l0-1.07Z"/><path class="cls-8" d="M29,103h.86c.16,0,.22.06.22.22s0,.57,0,.85l0,0-1.07,0h0l0-1.07Z"/><path class="cls-8" d="M30.08,104.12c.28,0,.57,0,.85,0s.22.06.22.22,0,.57,0,.86l0,0-1.07,0h0l0-1.07Z"/><path class="cls-8" d="M46.33,105.21a4.1,4.1,0,0,1,.07-1l1,0h0v1.08H46.34Z"/><path class="cls-8" d="M31.16,105.21H32c.16,0,.22.06.22.22s0,.57,0,.85l0,0-1.07,0h0l0-1.07Z"/><path class="cls-8" d="M48.51,105.23a4.1,4.1,0,0,1-.07,1l-1,0h0v-1.08H48.5Z"/><path class="cls-8" d="M32.25,106.29c.28,0,.57,0,.85,0s.22.06.22.22,0,.57,0,.86l0,0-1.07,0h0l0-1.07Z"/><path class="cls-8" d="M33.33,107.38h.86c.16,0,.22,0,.22.21s0,.58,0,.86l0,0-1.07,0h0l0-1.07Z"/><path class="cls-8" d="M35.49,109.54H34.41l0-1.07,0,0a5.25,5.25,0,0,1,1.05.07Z"/><path class="cls-8" d="M36.58,110.64l0-1.07a3.83,3.83,0,0,1,1.07,0c.07.34,0,.68,0,1l0,0-1.08,0Z"/><path class="cls-8" d="M37.67,110.63c.28,0,.57,0,.86,0s.22.06.21.22,0,.57,0,.86l0,0-1.07,0h0v-1.07Z"/><path class="cls-8" d="M38.75,111.72h.86c.16,0,.22,0,.22.21s0,.58,0,.86l0,0H38.75l0-1.07Z"/><path class="cls-8" d="M40.92,113.88H39.83v-1.08l0,0a5.3,5.3,0,0,1,1,.07Z"/><path d="M26.8,100.89l0,1.07H25.73v-1.09Z"/><path d="M61.52,30.37l-2.17,0H58.27V29.29h1.94c.16,0,.23-.05.23-.21s0-.58,0-.87l1.08,0h1.09v1.09h0l-1,0a3.78,3.78,0,0,0-.06,1.06Z"/><path class="cls-4" d="M59.35,23.87a3.42,3.42,0,0,1,1.06.06l0,1c0,.63,0,1.26,0,1.9,0,.21-.06.27-.27.27-.82,0-.82,0-.82-.76v-2.5Z"/><path class="cls-4" d="M57.18,25a3.76,3.76,0,0,1,1.06.06l0,1c0,.64,0,1.27,0,1.9,0,.22-.06.27-.27.28-.82,0-.82,0-.82-.77V25Z"/><path d="M64.78,27.12V28.2H62.61V27.12h2.17Z"/><path class="cls-6" d="M61.52,22.78c.11,0,.22,0,.33,0s.56-.12.71.08,0,.44,0,.68,0,.32-.32.32-.5,0-.75,0Z"/><path class="cls-4" d="M62.61,27.12V28.2H61.52c0-.27,0-.54,0-.81s.08-.28.28-.26Z"/><path class="cls-4" d="M60.44,28.21c0,.29,0,.58,0,.87s-.07.22-.23.21h-.86c0-.27,0-.54,0-.81s.08-.28.28-.27Z"/><path class="cls-6" d="M64.78,21.7V25H63.69c0-1,0-2,0-3,0-.22.06-.29.27-.28S64.5,21.7,64.78,21.7Z"/><path d="M38.74,117.15v-1.08h1.09v1.08Z"/><path d="M37.66,117.15h1.08v1.09H37.66Z"/><path class="cls-6" d="M60.44,56.41c0-.3,0-.6,0-.9,0-.14-.06-.19-.19-.19h-.9V53.4c0-.17,0-.26-.23-.25h-.85V51h.9c.13,0,.18,0,.18-.18v-.9h1.08c0,1,0,2,0,3,0,.21,0,.32.27.28h.11c.23,0,.51-.1.67.07s0,.42,0,.63c0,.42,0,.83,0,1.25,0,.15,0,.24.21.22h.17c.22,0,.51-.1.66.07s0,.42,0,.63c0,.42,0,.83,0,1.25,0,.15,0,.24.22.22H63c.23,0,.51-.1.67.07s0,.42,0,.63c0,.42,0,.83,0,1.25,0,.15.05.22.21.23s.65-.14.82.07,0,.51,0,.78,0,.24.22.23h.16c.23,0,.52-.11.66.07s0,.41,0,.63c0,.41,0,.83,0,1.24,0,.16,0,.24.21.23a.49.49,0,0,1,.17,0c.22,0,.52-.11.66.07s0,.41,0,.63c0,.41,0,.83,0,1.24,0,.16,0,.22.22.23s.65-.14.82.07,0,.52,0,.79,0,.24.21.22h.11c.25,0,.58-.12.71.08s0,.48,0,.73,0,.76,0,1.14c0,.15,0,.24.22.22h.11c.24,0,.57-.12.71.07s0,.49,0,.74v1.14c0,.15,0,.21.21.22s.65-.14.82.08,0,.51,0,.78,0,.24.22.22h.11c.24,0,.57-.11.71.08s.05.48.05.73v1.14c0,.16,0,.24.21.22h.11c.25,0,.58-.11.71.08s0,.48,0,.73,0,.76,0,1.14c0,.16,0,.22.22.23s.65-.14.82.07.05.52.05.79,0,.23.21.22h.11c.25,0,.58-.12.71.07s.05.49.05.74,0,.76,0,1.14c0,.15,0,.21.22.22s.65-.14.82.08,0,.51,0,.78.05.22.21.23.65-.15.82.07.05.52.05.79.06.21.22.22.65-.14.82.08,0,.51,0,.78.05.21.21.23.65-.15.82.07,0,.52,0,.79.06.21.22.22.65-.14.82.08,0,.52,0,.78.06.24.23.22h0c.26,0,.62-.13.76.08s0,.52,0,.79v.22H80v-.9c0-.14,0-.19-.18-.19h-.9c0-.3,0-.6,0-.9a.17.17,0,0,0-.19-.19h-.9v-.9c0-.14-.05-.19-.18-.19h-.9c0-.3,0-.6,0-.9,0-.13,0-.19-.19-.18h-.9v-.9c0-.14-.05-.19-.18-.19h-.9c0-.64,0-1.28,0-1.92,0-.17,0-.26-.23-.25s-.57,0-.86,0v-.9q0-.2-.18-.18h-.9c0-.64,0-1.28,0-1.92,0-.18,0-.26-.23-.26s-.57,0-.86,0c0-.64,0-1.28,0-1.92,0-.18,0-.26-.24-.26s-.57,0-.85,0v-.9c0-.13,0-.19-.19-.19h-.9c0-.64,0-1.28,0-1.92,0-.17,0-.26-.24-.25s-.57,0-.85,0V67.5c0-.17,0-.26-.23-.25h-.86c0-.3,0-.6,0-.9,0-.14-.06-.19-.19-.19h-.9V64.25c0-.17,0-.26-.23-.25s-.57,0-.86,0c0-.64,0-1.28,0-1.92,0-.17,0-.26-.24-.25s-.57,0-.85,0v-.9c0-.13,0-.19-.19-.19h-.89c0-.64,0-1.28,0-1.92,0-.18,0-.27-.24-.26s-.56,0-.85,0V56.66c0-.18,0-.27-.23-.26S60.72,56.41,60.44,56.41Z"/><path d="M61.51,45.55l0-1.07h1.08v4.35H60.44c0-.65,0-1.29,0-1.94,0-.19.07-.25.25-.24h.59c.18,0,.26,0,.25-.24S61.52,45.84,61.51,45.55Z"/><path class="cls-3" d="M61.53,48.82H62.6V51h0a3.41,3.41,0,0,1-1.06-.06l0-1C61.52,49.54,61.52,49.18,61.53,48.82Z"/><path class="cls-3" d="M63.69,53.15l-1,0a3.16,3.16,0,0,1-.06-1.06c0-.36,0-.73,0-1.09h1.08v2.17Z"/><path class="cls-3" d="M64.78,54.24a3.74,3.74,0,0,1-1.06-.06l0-1h1.08v1.09Z"/><path d="M60.43,49.89H59.35V48.81h1.09Z"/><path class="cls-6" d="M83.22,86.77H82.13V85.7a3.78,3.78,0,0,1,1.06,0Z"/><path class="cls-3" d="M65.86,54.24v1.08H65c-.14,0-.2,0-.19-.18v-.9h1.08Z"/><path class="cls-2" d="M62.6,48.82V44.47c.27,0,.54,0,.81,0s.28-.06.28-.28c0-1,0-2,0-3h.71c.37,0,.37,0,.38-.38,0-1.23,0-2.46,0-3.69,0-.21.06-.27.28-.28s.62.14.76-.07,0-.52,0-.79V35.8H67c0,.49,0,1,0,1.46,0,.22.07.49,0,.63s-.43.06-.66.07-.38,0-.38.39V43.6c0,.27-.08.61,0,.79s.5.07.76.08.28.06.28.28c0,.7,0,1.4,0,2.11,0,.27-.08.6,0,.79s.5.07.77.07.28.06.27.28c0,.56,0,1.12,0,1.68,0,.16,0,.22.22.22s.61-.09.78.05.06.53.08.82.06.22.22.22.62-.09.79,0,.06.54.08.82.06.22.22.22.61-.09.78,0,.06.54.08.82.07.22.22.21h1.14c.25,0,.56-.07.74.05s0,.47.07.71a.06.06,0,0,1,0,.06c0,.22.07.28.28.27.63,0,1.26,0,1.9,0v1.09H69.11a4.11,4.11,0,0,0,0-1,4.86,4.86,0,0,0-1,0c-.73,0-1.46,0-2.19,0h0v-.9c0-.13,0-.19-.19-.19h-.9c0-.64,0-1.29,0-1.93,0-.17,0-.26-.24-.25s-.57,0-.85,0h0V49.06c0-.17,0-.26-.23-.25Z"/><path d="M65.86,35.8V36c0,.27.08.6,0,.79s-.5.07-.76.07-.28.07-.28.28c0,1.23,0,2.46,0,3.69,0,.37,0,.38-.38.38h-.71V33.63h1.08v2c0,.13,0,.19.18.19Z"/><path class="cls-6" d="M64.77,33.63H63.69V31.7c0-.18,0-.25-.24-.25s-.57,0-.85,0h0V30.37h2.16Z"/><path d="M64.77,30.37H62.61V29.29h2.16Z"/><path class="cls-6" d="M67,33.63v1.08H65.86v-.9c0-.14.06-.19.19-.18Z"/><path class="cls-6" d="M65.86,35.8H65c-.13,0-.19-.06-.18-.19v-.9h1.08V35.8Z"/><path class="cls-6" d="M95.15,67.26H94.07l0-1A3.78,3.78,0,0,0,93,66.17h0l0-1a3.49,3.49,0,0,0-1.07-.06h0V62.92H93A3.44,3.44,0,0,0,94,62.85l0-1h1.08Z"/><path d="M94.06,43.38H93V38h1.08Z"/><path d="M86.47,59.66H85.39V54.24h1.08v5.42Z"/><path class="cls-3" d="M100.57,81.36H97.32V79.19H98.4c0,.25,0,.5,0,.75s0,.35.36.34,1,0,1.45,0,.37,0,.36.34Z"/><path class="cls-3" d="M103.83,79.19h-3.26V77h1.09v.74c0,.33,0,.35.36.34s1,0,1.45,0,.36,0,.36.34S103.83,78.94,103.83,79.19Z"/><path d="M100.57,78.11v1.08H98.41V77h1.07l0,1A4.21,4.21,0,0,0,100.57,78.11Z"/><path class="cls-3" d="M100.57,72.68h1.08c0,.29,0,.58,0,.87s.06.22.22.21h1.68c.21,0,.28.06.27.28s0,.54,0,.81h-3.26V72.68Z"/><path class="cls-3" d="M107.08,77h-3.26V74.85h1.08c0,.29,0,.58,0,.87s.06.22.22.21h1.68c.22,0,.29.07.27.28S107.08,76.75,107.08,77Z"/><path class="cls-3" d="M95.16,79.19h-1.1V77h1.08l0,1a3.13,3.13,0,0,0,1.06.06c.34,0,.68,0,1,0a4.15,4.15,0,0,1,.06,1.06H95.16Z"/><path d="M95.16,79.19h1.07l0,1a4.1,4.1,0,0,0,1,.07v1.07H95.15Z"/><path d="M94.06,78.11v1.08H91.9V77H93l0,1A4.21,4.21,0,0,0,94.06,78.11Z"/><path d="M103.82,75.94V77h-2.16V74.85h1.08l0,1A4.1,4.1,0,0,0,103.82,75.94Z"/><path class="cls-3" d="M97.31,71.6V70.51H98.4c0,.29,0,.58,0,.87s.07.22.22.22h1.68c.22,0,.29.06.28.28s0,.54,0,.81H97.32Z"/><path class="cls-3" d="M93,77H90.81V74.85H91.9l1.08,0c0,.27,0,.54,0,.81s.07.26.28.27.61-.14.76.07,0,.52,0,.79a1.62,1.62,0,0,1,0,.22H93Z"/><path class="cls-3" d="M94.06,73.77V72.68h1.09v.75c0,.32,0,.34.36.33h1.34c.52,0,.47-.05.47.45v.64H94.06Z"/><path class="cls-4" d="M94.06,74.85h1.1V77H94.06a1.62,1.62,0,0,0,0-.22c0-.27.08-.6,0-.79s-.5-.06-.76-.07-.3,0-.28-.27,0-.54,0-.81Z"/><path class="cls-6" d="M98.4,56.4H97.32l0-1a3.69,3.69,0,0,0-1.05-.06V54.24l1,0a3.69,3.69,0,0,0,.06-1.05H98.4l0,1a3.69,3.69,0,0,0,1,.06v1.08l-1,0A3.36,3.36,0,0,0,98.4,56.4Z"/><path class="cls-2" d="M99.48,54.24a3.69,3.69,0,0,1-1-.06l0-1h1.09Z"/><path class="cls-2" d="M97.32,53.16a3.69,3.69,0,0,1-.06,1.05l-1,0V53.15h1.09Z"/><path d="M75.62,55.33V54.24h3.25v1.08Z"/><path class="cls-4" d="M97.32,74.85v-.64c0-.5.05-.45-.47-.45H95.51c-.38,0-.37,0-.36-.33v-.75h3.26v2.16H97.32Z"/><path class="cls-6" d="M83.21,64v1.08l-1,0a3.74,3.74,0,0,0-.06,1.06H81.05l0-1a3.69,3.69,0,0,0-1-.07V64l1,0a3.78,3.78,0,0,0,.06-1.06h1.08l0,1A3.69,3.69,0,0,0,83.21,64Z"/><path class="cls-2" d="M81.05,62.92A3.78,3.78,0,0,1,81,64l-1,0V62.91h1.09Z"/><path class="cls-2" d="M83.21,64a3.69,3.69,0,0,1-1-.06l0-1h1.09Z"/><path class="cls-2" d="M98.4,56.4a3.36,3.36,0,0,1,.07-1l1,0v1.09Z"/><path class="cls-6" d="M77.79,54.23H75.63c-.64,0-1.27,0-1.9,0-.21,0-.31-.05-.28-.27a.06.06,0,0,0,0-.06c0-.24.12-.57-.07-.71s-.49,0-.74-.05H71.5c-.15,0-.21,0-.22-.21s.14-.65-.08-.82-.51,0-.78,0-.21-.06-.22-.22.14-.65-.08-.82-.52-.05-.79,0-.21-.06-.22-.22.14-.65-.08-.82-.52-.05-.78-.05-.22-.06-.22-.22c0-.56,0-1.12,0-1.68,0-.22-.06-.28-.27-.28s-.62.14-.77-.07,0-.52,0-.79c0-.71,0-1.41,0-2.11,0-.22-.07-.28-.28-.28s-.62.14-.76-.08,0-.52,0-.79V38.35c0-.38,0-.37.38-.39s.52.11.66-.07,0-.41,0-.63c0-.49,0-1,0-1.46l1,0A3.74,3.74,0,0,0,68,34.71h1.08a3.41,3.41,0,0,0,1.06-.06l0-1,1,0a3.69,3.69,0,0,0,.07-1.05h1.08a3.44,3.44,0,0,0,1.06-.06l0-1h1.08a4.2,4.2,0,0,0,1.06-.06l0-1h1.09a3.44,3.44,0,0,0,1.06-.06l0-1h1.09a4.2,4.2,0,0,0,1.06-.06l0-1H81a3.49,3.49,0,0,0,1.07-.06l0-1h1.09l0,1a3.44,3.44,0,0,0,1.06.06h1.08l0,1a4.2,4.2,0,0,0,1.06.06h0l0,1a3.49,3.49,0,0,0,1.07.06h0a3.42,3.42,0,0,0,.06,1.06l1,0v2c0,.13,0,.19.19.19.3,0,.6,0,.9,0h0a3.44,3.44,0,0,0,.06,1.06l1,0v1.08a3.49,3.49,0,0,0,.06,1.07l1,0V38A3.49,3.49,0,0,0,92,39l1,0V42.3l-1,0a3.44,3.44,0,0,0-.06,1.06v1.08l-1,0a3.78,3.78,0,0,0-.06,1.06h0l-1,0a3.44,3.44,0,0,0-.06,1.06h0l-1,0a3.76,3.76,0,0,0-.06,1.06h0l-1,0a3.44,3.44,0,0,0-.06,1.06h0a4.15,4.15,0,0,0-1.06.06l0,1H85.39a3.42,3.42,0,0,0-1.06.06l0,1-1,0a3.36,3.36,0,0,0-.06,1.05H81.05a3.44,3.44,0,0,0-1.06.06l0,1H78.88a4.2,4.2,0,0,0-1.06.06Zm3.26-20.61v2c0,.16,0,.23.21.23s.61-.09.79,0,.06.54.08.82.05.23.21.22.62-.08.79,0,.06.53.08.81.05.23.22.23.61-.09.79,0,.06.54.08.82,0,.22.22.22h2.81c.16,0,.23,0,.23-.21s-.09-.62,0-.79.54-.06.82-.08.23,0,.22-.22c0-.36,0-.72,0-1.08s.13-.64-.08-.82-.48-.06-.73-.05-.28,0-.28-.27c0-.54,0-1.09,0-1.63,0-.21,0-.29-.27-.28s-.57.09-.74,0-.07-.5-.07-.76-.06-.29-.28-.28-.57.08-.73,0-.07-.51-.08-.77-.06-.28-.27-.28c-1.27,0-2.53,0-3.8,0-.2,0-.28.05-.28.28C81.06,32.36,81.05,33,81.05,33.62Z"/><path class="cls-2" d="M82.13,27.12l0,1A3.49,3.49,0,0,1,81,28.2V27.12Z"/><path class="cls-2" d="M84.3,28.2a3.44,3.44,0,0,1-1.06-.06l0-1H84.3Z"/><path class="cls-2" d="M96.24,55.32a3.69,3.69,0,0,1,1.05.06l0,1H96.23Z"/><path class="cls-2" d="M80,65.08a3.69,3.69,0,0,1,1,.07l0,1H80Z"/><path class="cls-2" d="M82.13,66.17a3.74,3.74,0,0,1,.06-1.06l1,0v1.09Z"/><path d="M96.24,55.32v1.09H95.15V53.16h1.08v2.17Z"/><path d="M80,65.08v1.09H78.88V62.92H80v2.17Z"/><path class="cls-2" d="M80,53.15l0-1a3.44,3.44,0,0,1,1.06-.06v1.09H80Z"/><path class="cls-2" d="M83.22,52.06A3.36,3.36,0,0,1,83.28,51l1,0h0v1.09H83.22Z"/><path d="M91.9,38V35.8H93V38H91.9Z"/><path d="M90.81,35.79V33.63h1.08V35.8H90.81Z"/><path class="cls-2" d="M90.81,45.56a3.78,3.78,0,0,1,.06-1.06l1,0v1.09H90.81Z"/><path class="cls-2" d="M91.9,43.39A3.44,3.44,0,0,1,92,42.33l1,0v1.09Z"/><path d="M84.3,28.2V27.12h2.17V28.2H84.3Z"/><path class="cls-2" d="M84.3,51l0-1a3.42,3.42,0,0,1,1.06-.06V51H84.3Z"/><path class="cls-2" d="M86.47,49.9l0-1a4.15,4.15,0,0,1,1.06-.06V49.9H86.47Z"/><path class="cls-2" d="M80,28.21l0,1a4.2,4.2,0,0,1-1.06.06V28.2Z"/><path d="M80,53.15h1.09v1.08H78.88V53.15Z"/><path class="cls-6" d="M89.72,58.57H87.88c-.32,0-.32,0-.32-.33,0-1.33,0-2.67,0-4h1.08v2c0,.13,0,.19.19.19h2v1.09l-1,0A3.69,3.69,0,0,0,89.72,58.57Z"/><path class="cls-2" d="M87.56,54.24c0,1.34,0,2.68,0,4,0,.32,0,.32.32.33h.76v1.08H86.47V54.24Z"/><ellipse class="cls-6" cx="63.69" cy="28.75" rx="1.54" ry="0.77"/><path class="cls-2" d="M77.79,29.29l0,1a3.44,3.44,0,0,1-1.06.06V29.29Z"/><path class="cls-2" d="M89.72,58.57a3.69,3.69,0,0,1,.07-1l1,0v1.09Z"/><path class="cls-2" d="M75.62,30.38l0,1a4.2,4.2,0,0,1-1.06.06V30.37Z"/><path class="cls-2" d="M94.07,61.83l0,1a3.44,3.44,0,0,1-1.06.06V61.83Z"/><path class="cls-2" d="M91.9,62.92v2.17H90.81V62.91H91.9Z"/><path d="M90.81,62.91v2.18H89.73V62.92Z"/><path class="cls-2" d="M73.46,31.46l0,1a3.44,3.44,0,0,1-1.06.06V31.46Z"/><path class="cls-2" d="M93,66.17a3.78,3.78,0,0,1,1.06.06l0,1H93Z"/><path d="M88.64,32.54V30.37h1.08v2.16H88.64Z"/><path d="M90.8,32.55v1.08H89.73V32.54H90.8Z"/><path class="cls-2" d="M71.29,32.55a3.69,3.69,0,0,1-.07,1.05l-1,0h0V32.54h1.09Z"/><path class="cls-2" d="M70.2,33.63l0,1a3.41,3.41,0,0,1-1.06.06V33.62H70.2Z"/><path class="cls-2" d="M68,34.71A3.74,3.74,0,0,1,68,35.77l-1,0h0V34.71H68Z"/><path d="M87.55,28.21v1.08H86.47V28.2h1.08Z"/><path d="M88.64,29.29v1.08H87.56V29.29h1.08Z"/><path d="M70.2,33.63H69.11V32.55H70.2Z"/><path d="M93,66.17v1.09H91.9V66.17H93Z"/><path d="M90.81,65.09h1.08v1.08H90.82Z"/><path d="M88.64,55.32V54.23h1.08v1.08H88.64Z"/><path d="M84.3,51h1.09v1.08H84.3Z"/><path d="M87.56,49.9V48.81h1.08v1.08Z"/><path d="M89.72,47.73v1.08H88.64V47.73h1.08Z"/><path d="M90.81,46.64v1.08H89.73V46.64h1.08Z"/><path d="M90.81,45.56H91.9v1.08H90.81V45.56Z"/><path d="M90.81,56.41H89.73V55.32H90.8Z"/><path d="M39.82,112.82v1.08H38.74v-1.09Z"/><path d="M27.88,102l0,1.07H26.81V102Z"/><path d="M29,103.06l0,1.07H27.9V103Z"/><path d="M30.05,104.15l0,1.07H29v-1.09Z"/><path d="M31.14,105.23l0,1.07H30.07v-1.09Z"/><path d="M32.22,106.32l0,1.07H31.15V106.3Z"/><path d="M33.31,107.4l0,1.07H32.24v-1.09Z"/><path d="M34.39,108.49l0,1.07H33.32v-1.09Z"/><path d="M37.65,110.66v1.07H36.57v-1.09Z"/><path d="M38.73,111.74l0,1.07H37.66v-1.09Z"/><path class="cls-5" d="M56.11,53.16a3.43,3.43,0,0,1,0-1.06l1,0v1.09Z"/><path class="cls-5" d="M57.19,51a3.78,3.78,0,0,1,.05-1.06,8.7,8.7,0,0,1,1,0l0,0V51H57.19Z"/><path class="cls-5" d="M60.44,48.82H59.35v-2c0-.15-.05-.23-.21-.22H59c-.23,0-.58.11-.66-.07a2.41,2.41,0,0,1,0-.9c0-.08.08-.11.16-.11h3.08c0,.29,0,.57,0,.86s-.07.25-.25.24h-.59c-.18,0-.25,0-.25.24C60.44,47.53,60.44,48.17,60.44,48.82Z"/><path d="M63.69,41.22c0,1,0,2,0,3,0,.22-.07.29-.28.28s-.54,0-.81,0h0v-1.1l0-2.15Z"/><path class="cls-5" d="M59.35,48.81V49.9H58.28l0,0c0-.29,0-.58,0-.86s.06-.22.22-.22Z"/><path class="cls-5" d="M62.6,43.38v1.1H61.53a3.44,3.44,0,0,1,0-1.06Z"/><path class="cls-5" d="M63.69,41.22H62.62a3.42,3.42,0,0,1,0-1.06l1,0Z"/><path class="cls-5" d="M47.42,105.22v1.08a3.36,3.36,0,0,1-1-.06l0-1Z"/><path class="cls-5" d="M48.5,105.21H47.42v-1.08a3.36,3.36,0,0,1,1,.06Z"/><path d="M62.61,30.37v1.09H61.53V30.37h1.09Z"/><path class="cls-6" d="M62.61,30.37H61.52a3.78,3.78,0,0,1,.06-1.06l1,0Z"/><path d="M58.28,49.91h1.07v.9c0,.13-.05.19-.18.18h-.9Z"/><path d="M62.6,48.82h.86c.19,0,.24.08.23.25V51H62.61Z"/><path d="M63.69,51c.28,0,.57,0,.85,0s.24.08.24.25c0,.64,0,1.29,0,1.93H63.69Z"/><path d="M64.77,53.15h.9c.14,0,.19.06.19.19v.9H64.78Z"/><path d="M67,34.71V35.8H65.86V34.71Z"/><path class="cls-2" d="M91.89,66.17V65.09a3.49,3.49,0,0,1,1.07.06l0,1Z"/><path class="cls-2" d="M91.9,38H93v1.08l-1,0A3.49,3.49,0,0,1,91.9,38Z"/><path class="cls-4" d="M97.32,79.19a4.15,4.15,0,0,0-.06-1.06c-.34,0-.68,0-1,0A3.13,3.13,0,0,1,95.18,78l0-1h3.27v2.17Z"/><path class="cls-6" d="M97.31,80.28a4.1,4.1,0,0,1-1-.07l0-1h1.09Z"/><path class="cls-4" d="M101.66,74.85V77h-1.09c0-.27,0-.54,0-.81s-.06-.29-.28-.28H98.62c-.15,0-.22-.05-.22-.21s0-.58,0-.87h3.26Z"/><path class="cls-6" d="M100.57,78.11A4.21,4.21,0,0,1,99.51,78l0-1h1.09Z"/><path class="cls-3" d="M100.57,77H97.32V74.85H98.4c0,.29,0,.58,0,.87s.07.22.22.21h1.68c.22,0,.29.07.28.28S100.57,76.75,100.57,77Z"/><path d="M100.57,74.85H98.41V72.68h1.07l0,1a4.21,4.21,0,0,0,1.06.07Z"/><path class="cls-6" d="M100.57,73.77a4.21,4.21,0,0,1-1.06-.07l0-1h1.09Z"/><path class="cls-6" d="M103.82,75.94a4.1,4.1,0,0,1-1-.07l0-1h1.09Z"/><path class="cls-6" d="M93,77h1.09v1.09A4.21,4.21,0,0,1,93,78Z"/><path d="M97.31,75.94V77H95.15V74.85h1.07l0,1A4.1,4.1,0,0,0,97.31,75.94Z"/><path class="cls-6" d="M97.31,75.94a4.1,4.1,0,0,1-1-.07l0-1h1.09Z"/><path class="cls-2" d="M78.88,53.15v1.09H77.79l0-1A4.2,4.2,0,0,1,78.88,53.15Z"/><path class="cls-4" d="M81.05,33.62c0-.63,0-1.26,0-1.89,0-.23.08-.28.28-.28,1.27,0,2.53,0,3.8,0,.21,0,.27.07.27.28s-.13.61.08.77.48,0,.73,0,.27.07.28.28-.14.6.07.76.49.06.74,0,.27.07.27.28c0,.54,0,1.09,0,1.63,0,.22.07.28.28.27s.58-.08.73.05.06.54.08.82,0,.72,0,1.08c0,.17-.06.21-.22.22s-.65-.14-.82.08,0,.52,0,.79-.07.21-.23.21H84.52c-.17,0-.21-.06-.22-.22s.14-.65-.08-.82-.52,0-.79,0-.21-.07-.22-.23.15-.65-.08-.81-.52,0-.79,0-.2-.07-.21-.22.14-.65-.08-.82-.52,0-.79,0-.22-.07-.21-.23Z"/><path class="cls-2" d="M86.47,28.2v1.09a4.2,4.2,0,0,1-1.06-.06l0-1Z"/><path class="cls-2" d="M87.56,29.29v1.08a3.49,3.49,0,0,1-1.07-.06l0-1Z"/><path class="cls-2" d="M87.56,30.37h1.08v1.09l-1,0A3.42,3.42,0,0,1,87.56,30.37Z"/><path class="cls-2" d="M89.73,32.54v1.09c-.3,0-.6,0-.9,0-.14,0-.19-.06-.19-.19v-.9Z"/><path class="cls-2" d="M89.73,33.63h1.08v1.08l-1,0A3.44,3.44,0,0,1,89.73,33.63Z"/><path class="cls-2" d="M90.81,35.79H91.9v1.08l-1,0A3.49,3.49,0,0,1,90.81,35.79Z"/><path class="cls-2" d="M88.64,47.73v1.08H87.56a3.44,3.44,0,0,1,.06-1.06Z"/><path class="cls-2" d="M89.73,46.64v1.09H88.64a3.76,3.76,0,0,1,.06-1.06Z"/><path class="cls-2" d="M90.81,45.56v1.08H89.73a3.44,3.44,0,0,1,.06-1.06Z"/><path class="cls-2" d="M89.73,55.32v1.09h-.9c-.14,0-.19-.06-.19-.19v-.9Z"/></svg>