<svg id="Layer_1" data-name="Layer 1" xmlns="http://www.w3.org/2000/svg" viewBox="0 0 144 144"><defs><style>.cls-1{fill:#45283c;}.cls-2{fill:#222034;}.cls-3{fill:#37936e;}.cls-4{fill:#4b692f;}.cls-5{fill:#663931;}.cls-6{fill:#323c39;}.cls-7{fill:#edc299;}.cls-8{fill:#de7126;}.cls-9{fill:#639afe;}.cls-10{fill:#5b6ee0;}</style></defs><title>icon</title><path class="cls-1" d="M49.1,144.15V144c0-.32.1-.72-.05-.95s-.6-.07-.91-.08-.28-.1-.27-.29,0-.49,0-.73-.06-.22-.22-.21-.48,0-.72,0-.28,0-.29-.26.16-.73-.09-.92-.58-.05-.89,0-.24-.06-.24-.25,0-.64,0-1l0,0,1.65,0c.24,0,.54-.11.71,0s.05.5.07.75a.6.6,0,0,1,0,.19c0,.19.08.24.26.24s.69-.1.88.06.06.6.08.92.08.24.26.24.69-.09.88.06.06.6.08.92.08.24.26.24h2.19v1.22Z"/><path d="M82.08,1.22V0H87V1.22H82.08Z"/><path d="M22.22,118.5H21v-1.23h1.22v1.21Z"/><path d="M52.76,144.15v-1.22H54v1.22Z"/><path d="M112.62,100.17a4.81,4.81,0,0,1-.06,1.2l-1.15,0H96.74l0-1.15a3.67,3.67,0,0,0-1.19-.06c-.39,0-.77,0-1.15,0A4.31,4.31,0,0,1,94.29,99H98c0,.3,0,.6,0,.9s.1.33.35.33c.7,0,1.4,0,2.1,0h12.21Z"/><path d="M116.29,51.31h.18c.32,0,.72-.1.94,0s.09.6.09.91.18.26.35.26h5.41c.35,0,.35,0,.35.37s0,.57,0,.85h0l-1.23,0H120l-1,0c-.15,0-.22.06-.21.21,0,.34,0,.68,0,1v3.66h-1.23V55c0-.33,0-.65,0-1s-.05-.26-.24-.25-.65,0-1,0V51.31Z"/><path d="M123.62,62.3c0,.69,0,1.38,0,2.07,0,.35,0,.38.41.38q1.37,0,2.73,0c.62,0,.52-.08.53.55V66h0l-1.23,0h-1.21l-1,0c-.16,0-.22.06-.22.21,0,.34,0,.68,0,1v3.66H122.4c0-1.63,0-3.25,0-4.88,0-.7,0-1.4,0-2.1,0-.25-.05-.37-.33-.35s-.6,0-.9,0h0V62.3h2.45Z"/><path d="M128.5,77v.19c0,.32.1.72-.05.94s-.6.07-.92.09-.25.1-.25.29v9.07c0,.47,0,.42-.43.42h-.79V77Z"/><path d="M60.09,133.16v4.52c0,.35,0,.36-.36.36h-.86l0-1.15a4,4,0,0,0-1.19-.07H56.43V135.6c.3,0,.61,0,.91,0s.33-.06.31-.31-.09-.64.05-.82.57-.08.86-.08.32-.07.32-.32-.16-.69.08-.86.58-.05.89-.05h.24Z"/><path d="M110.18,25.66a4.75,4.75,0,0,1,1.19.05c0,.38,0,.77,0,1.15v5.71c0,.47,0,.41-.43.41h-.79V25.65Z"/><path d="M73.53,119.72a4.68,4.68,0,0,1-.06,1.18,6.21,6.21,0,0,1-1.14,0c-.34,0-.68,0-1,0-.14,0-.22,0-.22.2s0,.49,0,.73-.09.31-.31.3-.61,0-.91,0h0c0-.33,0-.65,0-1s-.07-.25-.25-.24c-.34,0-.69,0-1,0a4,4,0,0,1-1.14-.06,7.38,7.38,0,0,1,0-1.15Z"/><path d="M111.4,37.87a4.33,4.33,0,0,1,.06-1.19l1.14,0h5.66c.54,0,.47,0,.47.49v.73h0l-1.23,0h-4.87l-1.23,0Z"/><path d="M129.72,69.63a4.73,4.73,0,0,1,1.19.06,6.21,6.21,0,0,1,0,1.14c0,1.5,0,3,0,4.49,0,.48,0,.42-.44.42h-.79V73.29l0-3.66Z"/><path d="M124.83,55A4.83,4.83,0,0,1,126,55a7.24,7.24,0,0,1,0,1.14v4.49c0,.48,0,.42-.43.42h-.8V56.2l0-1.23Z"/><path d="M109,34.21v3.66h-1.22l0-1.21c0-.34,0-.67,0-1,0-.15-.06-.22-.21-.21h-1V34.2H109Z"/><path d="M120,39.09a4.76,4.76,0,0,1,1.19.06,6.21,6.21,0,0,1,0,1.14c0,1.11,0,2.22,0,3.33,0,.35,0,.35-.37.36H120V39.09Z"/><path d="M104.07,24.43a4.78,4.78,0,0,1,.06-1.19,7.24,7.24,0,0,1,1.14,0h3.21c.55,0,.47,0,.48.5,0,.24,0,.48,0,.72h0l-1.23,0H105.3l-1.23,0Z"/><path d="M101.63,24.43h2.44v1.22h0c-.34,0-.68,0-1,0-.15,0-.21.07-.2.22,0,.34,0,.67,0,1v1.21h-1.23V24.43Z"/><path d="M78.41,118.49c0,.25,0,.49,0,.73,0,.54.07.5-.47.5H73.53v-1.21h4.87Z"/><path d="M91.86,106.28a1.93,1.93,0,0,1,0,.24c0,.32.15.72-.08.93s-.57,0-.87,0-.26.06-.28.27.17.73-.08.91-.59,0-.89,0h-.24v-1.23c0-.42,0-.85,0-1.27a3.3,3.3,0,0,1,.07-1.13,6.2,6.2,0,0,1,1.14,0l0,1.14a4.33,4.33,0,0,0,1.19.07Z"/><path d="M109,37.87h2.44v1.22h0l-1.15,0a3.66,3.66,0,0,0-.07,1.19H109V37.87Z"/><path d="M126.06,88v3.2c0,.51,0,.46-.44.46h-.78V88h1.22Z"/><path d="M116.29,99v.79c0,.47,0,.43-.47.43h-3.2V99l2.43,0h1.23Z"/><path d="M121.17,96.51c0,.32,0,.64,0,1s-.09.26-.29.26c-.72,0-1.44,0-2.16,0h0V96.51h2.43Z"/><path d="M118.73,97.73c0,.32,0,.64,0,1s-.08.27-.28.26h-2.17V97.74l1.21,0Z"/><path d="M89.41,3.66c.32,0,.64,0,1,0s.27.09.27.28c0,.72,0,1.45,0,2.17H89.42l0-1.21V3.67Z"/><path d="M91.85,7.33h1c.22,0,.26.08.26.28,0,.72,0,1.44,0,2.16H91.86l0-1.21V7.33Z"/><path d="M89.41,108.73v2.16c0,.2,0,.29-.26.28s-.64,0-1,0h0v-2.44h1.21Z"/><path d="M93.08,9.77h1c.22,0,.26.09.26.28,0,.72,0,1.44,0,2.16H93.08l0-1.21V9.77Z"/><path d="M95.52,13.44c.32,0,.64,0,1,0s.27.09.26.29v2.16H95.52V13.44Z"/><path d="M96.74,15.88h1c.22,0,.27.08.26.28v2.16H96.75l0-1.21V15.88Z"/><path d="M83.3,116.05c0,.32,0,.64,0,1s-.09.27-.29.27H80.86v-1.21H83.3Z"/><path d="M80.86,117.27c0,.32,0,.65,0,1s-.08.26-.28.26H78.42v-1.21h2.43Z"/><path d="M99.18,19.54c.33,0,.65,0,1,0s.26.09.26.28c0,.73,0,1.45,0,2.17H99.19l0-1.21V19.55Z"/><path d="M100.41,22c.32,0,.64,0,1,0s.26.08.26.28c0,.72,0,1.44,0,2.16h-1.22l0-1.21V22Z"/><path d="M65,127.05c0,.71,0,1.43,0,2.14,0,.24-.06.32-.31.31s-.61,0-.91,0h0c0-.41,0-.82,0-1.22a3.4,3.4,0,0,1,.07-1.19l1.15,0Z"/><path d="M120,44c0,.71,0,1.43,0,2.14,0,.24-.07.32-.31.31s-.61,0-.92,0h0V45.19l0-1.2Z"/><path d="M116.29,48.87v2.44h-1.22l0-1.21V48.86h1.23Z"/><path d="M128.5,67.19c.32,0,.64,0,1,0s.27.09.27.29c0,.72,0,1.44,0,2.16h-1.21l0-1.2,0-1.23Z"/><path d="M124.84,91.62c0,.72,0,1.44,0,2.17,0,.19,0,.29-.26.28s-.64,0-1,0h0V91.63Z"/><path d="M87,1.22c.34,0,.67,0,1,0,.15,0,.21.06.21.21,0,.34,0,.67,0,1H87V1.22Z"/><path d="M88.19,2.44c.34,0,.68,0,1,0,.15,0,.21.06.21.21v1H88.19V2.44Z"/><path d="M90.63,6.11h1c.15,0,.21,0,.21.21,0,.33,0,.67,0,1H90.63V6.11Z"/><path d="M94.3,12.21h1c.15,0,.21.06.21.21,0,.34,0,.68,0,1H94.3V12.22Z"/><path d="M98,18.32h1c.15,0,.21.06.2.21v1H98V18.33Z"/><path d="M109,24.43c.34,0,.68,0,1,0,.15,0,.21.06.21.21,0,.34,0,.68,0,1H109V24.43Z"/><path d="M110.18,33a4.33,4.33,0,0,1-.07,1.19l-1.15,0h0V33h1.22Z"/><path d="M118.73,37.87c.34,0,.67,0,1,0,.16,0,.22.06.21.21v1h-1.22V37.87Z"/><path d="M127.28,66h1c.16,0,.22,0,.21.2v1h-1.22V66Z"/><path d="M129.73,75.74a4.82,4.82,0,0,1-.07,1.2l-1.16,0h0l0-1.15a4,4,0,0,1,1.19-.07Z"/><path d="M123.61,53.75h1c.15,0,.21.06.21.21,0,.34,0,.68,0,1h-1.21V53.75Z"/><path d="M123.62,94.07c0,.33,0,.67,0,1,0,.15-.06.21-.21.21-.34,0-.68,0-1,0h0V94.07h1.22Z"/><path d="M122.4,95.29c0,.33,0,.67,0,1,0,.15-.06.21-.21.21-.34,0-.68,0-1,0h0V95.29h1.23Z"/><path d="M124.84,61.08a4.82,4.82,0,0,1-.07,1.2l-1.15,0h0l0-1.21h1.21Z"/><path d="M96.74,101.4a4,4,0,0,1-.07,1.19l-1.15,0h0l0-1.15a4.71,4.71,0,0,1,1.19-.07Z"/><path d="M95.52,102.62a4.33,4.33,0,0,1-.07,1.19l-1.15,0h0v-1.21h1.22Z"/><path d="M94.3,103.84a4.74,4.74,0,0,1-.07,1.19l-1.15,0h0v-1.22H94.3Z"/><path d="M93.08,105.06a4.82,4.82,0,0,1-.07,1.2l-1.15,0h0v-1.22h1.23Z"/><path d="M88.19,111.16c0,.34,0,.68,0,1,0,.15-.06.21-.21.21-.34,0-.68,0-1,0h0v-1c0-.16.06-.22.21-.21h1Z"/><path d="M87,112.39c0,.33,0,.67,0,1,0,.15-.06.21-.21.21-.34,0-.68,0-1,0h0V112.4H87Z"/><path d="M85.74,113.61c0,.34,0,.67,0,1,0,.16-.06.22-.21.21h-1v-1.21h1.2Z"/><path d="M84.52,114.83c0,.34,0,.68,0,1,0,.15-.06.21-.21.2h-1v-1.22h1.21Z"/><path d="M117.51,47.65a4.33,4.33,0,0,1-.07,1.19l-1.15,0h0l0-1.15a4.38,4.38,0,0,1,1.2-.07Z"/><path d="M69.87,122.16a4.82,4.82,0,0,1-.07,1.2l-1.15,0h0l0-1.15a4,4,0,0,1,1.19-.07Z"/><path d="M68.65,123.39a4.76,4.76,0,0,1-.07,1.19l-1.16,0h0l0-1.15a4.31,4.31,0,0,1,1.19-.07Z"/><path d="M67.42,124.61a4,4,0,0,1-.07,1.19l-1.15,0h0l0-1.15a4.74,4.74,0,0,1,1.19-.07Z"/><path d="M66.2,125.83a4.31,4.31,0,0,1-.07,1.19l-1.15,0h0l0-1.15a4.39,4.39,0,0,1,1.2-.08Z"/><path d="M118.73,46.42a4.38,4.38,0,0,1-.07,1.2l-1.15,0h0V46.42h1.22Z"/><path d="M63.76,129.49a4.82,4.82,0,0,1-.07,1.2l-1.15,0h0l0-1.15a4,4,0,0,1,1.19-.07Z"/><path d="M62.54,130.71a4.82,4.82,0,0,1-.07,1.2l-1.15,0h0l0-1.15a4.33,4.33,0,0,1,1.19-.07Z"/><path d="M61.32,131.94a4.76,4.76,0,0,1-.07,1.19l-1.16,0h0l0-1.15a4.74,4.74,0,0,1,1.19-.07Z"/><path d="M58.87,138.05a4,4,0,0,1-.07,1.19l-1.15,0h0V138h1.22Z"/><path d="M57.65,139.27a4.33,4.33,0,0,1-.07,1.19l-1.15,0h0v-1.22h1.22Z"/><path d="M56.43,140.49a4.74,4.74,0,0,1-.07,1.19l-1.15,0h0v-1.21h1.22Z"/><path d="M55.21,141.71a4.74,4.74,0,0,1-.07,1.19l-1.15,0h0v-1.22h1.22Z"/><path d="M36.88,91.62V69.81c0-.13.07-.18.19-.18h1l0,1.23v7.32c0,.22,0,.44,0,.67V90.41c0,.38,0,.77,0,1.15a4.33,4.33,0,0,1-1.19.06Z"/><path d="M25.88,112.38A5.17,5.17,0,0,1,26,111.2c.4,0,.8,0,1.2,0s.65,0,1,0c.15,0,.22-.06.21-.21s0-.33,0-.49c0-.59-.07-.52.5-.52.24,0,.48,0,.72,0h0l0,1.23,0,1.21-1.14,0a3.66,3.66,0,0,0-.06,1.19H27.11l0-1.15a4,4,0,0,0-1.19-.07Z"/><path d="M35.66,97.73V92.09c0-.54,0-.47.5-.47h.72l0,1.23c0,.22,0,.44,0,.67,0,1.4,0,2.8,0,4.2Z"/><path d="M38.11,69.63c0-1.47,0-2.94,0-4.42,0-.54,0-.46.5-.46.24,0,.48,0,.73,0h0l0,1.23,0,3.65h-1.2Z"/><path d="M78.41,7.33h-.06a4.66,4.66,0,0,1-1.12-.06c0-.36,0-.72,0-1.08,0-.72,0-1.45,0-2.17,0-.35,0-.35.37-.35h.85V7.33Z"/><path d="M87,25.65V22h0l1.15,0a4.76,4.76,0,0,1,.07,1.19v1.23l0,1.21H87Z"/><path d="M61.31,31.76a4.33,4.33,0,0,1-1.19-.06,7.21,7.21,0,0,1,0-1.14c0-.68,0-1.37,0-2,0-.49,0-.41.44-.41h.78v3.66Z"/><path d="M74.75,28.1v2.44H72.3V29.32l1.15,0a4,4,0,0,0,.07-1.19h1.22Z"/><path d="M34.44,101.4V98.07c0-.33,0-.34.32-.34h.9l0,1.23,0,2.42H34.44Z"/><path d="M39.33,64.75c0-1.11,0-2.22,0-3.33,0-.33,0-.33.31-.34h.9l0,1.23,0,2.42h-1.2Z"/><path d="M63.76,36.65c0-.32,0-.64,0-1s-.08-.26-.28-.27-.72.17-.91-.09,0-.58,0-.88v-.24H65v1.22l0,1.2H63.76Z"/><path d="M79.63,2.44l0-1.15a3.72,3.72,0,0,1,1.2-.06c.4,0,.81,0,1.22,0h0V2.44H79.63Z"/><path d="M61.32,41.54c0-.73,0-1.45,0-2.17,0-.2,0-.29.27-.28h1l0,1.23,0,1.2H61.32Z"/><path d="M33.22,103.84c0-.72,0-1.45,0-2.17,0-.2,0-.29.27-.28s.64,0,1,0h0l0,1.23,0,1.21H33.22Z"/><path d="M32,106.28c0-.72,0-1.44,0-2.16,0-.2.05-.3.27-.29s.64,0,1,0h0l0,1.23,0,1.21H32Z"/><path d="M79.63,9.78a4.34,4.34,0,0,1-1.19-.08c0-.38,0-.76,0-1.15s0-.81,0-1.22h.92c.25,0,.32.07.31.31,0,.71,0,1.42,0,2.13Z"/><path d="M30.78,108.73c0-.73,0-1.45,0-2.17,0-.2,0-.29.26-.28s.65,0,1,0h0l0,1.23,0,1.2h-1.2Z"/><path d="M80.85,12.22a4.76,4.76,0,0,1-1.19-.07c0-.39,0-.77,0-1.15s0-.82,0-1.22h0c.31,0,.61,0,.91,0s.32.07.31.31c0,.71,0,1.42,0,2.13Z"/><path d="M24.66,114.83c0-.71,0-1.43,0-2.14,0-.24.06-.32.31-.31s.61,0,.91,0h0v2.44H24.66Z"/><path d="M83.3,15.89a4.39,4.39,0,0,1-1.2-.08c0-.38,0-.76,0-1.15V13.44h0c.31,0,.61,0,.92,0s.31.08.31.31c0,.72,0,1.43,0,2.14Z"/><path d="M84.52,18.33a4.74,4.74,0,0,1-1.19-.07l0-1.15V15.89h.92c.24,0,.31.07.31.31,0,.71,0,1.42,0,2.13Z"/><path d="M87,22a4,4,0,0,1-1.19-.07c0-.38,0-.77,0-1.15s0-.81,0-1.22h0c.3,0,.61,0,.91,0s.32.07.31.31c0,.71,0,1.42,0,2.14Z"/><path d="M69.86,23.21c0-.1,0-.2,0-.3,0-.3-.14-.67.07-.87s.54,0,.81-.05h1c.59,0,.59,0,.59.62v.6H69.86Z"/><path d="M67.42,24.43c0-.32,0-.64,0-1s.08-.26.28-.26h2.17c0,.31,0,.61,0,.92s-.07.31-.31.31c-.71,0-1.43,0-2.14,0Z"/><path d="M65,25.65c0-.32,0-.64,0-1s.09-.26.29-.26c.72,0,1.44,0,2.16,0h0v1.22H65Z"/><path d="M62.53,26.87c0-.32,0-.64,0-1s.09-.26.28-.26c.72,0,1.45,0,2.17,0h0v1.21l-1.21,0H62.53Z"/><path d="M74.76,25.65h.18c.33,0,.76-.15,1,.09s0,.65.06,1,0,.65,0,1c0,.49,0,.41-.43.41h-.79V25.66Z"/><path d="M84.52,26.87c0-.32,0-.64,0-1s.09-.26.28-.26c.72,0,1.44,0,2.17,0h0v1.21l-1.21,0H84.52Z"/><path d="M55.21,46.42c0-.32,0-.64,0-1s.09-.27.28-.26h2.16v1.21l-1.21,0-1.23,0Z"/><path d="M82.08,28.1c0-.32,0-.65,0-1s.08-.26.28-.26h2.17v1.21l-1.21,0Z"/><path d="M51.54,48.87c0-.32,0-.65,0-1s.08-.26.28-.26H54v1.21l-1.2,0-1.23,0Z"/><path d="M79.64,29.32c0-.32,0-.64,0-1s.09-.27.29-.27h2.16v1.21l-1.21,0Z"/><path d="M47.88,51.31c0-.32,0-.64,0-1s.09-.27.28-.27h2.17V51.3l-1.21,0-1.23,0Z"/><path d="M77.19,30.54c0-.32,0-.64,0-1s.09-.27.28-.26h2.17v1.21l-1.21,0H77.19Z"/><path d="M41.77,58.64c0-.72,0-1.45,0-2.17,0-.2.05-.29.27-.28s.64,0,1,0h0l0,1.23,0,1.21H41.77Z"/><path d="M74.75,30.54H77.2v1.22H74.75V30.54Z"/><path d="M40.55,61.08c0-.72,0-1.44,0-2.16,0-.2.05-.3.27-.29s.64,0,1,0h0l0,1.23,0,1.21H40.55Z"/><path d="M62.53,34.21c-.32,0-.64,0-1,0s-.26-.09-.26-.28c0-.72,0-1.45,0-2.17h1.22l0,1.21V34.2Z"/><path d="M62.54,39.1c0-.73,0-1.45,0-2.17,0-.2,0-.3.27-.29s.64,0,1,0h0l0,1.23,0,1.21H62.54Z"/><path d="M78.41,3.66a4.74,4.74,0,0,1,.07-1.19l1.15,0h0V3.66H78.41Z"/><path d="M82.08,13.44a4.82,4.82,0,0,1-1.2-.07l0-1.15h0l1.15,0a4,4,0,0,1,.07,1.19Z"/><path d="M85.74,19.55a4.76,4.76,0,0,1-1.19-.07l0-1.15h0l1.15,0a4.76,4.76,0,0,1,.07,1.19Z"/><path d="M72.31,23.21h1c.15,0,.21.06.21.21v1H72.31V23.21Z"/><path d="M73.53,24.43a4.41,4.41,0,0,1,1.2.07l0,1.15H73.53V24.43Z"/><path d="M61.31,28.1c0-.34,0-.68,0-1,0-.15.06-.21.21-.21h1V28.1H61.31Z"/><path d="M60.09,42.76c0-.34,0-.68,0-1,0-.15.06-.21.21-.21h1v1.23H60.09Z"/><path d="M58.87,44c0-.34,0-.68,0-1,0-.15.06-.21.21-.21h1V44H58.87Z"/><path d="M57.65,45.2v-1c0-.16.05-.22.21-.21h1V45.2H57.65Z"/><path d="M43,56.2v-1c0-.15,0-.21.21-.21h1v1.22H43Z"/><path d="M44.21,55c0-.34,0-.68,0-1,0-.15.06-.21.21-.21h1V55H44.21Z"/><path d="M45.43,53.75c0-.34,0-.67,0-1,0-.16.06-.22.21-.21h1v1.22H45.43Z"/><path d="M46.66,52.53c0-.34,0-.68,0-1,0-.16.06-.22.21-.21h1v1.23H46.66Z"/><path d="M29.55,110c0-.34,0-.68,0-1,0-.15.06-.21.21-.21h1v1.22H29.55Z"/><path d="M23.44,116.05a4.74,4.74,0,0,1,.07-1.19l1.15,0h0v1.22H23.44Z"/><path d="M22.22,117.27a4.33,4.33,0,0,1,.07-1.19l1.15,0h0v1.21H22.22Z"/><path d="M50.32,50.09v-1c0-.15,0-.21.21-.21h1v1.22H50.32Z"/><path d="M54,47.65c0-.34,0-.68,0-1,0-.15.06-.21.21-.21h1v1.22H54Z"/><path class="cls-1" d="M44.2,138.05h-1c-.19,0-.23-.07-.25-.25s.16-.73-.08-.92-.58-.06-.88-.05-.26-.12-.25-.3v-2.16l1,0c.14,0,.21-.06.21-.21v-1l1.15,0a4,4,0,0,0,.07-1.19l1.15,0a4,4,0,0,0,.07-1.2h1.22l0,1.15a4.34,4.34,0,0,0,1.19.08c0,.71,0,1.42,0,2.13,0,.23-.06.33-.31.31s-.64-.09-.82.05-.08.56-.09.86-.06.33-.31.31-.64-.09-.82.05-.08.56-.09.86,0,.32-.31.32-.68-.15-.86.07-.05.59-.06.89c0,.08,0,.16,0,.24Z"/><path class="cls-1" d="M35.65,130.72H33.52c-.24,0-.32-.06-.31-.31s0-.61,0-.91h0c.41,0,.81,0,1.22,0a3.4,3.4,0,0,1,1.19.06l0,1.15Z"/><path class="cls-1" d="M39.31,134.38a4.66,4.66,0,0,1-1.18-.07l0-1.15h2.46v1.23H39.31Z"/><path class="cls-1" d="M23.44,119.73a5.22,5.22,0,0,1-1.19-.08l0-1.15h0c.32,0,.65,0,1,0s.26.06.26.25,0,.65,0,1Z"/><path class="cls-1" d="M24.66,121c-.4-.06-.8.08-1.19-.08l0-1.14v0l1.14,0a4.24,4.24,0,0,1,.08,1.18Z"/><path class="cls-1" d="M25.88,122.17a4.31,4.31,0,0,1-1.19-.08l0-1.14v0l1.15,0a4.29,4.29,0,0,1,.07,1.19Z"/><path class="cls-1" d="M27.1,123.39a4.34,4.34,0,0,1-1.19-.08l0-1.14h0l1.15,0a4.31,4.31,0,0,1,.07,1.19Z"/><path class="cls-1" d="M28.32,124.61a4.76,4.76,0,0,1-1.19-.07l0-1.15h0l1.15,0c.16.39,0,.79.08,1.19Z"/><path class="cls-1" d="M29.54,125.83a4.76,4.76,0,0,1-1.19-.07l0-1.15h0l1.14,0a4.34,4.34,0,0,1,.08,1.19Z"/><path class="cls-1" d="M30.77,127.06a5.22,5.22,0,0,1-1.19-.08l0-1.15h0l1.14,0a4.34,4.34,0,0,1,.08,1.19Z"/><path class="cls-1" d="M32,128.28c-.4-.06-.8.08-1.19-.08l0-1.14v0l1.14,0a4.34,4.34,0,0,1,.08,1.19Z"/><path class="cls-1" d="M33.21,129.5c-.4-.06-.8.08-1.19-.08l0-1.14v0l1.15,0a4.71,4.71,0,0,1,.07,1.19Z"/><path class="cls-1" d="M36.87,131.94a4.76,4.76,0,0,1-1.19-.07l0-1.15h0l1.15,0a4.31,4.31,0,0,1,.08,1.19Z"/><path class="cls-1" d="M38.09,133.16a4.66,4.66,0,0,1-1.18-.07l0-1.15h0L38,132a4.34,4.34,0,0,1,.08,1.19Z"/><path d="M40.55,134.39v-1.23h1.22v1.24Z"/><path d="M39.31,134.38h1.25c0,.3,0,.6,0,.9s-.1.34-.35.32-.62.11-.8-.06,0-.53-.07-.8S39.32,134.5,39.31,134.38Z"/><path class="cls-1" d="M45.42,139.27c-.39-.06-.8.08-1.18-.07l0-1.15,0,0c.32,0,.65,0,1,0s.25.06.24.25,0,.64,0,1Z"/><path class="cls-2" d="M45.44,139.25c0-.32,0-.64,0-1s-.06-.25-.24-.25-.65,0-1,0c0-.08,0-.16,0-.24,0-.3-.12-.68.06-.89s.57-.07.86-.07.3-.1.31-.32-.15-.69.09-.86.54-.06.82-.05.31-.08.31-.31-.15-.69.09-.86.54-.06.82-.05.31-.08.31-.31c0-.71,0-1.42,0-2.13H49.1v1c0,.15.06.21.21.21h1l0,1.15a4.31,4.31,0,0,0,1.19.07h1.22l0,1.15a4.33,4.33,0,0,0,1.19.07h1.23l0,1.15a4,4,0,0,0,1.2.07h1.22V138h0c-.34,0-.68,0-1,0-.15,0-.22.06-.21.21v1h0c-.34,0-.68,0-1,0-.16,0-.22.06-.22.21,0,.34,0,.68,0,1h-1c-.15,0-.21.07-.21.22,0,.33,0,.67,0,1H53c-.15,0-.21.06-.21.21,0,.33,0,.67,0,1H50.57c-.18,0-.25-.06-.26-.24s.16-.73-.08-.92-.58-.06-.88-.06-.25-.06-.26-.24.16-.73-.08-.92-.58-.06-.88-.06-.27-.05-.26-.24a.6.6,0,0,0,0-.19c0-.25.12-.57-.07-.75s-.47,0-.71,0Z"/><path class="cls-3" d="M76,31.77h1.21c.3,0,.61,0,.91,0s.34-.05.32-.31,0-.6,0-.91l1.21,0h.91c.23,0,.34,0,.32-.3s0-.61,0-.91l1.21,0H83c.22,0,.33,0,.32-.3s0-.61,0-.91l1.21,0c.3,0,.61,0,.91,0s.34,0,.32-.3,0-.61,0-.91l1.21,0h1c.15,0,.21-.06.21-.22,0-.33,0-.67,0-1l0-1.21h2.13c.19,0,.31,0,.31-.25s-.1-.69,0-.88.61-.07.93-.08.24-.09.24-.26c0-.47,0-.94,0-1.41,0-.24.11-.54,0-.7s-.5-.06-.76-.08h-.18c-.19,0-.24-.08-.24-.25q0-.64,0-1.29c0-.28.08-.63-.06-.82s-.52-.05-.8-.09h-.12c-.19,0-.24-.07-.24-.25s.09-.69-.06-.88-.61-.06-.92-.08-.25-.08-.24-.26V15.57c0-.28.08-.63-.06-.83s-.52-.05-.8-.08h-.12c-.19,0-.25-.07-.25-.25s.1-.69,0-.88-.61-.07-.92-.09-.25-.07-.25-.25c0-.43,0-.86,0-1.28s.09-.63,0-.83-.53-.05-.8-.08h-.12c-.19,0-.25-.06-.25-.24q0-.67,0-1.35c0-.26.08-.59,0-.76s-.53-.05-.8-.09h-.06c-.25,0-.32-.07-.31-.31,0-.61,0-1.22,0-1.83,0-.24-.07-.32-.31-.31s-.65.09-.83,0-.08-.56-.08-.86-.08-.31-.32-.31-.69.15-.86-.08,0-.59,0-.89V3.67h1c.15,0,.21-.07.21-.22v-1h1c.18,0,.26-.06.25-.24s0-.65,0-1h2.43l0,1.15A4,4,0,0,0,87,2.44h0v1c0,.16.06.22.21.22h1c0,.33,0,.65,0,1,0,.17,0,.25.24.25h1l0,1.21c0,.34,0,.68,0,1,0,.14,0,.21.21.21h1c0,.32,0,.65,0,1s.05.26.24.25h1l0,1.21c0,.3,0,.61,0,.91s0,.34.3.32.61,0,.91,0l0,1.21c0,.34,0,.68,0,1,0,.15.06.22.21.22h1c0,.32,0,.64,0,1,0,.17.06.26.24.25h1v1.21c0,.31,0,.61,0,.92s0,.33.31.32.6,0,.91,0l0,1.21c0,.34,0,.67,0,1,0,.15.05.22.21.22h1c0,.33,0,.65,0,1,0,.17.05.25.24.25h1l0,1.21c0,.31,0,.61,0,.92s0,.33.3.32.61,0,.91,0l0,1.21c0,.31,0,.62,0,.92s0,.34.3.32.61,0,.92,0v2.43c0,.3,0,.61,0,.91s0,.34.3.32.61,0,.92,0v1.21c0,.31,0,.61,0,.92s0,.33.31.32.6,0,.91,0l0,1.21c0,.31,0,.63,0,1s.05.29.26.28h1l0,1.15a4.33,4.33,0,0,0,1.19.07h0c0,.33,0,.65,0,1,0,.17,0,.26.24.25h1l0,1.21c0,.31,0,.61,0,.92s0,.33.3.32.61,0,.92,0v1.21c0,.3,0,.61,0,.91s0,.34.3.32.61,0,.92,0v1.21c0,.3,0,.61,0,.91s0,.34.3.32.61,0,.92,0l0,1.21c0,.31,0,.61,0,.92s0,.33.3.32.61,0,.91,0l0,1.21c0,.31,0,.63,0,1s0,.29.26.28h1l0,1.14c.38.17.79,0,1.18.08l0,1.21c0,.31,0,.61,0,.91s0,.34.3.32.61,0,.92,0v1.21c0,.31,0,.61,0,.92s0,.33.3.32.61,0,.92,0v3.65c0,.3,0,.61,0,.91s0,.34.3.32.61,0,.92,0l0,1.21c0,.32,0,.64,0,1s0,.28.26.28.64,0,1,0l0,1.15a4.33,4.33,0,0,0,1.19.06h0c0,.73,0,1.46,0,2.19,0,.18,0,.26.24.26s.65,0,1,0c0,1.63,0,3.25,0,4.88,0,.3,0,.61,0,.91s0,.34.3.32.61,0,.92,0v2.43c0,.31,0,.61,0,.92s0,.33.3.31.61,0,.92,0V77c0,.72,0,1.43,0,2.14,0,.22,0,.34.3.32s.61,0,.92,0v6.1c-.31,0-.61,0-.92,0s-.3.09-.3.32c0,.71,0,1.42,0,2.13v2.43l-1.15,0a4.4,4.4,0,0,0-.06,1.2v1.21l-1.15,0a4.38,4.38,0,0,0-.07,1.2h-1c-.15,0-.21.06-.21.21,0,.34,0,.68,0,1h-1c-.18,0-.26.06-.25.24,0,.33,0,.65,0,1h-1.21c-.31,0-.61,0-.92,0s-.33,0-.32.3,0,.61,0,.92l-1.21,0h-.91c-.23,0-.34,0-.32.3s0,.61,0,.91l-2.43,0h-.92c-.22,0-.33,0-.32.3s0,.61,0,.91h-11c0-.32,0-.65,0-1s-.08-.24-.26-.24H98c0-.32,0-.64,0-1s-.08-.27-.28-.26H95.52v-.25c0-.3.09-.67-.06-.88s-.56-.06-.86-.09h-.06c-.18,0-.25-.07-.25-.25s.1-.69-.05-.88-.6-.07-.92-.09-.25-.07-.25-.25.1-.69,0-.89-.61-.06-.92-.08-.25-.07-.25-.25.1-.7,0-.89-.61-.06-.93-.08-.24-.08-.24-.26.09-.69-.06-.88-.6-.06-.92-.08-.25-.08-.24-.26c0-.43,0-.85,0-1.28s.08-.63-.06-.83-.52-.05-.8-.08a.24.24,0,0,0-.12,0c-.19,0-.25-.07-.24-.25V87.65c0-.28.08-.64-.06-.83s-.52,0-.8-.08h-.12c-.19,0-.25-.07-.25-.24,0-.43,0-.86,0-1.29s.08-.63-.06-.82-.53-.06-.8-.09H86c-.19,0-.25-.07-.25-.25,0-.42,0-.85,0-1.28s.09-.63,0-.83-.53-.05-.8-.08h-.12c-.19,0-.25-.07-.25-.25s.1-.69,0-.88-.61-.07-.93-.09-.24-.08-.24-.25c0-.43,0-.86,0-1.28s.08-.64,0-.83-.53,0-.81-.09h-.12c-.19,0-.24-.07-.24-.25s.09-.69-.06-.88-.6-.06-.92-.08-.25-.08-.24-.26V75.43c0-.28.08-.63-.06-.83s-.53,0-.8-.08h-.12c-.19,0-.25-.07-.25-.25s.1-.69,0-.88-.61-.07-.93-.09-.24-.08-.24-.25q0-.64,0-1.29c0-.28.08-.63,0-.82s-.53,0-.81-.09h-.12c-.19,0-.24-.07-.24-.25,0-.42,0-.85,0-1.28,0-.28.08-.63,0-.82s-.53-.06-.81-.09h-.12c-.19,0-.24-.07-.24-.25,0-.43,0-.86,0-1.28s.08-.64,0-.83-.53,0-.81-.08A.24.24,0,0,0,75,66c-.19,0-.24-.08-.24-.25s.09-.7-.06-.89-.61-.06-.92-.08-.24-.08-.24-.26V62.3H76l0,1.15a4.31,4.31,0,0,0,1.19.06h9.85c.36,0,.72,0,1.07,0a4.22,4.22,0,0,0,.07-1.12v-.06c.41,0,.82,0,1.22,0a3.4,3.4,0,0,0,1.19-.07l0-1.14h2.19c.17,0,.25,0,.25-.24s0-.65,0-1l1.21,0h1.23v1.22c-.3,0-.61,0-.91,0s-.31.08-.31.31c0,1,0,2,0,2.93s0,1.71,0,2.56c0,.23.06.33.31.31s.61,0,.91,0c0,.32,0,.64,0,1s.09.27.28.26h4.3c.23,0,.34,0,.32-.3s0-.61,0-.91l1.21,0h1c.15,0,.21-.06.21-.21,0-.34,0-.68,0-1V63.53c0-.32,0-.63,0-1s0-.29-.27-.28-.63,0-1,0l0-1.15c-.39-.16-.8,0-1.19-.08,0-.31,0-.63,0-1s-.08-.27-.28-.26H95.52V58.64l1.15,0c.16-.38,0-.79.07-1.18l1.21,0h1c.19,0,.28-.05.28-.27s0-.63,0-.95l1.14,0a4.34,4.34,0,0,0,.08-1.19l1.15,0a4.33,4.33,0,0,0,.07-1.19l1.15,0a4.29,4.29,0,0,0,.07-1.19h1c.21,0,.27-.08.26-.28s0-.63,0-1l0-1.21,1.14,0a4.34,4.34,0,0,0,.08-1.19c.3,0,.61,0,.91,0s.31-.08.31-.32c0-1,0-2,0-3s0-1.67,0-2.5c0-.24-.06-.33-.31-.32s-.61,0-.91,0c0-.4,0-.81,0-1.22a3.42,3.42,0,0,0-.07-1.19l-1.14,0c0-.41,0-.81,0-1.22A3.66,3.66,0,0,0,104,37.9l-1.15,0,0-1.14a4.31,4.31,0,0,0-1.19-.08c0-.73,0-1.46,0-2.19,0-.18-.06-.25-.25-.25h-1l0-1.15A4.33,4.33,0,0,0,99.19,33l0-1.15A4.33,4.33,0,0,0,98,31.76l0-1.15c-.38-.16-.79,0-1.18-.08,0-.26,0-.52,0-.78s.06-.44-.41-.43H89.72c-.22,0-.33,0-.31.3s0,.61,0,.91l-1.21,0h-.92c-.23,0-.34,0-.32.3s0,.61,0,.91l-1.21,0h-.91c-.23,0-.34,0-.32.3s0,.61,0,.91l-1.21,0c-.31,0-.61,0-.91,0s-.34,0-.32.3,0,.61,0,.91l-1.21,0c-.31,0-.61,0-.92,0s-.33,0-.32.3,0,.61,0,.92H78.42c-.31,0-.63,0-1,0s-.29.06-.28.27,0,.64,0,1l-1.15,0A4.33,4.33,0,0,0,76,37.86H74.75v-.25c0-.3.09-.67,0-.88s-.57-.08-.86-.08-.32-.07-.32-.32c0-1.11,0-2.23,0-3.35h1.21c.31,0,.61,0,.92,0s.33-.05.32-.3S76,32.08,76,31.77Zm25.64,42.75,0,1.15c.39.16.8,0,1.19.08,0,.31,0,.63,0,1s.09.27.28.26h2.18l1.15,0a4.31,4.31,0,0,0,.06-1.19h.79c.42,0,.44.06.44-.42,0-1.49,0-3,0-4.48,0-.39,0-.77,0-1.15a3.91,3.91,0,0,0-1.18-.06c0-.33,0-.65,0-1s-.07-.24-.25-.24h-3.11c-.22,0-.33,0-.32.3s0,.61,0,.91l-1.21,0h-.95c-.2,0-.29.05-.28.26s0,.64,0,1c-.33,0-.65,0-1,0s-.24.07-.24.25q0,1,0,2c0,.18.06.25.24.25h1l0,1.15A4.33,4.33,0,0,0,101.62,74.52Zm0,9.77H98.22c-.22,0-.26.09-.26.28,0,.55,0,1.09,0,1.63s-.06.53.56.53h.66c0,.33,0,.65,0,1s.06.25.25.25c.4,0,.81,0,1.21,0s.72-.15.93.09.05.54.06.82v.06c0,.18.05.25.24.25s.65,0,1,0c0,.33,0,.65,0,1s.07.24.25.24c.4,0,.81,0,1.21,0s.68-.09.89,0,.06.57.09.86v.06c0,.18.06.26.24.25h1l0,1.15a4,4,0,0,0,1.2.06c.38,0,.76,0,1.15,0a4.38,4.38,0,0,1,.07,1.2h-2.44c-.32,0-.64,0-1,0s-.26.09-.26.29c0,.54,0,1.08,0,1.63s-.06.52.56.53h.66c0,.32,0,.64,0,1s0,.26.23.26c.66,0,1.33,0,2,0,.2,0,.23-.1.23-.26,0-.33,0-.65,0-1V94.06h1.23v1c0,.16,0,.26.23.26.66,0,1.32,0,2,0,.2,0,.23-.11.22-.27,0-.32,0-.64,0-1V91.62h1.22c0,.32,0,.64,0,1,0,.16,0,.26.23.25h2c.2,0,.23-.1.23-.26,0-.32,0-.64,0-1V89.18h1.23c.43,0,.86,0,1.28,0a3.07,3.07,0,0,0,1.13-.06l0-1.15V86.73h1.23c.43,0,.85,0,1.28,0a3.58,3.58,0,0,0,1.13-.06l0-1.15c0-.34,0-.68,0-1,0-.15-.06-.21-.22-.21H120V83.08c0-.34,0-.68,0-1,0-.15-.06-.22-.21-.21h-3.46V80.63c0-.34,0-.68,0-1,0-.16-.06-.22-.22-.22h-3.45V77h1.22c0,.32,0,.64,0,1,0,.16,0,.26.23.26h2c.2,0,.23-.11.23-.27,0-.32,0-.64,0-1v-1.2c0-.34,0-.68,0-1,0-.15-.06-.22-.22-.21h-2.22c-.32,0-.64,0-1,0s-.27.08-.27.28c0,.72,0,1.44,0,2.16h-3.4c-.21,0-.27.08-.27.28,0,.72,0,1.44,0,2.17h-2.44c-.32,0-.64,0-1,0s-.27.08-.27.28c0,.72,0,1.45,0,2.17h-2.43c-.33,0-.65,0-1,0s-.27.09-.27.29C101.63,82.85,101.63,83.57,101.63,84.29Zm-7.34-9.78V70.86c0-.34,0-.68,0-1,0-.15-.06-.21-.21-.21H88.46c-.19,0-.28.05-.27.26s0,.64,0,1c-.32,0-.65,0-1,0s-.25.07-.25.25c0,1.06,0,2.11,0,3.17,0,.18.06.26.25.25h1c0,.32,0,.64,0,1s.08.27.27.26h5.63c.15,0,.21-.06.21-.21C94.29,75.19,94.29,74.85,94.29,74.51Zm12.22-11c0,.32,0,.64,0,1s.08.28.28.27h5.62c.15,0,.21-.06.21-.22,0-.33,0-.67,0-1V59.87c0-.34,0-.68,0-1,0-.15-.06-.22-.21-.21h-4.67c-.32,0-.63,0-.95,0s-.29.06-.28.27,0,.64,0,1h-1c-.18,0-.24.07-.24.25v3.17c0,.17.06.25.24.25Z"/><path class="cls-4" d="M83.31,1.23c0,.33,0,.65,0,1s-.07.24-.25.24h-1V1.22Z"/><path class="cls-4" d="M87,2.44a4,4,0,0,1-1.19-.06l0-1.15H87Z"/><path class="cls-5" d="M38.11,133.15A4.34,4.34,0,0,0,38,132l-1.14,0a4.31,4.31,0,0,0-.08-1.19l-1.15,0,0-1.15a3.4,3.4,0,0,0-1.19-.06c-.41,0-.81,0-1.22,0a4.71,4.71,0,0,0-.07-1.19l-1.15,0a4.34,4.34,0,0,0-.08-1.19l-1.14,0a4.34,4.34,0,0,0-.08-1.19l-1.14,0a4.34,4.34,0,0,0-.08-1.19l-1.14,0c-.06-.4.08-.8-.08-1.19l-1.15,0a4.31,4.31,0,0,0-.07-1.19l-1.15,0a4.29,4.29,0,0,0-.07-1.19l-1.15,0a4.24,4.24,0,0,0-.08-1.18l-1.14,0c0-.32,0-.65,0-1s-.08-.25-.26-.25-.65,0-1,0v-1.21h2.23c.15,0,.22-.06.22-.21,0-.34,0-.68,0-1h1c.15,0,.21-.06.21-.21,0-.33,0-.67,0-1h2.44l0,1.15a4.31,4.31,0,0,0,1.19.08l0,1.14a4.31,4.31,0,0,0,1.19.08l0,1.15a4.76,4.76,0,0,0,1.19.07l0,1.15a4.33,4.33,0,0,0,1.19.07l0,1.15a4,4,0,0,0,1.2.07l0,1.15a4,4,0,0,0,1.2.07l0,1.15a4.31,4.31,0,0,0,1.19.08v1c0,.15.07.21.21.21h2.23l0,1.15a4.76,4.76,0,0,0,1.19.07l0,1.15a4.38,4.38,0,0,0,1.2.07l0,1.15a4,4,0,0,0,1.2.07v2.44l-1.15,0a4,4,0,0,0-.07,1.19l-1.16,0a4.38,4.38,0,0,0-.06,1.2H38.11Z"/><path class="cls-1" d="M52.76,142.93c0-.34,0-.68,0-1,0-.15.06-.22.21-.21h1v1.22Z"/><path class="cls-5" d="M95.52,102.61H94.3c0-.33,0-.66,0-1s-.07-.25-.25-.25-.69.1-.88,0-.07-.61-.09-.92-.07-.25-.25-.25c-.45,0-.9,0-1.34,0-.26,0-.6.08-.77,0s0-.53-.09-.8v-.06c0-.25-.06-.32-.3-.31h-1.9c-.18,0-.25-.06-.24-.24s.09-.7-.06-.89-.6-.06-.92-.09-.25-.07-.25-.25.1-.69,0-.88-.6-.07-.92-.09-.25-.07-.25-.25.1-.69,0-.88-.61-.07-.92-.09-.25-.07-.25-.25.1-.69,0-.89-.61-.06-.93-.08-.24-.07-.24-.25.1-.7,0-.89-.61-.06-.93-.08-.24-.08-.24-.26.09-.69-.06-.88-.6-.06-.92-.08-.24-.08-.24-.26.09-.69-.06-.88-.61-.07-.92-.09-.25-.07-.25-.25.1-.69,0-.88-.61-.07-.93-.09-.24-.08-.24-.25.1-.7,0-.89-.61-.06-.93-.08-.24-.08-.24-.25q0-.7,0-1.41c0-.24.07-.55,0-.7s-.49-.06-.75-.09h-.12c-.25,0-.3-.08-.3-.31s.15-.7-.09-.86-.59,0-.89,0-.24.08-.24.25.09.7-.06.89-.61.06-.92.08-.25.08-.24.25v1.41c0,.24.1.54,0,.71s-.5.05-.75.08h-.18c-.19,0-.25.07-.24.25v1.28c0,1,0,1-1,.91-.18,0-.25-.08-.24-.25s0-.29,0-.43q0-5.34,0-10.68c0-.26.08-.6,0-.77s-.52-.07-.8-.08-.36,0-.36-.38c0-1.62,0-3.25,0-4.88,0-.26.08-.6,0-.77s-.52,0-.8-.08a.24.24,0,0,0-.12,0c-.18,0-.25-.07-.25-.25,0-.45,0-.89,0-1.34,0-.26.08-.6,0-.77s-.53,0-.8-.09h-.06c-.24,0-.31-.06-.32-.3s.16-.7-.08-.86-.58,0-.89-.06H66.2v-1c0-.15-.06-.21-.21-.21H65c0-1.09,0-2.17,0-3.26,0-.43,0-.41-.38-.41h-.85V59.86H65V62c0,.2,0,.3.26.29s.64,0,1,0v1c0,.15.06.22.21.21h1c0,.72,0,1.44,0,2.17,0,.19,0,.29.26.28s.64,0,1,0c0,.72,0,1.44,0,2.16,0,.2,0,.29.26.28h1c0,.34,0,.67,0,1,0,.15.06.22.21.21h1c0,.72,0,1.44,0,2.16,0,.2,0,.3.27.29s.64,0,1,0c0,.72,0,1.45,0,2.17,0,.19,0,.29.27.28h1v1c0,.15.06.21.21.21h1c0,.72,0,1.44,0,2.16,0,.2,0,.3.26.29s.64,0,1,0c0,.72,0,1.44,0,2.17,0,.19,0,.29.26.28s.65,0,1,0c0,.33,0,.67,0,1,0,.15.06.21.21.21h1c0,.72,0,1.44,0,2.16,0,.2,0,.29.27.28s.64,0,1,0c0,.72,0,1.44,0,2.16,0,.2.05.3.27.29s.64,0,1,0v1c0,.15.06.21.21.21h1c0,.73,0,1.45,0,2.17,0,.19,0,.29.26.28s.64,0,1,0c0,.34,0,.67,0,1,0,.15.06.21.21.21h1c0,.34,0,.67,0,1,0,.15.06.22.21.21h1c0,.34,0,.68,0,1,0,.15.06.22.22.22h1v1c0,.15.06.21.21.21h1v1c0,.15.06.21.21.21.34,0,.67,0,1,0,0,.32,0,.64,0,1s.09.26.28.26c.72,0,1.44,0,2.16,0,0,.32,0,.64,0,1s.09.27.28.26h2.16a4.31,4.31,0,0,0,.08,1.19c.38,0,.76,0,1.15,0a3.67,3.67,0,0,1,1.19.06l0,1.15a4.71,4.71,0,0,0-1.19.07Z"/><path class="cls-4" d="M95.52,97.73h2.16c.2,0,.29,0,.28.26s0,.64,0,1H95.52Z"/><path class="cls-4" d="M98,99h2.19c.18,0,.26,0,.26.24s0,.65,0,1c-.7,0-1.4,0-2.1,0-.25,0-.37-.05-.35-.33S98,99.25,98,99Z"/><path class="cls-6" d="M95.52,97.73v1.21H94.3V97.73Z"/><path class="cls-4" d="M111.39,100.16c0-.3,0-.61,0-.91s.1-.31.32-.3h.92v1.21Z"/><path class="cls-7" d="M124.82,56.2v2.43l-1.14,0a4.74,4.74,0,0,0-.07,1.19H120l0-1.2c0-.29,0-.57,0-.85s0-.39-.41-.39-.53,0-.79,0V55l1.13,0a4.27,4.27,0,0,0,.08-1.18h2.43a8.69,8.69,0,0,0,0,1.14,4.31,4.31,0,0,0,1.19.06h0c0,.3,0,.61,0,.91s0,.34.3.32S124.52,56.2,124.82,56.2Z"/><path class="cls-8" d="M123.62,55a4.31,4.31,0,0,1-1.19-.06,8.69,8.69,0,0,1,0-1.14l1.23,0Z"/><path class="cls-4" d="M118.72,59.86c-.31,0-.61,0-.92,0s-.31-.09-.3-.32,0-.61,0-.91h1.22Z"/><path class="cls-8" d="M118.75,57.41c.26,0,.52,0,.79,0s.42,0,.41.39,0,.56,0,.85l-1.21,0h0Z"/><path class="cls-8" d="M120,53.77a4.27,4.27,0,0,1-.08,1.18l-1.13,0c0-.34,0-.68,0-1,0-.15.06-.21.21-.21Z"/><path class="cls-4" d="M117.5,55c-.31,0-.61,0-.92,0s-.31-.1-.3-.32,0-.61,0-.92c.33,0,.65,0,1,0s.25.07.24.25S117.5,54.65,117.5,55Z"/><path class="cls-4" d="M116.28,52.53c-.31,0-.62,0-.92,0s-.31-.09-.3-.32,0-.6,0-.91h1.21Z"/><path class="cls-7" d="M128.48,68.42l0,1.2c0,.71,0,1.42,0,2.14,0,.21,0,.34-.3.32s-.64-.1-.83,0-.07.56-.1.86,0,.31-.35.32h-2.08l0-2.43c0-.28,0-.56,0-.85s0-.39-.42-.38c-.26,0-.52,0-.79,0V67.19l1.14,0c.16-.38,0-.78.07-1.17h1.21a10.86,10.86,0,0,0,0,1.14,4.76,4.76,0,0,0,1.19.06h0c0,.31,0,.61,0,.91s0,.34.29.33A6.91,6.91,0,0,1,128.48,68.42Z"/><path class="cls-5" d="M123.63,61.09l0,1.21h-2.44V61.09l2.44,0Z"/><path class="cls-4" d="M122.38,66c-.32,0-.65,0-1,0s-.24-.08-.24-.26c0-.73,0-1.46,0-2.19.3,0,.61,0,.9,0s.33.1.33.35C122.38,64.57,122.39,65.27,122.38,66Z"/><path class="cls-8" d="M127.28,67.19a4.76,4.76,0,0,1-1.19-.06,10.86,10.86,0,0,1,0-1.14l1.23,0Z"/><path class="cls-4" d="M121.17,63.52a4.33,4.33,0,0,1-1.19-.06l0-1.15h1.22Z"/><path class="cls-8" d="M123.63,69.63c.27,0,.53,0,.79,0,.43,0,.43,0,.42.38s0,.57,0,.85h-1.2Z"/><path class="cls-8" d="M124.84,66c0,.39.09.79-.07,1.17l-1.14,0c0-.33,0-.67,0-1,0-.15.06-.22.22-.21Z"/><path class="cls-4" d="M123.61,72.08c-.31,0-.62,0-.92,0s-.31-.09-.3-.32,0-.61,0-.91h1.22Z"/><path class="cls-5" d="M129.72,75.74a4,4,0,0,0-1.19.07l0,1.15h-2.44V74.53c.51,0,1,0,1.52,0,.3,0,.68.14.88-.07s.05-.55.05-.83,0-.34.3-.32.61,0,.91,0Z"/><path class="cls-4" d="M126.05,79.41c-.31,0-.61,0-.92,0s-.3-.1-.3-.32c0-.71,0-1.42,0-2.14h1.22Z"/><path class="cls-4" d="M124.84,88c0-.71,0-1.42,0-2.13,0-.23,0-.34.3-.32s.61,0,.92,0V88Z"/><path class="cls-5" d="M61.31,131.93a4.74,4.74,0,0,0-1.19.07l0,1.15h-.24c-.31,0-.68-.09-.89.05s-.08.57-.08.86-.08.31-.32.32-.68-.16-.86.08-.06.54-.05.82-.07.33-.31.31-.61,0-.91,0h0c0-.32,0-.64,0-1s-.09-.27-.28-.27H54v-1.21c.72,0,1.43,0,2.14,0,.23,0,.34,0,.32-.3s-.09-.64,0-.83.57-.08.87-.09.32-.05.31-.3c0-.59,0-1.19,0-1.78,0-.36,0-.36.36-.37s.6.08.77-.05.07-.52.09-.8,0-.36.36-.37.6.08.77-.05.07-.53.09-.8,0-.36.37-.37.59.08.76,0,.07-.53.09-.81,0-.35.37-.36.6.07.77-.06.06-.52.08-.8,0-.36.37-.37.6.08.77,0,.07-.53.08-.8,0-.36.38-.37.6.08.76,0,.07-.53.08-.81,0-.34.38-.36.65.14.8-.09,0-.55,0-.83-.08-.3-.31-.31-.7.16-.86-.08,0-.59,0-.9.08-.24.25-.23h2.2a7.38,7.38,0,0,0,0,1.15,4,4,0,0,0,1.14.06c.34,0,.69,0,1,0,.18,0,.25.06.25.24s0,.65,0,1a4,4,0,0,0-1.19.07l0,1.15a4.31,4.31,0,0,0-1.19.07l0,1.15a4.74,4.74,0,0,0-1.19.07l0,1.15a4.39,4.39,0,0,0-1.2.08l0,1.15-1.15,0a3.4,3.4,0,0,0-.07,1.19c0,.4,0,.81,0,1.22a4,4,0,0,0-1.19.07l0,1.15a4.33,4.33,0,0,0-1.19.07Z"/><path class="cls-1" d="M56.43,136.82a4,4,0,0,1-1.2-.07l0-1.15h1.22Z"/><path class="cls-1" d="M57.65,138v-1.22a4,4,0,0,1,1.19.07l0,1.15Z"/><path class="cls-8" d="M109,25.65h1.22v6.1l-1.15,0A4.33,4.33,0,0,0,109,33h-2.44c0-.32,0-.64,0-1s-.07-.24-.25-.24-.65,0-1,0V30.54h2.06c.37,0,.37,0,.39-.34s-.13-.63.06-.82.54-.05.82-.06.34,0,.34-.33C109,27.87,109,26.76,109,25.65Z"/><path class="cls-5" d="M109,33a4.33,4.33,0,0,1,.06-1.19l1.15,0V33Z"/><path class="cls-8" d="M67.43,119.73h-2.2c-.17,0-.26,0-.25.23s-.09.68,0,.9.56.07.86.08.34.06.31.31.08.63,0,.83-.52.07-.8.09-.35,0-.38.36.14.64-.08.81-.5,0-.76,0-.35,0-.38.37.14.63-.08.8-.51,0-.77,0-.35,0-.37.37.14.64-.08.8-.51,0-.77.06-.35,0-.37.36.13.64-.09.81-.5,0-.76,0-.35,0-.37.37.13.63-.09.8-.51,0-.77.05-.34,0-.36.37.13.64-.09.8-.51,0-.77.05-.36,0-.36.37c0,.59,0,1.19,0,1.78,0,.25-.09.3-.31.3s-.69-.15-.87.09-.06.55,0,.83-.09.3-.32.3c-.71,0-1.42,0-2.14,0l-1.2,0,0-1.14a4.31,4.31,0,0,0-1.19-.07h0V129.2c0-1,0-1-1-.93-.15,0-.22.06-.21.21v.67c0,.33,0,.34-.33.34H47.87l-1.21,0h0l0-1.21h.19c.32,0,.72.1,1-.05s.06-.6.09-.92c0-.17.05-.26.24-.26s.69.11.89,0,.08-.6.09-.92.11-.26.3-.26c.41,0,.82,0,1.22,0s.67.14.87-.08.06-.54.06-.82,0-.33.3-.32.81,0,1.22,0,.67.14.87-.08,0-.54,0-.82,0-.31.36-.32.81,0,1.22,0,.62.13.81-.08,0-.5.06-.76,0-.37.35-.38.6.08.77,0,.08-.53.09-.8,0-.37.36-.38.6.08.78,0,.07-.53.09-.81,0-.36.36-.37.59.08.77,0,.07-.52.09-.8,0-.36.36-.38.65.14.8-.08.06-.54.06-.82,0-.31-.35-.31c-.61,0-1.23,0-1.84,0-.17,0-.26,0-.25-.24s.1-.69,0-.89-.6-.08-.92-.09-.26-.12-.25-.3c0-.41,0-.82,0-1.22s.15-.69-.08-.87-.54-.06-.82-.06-.33,0-.32-.3c0-.57,0-1.14,0-1.71,0-.42,0-.44-.42-.43H52.47c-.3,0-.67.14-.87-.07s-.05-.55-.06-.83,0-.31-.36-.31q-.91,0-1.83,0c-.17,0-.26,0-.26-.24s.11-.69,0-.89-.6-.06-.92-.09-.26,0-.26-.24.11-.69,0-.89-.61-.07-.92-.09-.26-.05-.26-.24.1-.69,0-.89-.61-.08-.92-.09-.26-.12-.26-.31c0-.48,0-1,0-1.46,0-.68,0-.69.66-.68s.56-.08.56.54c0,.14,0,.28,0,.42s.05.26.24.26.69-.1.89,0,.06.6.09.92c0,.17.05.26.24.25s.69-.1.89,0,.08.6.09.92.12.26.3.25c.45,0,.9,0,1.35,0,.25,0,.57-.12.75.07s0,.47,0,.71c0,.42,0,.44.42.43,1.38,0,2.77,0,4.15,0,.23,0,.34,0,.32.3s-.09.64,0,.83.57.08.86.09.34,0,.32.3-.09.64,0,.83.57.07.87.09.31,0,.31.36v1.84c0,.17,0,.26.24.25s.68-.1.88,0,.07.6.1.92,0,.26.24.25.69-.1.89,0,.07.6.09.92.11.26.3.26c.41,0,.81,0,1.22,0s.69-.15.87.08.06.54,0,.82,0,.33.3.32q.65,0,1.29,0c.27,0,.62-.13.81.08s0,.5,0,.76,0,.38.36.37h7l0,0v1.21Zm-3.67-.6c0-.63,0-.63-.65-.63h-.43a.13.13,0,0,0-.14.15c0,.34-.14.74.07,1s.53,0,.81.07a.48.48,0,0,1,.12,0c.16,0,.22-.07.22-.22S63.76,119.26,63.76,119.13Z"/><path class="cls-7" d="M112.63,37.89h4.87a10.86,10.86,0,0,0,0,1.14,4.33,4.33,0,0,0,1.19.06h0c0,.71,0,1.42,0,2.13,0,.23,0,.34-.3.32s-.64-.1-.83,0-.08.57-.09.86,0,.34-.3.32-.64-.1-.83,0-.07.57-.09.86,0,.32-.36.32h-3.29l0-1.2c0-.29,0-.57,0-.85s0-.39-.41-.39h-.79l0-1.21V39.09h0c.31,0,.61,0,.92,0s.33,0,.32-.29S112.62,38.19,112.63,37.89Z"/><path class="cls-8" d="M112.63,37.89c0,.3,0,.61,0,.91s-.1.31-.32.29-.61,0-.92,0V37.87Z"/><path class="cls-8" d="M118.73,39.09a4.33,4.33,0,0,1-1.19-.06,10.86,10.86,0,0,1,0-1.14l1.23,0Z"/><path class="cls-8" d="M129.71,73.29c-.3,0-.61,0-.91,0s-.31.1-.3.32.12.64-.05.83-.58.06-.88.07c-.5,0-1,0-1.52,0h-1.21V73.29h2.08c.34,0,.33,0,.35-.32s-.15-.69.1-.86.55-.06.83,0,.3-.11.3-.32c0-.72,0-1.43,0-2.14h1.22Z"/><path class="cls-8" d="M123.61,59.86a4.74,4.74,0,0,1,.07-1.19l1.14,0v1.22Z"/><path class="cls-8" d="M124.82,56.2c-.3,0-.61,0-.91,0s-.31-.1-.3-.32,0-.61,0-.91h1.22Z"/><path class="cls-5" d="M123.61,59.86h1.22v1.23h-1.2l0,0,0-1.21Z"/><path class="cls-5" d="M106.52,33H109V34.2h-2.44V33Z"/><path class="cls-4" d="M106.51,35.43a4.33,4.33,0,0,1-1.19-.07l0-1.15h1.22Z"/><path class="cls-4" d="M107.72,36.65h-1c-.19,0-.24-.08-.24-.25,0-.33,0-.65,0-1h1c.15,0,.21.06.21.21C107.73,36,107.73,36.31,107.72,36.65Z"/><path class="cls-4" d="M109,39.1c-.31,0-.62,0-.92,0s-.31-.1-.3-.32,0-.61,0-.92H109Z"/><path class="cls-8" d="M112.64,44h3.29c.34,0,.33,0,.36-.32s-.15-.68.09-.86.55-.06.83,0,.3-.1.3-.32-.15-.68.09-.86.55-.06.83,0,.31-.09.3-.32c0-.71,0-1.42,0-2.13H120v3.66l-1.15,0a4,4,0,0,0-.05,1.2l0,1.2-1.15,0a4.33,4.33,0,0,0-.06,1.19h-3.66l0-1.14a4.31,4.31,0,0,0-1.19-.07Z"/><path class="cls-5" d="M118.74,44a4,4,0,0,1,.05-1.2l1.15,0V44Z"/><path class="cls-7" d="M109,25.65c0,1.11,0,2.22,0,3.34,0,.37-.09.33-.34.33s-.63-.12-.82.06,0,.54-.06.82,0,.34-.39.34h-2.06c0-.3,0-.6,0-.91s0-.33-.29-.32-.61,0-.91,0l0-1.15a4.74,4.74,0,0,0-1.19-.07h0V26.88a8.69,8.69,0,0,0,1.14,0,4.73,4.73,0,0,0,.06-1.19h0c.3,0,.6,0,.91,0s.33,0,.32-.3,0-.61,0-.91h2.43a8.69,8.69,0,0,0,0,1.14,4.31,4.31,0,0,0,1.19.06Z"/><path class="cls-8" d="M105.3,24.45c0,.3,0,.61,0,.91s-.1.31-.32.3-.61,0-.91,0V24.43Z"/><path class="cls-8" d="M109,25.65a4.31,4.31,0,0,1-1.19-.06,8.69,8.69,0,0,1,0-1.14l1.23,0Z"/><path class="cls-4" d="M101.62,25.66c-.31,0-.61,0-.92,0s-.31-.09-.3-.32,0-.61,0-.92h1.21Z"/><path class="cls-8" d="M104.07,25.65a4.73,4.73,0,0,1-.06,1.19,8.69,8.69,0,0,1-1.14,0c0-.34,0-.67,0-1,0-.15.05-.22.2-.22C103.39,25.66,103.73,25.65,104.07,25.65Z"/><path class="cls-4" d="M102.84,29.32c-.31,0-.61,0-.92,0s-.31-.09-.3-.32,0-.61,0-.91h1.22Z"/><path class="cls-8" d="M78.43,117.29v1.21H73.54l0,0c0-.32,0-.64,0-1s.08-.25.25-.24a3.08,3.08,0,0,0,.43,0H78.4Z"/><path class="cls-8" d="M66.2,68.41h.24c.31,0,.68-.09.89.06s.08.56.08.86.08.34.32.3h.06c.27,0,.64-.13.8.09s0,.51,0,.77c0,.45,0,.89,0,1.34,0,.18.07.26.25.25a.24.24,0,0,1,.12,0c.28,0,.64-.14.8.08s0,.51,0,.77c0,1.63,0,3.26,0,4.88,0,.36,0,.35.36.38s.64-.14.8.08,0,.51,0,.77q0,5.34,0,10.68c0,.14,0,.29,0,.43s.06.24.24.25c1,.07,1,.08,1-.91V88.21c0-.18,0-.27.24-.25h.18c.25,0,.57.11.75-.08s0-.47,0-.71V85.76c0-.17,0-.24.24-.25s.73.15.92-.08.06-.59.06-.89,0-.26.24-.25.68-.09.89,0,.08.57.09.86,0,.35.3.31h.12c.26,0,.59-.11.75.09s0,.46,0,.7q0,.7,0,1.41c0,.17.06.24.24.25s.74-.16.93.08,0,.59,0,.89.06.24.24.25.74-.15.93.09.06.58,0,.88.06.24.25.25.73-.15.92.09.06.58.06.88.06.24.24.26.73-.16.92.08.06.58.06.88.06.25.24.26.73-.16.93.08,0,.58,0,.89.06.24.24.25.74-.16.93.08,0,.59,0,.89.06.24.25.25.73-.16.92.09,0,.58,0,.88.07.24.25.25.73-.16.92.09.06.58,0,.88.07.24.25.25.73-.16.92.09.06.58.06.89.06.24.24.24h1.9c.24,0,.34.06.3.31v.06c0,.27-.13.63.09.8s.51,0,.77,0c.44,0,.89,0,1.34,0,.18,0,.24.07.25.25s-.16.73.09.92.58,0,.88,0,.25.07.25.25,0,.65,0,1h0l-1.16,0a4.82,4.82,0,0,0-.07,1.2h0l-1.16,0a4.82,4.82,0,0,0-.07,1.2H90.62a6.2,6.2,0,0,0-1.14,0,3.3,3.3,0,0,0-.07,1.13c0,.42,0,.85,0,1.27l-1.15.05a4,4,0,0,0,0,1.19v2.44h-1c-.15,0-.22,0-.21.21v1H85.76l0,0c0-2.34,0-4.68,0-7,0-.25-.08-.32-.31-.31s-.65.09-.83,0-.08-.57-.08-.86-.08-.31-.32-.31-.69.15-.86-.08,0-.59,0-.89v-.25h.36c.91,0,.91,0,.87-1,0-.19,0-.29-.27-.28s-.64,0-1,0v-1c0-.15-.06-.21-.21-.21-.34,0-.67,0-1,0v-1c0-.15-.06-.21-.21-.21h-1c0-.34,0-.67,0-1,0-.15-.06-.21-.21-.21h-1c0-.12,0-.24,0-.36,0-.91,0-.91-.94-.87-.2,0-.3,0-.29.27s0,.64,0,1h-.25c-.3,0-.68.09-.89,0s-.07-.57-.08-.87-.07-.31-.31-.31c-1.83,0-3.66,0-5.5,0-.24,0-.32.07-.31.31,0,.61,0,1.22,0,1.83,0,.24-.07.32-.31.32s-.7-.16-.86.08,0,.59-.06.89a1.92,1.92,0,0,1,0,.24c0,.39,0,.77,0,1.15a4.39,4.39,0,0,1-1.2.08V97.73h1c.12,0,.18,0,.18-.18V88.84c0-1,0-1-1-.89-.15,0-.23.06-.22.22s0,.2,0,.3c0,3.09,0,6.17,0,9.26H67.8c-.37,0-.38,0-.38.41,0,1.08,0,2.17,0,3.26H66.21c0-.22,0-.45,0-.67v-18c0-.29.14-.68-.09-.86s-.54,0-.82-.06-.31,0-.31-.36c0-.8,0-1.59,0-2.38,0-.3.15-.69-.08-.87s-.54-.06-.82,0-.32-.06-.32-.31c0-.79,0-1.58,0-2.38,0-.32.15-.72-.08-.93s-.54,0-.82,0h-.07c-.17,0-.25,0-.25-.24,0-.45,0-.9,0-1.34,0-.28.13-.64-.08-.81s-.5,0-.77,0-.36,0-.37-.37c0-1,0-2,0-3,0-.24-.06-.33-.31-.32s-.64.1-.83,0-.08-.57-.08-.86-.07-.33-.31-.32-.65.1-.83,0-.08-.57-.08-.87-.07-.31-.32-.31-.69.15-.86-.08,0-.59-.05-.89v-.25c1.12,0,2.24,0,3.36,0,.23,0,.32.06.31.31s-.09.64,0,.83.56.08.86.08.31.07.31.31-.15.7.08.86.59.05.89.06h.25l0,1.15a4,4,0,0,0,1.2.07h0v2.16c0,.2,0,.3.26.29s.64,0,1,0v4c0,.28-.12.63.07.82s.54,0,.82.06.33,0,.33-.34V72.06c0-.38,0-.76,0-1.14a4,4,0,0,0-1.19-.06V68.41ZM68.64,78.8v-1c0-.9,0-.89-.91-.86-.23,0-.32.05-.31.3,0,.84,0,1.67,0,2.51s0,.89.91.86c.23,0,.33,0,.32-.3C68.63,79.82,68.64,79.31,68.64,78.8Z"/><path class="cls-5" d="M90.62,105.07h1.23v1.22a4.33,4.33,0,0,1-1.19-.07Z"/><path class="cls-5" d="M88.2,108.73a4,4,0,0,1,0-1.19l1.15-.05v1.23Z"/><path class="cls-8" d="M111.4,39.09v1.23h-1.21a3.66,3.66,0,0,1,.07-1.19Z"/><path class="cls-4" d="M110.17,41.54c-.31,0-.61,0-.92,0s-.31-.09-.3-.32,0-.61,0-.91h1.22Z"/><path class="cls-4" d="M123.62,91.63a4.4,4.4,0,0,1,.06-1.2l1.15,0v1.23Z"/><path class="cls-4" d="M115.06,98.94c0-.3,0-.61,0-.91s.09-.32.32-.3h.91V99Z"/><path class="cls-4" d="M120,96.5c0-.33,0-.65,0-1,0-.18.07-.24.25-.24h1v1.22Z"/><path class="cls-4" d="M117.5,97.72c0-.31,0-.61,0-.92s.1-.31.32-.3.61,0,.92,0v1.22Z"/><path class="cls-4" d="M89.4,4.89h-1c-.19,0-.25-.08-.24-.25,0-.33,0-.65,0-1h1.22Z"/><path class="cls-4" d="M90.63,7.33h-1c-.16,0-.21-.07-.21-.21,0-.34,0-.68,0-1h1.21Z"/><path class="cls-4" d="M91.84,8.56h-1c-.19,0-.24-.07-.24-.25s0-.65,0-1h1.22Z"/><path class="cls-4" d="M93.06,11c-.3,0-.61,0-.91,0s-.31-.09-.3-.32,0-.61,0-.91h1.21Z"/><path class="cls-4" d="M94.3,13.44h-1c-.15,0-.21-.07-.21-.22,0-.33,0-.67,0-1H94.3Z"/><path class="cls-4" d="M95.51,14.66h-1c-.18,0-.24-.08-.24-.25,0-.33,0-.65,0-1h1.22Z"/><path class="cls-4" d="M96.73,17.11c-.31,0-.61,0-.91,0s-.32-.1-.31-.32,0-.61,0-.92h1.22Z"/><path class="cls-4" d="M98,19.54H97c-.16,0-.21-.07-.21-.22,0-.34,0-.67,0-1H98Z"/><path class="cls-8" d="M83.31,114.84v1.22H80.87l0,0c0-.3,0-.61,0-.91s.08-.31.32-.3c.7,0,1.41,0,2.12,0Z"/><path class="cls-8" d="M80.86,117.28H78.43l0,0c0-.3,0-.61,0-.91s.08-.3.31-.3c.71,0,1.42,0,2.13,0l0,0Z"/><path class="cls-4" d="M99.17,20.77h-1c-.19,0-.25-.08-.24-.25,0-.33,0-.65,0-1h1.22Z"/><path class="cls-4" d="M100.39,23.21c-.3,0-.61,0-.91,0s-.31-.1-.3-.32,0-.61,0-.92h1.21Z"/><path class="cls-5" d="M117.51,46.42a4.33,4.33,0,0,1,.06-1.19l1.15,0v1.23Z"/><path class="cls-5" d="M113.85,46.41h3.66v1.22a4.38,4.38,0,0,0-1.2.07l0,1.15h-1.21c0-.34,0-.68,0-1,0-.15-.07-.21-.22-.21h-1Z"/><path class="cls-4" d="M115.05,50.09c-.39-.05-.8.09-1.18-.08l0-1.14h1.22Z"/><path class="cls-8" d="M128.48,68.42a6.91,6.91,0,0,0-.91,0c-.26,0-.3-.1-.29-.33s0-.6,0-.91h1.23Z"/><path class="cls-4" d="M122.39,94.07a4.38,4.38,0,0,1,.07-1.2l1.15,0v1.22Z"/><path class="cls-4" d="M88.19,3.66h-1c-.15,0-.22-.06-.21-.22v-1h1.22Z"/><path class="cls-4" d="M121.17,95.29c0-.34,0-.68,0-1,0-.15.06-.21.21-.21h1v1.21Z"/><path class="cls-5" d="M93.07,103.84a4.82,4.82,0,0,1,.07-1.2l1.16,0v1.21Z"/><path class="cls-5" d="M91.85,105.06a4.82,4.82,0,0,1,.07-1.2l1.16,0v1.22Z"/><path class="cls-8" d="M85.75,113.61H84.54l0,0c0-.33,0-.65,0-1s.07-.25.25-.24h1l0,0Z"/><path class="cls-8" d="M84.53,114.83H83.31l0,0c0-.32,0-.65,0-1s.06-.25.24-.24h1l0,0Z"/><path class="cls-1" d="M56.43,139.27v-1c0-.15.06-.21.21-.21.33,0,.67,0,1,0v1.22Z"/><path class="cls-1" d="M55.21,140.49c0-.34,0-.68,0-1,0-.15.06-.21.22-.21.33,0,.67,0,1,0v1.22Z"/><path class="cls-1" d="M54,141.71c0-.34,0-.68,0-1,0-.15.06-.22.21-.22h1v1.21Z"/><path class="cls-7" d="M84.51,113.6h-1c-.18,0-.24.06-.24.24s0,.65,0,1c-.71,0-1.42,0-2.12,0-.24,0-.33,0-.32.3s0,.61,0,.91c-.71,0-1.42,0-2.13,0-.23,0-.32.06-.31.3s0,.61,0,.91H74.21a3.08,3.08,0,0,1-.43,0c-.17,0-.26,0-.25.24s0,.65,0,1h-7c-.35,0-.35,0-.36-.37s.11-.59,0-.76-.54-.07-.81-.08q-.65,0-1.29,0c-.25,0-.31-.09-.3-.32s.09-.65,0-.82-.57-.07-.87-.08-.81,0-1.22,0c-.19,0-.29,0-.3-.26s.16-.73-.09-.92-.59,0-.89,0-.23-.08-.24-.25.16-.73-.1-.92-.58,0-.88,0-.24-.08-.24-.25v-1.84c0-.34,0-.33-.31-.36s-.69.15-.87-.09,0-.55,0-.83-.09-.29-.32-.3-.68.15-.86-.09-.06-.55,0-.83-.09-.3-.32-.3c-1.38,0-2.77,0-4.15,0-.47,0-.42,0-.42-.43,0-.24.1-.55,0-.71s-.5-.07-.75-.07c-.45,0-.9,0-1.35,0-.18,0-.29,0-.3-.25s.16-.73-.09-.92-.59,0-.89,0-.23-.08-.24-.25c0-.32.16-.73-.09-.92s-.59,0-.89,0-.25-.08-.24-.26,0-.28,0-.42c0-.62.07-.54-.56-.54s-.66,0-.66.68c0,.49,0,1,0,1.46,0,.19,0,.3.26.31s.73-.17.92.09,0,.58,0,.89.09.22.26.24.73-.17.92.09.05.59,0,.89.09.22.26.24.73-.17.92.09.05.59,0,.89.09.24.26.24q.91,0,1.83,0c.35,0,.35,0,.36.31s-.12.64.06.83.57.07.87.07H56c.47,0,.42,0,.42.43,0,.57,0,1.14,0,1.71,0,.26.09.31.32.3s.65-.08.82.06.07.57.08.87,0,.81,0,1.22c0,.18,0,.29.25.3s.73-.16.92.09,0,.59,0,.89.08.24.25.24c.61,0,1.23,0,1.84,0,.34,0,.35,0,.35.31s.08.63-.06.82-.52.07-.8.08-.34,0-.36.38.14.64-.09.8-.51,0-.77,0-.34,0-.36.37.14.64-.09.81-.51,0-.78,0-.33,0-.36.38.14.63-.09.8-.5,0-.77,0-.34,0-.35.38.11.59-.06.76-.53.07-.81.08-.81,0-1.22,0-.34,0-.36.32.12.64,0,.82-.58.07-.87.08-.82,0-1.22,0-.31.1-.3.32.12.64-.06.82-.57.07-.87.08-.81,0-1.22,0c-.19,0-.29,0-.3.26s.17.73-.09.92-.59,0-.89,0-.23.09-.24.26c0,.32.17.75-.09.92s-.63,0-1,.05h-.19l-1.2,0,0-1.13c-.38-.16-.79,0-1.18-.09,0-.32,0-.64,0-1s-.06-.25-.24-.25-.65,0-1,0c0-.32,0-.64,0-1s-.06-.25-.24-.25-.65,0-1,0a11.06,11.06,0,0,0-.05-1.15,4.38,4.38,0,0,0-1.2,0l-1.2,0,0-1.13a5.21,5.21,0,0,0-1.18-.08c0-.32,0-.65,0-1s-.07-.25-.25-.24h-1c0-.33,0-.65,0-1s-.06-.25-.24-.24l-1,0c0-.32,0-.64,0-1s-.06-.25-.24-.25-.65,0-1,0c0-.32,0-.64,0-1s-.06-.25-.25-.25-.64,0-1,0c0-.32,0-.64,0-1s-.07-.25-.25-.25-.64,0-1,0c0-.32,0-.64,0-1,0-.18-.07-.24-.25-.24h-1c0-.32,0-.65,0-1s-.07-.25-.25-.24h-1l0-1.22,0-1.21a8.69,8.69,0,0,0,1.14,0,4.31,4.31,0,0,0,.06-1.19h1c.15,0,.21-.07.21-.22,0-.34,0-.68,0-1l0-1.2h.79c.43,0,.42,0,.42-.38s0-.57,0-.85l0-1.21H34c.42,0,.42,0,.41-.38s0-.57,0-.85l0-1.21c.26,0,.52,0,.79,0s.42,0,.41-.39,0-.56,0-.85l0-2.42h.79c.42,0,.42,0,.41-.38s0-.57,0-.85c0-1.4,0-2.8,0-4.2,0-.23,0-.45,0-.67h2.43c0,.72,0,1.44,0,2.16,0,.2,0,.3.27.29s.64,0,1,0c0,.3,0,.61,0,.91s.11.33.35.32c1.08,0,.84.2.88-.88,0-.24,0-.37-.32-.35s-.61,0-.91,0c0-.72,0-1.44,0-2.17,0-.19,0-.29-.27-.28h-1V78.69a2.18,2.18,0,0,1,0-.25c0-.22-.1-.27-.29-.26h-.92V70.86h.79c.43,0,.42,0,.41-.38s0-.57,0-.85l0-3.65c.27,0,.53,0,.79,0,.43,0,.42,0,.42-.38s0-.57,0-.86l0-2.42h.8c.42,0,.42,0,.41-.38s0-.57,0-.85l0-1.21h.79c.42,0,.42,0,.41-.38s0-.57,0-.85l0-1.21a8.69,8.69,0,0,0,1.14,0,4.31,4.31,0,0,0,.06-1.19h1c.15,0,.22-.07.21-.22V55h1q.23,0,.21-.21v-1h1c.15,0,.21-.06.21-.21,0-.34,0-.68,0-1h.91c.22,0,.34,0,.32-.29s0-.61,0-.91l1.21,0h1c.14,0,.21-.06.21-.21v-1h.91c.22,0,.33,0,.32-.3s0-.6,0-.91l1.2,0,1,0c.15,0,.22-.06.22-.21,0-.34,0-.68,0-1h0c.3,0,.61,0,.91,0s.34,0,.32-.3,0-.61,0-.91l1.21,0h1c.14,0,.21-.05.21-.21v-1h1c.15,0,.21-.06.21-.21V44h1c.15,0,.22-.06.21-.21v-1h2.17c.2,0,.29,0,.28-.27s0-.64,0-1h1c.14,0,.21-.06.21-.21,0-.34,0-.68,0-1l0-1.22a7.37,7.37,0,0,0,1.15,0,4.33,4.33,0,0,0,.06-1.19l0-2.44h2.45c0,.32,0,.64,0,1s.06.25.24.25h1l0,1.21c0,1.09,0,2.19,0,3.29,0,.44,0,.89,0,1.34,0,.21-.08.28-.29.27h-.73c-.15,0-.21.06-.21.21s0,.29,0,.43c0,.91,0,1.83,0,2.74,0,.2-.05.3-.27.28s-.41,0-.61,0-.34,0-.35.33v1.82c0,.2,0,.3-.26.3s-.68-.13-.88.05-.06.61-.08.93-.08.24-.25.24c-.73,0-1.47,0-2.2,0,0-.3,0-.61,0-.91s-.11-.33-.35-.32c-1.08,0-.84-.2-.88.88,0,.24,0,.37.32.35s.61,0,.91,0v1.47c0,.3.09.68-.06.89s-.56.05-.86.09h-.06c-.18,0-.25.06-.25.24,0,.41,0,.82,0,1.22s.1.68-.05.89-.56.06-.86.09h-.06c-.18,0-.25.06-.25.25,0,.46,0,.93,0,1.4,0,.24.07.55,0,.71s-.49.07-.75.08c-.42,0-.43,0-.43.43v2.93c0,.18,0,.32-.24.31s-.7-.09-.89.06-.06.6-.08.92-.07.25-.26.24H57.28c-.26,0-.6-.08-.77.05s-.06.53-.08.81,0,.36-.37.36H51.23c-1,0-1,0-.91,1v.06c0,.13.06.18.18.18h7.15V65c0,.3-.09.68.05.89s.57.08.86.08.32.07.32.31-.15.69.08.87.55.06.83,0,.31.08.31.32-.15.68.08.86.55.06.83,0,.31.08.31.32c0,1,0,2,0,3,0,.36,0,.35.37.37s.6-.08.77,0,.07.53.08.81c0,.44,0,.89,0,1.34,0,.19.08.26.25.24h.07c.28,0,.65-.09.82,0s.07.61.08.93c0,.8,0,1.59,0,2.38,0,.25.09.32.32.31s.65-.09.82,0,.08.57.08.87c0,.79,0,1.58,0,2.38,0,.35,0,.35.31.36s.65-.09.82.06.09.57.09.86v18c0,.22,0,.45,0,.67v1.21c-.3,0-.6,0-.9,0s-.33.1-.33.35c0,.7,0,1.4,0,2.1H64c-.15,0-.22.06-.21.21v1h-1c-.15,0-.21.06-.21.21,0,.34,0,.68,0,1-.3,0-.61,0-.91,0s-.33.1-.32.35c0,1.08-.2.84.88.88.24,0,.37,0,.35-.33s0-.6,0-.9h1c.15,0,.21-.06.21-.21,0-.34,0-.67,0-1h1c.15,0,.21-.06.21-.21,0-.34,0-.68,0-1,.3,0,.6,0,.9,0s.35-.1.32-.35v-.12c0-.23-.11-.52.06-.69s.46-.05.69-.06c.5,0,.47,0,.47-.44v-.79h0c.34,0,.68,0,1,0,.15,0,.22-.06.21-.21v-1h0a4.39,4.39,0,0,0,1.2-.08c0-.38,0-.76,0-1.15a1.92,1.92,0,0,0,0-.24c0-.3-.08-.68.06-.89s.57-.08.86-.08.32-.08.31-.32c0-.61,0-1.22,0-1.83,0-.24.07-.31.31-.31,1.84,0,3.67,0,5.5,0,.24,0,.31.08.31.31s-.15.7.08.87.59,0,.89,0h.24c0,.33,0,.67,0,1,0,.15.06.21.22.21h1c0,.34,0,.67,0,1,0,.15.06.21.21.21h1v1c0,.15.06.22.21.21h1v1c0,.15.06.21.21.21.34,0,.68,0,1,0h0v.25c0,.3-.09.68,0,.89s.57.07.86.08.32.06.32.31-.15.68.08.86.54.06.83,0,.31.06.31.31c0,2.34,0,4.68,0,7h-1c-.18,0-.25.06-.25.24S84.52,113.27,84.51,113.6ZM54,118.5h.24c.31,0,.68.08.89-.06s.08-.57.08-.86.08-.31.31-.31.7.15.86-.09,0-.58.06-.88-.07-.25-.25-.25c-1.06,0-2.11,0-3.17,0-.18,0-.25.06-.25.24s0,.65,0,1l-1.15,0c-.16.39,0,.8-.08,1.19-.32,0-.65,0-1,0s-.25.08-.24.26V120c0,.28.08.63-.06.82s-.52.06-.8.09h-.12c-.18,0-.25.07-.25.25,0,.42,0,.85,0,1.28,0,1,0,1,1,.92.18,0,.25-.07.25-.25s-.1-.69,0-.89.61-.06.92-.08.26-.06.25-.25-.1-.69.05-.89.61-.06.92-.09.26,0,.25-.24,0-.65,0-1l1.14,0A4.31,4.31,0,0,0,54,118.5Z"/><path class="cls-8" d="M39.33,92.84H36.9l0-1.23a4.33,4.33,0,0,0,1.19-.06c0-.38,0-.77,0-1.15V78.85c0-.23,0-.45,0-.67H39c.19,0,.31,0,.29.26a2.18,2.18,0,0,0,0,.25V92.85Z"/><path class="cls-8" d="M39.31,69.62c0,.28,0,.57,0,.85s0,.39-.41.38h-.79l0-1.23Z"/><path class="cls-1" d="M28.33,114.83H25.88v-1.22h2.44v1.23Z"/><path class="cls-8" d="M30.77,109.94a4.31,4.31,0,0,1-.06,1.19,8.69,8.69,0,0,1-1.14,0l0-1.23Z"/><path class="cls-2" d="M27.11,113.61H25.89v-1.22a4,4,0,0,1,1.19.07Z"/><path class="cls-8" d="M29.54,112.38l0,1.22,0,0-1.21,0h0a3.66,3.66,0,0,1,.06-1.19Z"/><path class="cls-8" d="M36.87,97.72c0,.28,0,.57,0,.85s0,.39-.41.38h-.79l0-1.23Z"/><path class="cls-8" d="M40.53,64.73c0,.29,0,.57,0,.86s0,.39-.42.38c-.26,0-.52,0-.79,0l0-1.23Z"/><path class="cls-6" d="M85.75,19.54a4.76,4.76,0,0,0-.07-1.19l-1.15,0c0-.71,0-1.42,0-2.13,0-.24-.07-.33-.31-.31h-.91c0-.71,0-1.42,0-2.14,0-.23-.07-.32-.31-.31s-.61,0-.92,0A4,4,0,0,0,82,12.24l-1.15,0c0-.71,0-1.42,0-2.13,0-.24-.06-.33-.31-.31s-.6,0-.91,0c0-.71,0-1.42,0-2.13,0-.24-.06-.33-.31-.31h-.91V3.67h1.22c0,.49,0,1,0,1.47,0,.3-.09.68,0,.89s.57.05.86.09h.06c.18,0,.26.06.25.24,0,.41,0,.81,0,1.22s-.15.72.09.93.54,0,.82.05h.06c.18,0,.26.06.25.24,0,.41,0,.82,0,1.22s-.16.72.08.93.54,0,.82.05h.06c.18,0,.26.06.26.25s-.1.69,0,.88.61.07.93.09c.17,0,.25.06.25.25,0,.4,0,.81,0,1.22s-.15.72.08.92.54.05.83.06h.06c.17,0,.25.05.25.24,0,.41,0,.81,0,1.22s-.15.72.08.93.55,0,.83.05h.06c.18,0,.25.06.25.24s-.1.69,0,.89.6.07.92.09.25.06.25.25c0,.4,0,.81,0,1.22s-.15.71.09.92.54.05.82.06h.06c.18,0,.25.05.25.24V23c0,.18,0,.26-.24.25s-.65,0-1,0A4.76,4.76,0,0,0,88.12,22L87,22c0-.72,0-1.43,0-2.14,0-.24-.06-.32-.31-.31S86.05,19.54,85.75,19.54Z"/><path class="cls-4" d="M88.19,23.21c.33,0,.66,0,1,0s.24-.07.24-.25V21c0-.19-.07-.26-.25-.24H89.1c-.28,0-.66.09-.82-.06s-.07-.61-.09-.92,0-.82,0-1.22c0-.19-.07-.24-.25-.25s-.73.16-.92-.09,0-.58,0-.89-.07-.26-.25-.24h-.06c-.28,0-.66.09-.83-.05s-.06-.61-.08-.93,0-.81,0-1.22c0-.19-.08-.26-.25-.24h-.06c-.29,0-.66.09-.83-.06s-.07-.61-.08-.92,0-.82,0-1.22c0-.19-.08-.24-.25-.25-.32,0-.74.16-.93-.09s0-.58,0-.88-.08-.26-.26-.25H83c-.28,0-.66.09-.82-.05s-.07-.61-.08-.93,0-.81,0-1.22c0-.18-.07-.26-.25-.24h-.06c-.28,0-.66.09-.82-.05s-.07-.61-.09-.93,0-.81,0-1.22c0-.18-.07-.26-.25-.24h-.06c-.29,0-.7.15-.86-.09s0-.59,0-.89c0-.49,0-1,0-1.47h1.22v.24c0,.3-.09.68,0,.89s.57.08.86.08.32.07.32.31-.15.69.08.86.54.07.83,0,.31.07.31.31c0,.61,0,1.22,0,1.83,0,.24.06.35.31.31h.06c.27,0,.63-.13.8.09s0,.5,0,.76q0,.67,0,1.35c0,.18.06.26.25.24h.12c.27,0,.65-.14.8.08s0,.55,0,.83,0,.85,0,1.28c0,.18.06.24.25.25s.73-.15.92.09.06.58,0,.88.06.27.25.25h.12c.28,0,.65-.13.8.08s.05.55.06.83v1.28c0,.18,0,.25.24.26s.73-.16.92.08.06.58.06.88,0,.27.24.25h.12c.28,0,.65-.13.8.09s.06.54.06.82,0,.86,0,1.29c0,.17.05.27.24.25h.18c.26,0,.58-.11.76.08s0,.46,0,.7c0,.47,0,.94,0,1.41,0,.17,0,.24-.24.26s-.74-.16-.93.08-.06.58,0,.88-.12.26-.31.25H88.2Z"/><path class="cls-4" d="M88.18,25.65c0,.34,0,.68,0,1,0,.16-.06.22-.21.22H87V25.66Z"/><path class="cls-3" d="M62.55,33l0-1.21c0-.31,0-.61,0-.91s0-.34-.3-.32-.61,0-.92,0V29.32l1.15,0a4,4,0,0,0,.06-1.2h1.23v2.81c0,.89,0,.88.91.86.24,0,.32-.07.31-.31,0-.72,0-1.43,0-2.14l0-1.15a4,4,0,0,0-1.19-.07V26.89l1.21,0H66.2v2.81c0,.9,0,.89.92.87.23,0,.31-.07.31-.32,0-.71,0-1.42,0-2.13,0-.39,0-.77,0-1.15a4,4,0,0,0-1.19-.07V25.66h2.44v1.22c0,.53,0,1.06,0,1.59,0,.9,0,.89.92.86.23,0,.31-.06.31-.31s-.15-.69.08-.86.59,0,.89,0h.24v2.43l-1.21,0H69c-.23,0-.34,0-.32.3s0,.61,0,.91l-1.21,0h-.92c-.22,0-.33,0-.32.3s0,.61,0,.91L65,33Z"/><path class="cls-4" d="M62.53,28.09a4,4,0,0,1-.06,1.2l-1.15,0V28.1Z"/><path class="cls-4" d="M61.32,30.54c.31,0,.61,0,.92,0s.31.09.3.32,0,.6,0,.91H61.31Z"/><path class="cls-6" d="M73.53,25.65h1.22v2.43H73.53Z"/><path class="cls-4" d="M71.08,30.53V28.1h1.23v2.44H71.08Z"/><path class="cls-6" d="M72.31,29.32V28.1h1.22a4,4,0,0,1-.07,1.19Z"/><path class="cls-6" d="M72.3,30.54h1.23v1.21H72.31V30.54Z"/><path class="cls-4" d="M73.53,31.76V30.55h1.22v1.22H73.53Z"/><path class="cls-8" d="M35.65,101.38c0,.29,0,.57,0,.85s0,.39-.41.39-.53,0-.79,0l0-1.23Z"/><path class="cls-8" d="M41.76,61.07c0,.28,0,.57,0,.85s0,.39-.41.38h-.8l0-1.23Z"/><path class="cls-4" d="M62.55,33H65v1.22H62.54Z"/><path class="cls-9" d="M66.18,35.43l0,2.44H65V36.63l0-1.2Z"/><path class="cls-10" d="M66.18,35.43H65V34.21H66.2l0,1.21Z"/><path class="cls-10" d="M65,36.63v1.24h-1.2l0-1.23Z"/><path class="cls-6" d="M80.86,3.67H79.64V2.45h1.22V3.67Z"/><path class="cls-4" d="M80.86,3.67V2.45h1.22v1c0,.15-.06.22-.21.22Z"/><path class="cls-8" d="M63.75,41.53c0,.32,0,.64,0,1s-.08.27-.28.27H61.31V41.53h2.44Z"/><path class="cls-10" d="M62.53,39.09h1.22v1.23h-1.2Z"/><path class="cls-9" d="M62.55,40.32h1.21v1.21H62.53Z"/><path class="cls-8" d="M34.43,103.83c0,.28,0,.56,0,.85s0,.39-.41.38h-.8l0-1.23Z"/><path class="cls-8" d="M33.2,106.27c0,.28,0,.57,0,.85s0,.39-.42.38H32l0-1.23Z"/><path class="cls-8" d="M32,108.71c0,.34,0,.68,0,1,0,.15-.06.22-.21.22h-1v-1.22Z"/><path class="cls-1" d="M25.89,114.83c0,.34,0,.68,0,1,0,.15-.06.22-.21.21h-1v-1.22Z"/><path class="cls-4" d="M68.64,25.65H67.41V24.43c.71,0,1.43,0,2.14,0,.24,0,.32-.07.31-.31s0-.61,0-.92h2.44v1.22h0c-.31,0-.61,0-.92,0s-.31.07-.31.31c0,1.12,0,2.24,0,3.36h-.25c-.3,0-.68-.09-.89,0s-.08.57-.08.86-.08.31-.31.31c-.92,0-.92,0-.92-.86,0-.53,0-1.06,0-1.59h.85c.36,0,.36,0,.36-.36s.08-.6,0-.77-.53-.06-.8-.08A2.29,2.29,0,0,0,68.64,25.65Z"/><path class="cls-4" d="M66.2,26.87H65V25.66H66.2v1.22Z"/><path class="cls-4" d="M63.76,26.89V28.1H62.53V26.88Z"/><path class="cls-4" d="M85.75,26.89c0,.3,0,.61,0,.91s-.09.31-.32.3-.61,0-.91,0V26.88Z"/><path class="cls-8" d="M56.43,46.44c0,.3,0,.61,0,.91s-.1.31-.32.3-.61,0-.91,0V46.42Z"/><path class="cls-8" d="M58.87,45.2v1c0,.16-.07.22-.21.21h-1V45.2Z"/><path class="cls-4" d="M83.31,28.11c0,.3,0,.61,0,.91s-.1.31-.32.3h-.92V28.1Z"/><path class="cls-8" d="M52.77,48.88c0,.31,0,.61,0,.91s-.1.31-.32.3h-.91V48.86Z"/><path class="cls-8" d="M55.2,47.64c0,.34,0,.68,0,1,0,.15-.07.21-.22.21l-1,0V47.64Z"/><path class="cls-4" d="M80.86,29.33c0,.3,0,.61,0,.91s-.09.32-.32.3h-.91V29.32Z"/><path class="cls-8" d="M49.1,51.33c0,.3,0,.6,0,.91s-.1.3-.32.29h-.91V51.3Z"/><path class="cls-8" d="M51.54,50.08v1c0,.15-.07.21-.21.21h-1V50.08Z"/><path class="cls-4" d="M78.42,30.55c0,.31,0,.61,0,.91s-.09.32-.32.31-.61,0-.91,0V30.54Z"/><path class="cls-8" d="M43,58.63c0,.28,0,.56,0,.85s0,.39-.41.38h-.79l0-1.23Z"/><path class="cls-8" d="M44.21,56.19a4.31,4.31,0,0,1-.06,1.19,8.69,8.69,0,0,1-1.14,0l0-1.23Z"/><path class="cls-4" d="M76,31.77c0,.31,0,.61,0,.92s-.1.31-.32.3-.61,0-.92,0V31.76H76Z"/><path class="cls-9" d="M63.75,40.31V39.08l0-1.21H65v1.22l0,1.22H63.75Z"/><path class="cls-4" d="M73.53,28.09H72.31V24.43h1.22v3.66Z"/><path class="cls-8" d="M61.31,42.75v1c0,.15-.06.21-.21.21h-1V42.75Z"/><path class="cls-8" d="M60.09,44v1c0,.15-.06.21-.21.21h-1V44Z"/><path class="cls-8" d="M45.43,55v1c0,.15-.06.22-.21.22h-1V55Z"/><path class="cls-8" d="M46.65,53.75v1q0,.23-.21.21h-1V53.75Z"/><path class="cls-8" d="M47.87,52.52c0,.34,0,.68,0,1,0,.15-.06.21-.21.21h-1V52.53Z"/><path class="cls-1" d="M24.66,116.05c0,.34,0,.68,0,1,0,.15-.07.21-.22.21h-1v-1.21Z"/><path class="cls-2" d="M46.65,130.71H45.43c0-.34,0-.68,0-1,0-.16.07-.21.22-.21h1v1.23Z"/><path class="cls-2" d="M45.43,130.71a4,4,0,0,1-.07,1.2l-1.15,0h0v-1.22h1.22Z"/><path class="cls-2" d="M47.87,131.94a4.34,4.34,0,0,1-1.19-.08l0-1.15h1.23v1.22Z"/><path class="cls-2" d="M44.21,131.94a4,4,0,0,1-.07,1.19l-1.15,0h0v-1.22h1.22Z"/><path class="cls-2" d="M41.76,134.36v-1.21H43v1c0,.15-.07.21-.21.21Z"/><path class="cls-1" d="M40.55,133.16a4.38,4.38,0,0,1,.06-1.2l1.16,0h0v1.22H40.55Z"/><path d="M50.32,133.16h-1c-.15,0-.22-.06-.21-.21v-1h2.44v1.23H50.32Z"/><path d="M52.77,133.14l1.2,0v1.21H51.54v-1.23h0Z"/><path d="M56.43,135.6H54v-1.22h2.16c.19,0,.29,0,.28.27S56.43,135.28,56.43,135.6Z"/><path d="M47.88,131.93v-1.22l1.15,0a4.33,4.33,0,0,1,.07,1.19H47.88Z"/><path class="cls-1" d="M51.54,133.15v1.23a4.31,4.31,0,0,1-1.19-.07l0-1.15Z"/><path class="cls-1" d="M54,134.38v1.22a4.33,4.33,0,0,1-1.19-.07l0-1.15Z"/><path class="cls-4" d="M95.52,97.73H93.08l0-1.15a4.38,4.38,0,0,0-1.2-.06h0a2.08,2.08,0,0,0,0-.25c0-.3.09-.67,0-.88s-.57-.06-.86-.09a.06.06,0,0,0-.06,0c-.18,0-.25-.07-.25-.25s.1-.69,0-.88-.61-.07-.93-.09-.24-.07-.24-.25.09-.69-.06-.89-.6-.06-.92-.08-.25-.07-.24-.25.09-.7-.06-.89-.6-.06-.92-.08-.25-.08-.25-.26.1-.69,0-.88-.61-.06-.92-.09-.25-.07-.25-.25.1-.69,0-.88-.61-.07-.93-.09-.24-.07-.24-.25c0-.43,0-.86,0-1.28s.08-.64,0-.83-.53,0-.8-.08h-.13c-.18,0-.24-.07-.24-.24s.09-.7-.06-.89-.6-.06-.92-.08-.24-.08-.24-.26c0-.42,0-.85,0-1.28s.08-.63-.06-.82-.52-.06-.8-.09H81.1c-.19,0-.25-.07-.24-.25V81.54c0-.28.08-.63-.06-.83s-.52,0-.8-.08h-.12c-.19,0-.25-.08-.25-.25s.1-.7,0-.89-.61-.06-.93-.08-.24-.08-.24-.26c0-.42,0-.85,0-1.28s.08-.63,0-.82-.53-.06-.8-.09h-.13c-.18,0-.24-.07-.24-.25,0-.43,0-.85,0-1.28s.08-.63,0-.83-.53,0-.81-.08h-.12c-.19,0-.24-.07-.24-.25s.09-.7-.06-.88-.6-.07-.92-.09-.24-.08-.24-.25c0-.47,0-.94,0-1.41,0-.24.07-.55,0-.7s-.49-.06-.75-.09h-.18c-.19,0-.25-.07-.24-.25V69.2c0-.24.07-.55,0-.71s-.49,0-.75-.08h-.18c-.19,0-.25-.07-.25-.25s.1-.69,0-.88-.61-.07-.93-.09-.24-.08-.24-.25q0-.7,0-1.41c0-.24.11-.54,0-.7s-.5-.06-.75-.08a.6.6,0,0,0-.19,0c-.19,0-.24-.08-.24-.26,0-.46,0-.93,0-1.4,0-.24.11-.54,0-.71s-.5-.05-.76-.08h-.18c-.19,0-.24-.07-.24-.25,0-.47,0-.94,0-1.4,0-.24.1-.55,0-.71s-.49,0-.75-.08h-.12c-.25,0-.3-.08-.3-.31,0-1.12,0-2.24,0-3.36V55h1.23c0,.41,0,.81,0,1.22l0,1.15a4.33,4.33,0,0,0,1.19.07c0,.4,0,.81,0,1.22a3.66,3.66,0,0,0,.06,1.19l1.16,0,0,1.15a4,4,0,0,0,1.2.07v1c0,.15.06.21.21.2h1v2.19c0,.18,0,.25.24.26s.73-.16.92.08.06.58.06.89,0,.27.24.25a.24.24,0,0,1,.12,0c.28,0,.65-.13.81.08s0,.55,0,.83,0,.85,0,1.28c0,.18,0,.27.24.25h.12c.28,0,.65-.13.81.09s0,.54,0,.82c0,.43,0,.86,0,1.28,0,.18,0,.27.24.25h.12c.28,0,.66-.13.81.09s0,.54,0,.82,0,.86,0,1.29c0,.17.06.24.24.25s.74-.16.93.09.06.58,0,.88.06.27.25.25H80c.27,0,.65-.13.8.08s0,.55.06.83v1.28c0,.18,0,.25.24.26s.73-.16.92.08.06.58.06.88,0,.27.24.25h.12c.28,0,.65-.13.81.09s0,.54,0,.83,0,.85,0,1.28c0,.17.06.24.24.25s.73-.16.93.09,0,.58,0,.88.06.27.25.25h.12c.27,0,.65-.13.8.08s0,.55,0,.83,0,.86,0,1.28c0,.18.06.27.25.25h.12c.27,0,.65-.13.8.09s0,.54.06.82,0,.86,0,1.29c0,.17.06.26.25.24h.12c.28,0,.65-.14.8.08s.05.55.06.83v1.28c0,.18,0,.27.24.25a.24.24,0,0,1,.12,0c.28,0,.65-.13.8.08s.06.55.06.83,0,.85,0,1.28c0,.18.06.24.24.26s.73-.16.92.08.06.58.06.88.06.25.24.26.74-.16.93.08,0,.59,0,.89.06.24.25.25.73-.16.92.08,0,.59,0,.89.07.24.25.25.73-.16.92.09.06.58.05.88.07.27.25.25h.06c.3,0,.7-.15.86.09s.05.58.06.88Z"/><path d="M84.52,63.52H77.2V62.3h7.34Z"/><path class="cls-4" d="M73.53,33c0,1.12,0,2.24,0,3.35,0,.25.08.31.32.32s.69-.16.86.08,0,.58,0,.88v.25h-1c-.14,0-.21.05-.21.21v1H72.31V33Z"/><path d="M106.52,69.63a3.91,3.91,0,0,1,1.18.06c0,.38,0,.76,0,1.15,0,1.49,0,3,0,4.48,0,.48,0,.42-.44.42h-.79V69.63Z"/><path class="cls-4" d="M105.3,42.75c.3,0,.61,0,.91,0s.31.08.31.32c0,.83,0,1.66,0,2.5s0,2,0,3c0,.24-.06.33-.31.32s-.61,0-.91,0h0v-6.1Z"/><path class="cls-4" d="M95.51,67.19c-.3,0-.61,0-.91,0s-.31-.08-.31-.31c0-.85,0-1.71,0-2.56s0-1.95,0-2.93c0-.23.06-.33.31-.31s.61,0,.91,0h0v6.09Z"/><path class="cls-4" d="M113.84,91.62h-1.22v-.84c0-.37,0-.39-.41-.38s-1.08,0-1.63,0-.41,0-.4-.38v-.84h3.67Z"/><path class="cls-4" d="M116.28,81.85h1.23v2.44h-1.23c0-.3,0-.61,0-.91s-.06-.32-.31-.32c-.63,0-1.26,0-1.89,0-.18,0-.25,0-.25-.24s0-.65,0-1h2.44Z"/><path class="cls-4" d="M106.51,91.63h-1c-.18,0-.26-.07-.24-.25v-.06c0-.29.15-.69-.09-.86s-.58,0-.89,0-.81,0-1.21,0c-.18,0-.26-.06-.25-.24s0-.65,0-1h3.68v2.44Z"/><path class="cls-4" d="M117.51,89.17h-1.22c0-.28,0-.56,0-.85s0-.38-.41-.38h-1.63c-.43,0-.41,0-.41-.38s0-.57,0-.85h3.67Z"/><path class="cls-4" d="M112.62,79.4h1.23v2.43h-1.23c0-.31,0-.61,0-.92s-.07-.31-.31-.31c-.63,0-1.26,0-1.89,0-.18,0-.26-.06-.25-.24,0-.33,0-.65,0-1h2.45Z"/><path class="cls-4" d="M102.84,89.18c-.32,0-.65,0-1,0s-.26-.07-.24-.25v-.06c0-.28.08-.66-.06-.82S101,88,100.64,88s-.81,0-1.21,0c-.19,0-.25-.07-.25-.25s0-.65,0-1h3.68v2.43Z"/><path class="cls-4" d="M121.18,86.73H120c0-.31,0-.61,0-.92s-.06-.32-.3-.31h-1.89c-.18,0-.26-.06-.25-.25s0-.65,0-1h3.68Z"/><path class="cls-4" d="M110.18,94.06H109a4.38,4.38,0,0,0-.07-1.2c-.39,0-.77,0-1.15,0a4,4,0,0,1-1.2-.06l0-1.15h3.68Z"/><path d="M101.62,86.73H99.19V84.3h1.21l0,1.14a4.31,4.31,0,0,0,1.19.08Z"/><path d="M120,84.29h-2.44V81.85h1.21l0,1.14c.38.16.79,0,1.18.08Z"/><path d="M102.86,81.85h1.2l0,1.14c.38.16.79,0,1.18.08v1.21h-1.22l-1.21,0Z"/><path d="M113.85,81.84V79.41h1.21l0,1.15a4.31,4.31,0,0,0,1.19.07v1.22Z"/><path d="M107.74,58.64h3.65v1.22h-3.67Z"/><path class="cls-4" d="M84.52,63.52V62.3h3.66v.06a4.22,4.22,0,0,1-.07,1.12c-.35,0-.71,0-1.07,0Z"/><path d="M106.52,79.41h1.21l0,1.15a4.74,4.74,0,0,0,1.19.07v1.22h-2.44Z"/><path d="M89.42,69.64h3.65v1.21H89.41Z"/><path d="M112.62,79.4h-2.44V77h1.2l0,1.14a4.24,4.24,0,0,0,1.18.08Z"/><path d="M76,62.31H73.53V61.08H76a6.07,6.07,0,0,1,1.13,0,4.26,4.26,0,0,1,.06,1.18H76Z"/><path d="M106.52,94.07h1.21l0,1.15a4.74,4.74,0,0,0,1.19.07V96.5h-2.44Z"/><path d="M110.18,94.06V91.63h1.2l0,1.14a4.24,4.24,0,0,0,1.18.08v1.21Z"/><path d="M112.61,59.87v3.65H111.4V59.86h1.21Z"/><path d="M113.84,91.62V89.18h1.21l0,1.14c.39.16.79,0,1.19.08v1.2Z"/><path d="M90.64,29.33h3.65v1.21H90.63Z"/><path d="M111.39,64.74h-3.65V63.52h3.67Z"/><path d="M93.07,75.73H89.42V74.52h3.66Z"/><path d="M117.51,89.17V86.74h1.21l0,1.15a4.66,4.66,0,0,0,1.18.07l0,1.15a3.07,3.07,0,0,1-1.13.06C118.37,89.19,117.94,89.17,117.51,89.17Z"/><path class="cls-4" d="M106.51,63.53h-1c-.18,0-.24-.08-.24-.25V60.11c0-.18.06-.26.24-.25h1v3.66Z"/><path class="cls-4" d="M88.18,74.52h-1c-.19,0-.25-.07-.25-.25,0-1.06,0-2.11,0-3.17,0-.18.06-.25.25-.25s.65,0,1,0h0v3.65Z"/><path d="M121.18,86.73V84.3h1.21l0,1.14a4.31,4.31,0,0,0,1.19.08l0,1.15a3.58,3.58,0,0,1-1.13.06C122,86.75,121.61,86.73,121.18,86.73Z"/><path d="M94.29,70.86v3.65H93.08V70.85h1.21Z"/><path d="M94.29,59.85l-1.21,0H90.63V58.64H94.3Z"/><path d="M113.85,74.52h1.21l0,1.14c.39.16.79,0,1.19.08V77h-2.44Z"/><path d="M124.85,73.29v1.23h-1.22V70.85h1.2Z"/><path class="cls-4" d="M106.51,96.51H109c0,.32,0,.64,0,1,0,.16,0,.26-.23.26-.66,0-1.33,0-2,0-.19,0-.23-.09-.23-.26S106.51,96.83,106.51,96.51Z"/><path class="cls-4" d="M102.85,37.86l1.15,0a3.66,3.66,0,0,1,.07,1.19c0,.41,0,.81,0,1.22h-1.23V37.86Z"/><path class="cls-4" d="M104.08,40.31l1.14,0a3.42,3.42,0,0,1,.07,1.19c0,.41,0,.82,0,1.22h-1.23V40.32Z"/><path d="M110.17,41.54V40.31h1.21l0,1.21,0,1.23h-1.22Z"/><path d="M112.64,44l0,1.23h-1.21l0-1.21V42.75h1.21Z"/><path d="M113.85,46.41v1.24h-1.21l0-1.21V45.2h0a4.31,4.31,0,0,1,1.19.07Z"/><path d="M104.08,50.09l0,1.21h-1.21V48.87h1.22Z"/><path d="M102.84,29.32V28.09a4.74,4.74,0,0,1,1.19.07l0,1.15,0,1.23h-1.22Z"/><path class="cls-4" d="M94.3,30.54V29.33h2c.47,0,.41,0,.41.43s0,.52,0,.78l0,0Z"/><path d="M98,57.41l-1.21,0H95.52V56.2H98Z"/><path d="M118.73,58.63l1.21,0,0,1.2v1.23h-1.22l0-1.21Z"/><path d="M88.2,30.55l1.21,0h1.22v1.22H88.19Z"/><path class="cls-4" d="M90.63,59.86h2.45c0,.32,0,.65,0,1s-.08.24-.25.24H90.64V59.86Z"/><path d="M96.75,59.87h2.43v1.21H96.74Z"/><path d="M105.29,30.54V33h-1.21l0-1.21V30.54h1.22Z"/><path class="cls-4" d="M90.64,61.09l0,1.14a3.4,3.4,0,0,1-1.19.07c-.4,0-.81,0-1.22,0h0V61.08h2.44Z"/><path d="M73.53,33H72.31V31.76h2.44V33Z"/><path class="cls-4" d="M106.52,79.41v2.44h-1.22c0-.72,0-1.45,0-2.17,0-.2,0-.29.27-.28S106.2,79.41,106.52,79.41Z"/><path d="M85.75,31.77l1.21,0h1.23V33H85.75Z"/><path d="M102.84,63.53V66h-1.21V63.52Z"/><path d="M101.62,67.18l-1.21,0H99.18V66h2.44Z"/><path d="M99.18,68.4H96.75V67.19h2.44Z"/><path d="M83.31,33l1.21,0h1.22V34.2H83.3Z"/><path d="M104.08,68.42h2.19c.18,0,.26.06.25.24s0,.65,0,1h-2.45Z"/><path d="M101.63,69.64l1.21,0h1.23v1.22h-2.45Z"/><path class="cls-4" d="M100.4,73.3h-1c-.18,0-.24-.07-.24-.25q0-1,0-2c0-.18.06-.25.24-.25s.65,0,1,0h0v2.43Z"/><path class="cls-4" d="M113.85,74.52V77h-1.22c0-.72,0-1.44,0-2.16,0-.2,0-.3.27-.28S113.53,74.52,113.85,74.52Z"/><path d="M124.84,74.52h1.21V77h-1.22V74.52Z"/><path d="M80.87,34.21l1.21,0,1.22,0h0v1.22H80.86Z"/><path d="M106.51,75.74a4.31,4.31,0,0,1-.06,1.19l-1.15,0h-1.22V75.74h2.44Z"/><path class="cls-4" d="M110.19,77V79.4H109c0-.73,0-1.45,0-2.17,0-.2.06-.29.27-.28Z"/><path class="cls-4" d="M100.41,34.2h1c.19,0,.25.07.25.25,0,.73,0,1.46,0,2.19H100.4V34.21Z"/><path class="cls-4" d="M113.84,77h2.44c0,.33,0,.65,0,1,0,.16,0,.27-.23.27h-2c-.19,0-.23-.1-.23-.26C113.85,77.6,113.84,77.28,113.84,77Z"/><path d="M78.42,35.43h2.44v1.22H78.41Z"/><path class="cls-4" d="M102.86,81.85v2.43h-1.23c0-.72,0-1.44,0-2.16,0-.2.06-.3.27-.29S102.53,81.85,102.86,81.85Z"/><path class="cls-4" d="M99.19,84.3v2.43h-.67c-.62,0-.56.08-.56-.53s0-1.08,0-1.63c0-.19,0-.29.26-.28Z"/><path class="cls-4" d="M113.84,91.62h2.44c0,.33,0,.65,0,1,0,.16,0,.27-.23.26h-2c-.19,0-.23-.09-.23-.25C113.85,92.26,113.84,91.94,113.84,91.62Z"/><path class="cls-4" d="M106.52,94.07v2.44h-.66c-.62,0-.56.08-.56-.53s0-1.09,0-1.63c0-.2,0-.3.26-.29S106.2,94.07,106.52,94.07Z"/><path class="cls-4" d="M110.18,94.06h2.43c0,.32,0,.64,0,1,0,.16,0,.27-.22.27-.67,0-1.33,0-2,0-.2,0-.24-.1-.23-.26Z"/><path d="M74.75,37.87h2.44v1.22H74.75V37.88Z"/><path class="cls-4" d="M90.63,30.54H89.41c0-.3,0-.61,0-.91s.09-.32.31-.3h.92Z"/><path class="cls-4" d="M88.19,31.76H87c0-.3,0-.61,0-.91s.09-.32.32-.3h.92Z"/><path class="cls-4" d="M96.75,30.53c.39.06.8-.08,1.18.08l0,1.15H96.74V30.55Z"/><path class="cls-4" d="M104.07,30.54v1.23c-.31,0-.61,0-.91,0s-.32-.1-.31-.32,0-.61,0-.92Z"/><path class="cls-4" d="M85.75,33H84.52c0-.3,0-.61,0-.91s.09-.31.32-.3h.91Z"/><path class="cls-4" d="M98,31.76a4.33,4.33,0,0,1,1.19.07l0,1.15H98V31.77Z"/><path class="cls-4" d="M83.3,34.21l-1.22,0c0-.3,0-.61,0-.91s.09-.31.32-.3.6,0,.91,0Z"/><path class="cls-4" d="M99.19,33a4.33,4.33,0,0,1,1.19.07l0,1.15H99.18V33Z"/><path class="cls-4" d="M104.08,33h1.21V34.2h-1c-.21,0-.27-.08-.26-.28S104.07,33.29,104.08,33Z"/><path class="cls-4" d="M80.86,35.43H79.63c0-.31,0-.61,0-.92s.1-.31.32-.3.61,0,.92,0Z"/><path class="cls-4" d="M78.42,35.43v1.22H77.19c0-.31,0-.63,0-1s.08-.27.28-.27S78.11,35.43,78.42,35.43Z"/><path class="cls-4" d="M77.19,37.87H76A4.33,4.33,0,0,1,76,36.67l1.15,0h0v1.22Z"/><path class="cls-4" d="M101.63,36.64a4.31,4.31,0,0,1,1.19.08l0,1.14v0h-1.21V36.65Z"/><path class="cls-4" d="M111.4,42.75V44c-.31,0-.61,0-.92,0s-.31-.09-.3-.32,0-.61,0-.91Z"/><path class="cls-4" d="M89.41,74.52v1.21h-1c-.19,0-.28,0-.27-.26s0-.64,0-1h1.23Z"/><path class="cls-4" d="M93.07,74.52h1.22c0,.34,0,.68,0,1,0,.15-.06.21-.21.21h-1Z"/><path class="cls-4" d="M102.84,75.75c-.39-.06-.8.08-1.19-.08l0-1.15h1.23v1.23Z"/><path class="cls-4" d="M99.19,61.08V59.87h.95c.2,0,.29,0,.28.26s0,.64,0,1v0H99.19Z"/><path class="cls-6" d="M116.28,75.75c-.4-.06-.8.08-1.19-.08l0-1.14h1c.16,0,.22.06.22.21C116.28,75.07,116.28,75.41,116.28,75.75Z"/><path class="cls-4" d="M124.84,74.52v1.22c-.31,0-.61,0-.92,0s-.31-.09-.3-.31,0-.61,0-.92Z"/><path class="cls-4" d="M104.07,75.74V77h-1c-.19,0-.28,0-.28-.26s0-.64,0-1v0Z"/><path class="cls-4" d="M96.75,59.87v1.21H95.51V59.86h1.23Z"/><path class="cls-4" d="M96.74,67.19V68.4h-1c-.19,0-.28,0-.28-.26s0-.64,0-1h1.23Z"/><path class="cls-6" d="M112.61,78.19a4.24,4.24,0,0,1-1.18-.08l0-1.14h1.23Z"/><path class="cls-4" d="M111.39,64.74V63.52h1.21c0,.34,0,.68,0,1,0,.16-.06.22-.21.22Z"/><path class="cls-4" d="M99.18,68.4V67.19h1.23c0,.3,0,.61,0,.91s-.09.32-.32.3Z"/><path class="cls-6" d="M109,80.63a4.74,4.74,0,0,1-1.19-.07l0-1.15H109Z"/><path class="cls-4" d="M112.61,59.87H111.4V58.64h1c.15,0,.21.06.21.21C112.62,59.19,112.62,59.53,112.61,59.87Z"/><path class="cls-4" d="M107.74,58.64v1.22h-1.22c0-.31,0-.63,0-1s.08-.27.28-.27S107.42,58.64,107.74,58.64Z"/><path class="cls-6" d="M116.28,80.63a4.31,4.31,0,0,1-1.19-.07l0-1.15h1c.16,0,.22.06.22.22C116.28,80,116.28,80.29,116.28,80.63Z"/><path class="cls-4" d="M94.29,59.85V58.64h1.22v1.22H94.29Z"/><path class="cls-6" d="M105.28,83.08c-.39-.06-.8.08-1.18-.08l0-1.14h1.23Z"/><path class="cls-4" d="M95.52,57.42h1.22c0,.39.09.8-.07,1.18l-1.15,0h0V57.42Z"/><path class="cls-6" d="M119.94,83.08c-.39-.06-.8.08-1.18-.08l0-1.14h1c.15,0,.21.06.21.21C119.94,82.4,119.94,82.74,119.94,83.08Z"/><path class="cls-4" d="M104.07,69.63h-1.23c0-.3,0-.61,0-.91s.1-.32.32-.3h.92Z"/><path class="cls-4" d="M98,57.41V56.19h1.23c0,.32,0,.64,0,.95s-.09.28-.28.27Z"/><path class="cls-6" d="M101.62,85.52a4.31,4.31,0,0,1-1.19-.08l0-1.14h1.22Z"/><path class="cls-4" d="M100.41,55a4.34,4.34,0,0,1-.08,1.19l-1.14,0h0V55h1.23Z"/><path class="cls-6" d="M123.61,85.52a4.31,4.31,0,0,1-1.19-.08l0-1.14h1c.16,0,.22.06.22.21C123.61,84.84,123.61,85.18,123.61,85.52Z"/><path class="cls-4" d="M101.63,53.76a4.33,4.33,0,0,1-.07,1.19l-1.15,0h0V53.75h1.23Z"/><path class="cls-6" d="M119.94,88a4.66,4.66,0,0,1-1.18-.07l0-1.15H120Z"/><path class="cls-4" d="M102.85,52.53a4.29,4.29,0,0,1-.07,1.19l-1.15,0h0V52.53h1.22Z"/><path class="cls-6" d="M116.28,90.41c-.4-.06-.8.08-1.19-.08l0-1.14h1.22Z"/><path class="cls-4" d="M102.85,51.31h1.21c0,.32,0,.64,0,1s0,.29-.26.28h-1V51.31Z"/><path class="cls-6" d="M112.61,92.85a4.24,4.24,0,0,1-1.18-.08l0-1.14h1.23Z"/><path class="cls-4" d="M89.42,69.64v1.21H88.18c0-.32,0-.64,0-1s.08-.27.27-.26Z"/><path class="cls-6" d="M109,95.29a4.74,4.74,0,0,1-1.19-.07l0-1.15H109Z"/><path class="cls-4" d="M94.29,70.86H93.07V69.64h1c.15,0,.21.06.21.21C94.29,70.18,94.29,70.52,94.29,70.86Z"/><path class="cls-4" d="M101.63,69.64v1.21H100.4c0-.32,0-.64,0-1s.08-.27.28-.26Z"/><path class="cls-4" d="M107.73,63.52v1.22h-.95c-.2,0-.29,0-.28-.27s0-.63,0-1h1.22Z"/><path class="cls-4" d="M76,62.31h1.22v1.22A4.31,4.31,0,0,1,76,63.46Z"/><path class="cls-4" d="M118.74,61.07H120V62.3h0c-.32,0-.64,0-1,0s-.27-.09-.26-.28S118.73,61.39,118.74,61.07Z"/><path class="cls-4" d="M104.08,50.09V48.86h1.23a4.34,4.34,0,0,1-.08,1.19Z"/><path class="cls-4" d="M100.41,61.07c.39.06.8-.08,1.19.08l0,1.15H100.4V61.07Z"/><path class="cls-4" d="M101.62,67.18V66h1.21c0,.34,0,.68,0,1,0,.15-.06.21-.21.21Z"/><path class="cls-4" d="M112.63,47.64h1.21v1.22h-1c-.21,0-.27-.08-.26-.28S112.63,48,112.63,47.64Z"/><path class="cls-4" d="M102.84,63.53h-1.21V62.31h0c.32,0,.64,0,1,0s.28.08.27.28S102.84,63.21,102.84,63.53Z"/><path class="cls-4" d="M101.62,74.52a4.33,4.33,0,0,1-1.19-.07l0-1.15h1.22v1.21Z"/><path class="cls-4" d="M112.62,45.2v1.23c-.3,0-.61,0-.91,0s-.32-.1-.3-.32,0-.61,0-.92Z"/><path d="M39.33,123.36l1.2,0,0,1.21H38.11v-1.23Z"/><path class="cls-1" d="M43,130.71v-2.44h1.22v2.45H43Z"/><path class="cls-1" d="M29.55,116.06a4.31,4.31,0,0,1-1.19-.08l0-1.15h1.22v1.23Z"/><path class="cls-1" d="M30.77,117.28a4.31,4.31,0,0,1-1.19-.08l0-1.14h1.23v1.22Z"/><path class="cls-1" d="M32,118.5a4.76,4.76,0,0,1-1.19-.07l0-1.15H32v1.22Z"/><path class="cls-1" d="M33.21,119.72a4.33,4.33,0,0,1-1.19-.07l0-1.15h1.23v1.23Z"/><path class="cls-1" d="M34.44,120.94a4,4,0,0,1-1.2-.07l0-1.15h1.23v1.23Z"/><path class="cls-1" d="M35.66,122.16a4,4,0,0,1-1.2-.07l0-1.15h1.22v1.23Z"/><path class="cls-1" d="M36.88,123.39a4.31,4.31,0,0,1-1.19-.08l0-1.15h1.22v1.23Z"/><path class="cls-1" d="M38.11,123.37v1.23h-1c-.14,0-.21-.06-.21-.21v-1h1.23Z"/><path class="cls-1" d="M39.32,124.61h1.23v1.22h0a4.76,4.76,0,0,1-1.19-.07Z"/><path class="cls-1" d="M41.77,127.05a4.38,4.38,0,0,1-1.2-.07l0-1.15h1.23v1.23Z"/><path class="cls-1" d="M43,128.27a4,4,0,0,1-1.2-.07l0-1.15H43v1.23Z"/><path class="cls-1" d="M41.77,131.93a4,4,0,0,1,.07-1.19l1.15,0h0v1.21H41.77Z"/><path d="M63.75,59.86v3.67h-1c-.15,0-.21-.06-.21-.21,0-.34,0-.68,0-1l0-2.42h1.2Z"/><path d="M63.75,63.53h.85c.37,0,.38,0,.38.41,0,1.09,0,2.17,0,3.26H63.76V63.52Z"/><path d="M91.85,97.73c-.72,0-1.44,0-2.16,0-.19,0-.29,0-.28-.26s0-.64,0-1h2.44v1.22Z"/><path d="M93.08,97.72h1.21V99H92.13c-.19,0-.29,0-.28-.26s0-.64,0-1h1.23Z"/><path d="M65,59.86H63.76V58.63l0-1.21H65v2.45Z"/><path d="M66.2,62.3c-.32,0-.64,0-1,0S65,62.22,65,62V59.86h1c.22,0,.26.08.26.28,0,.72,0,1.44,0,2.16Z"/><path d="M68.64,66c-.32,0-.64,0-1,0s-.26-.09-.26-.28c0-.73,0-1.45,0-2.17h0c.32,0,.64,0,1,0s.27.09.27.29c0,.72,0,1.44,0,2.16Z"/><path d="M69.87,68.41h-1c-.22,0-.26-.08-.26-.28,0-.72,0-1.44,0-2.16h0c.32,0,.64,0,1,0s.27.09.27.29c0,.72,0,1.44,0,2.16Z"/><path d="M72.31,72.07c-.32,0-.64,0-1,0s-.27-.09-.27-.29c0-.72,0-1.44,0-2.16h0c.33,0,.65,0,1,0s.26.09.26.28c0,.72,0,1.45,0,2.17Z"/><path d="M73.53,74.52h-1c-.22,0-.27-.09-.27-.28,0-.72,0-1.45,0-2.17h0c.32,0,.64,0,1,0s.26.09.26.29c0,.72,0,1.44,0,2.16Z"/><path d="M76,78.18c-.32,0-.64,0-1,0s-.26-.09-.26-.29c0-.72,0-1.44,0-2.16h0c.32,0,.64,0,1,0s.27.09.27.28c0,.72,0,1.44,0,2.16Z"/><path d="M77.2,80.63c-.32,0-.65,0-1,0s-.26-.09-.26-.28c0-.73,0-1.45,0-2.17h1c.22,0,.27.09.27.28,0,.73,0,1.45,0,2.17Z"/><path d="M79.64,84.29c-.32,0-.64,0-1,0s-.27-.08-.27-.28c0-.72,0-1.44,0-2.16h0c.32,0,.65,0,1,0s.26.09.26.29c0,.72,0,1.44,0,2.16Z"/><path d="M80.86,86.73c-.32,0-.64,0-1,0s-.27-.09-.27-.29c0-.72,0-1.44,0-2.16h1c.22,0,.26.09.26.28,0,.72,0,1.44,0,2.17Z"/><path d="M83.3,90.4c-.32,0-.64,0-1,0s-.26-.09-.26-.28c0-.72,0-1.44,0-2.17h0c.32,0,.64,0,1,0s.27.09.27.29c0,.72,0,1.44,0,2.16Z"/><path d="M74.75,75.74h-1c-.15,0-.21-.06-.21-.21v-1h1c.15,0,.21.06.21.21v1Z"/><path d="M65,67.19h1c.15,0,.21.06.21.21v1H65V67.19Z"/><path d="M78.42,81.85h-1c-.15,0-.21-.06-.21-.21,0-.34,0-.68,0-1h1c.15,0,.21.06.21.21,0,.33,0,.67,0,1Z"/><path d="M71.09,69.63h-1c-.15,0-.21-.06-.21-.21,0-.34,0-.67,0-1h1c.15,0,.21.06.21.21,0,.34,0,.68,0,1Z"/><path d="M82.08,88h-1c-.15,0-.21-.06-.21-.21v-1h1c.15,0,.21.06.21.21v1Z"/><path d="M84.53,91.62h-1c-.15,0-.21-.06-.21-.21,0-.34,0-.67,0-1h1c.15,0,.22.06.21.21v1Z"/><path d="M85.75,92.84h-1c-.15,0-.21-.06-.21-.21,0-.34,0-.67,0-1h1c.15,0,.21.06.21.21,0,.34,0,.68,0,1Z"/><path d="M87,94.06H86c-.16,0-.22-.07-.22-.22,0-.33,0-.67,0-1h1c.15,0,.21.06.21.21,0,.34,0,.68,0,1Z"/><path d="M88.19,95.28h-1c-.15,0-.22-.06-.21-.21v-1h1c.15,0,.21.06.21.21,0,.34,0,.68,0,1Z"/><path d="M89.41,96.51c-.34,0-.67,0-1,0-.15,0-.21-.06-.21-.21v-1h1c.15,0,.21.07.21.22v1Z"/><path d="M67.42,63.52h-1c-.15,0-.21-.06-.21-.21v-1h0c.34,0,.67,0,1,0,.15,0,.21.06.21.21v1Z"/><path class="cls-8" d="M120,61.08V59.85h3.65l0,1.21-2.44,0-1.21,0Z"/><path d="M120,61.07l1.21,0V62.3H120Z"/><path class="cls-5" d="M105.29,33V31.75c.32,0,.65,0,1,0s.25.06.25.24,0,.65,0,1l0,0h-1.21Z"/><path class="cls-5" d="M49.1,131.93a4.33,4.33,0,0,0-.07-1.19l-1.15,0h0V129.5H50c.32,0,.32,0,.33-.34v-.67c0-.15.06-.2.21-.21,1-.1,1-.1,1,.93v2.73Z"/><path d="M44.21,130.71v-2.45h1.23l1.2,0,0,1.21h-1c-.15,0-.22,0-.22.21,0,.33,0,.67,0,1Z"/><path class="cls-5" d="M63.76,119.13c0,.13,0,.25,0,.37s-.06.23-.22.22a.48.48,0,0,0-.12,0c-.28,0-.66.12-.81-.07s0-.66-.07-1a.13.13,0,0,1,.14-.15h.43C63.76,118.5,63.76,118.5,63.76,119.13Z"/><path d="M47.87,129.5v1.21H46.66v-1.23Z"/><path class="cls-5" d="M52.77,133.14l-1.23,0v-1.23a4.31,4.31,0,0,1,1.19.07Z"/><path class="cls-8" d="M112.61,42.77H111.4l0-1.23h.79c.42,0,.42,0,.41.39S112.61,42.48,112.61,42.77Z"/><path d="M105.29,33h1.21v1.22H105.3Z"/><path class="cls-8" d="M105.29,30.54h-1.22l0-1.23c.3,0,.61,0,.91,0s.3.1.29.32S105.29,30.24,105.29,30.54Z"/><path class="cls-5" d="M63.76,63.52v3.67h-.25c-.3,0-.68.09-.89-.06s-.08-.56-.08-.86-.07-.31-.31-.31-.69.15-.86-.08-.07-.55,0-.83-.08-.31-.31-.31c-1.12,0-2.24,0-3.36,0h0c0-.31,0-.61,0-.92s.07-.32.31-.31h2.44c.3,0,.68.14.86-.08s.07-.54.06-.82,0-.34.3-.32.61,0,.91,0c0,.34,0,.68,0,1,0,.15.06.22.21.21Z"/><path class="cls-5" d="M68.65,97.73c0-3.09,0-6.17,0-9.26,0-.1,0-.2,0-.3s.07-.2.22-.22c1-.09,1-.09,1,.89v8.71c0,.13-.06.18-.18.18h-1Z"/><path class="cls-5" d="M66.2,70.86a4,4,0,0,1,1.19.06c0,.38,0,.76,0,1.14V75.4c0,.33,0,.34-.33.34s-.63.12-.82-.06-.07-.54-.07-.82v-4Z"/><path class="cls-5" d="M67.42,101.4c0-1.09,0-2.18,0-3.26,0-.43,0-.42.38-.41h.84v3.67H67.42Z"/><path class="cls-5" d="M68.64,78.8c0,.51,0,1,0,1.53,0,.25-.09.3-.32.3-.91,0-.91,0-.91-.86s0-1.67,0-2.51c0-.25.08-.3.31-.3.91,0,.91,0,.91.86Z"/><path class="cls-5" d="M65,68.41H66.2v2.45h0c-.32,0-.64,0-1,0s-.27-.09-.26-.29Z"/><path class="cls-5" d="M65,67.19v1.22a4,4,0,0,1-1.2-.07l0-1.15Z"/><path class="cls-7" d="M78.42,97.73c0-.32,0-.64,0-1s.09-.26.29-.27c.94,0,.94,0,.94.87,0,.12,0,.24,0,.36H78.42Z"/><path class="cls-7" d="M79.63,97.73h1c.15,0,.21.06.21.21,0,.34,0,.67,0,1H79.64V97.73Z"/><path class="cls-7" d="M80.86,99h1c.15,0,.21.06.21.21v1H80.86V99Z"/><path class="cls-7" d="M82.08,100.17c.34,0,.67,0,1,0,.15,0,.22.06.21.21v1H82.08v-1.23Z"/><path class="cls-5" d="M66.2,102.61V101.4h1.21v1.23H66.2Z"/><path class="cls-7" d="M83.3,101.4c.32,0,.64,0,1,0s.26.09.27.28c0,1,0,1-.87,1H83.3v-1.23Z"/><path d="M113.85,48.86V47.64h1c.15,0,.22.06.22.21,0,.34,0,.68,0,1Z"/><path class="cls-8" d="M62.52,62.29c-.3,0-.61,0-.91,0s-.31.09-.3.32.09.64-.06.82-.56.07-.86.08H58c-.24,0-.32.08-.31.31s0,.61,0,.92H50.5c-.12,0-.18,0-.18-.18V64.5c-.08-1-.08-1,.91-1h4.83c.36,0,.35,0,.37-.36s-.13-.64.08-.81.51,0,.77-.05h1.34c.19,0,.24-.06.26-.24s-.16-.73.08-.92.58-.06.89-.06.24-.13.24-.31V57.84c0-.42,0-.41.43-.43.26,0,.59.13.75-.08s0-.47,0-.71c0-.47,0-.94,0-1.4,0-.19.07-.27.25-.25h.06c.3,0,.7.15.86-.09s.05-.58.05-.89,0-.81,0-1.22c0-.18.07-.26.25-.24h.06c.3,0,.7.15.86-.09s0-.59.06-.89V50.08h0c.73,0,1.47,0,2.2,0,.17,0,.24-.05.25-.24s-.15-.72.08-.93.58-.06.88-.05.27-.1.26-.3V46.75c0-.32,0-.32.35-.33s.4,0,.61,0,.27-.08.27-.28c0-.91,0-1.83,0-2.74,0-.14,0-.29,0-.43s.06-.22.21-.21h.73c.21,0,.29-.06.29-.27,0-.45,0-.9,0-1.34,0-1.1,0-2.2,0-3.29h1.21l0,7.32-1.14,0a3.73,3.73,0,0,0-.05,1.2l0,2.43-1.14,0a4,4,0,0,0-.06,1.2l0,1.2H65.16c-.09,0-.17,0-.17.13a2.6,2.6,0,0,0,.05,1c.09.2.48,0,.74.08H66c.18,0,.24.07.24.25V55h-1c-.18,0-.26.05-.25.24s0,.65,0,1a11.06,11.06,0,0,0-1.15,0,3.66,3.66,0,0,0,0,1.19l0,1.21-1.15,0a3.73,3.73,0,0,0-.05,1.2Z"/><path class="cls-8" d="M52.77,119.72c0,.33,0,.66,0,1s-.07.23-.25.24-.73-.16-.92.09-.05.59-.05.89-.07.23-.25.25-.73-.16-.92.08,0,.59,0,.89-.07.23-.25.25c-1,.06-1,.07-1-.92,0-.43,0-.86,0-1.28,0-.18.07-.27.25-.25h.12c.28,0,.65.13.8-.09s.05-.54.06-.82v-1.28c0-.18,0-.26.24-.26s.65,0,1,0h0l0,1.15a4,4,0,0,0,1.19.06Z"/><path class="cls-8" d="M52.76,117.27c0-.33,0-.65,0-1s.07-.24.25-.24c1.06,0,2.11,0,3.17,0,.18,0,.26.06.25.25s.09.67-.06.88-.56.08-.86.09-.31.06-.31.31.15.69-.08.86-.58,0-.89.06H54l0-1.15a4,4,0,0,0-1.19-.06Z"/><path class="cls-8" d="M66.2,102.61h1.22v.79c0,.47,0,.43-.47.44-.23,0-.52-.11-.69.06s0,.46-.06.69v.12c0,.25,0,.38-.32.35s-.6,0-.9,0h0c0-.7,0-1.4,0-2.1,0-.25,0-.37.33-.35S65.9,102.61,66.2,102.61Z"/><path class="cls-8" d="M66.22,35.43l0-1.21h2.44l0,1.2,0,0Z"/><path d="M71.09,37.87H69.88l0-1.21V35.43c.32,0,.64,0,1,0s.27.08.27.28c0,.73,0,1.45,0,2.17Z"/><path class="cls-8" d="M40.55,95.28c-.32,0-.64,0-1,0s-.27-.09-.27-.29c0-.72,0-1.44,0-2.16h1c.22,0,.27.09.27.28,0,.73,0,1.45,0,2.17Z"/><path class="cls-8" d="M69.86,35.43v1.22h-1c-.18,0-.24-.07-.24-.25s0-.64,0-1l0,0,1.2,0Z"/><path class="cls-8" d="M65,39.09V37.87H66.2a4.33,4.33,0,0,1-.06,1.19A7.37,7.37,0,0,1,65,39.09Z"/><path class="cls-8" d="M63.76,40.32H65c0,.34,0,.68,0,1,0,.15-.07.21-.21.21h-1Z"/><path class="cls-8" d="M40.54,95.29c.3,0,.61,0,.91,0s.33.11.32.35c0,1.08.2.84-.88.88-.24,0-.37,0-.35-.32s0-.61,0-.91Z"/><path class="cls-8" d="M79.64,97.73V99h-1c-.16,0-.22-.06-.22-.21,0-.34,0-.68,0-1Z"/><path class="cls-8" d="M80.86,99v1.22h-1c-.15,0-.22-.06-.21-.21,0-.34,0-.67,0-1Z"/><path class="cls-8" d="M82.08,100.17v1.23h-1c-.15,0-.21-.06-.21-.21v-1Z"/><path class="cls-8" d="M67.42,102.62v-1.23h1.22v1c0,.15-.06.21-.21.21C68.1,102.61,67.76,102.62,67.42,102.62Z"/><path class="cls-8" d="M83.3,101.39v1.23c-.33,0-.67,0-1,0-.15,0-.21-.06-.21-.21v-1Z"/><path class="cls-8" d="M63.76,106.28v-1c0-.15.06-.21.21-.21h1c0,.33,0,.67,0,1,0,.15-.06.21-.21.21h-1Z"/><path class="cls-8" d="M62.54,107.5c0-.33,0-.67,0-1,0-.15.06-.21.21-.21h1c0,.34,0,.67,0,1,0,.15-.06.22-.21.21h-1Z"/><path class="cls-8" d="M62.53,107.5c0,.3,0,.6,0,.9s-.11.34-.35.33c-1.08,0-.84.2-.88-.88,0-.25,0-.38.32-.35s.61,0,.91,0Z"/><path class="cls-8" d="M63.76,50.08c-.3,0-.61,0-.91,0s-.33-.11-.32-.35c0-1.08-.2-.84.88-.88.24,0,.37,0,.35.32s0,.61,0,.91Z"/><path class="cls-8" d="M29.56,113.6h1c.18,0,.25.06.25.24s0,.65,0,1l0,0-1.21,0h0l0-1.21Z"/><path class="cls-8" d="M30.79,114.82h1c.18,0,.25.06.25.24,0,.33,0,.65,0,1l0,0-1.2,0h0l0-1.21Z"/><path class="cls-8" d="M32,116c.32,0,.64,0,1,0s.25.06.25.25,0,.64,0,1l0,0-1.2,0h0l0-1.2Z"/><path class="cls-8" d="M33.23,117.26c.32,0,.64,0,1,0s.25.07.25.25,0,.64,0,1l0,0-1.21,0h0l0-1.2Z"/><path class="cls-8" d="M51.53,118.49c.06-.39-.08-.8.08-1.19l1.15,0h0v1.22H51.53Z"/><path class="cls-8" d="M34.45,118.48c.32,0,.64,0,1,0s.24.07.24.25,0,.64,0,1l0,0-1.21,0h0l0-1.21Z"/><path class="cls-8" d="M54,118.5a4.31,4.31,0,0,1-.08,1.19l-1.14,0h0v-1.22H54Z"/><path class="cls-8" d="M35.67,119.7l1,0c.18,0,.25.06.24.24s0,.64,0,1l0,0-1.21,0h0l0-1.21Z"/><path class="cls-8" d="M36.89,120.93h1c.18,0,.25.06.25.24s0,.65,0,1l0,0-1.21,0h0l0-1.21Z"/><path class="cls-8" d="M39.33,123.36H38.11l0-1.21,0,0a5.21,5.21,0,0,1,1.18.08Z"/><path class="cls-8" d="M40.55,124.6l0-1.21a4.38,4.38,0,0,1,1.2,0,11.06,11.06,0,0,1,.05,1.15l0,0-1.21,0Z"/><path class="cls-8" d="M41.78,124.59c.32,0,.64,0,1,0s.24.07.24.25,0,.64,0,1l0,0-1.21,0h0l0-1.2Z"/><path class="cls-8" d="M43,125.81c.32,0,.65,0,1,0s.25.07.24.25,0,.64,0,1l0,0L43,127h0l0-1.21Z"/><path class="cls-8" d="M45.44,128.25H44.22l0-1.21,0,0c.39.07.8-.07,1.18.09Z"/><path d="M29.54,113.62l0,1.21H28.33V113.6Z"/><path d="M68.64,34.21H65V33l1.21,0c.32,0,.65,0,1,0s.26-.06.25-.25,0-.65,0-1l1.21,0h1.22V33h0l-1.16,0a4,4,0,0,0-.07,1.19Z"/><path class="cls-4" d="M66.2,26.88a4,4,0,0,1,1.19.07c0,.38,0,.76,0,1.15,0,.71,0,1.42,0,2.13,0,.25-.08.31-.31.32-.92,0-.92,0-.92-.87V26.87Z"/><path class="cls-4" d="M63.76,28.1a4,4,0,0,1,1.19.07l0,1.15c0,.71,0,1.42,0,2.14,0,.24-.07.3-.31.31-.91,0-.91,0-.91-.86V28.1Z"/><path d="M72.31,30.54v1.22H69.87V30.55l1.21,0Z"/><path class="cls-6" d="M68.64,25.65a2.29,2.29,0,0,1,.37,0c.27,0,.63-.14.8.08s0,.5,0,.77,0,.36-.36.36h-.85Z"/><path class="cls-4" d="M69.87,30.55v1.21H68.64c0-.3,0-.61,0-.91s.09-.32.32-.3Z"/><path class="cls-4" d="M67.43,31.77c0,.32,0,.65,0,1s-.07.25-.25.25-.65,0-1,0c0-.3,0-.61,0-.91s.1-.31.32-.3Z"/><path class="cls-6" d="M72.31,24.43V28.1H71.09c0-1.12,0-2.24,0-3.36,0-.24.07-.33.31-.31S72,24.43,72.31,24.43Z"/><path d="M43,131.93v-1.21h1.22v1.22Z"/><path d="M41.77,131.94H43v1.22H41.77Z"/><path class="cls-6" d="M67.42,63.53v-1c0-.15-.06-.21-.21-.21-.34,0-.67,0-1,0,0-.72,0-1.44,0-2.16,0-.2,0-.29-.26-.28H65V57.41h0c.33,0,.67,0,1,0,.15,0,.21-.06.21-.21v-1h1.22c0,1.12,0,2.24,0,3.36,0,.23,0,.35.3.31h.12c.26,0,.58-.11.75.08s0,.47,0,.71c0,.46,0,.93,0,1.4,0,.18,0,.27.24.25h.18c.26,0,.58-.11.76.08s0,.47,0,.71c0,.47,0,.94,0,1.4,0,.18,0,.27.24.26a.6.6,0,0,1,.19,0c.25,0,.57-.12.75.08s0,.46,0,.7q0,.7,0,1.41c0,.17.06.24.24.25s.74-.15.93.09.06.58,0,.88.06.27.25.25h.18c.26,0,.59-.12.75.08s0,.47,0,.71v1.4c0,.18,0,.27.24.25H74c.26,0,.59-.11.75.09s0,.46,0,.7c0,.47,0,.94,0,1.41,0,.17,0,.24.24.25s.73-.16.92.09.06.58.06.88,0,.27.24.25h.12c.28,0,.65-.13.81.08s0,.55,0,.83,0,.85,0,1.28c0,.18.06.27.24.25h.13c.27,0,.65-.13.8.09s0,.54,0,.82,0,.86,0,1.28c0,.18.06.25.24.26s.74-.16.93.08.06.59,0,.89.06.26.25.25H80c.28,0,.65-.14.8.08s0,.55.06.83v1.28c0,.18,0,.27.24.25h.12c.28,0,.65-.13.8.09s.06.54.06.82,0,.86,0,1.28c0,.18.06.25.24.26s.73-.16.92.08.06.58.06.89.06.26.24.24h.13c.27,0,.65-.14.8.08s0,.55,0,.83,0,.85,0,1.28c0,.18.06.24.24.25s.74-.16.93.09,0,.58,0,.88.06.24.25.25.73-.15.92.09.06.58,0,.88.07.24.25.26.73-.16.92.08.06.58.06.89.06.24.24.25.73-.16.92.08.06.59.06.89.07.24.24.25.74-.16.93.09,0,.58,0,.88.07.26.25.25a.06.06,0,0,1,.06,0c.29,0,.7-.15.86.09s0,.58,0,.88a2.08,2.08,0,0,1,0,.25H89.41v-1c0-.15-.06-.22-.21-.22h-1c0-.34,0-.68,0-1,0-.15-.06-.21-.21-.21H87c0-.34,0-.68,0-1,0-.15-.06-.21-.21-.21h-1c0-.33,0-.67,0-1,0-.15-.06-.21-.21-.21h-1v-1c0-.15-.06-.21-.21-.21h-1c0-.72,0-1.44,0-2.16,0-.2,0-.3-.27-.29s-.64,0-1,0v-1c0-.15-.06-.21-.21-.21h-1c0-.73,0-1.45,0-2.17,0-.19,0-.29-.26-.28h-1c0-.72,0-1.44,0-2.16,0-.2,0-.3-.26-.29s-.65,0-1,0c0-.34,0-.68,0-1,0-.15-.06-.22-.21-.21h-1c0-.72,0-1.44,0-2.17,0-.19,0-.29-.27-.28H76c0-.72,0-1.44,0-2.16,0-.19,0-.29-.27-.28s-.64,0-1,0v-1c0-.15-.06-.21-.21-.21h-1c0-.72,0-1.44,0-2.16,0-.2,0-.3-.26-.29s-.64,0-1,0c0-.72,0-1.45,0-2.17,0-.19,0-.29-.26-.28s-.64,0-1,0c0-.33,0-.67,0-1,0-.15-.06-.21-.21-.21h-1c0-.72,0-1.44,0-2.16,0-.2-.05-.3-.27-.29s-.64,0-1,0c0-.72,0-1.44,0-2.16,0-.2-.05-.3-.27-.29S67.74,63.52,67.42,63.53Z"/><path d="M68.63,51.3l0-1.2h1.21V55H67.42c0-.72,0-1.45,0-2.17,0-.21.07-.28.28-.27h.66c.2,0,.3-.05.29-.27S68.64,51.62,68.63,51.3Z"/><path class="cls-3" d="M68.65,55h1.21v2.45h0a4.33,4.33,0,0,1-1.19-.07l0-1.15C68.64,55.79,68.65,55.39,68.65,55Z"/><path class="cls-3" d="M71.09,59.86l-1.16,0a3.66,3.66,0,0,1-.06-1.19c0-.41,0-.82,0-1.22h1.22v2.44Z"/><path class="cls-3" d="M72.31,61.08a4,4,0,0,1-1.2-.07l0-1.15H72.3v1.22Z"/><path d="M67.42,56.19H66.2V55h1.22Z"/><path class="cls-6" d="M93.08,97.72H91.85V96.51a4.38,4.38,0,0,1,1.2.06Z"/><path class="cls-3" d="M73.52,61.08V62.3h-1c-.15,0-.22,0-.21-.2v-1h1.21Z"/><path class="cls-2" d="M69.86,55V50.09c.31,0,.62,0,.92,0s.31-.07.31-.31c0-1.12,0-2.24,0-3.36h.79c.42,0,.43,0,.43-.43,0-1.38,0-2.77,0-4.15,0-.24.07-.31.31-.31s.7.15.86-.09,0-.58.06-.88v-.25h1.22V42c0,.24.07.55,0,.71s-.49.07-.74.08c-.42,0-.43,0-.43.44v5.92c0,.3-.09.68,0,.89s.57.07.86.08.32.07.32.31c0,.79,0,1.59,0,2.38,0,.3-.09.68,0,.89s.57.08.87.08.31.07.31.32c0,.63,0,1.26,0,1.89,0,.18.06.25.25.25s.69-.1.88,0,.07.6.09.92.07.25.25.25.69-.1.88,0,.07.61.09.92.07.25.25.25.69-.1.89,0,.06.61.08.93.08.24.26.24h1.28c.28,0,.63-.08.82,0s.06.53.09.81v.06c0,.24.07.31.31.31.71,0,1.42,0,2.14,0v1.23H77.19a4.26,4.26,0,0,0-.06-1.18,6.07,6.07,0,0,0-1.13,0H73.53v-1c0-.15-.06-.21-.21-.21h-1c0-.72,0-1.44,0-2.16,0-.2,0-.3-.27-.29s-.64,0-1,0h0c0-.72,0-1.44,0-2.17,0-.19,0-.29-.27-.28h-1Z"/><path d="M73.53,40.31v.25c0,.3.09.67-.06.88s-.56.08-.86.09-.31.07-.31.31c0,1.38,0,2.77,0,4.15,0,.42,0,.43-.43.43h-.79l0-1.23,0-7.32H72.3V40.1c0,.15,0,.22.21.21Z"/><path class="cls-6" d="M72.3,37.87H71.09c0-.72,0-1.44,0-2.17,0-.2-.06-.29-.27-.28s-.64,0-1,0h0V34.2H72.3Z"/><path d="M72.3,34.2H69.87V33h2.44Z"/><path class="cls-6" d="M74.76,37.88v1.21H73.53v-1c0-.16.07-.21.21-.21Z"/><path class="cls-6" d="M73.53,40.31h-1c-.16,0-.22-.06-.21-.21v-1h1.22v1.22Z"/><path class="cls-6" d="M106.51,75.74h-1.22l0-1.15a4,4,0,0,0-1.19-.07h0l0-1.15a4,4,0,0,0-1.19-.07h0V70.86h1.22a4.33,4.33,0,0,0,1.19-.06l0-1.15h1.22Z"/><path d="M105.29,48.86h-1.22v-6.1h1.22Z"/><path d="M96.74,67.19H95.52V61.09h1.22v6.11Z"/><path class="cls-3" d="M112.62,91.62H109V89.18h1.22V90c0,.37,0,.39.4.38s1.09,0,1.63,0,.42,0,.41.38Z"/><path class="cls-3" d="M116.29,89.18h-3.67V86.73h1.22c0,.28,0,.57,0,.85s0,.38.41.38h1.63c.42,0,.41,0,.41.38S116.29,88.9,116.29,89.18Z"/><path d="M112.61,88v1.22h-2.44V86.74h1.2l0,1.15A4.66,4.66,0,0,0,112.61,88Z"/><path class="cls-3" d="M112.62,81.85h1.22c0,.33,0,.65,0,1s.07.24.25.24c.63,0,1.26,0,1.89,0,.25,0,.32.08.31.32s0,.61,0,.91h-3.66V81.85Z"/><path class="cls-3" d="M120,86.74h-3.67V84.29h1.21c0,.32,0,.65,0,1s.07.25.25.25h1.89c.24,0,.32.07.3.31S120,86.43,120,86.74Z"/><path class="cls-3" d="M106.52,89.18h-1.23V86.73h1.22l0,1.15a3.72,3.72,0,0,0,1.2.06c.38,0,.76,0,1.15,0a4.38,4.38,0,0,1,.07,1.2h-2.44Z"/><path d="M106.52,89.18h1.21l0,1.14c.39.16.79,0,1.19.08v1.21h-2.43Z"/><path d="M105.28,88v1.22h-2.44V86.74h1.2l0,1.15A4.66,4.66,0,0,0,105.28,88Z"/><path d="M116.28,85.52v1.21h-2.44V84.3h1.21l0,1.14A4.31,4.31,0,0,0,116.28,85.52Z"/><path class="cls-3" d="M109,80.63V79.4h1.22c0,.33,0,.65,0,1,0,.18.07.24.25.24.63,0,1.26,0,1.89,0,.24,0,.32.08.31.31s0,.61,0,.92H109Z"/><path class="cls-3" d="M104.06,86.74h-2.44V84.29h1.24l1.21,0c0,.31,0,.61,0,.91s.09.3.32.31.7-.16.86.08,0,.59.05.89v.25h-1.23Z"/><path class="cls-3" d="M105.28,83.08V81.85h1.22c0,.28,0,.56,0,.84s0,.39.41.38h1.51c.58,0,.52-.06.53.5v.72h-3.67Z"/><path class="cls-4" d="M105.29,84.29h1.23v2.43h-1.23v-.25c0-.3.09-.67-.05-.89s-.56-.07-.86-.08-.33,0-.32-.31,0-.6,0-.91Z"/><path class="cls-6" d="M110.18,63.52H109l0-1.15a4,4,0,0,0-1.19-.07V61.08l1.15,0a4.74,4.74,0,0,0,.07-1.19h1.22l0,1.15a4,4,0,0,0,1.2.07V62.3l-1.15,0A4,4,0,0,0,110.18,63.52Z"/><path class="cls-2" d="M111.4,61.08a4,4,0,0,1-1.2-.07l0-1.15h1.22Z"/><path class="cls-2" d="M109,59.86a4.74,4.74,0,0,1-.07,1.19l-1.15,0V59.86H109Z"/><path d="M84.52,62.31V61.08h3.66V62.3Z"/><path class="cls-4" d="M109,84.29v-.72c0-.56.05-.5-.53-.5h-1.51c-.43,0-.41,0-.41-.38s0-.56,0-.84h3.68v2.44H109Z"/><path class="cls-6" d="M93.07,72.08V73.3l-1.15,0a4.76,4.76,0,0,0-.07,1.19H90.63l0-1.14a3.94,3.94,0,0,0-1.19-.07V72.08l1.15,0a4,4,0,0,0,.07-1.19h1.22l0,1.15A4.76,4.76,0,0,0,93.07,72.08Z"/><path class="cls-2" d="M90.63,70.86a4,4,0,0,1-.07,1.19l-1.15,0V70.85h1.22Z"/><path class="cls-2" d="M93.07,72.08A4.76,4.76,0,0,1,91.88,72l0-1.15h1.23Z"/><path class="cls-2" d="M110.18,63.52a4,4,0,0,1,.07-1.19l1.15,0v1.22Z"/><path class="cls-6" d="M87,61.08H84.53c-.72,0-1.43,0-2.14,0-.24,0-.35-.07-.31-.31v-.06c0-.28.13-.65-.09-.81s-.54,0-.82,0H79.89c-.18,0-.25-.06-.26-.24s.16-.74-.08-.93-.59,0-.89,0-.24-.06-.25-.25.16-.73-.09-.92-.58,0-.88,0-.24-.07-.25-.25.16-.73-.09-.92-.58-.06-.88,0S76,56.13,76,56c0-.63,0-1.26,0-1.89,0-.25-.08-.31-.31-.32s-.7.16-.87-.08,0-.59,0-.89c0-.79,0-1.59,0-2.38,0-.24-.08-.31-.32-.31s-.69.15-.86-.08,0-.59,0-.89V43.19c0-.43,0-.42.43-.44.25,0,.59.13.74-.08s0-.47,0-.71V40.31l1.15,0a4,4,0,0,0,.07-1.2h1.22a4,4,0,0,0,1.2-.07l0-1.15,1.15,0a4.31,4.31,0,0,0,.07-1.19h1.22a4.33,4.33,0,0,0,1.19-.07l0-1.15H83.3a4,4,0,0,0,1.19-.06l0-1.15h1.21a4,4,0,0,0,1.2-.06L87,33h1.22a4.33,4.33,0,0,0,1.19-.06l0-1.15h1.22a4,4,0,0,0,1.19-.07l0-1.15h1.22l0,1.15a4,4,0,0,0,1.2.07h1.22l0,1.14a4,4,0,0,0,1.19.07h0l0,1.15A4,4,0,0,0,98,34.2h0A4.38,4.38,0,0,0,98,35.4l1.15,0v1.22c0,.33,0,.67,0,1,0,.15.06.21.21.21h1a4.31,4.31,0,0,0,.06,1.19l1.15,0v1.22a4.4,4.4,0,0,0,.06,1.2l1.15,0v1.21a4,4,0,0,0,.07,1.2l1.15,0v3.66l-1.15,0a4,4,0,0,0-.07,1.2v1.21l-1.14,0a4,4,0,0,0-.07,1.2h0l-1.16,0a4.4,4.4,0,0,0-.06,1.2h0l-1.16,0a4,4,0,0,0-.07,1.19h0l-1.15,0A4,4,0,0,0,98,55h0a4.33,4.33,0,0,0-1.19.07l0,1.15H95.52a4,4,0,0,0-1.19.06l0,1.15-1.15,0a4.34,4.34,0,0,0-.08,1.19H90.63a4,4,0,0,0-1.19.07l0,1.15H88.19a4,4,0,0,0-1.19.07Zm3.66-23.22c0,.74,0,1.47,0,2.2,0,.18.05.26.24.26s.69-.1.89,0,.06.61.09.92.05.26.24.26.69-.1.89.05.07.6.09.92.06.25.25.25.69-.1.88.05.07.6.09.92.06.25.25.25h3.17c.18,0,.26,0,.25-.24s-.1-.69.05-.89.61-.06.92-.09.26-.06.26-.24c0-.41,0-.82,0-1.22s.15-.72-.09-.93-.54-.06-.82,0S98,40.26,98,40c0-.61,0-1.22,0-1.83,0-.23-.06-.33-.31-.32s-.64.1-.83,0-.08-.57-.08-.86-.07-.33-.31-.32-.65.1-.83,0-.08-.57-.08-.87-.07-.31-.32-.31H90.94c-.23,0-.32.06-.31.31C90.64,36.44,90.63,37.15,90.63,37.86Z"/><path class="cls-2" d="M91.85,30.54l0,1.15a4,4,0,0,1-1.19.07V30.54Z"/><path class="cls-2" d="M94.3,31.76a4,4,0,0,1-1.2-.07l0-1.15H94.3Z"/><path class="cls-2" d="M107.74,62.3a4,4,0,0,1,1.19.07l0,1.15h-1.23Z"/><path class="cls-2" d="M89.41,73.3a3.94,3.94,0,0,1,1.19.07l0,1.14H89.41Z"/><path class="cls-2" d="M91.85,74.51a4.76,4.76,0,0,1,.07-1.19l1.15,0v1.22Z"/><path d="M107.74,62.3v1.23h-1.21V59.86h1.21V62.3Z"/><path d="M89.41,73.3v1.22H88.19V70.86h1.22V73.3Z"/><path class="cls-2" d="M89.41,59.86l0-1.15a4,4,0,0,1,1.19-.07v1.22H89.41Z"/><path class="cls-2" d="M93.07,58.63a4.34,4.34,0,0,1,.08-1.19l1.15,0h0v1.22H93.07Z"/><path d="M102.85,42.75V40.31h1.21v2.44h-1.22Z"/><path d="M101.63,40.31V37.87h1.21v2.43h-1.22Z"/><path class="cls-2" d="M101.63,51.31a4,4,0,0,1,.07-1.2l1.14,0v1.23h-1.22Z"/><path class="cls-2" d="M102.85,48.87a4,4,0,0,1,.07-1.2l1.15,0v1.22Z"/><path d="M94.3,31.76V30.54h2.43v1.21H94.3Z"/><path class="cls-2" d="M94.3,57.41l0-1.15a4,4,0,0,1,1.19-.06v1.22H94.3Z"/><path class="cls-2" d="M96.74,56.19l0-1.15A4.33,4.33,0,0,1,98,55V56.2H96.74Z"/><path class="cls-2" d="M89.41,31.77l0,1.15a4.33,4.33,0,0,1-1.19.06V31.76Z"/><path d="M89.41,59.86h1.23v1.21H88.19V59.86Z"/><path class="cls-6" d="M100.4,66H98.33C98,66,98,66,98,65.6V61.08h1.22V62.3c0,.34,0,.68,0,1,0,.15.06.22.21.21h2.24v1.22l-1.15,0A4.76,4.76,0,0,0,100.4,66Z"/><path class="cls-2" d="M98,61.08V65.6c0,.36,0,.36.37.37h.86v1.22H96.74V61.08Z"/><ellipse class="cls-6" cx="71.09" cy="32.37" rx="1.73" ry="0.87"/><path class="cls-2" d="M87,33l0,1.15a4,4,0,0,1-1.2.06V33Z"/><path class="cls-2" d="M100.4,66a4.76,4.76,0,0,1,.07-1.19l1.15,0V66Z"/><path class="cls-2" d="M84.53,34.21l0,1.15a4,4,0,0,1-1.19.06V34.2Z"/><path class="cls-2" d="M105.29,69.64l0,1.15a4.33,4.33,0,0,1-1.19.06V69.63Z"/><path class="cls-2" d="M102.85,70.86V73.3h-1.22V70.85h1.22Z"/><path d="M101.63,70.85V73.3h-1.22V70.86Z"/><path class="cls-2" d="M82.08,35.43l0,1.15a4.33,4.33,0,0,1-1.19.07V35.43Z"/><path class="cls-2" d="M104.07,74.52a4,4,0,0,1,1.19.07l0,1.15h-1.22Z"/><path d="M99.19,36.65V34.2h1.22v2.44H99.19Z"/><path d="M101.62,36.65v1.22h-1.22V36.65h1.21Z"/><path class="cls-2" d="M79.64,36.65a4.31,4.31,0,0,1-.07,1.19l-1.15,0h0V36.64h1.22Z"/><path class="cls-2" d="M78.42,37.87l0,1.15a4,4,0,0,1-1.2.07V37.87h1.23Z"/><path class="cls-2" d="M76,39.09a4,4,0,0,1-.07,1.2l-1.15,0h0V39.09H76Z"/><path d="M98,31.77V33H96.74V31.76H98Z"/><path d="M99.18,33v1.22H98V33h1.22Z"/><path d="M78.41,37.87H77.19V36.65h1.22Z"/><path d="M104.07,74.52v1.22h-1.22V74.52h1.22Z"/><path d="M101.62,73.3h1.23v1.22h-1.22Z"/><path d="M99.19,62.3V61.08h1.22V62.3H99.19Z"/><path d="M94.3,57.42h1.22v1.21H94.3Z"/><path d="M98,56.2V55h1.22v1.22Z"/><path d="M100.4,53.75V55H99.18V53.75h1.22Z"/><path d="M101.63,52.53v1.22h-1.21V52.53h1.22Z"/><path d="M101.63,51.31h1.22v1.21h-1.21V51.31Z"/><path d="M101.63,63.52h-1.22V62.3h1.21Z"/><path d="M44.2,127.06l0,1.21H43V127Z"/><path d="M30.76,114.84l0,1.21H29.55v-1.23Z"/><path d="M32,116.07l0,1.2H30.78v-1.22Z"/><path d="M33.2,117.29l0,1.2H32v-1.22Z"/><path d="M34.43,118.51l0,1.21H33.22v-1.23Z"/><path d="M35.65,119.73l0,1.21H34.44v-1.23Z"/><path d="M36.87,121l0,1.21H35.66v-1.23Z"/><path d="M38.09,122.17l0,1.21H36.88v-1.23Z"/><path d="M41.76,124.62l0,1.2H40.55V124.6Z"/><path d="M43,125.84l0,1.21H41.77v-1.23Z"/><path class="cls-5" d="M62.55,59.87a3.73,3.73,0,0,1,.05-1.2l1.15,0v1.23Z"/><path class="cls-5" d="M63.77,57.42a3.66,3.66,0,0,1,0-1.19,11.06,11.06,0,0,1,1.15,0l0,0v1.22H63.77Z"/><path class="cls-5" d="M67.42,55H66.2V52.78c0-.18-.06-.27-.24-.25h-.18c-.26,0-.65.12-.74-.08a2.6,2.6,0,0,1-.05-1c0-.1.08-.13.17-.13h3.47c0,.32,0,.64,0,1s-.09.28-.29.27H67.7c-.21,0-.29.06-.28.27C67.43,53.52,67.42,54.25,67.42,55Z"/><path d="M71.09,46.42c0,1.12,0,2.24,0,3.36,0,.24-.07.33-.31.31s-.61,0-.92,0h0l0-1.23,0-2.43Z"/><path class="cls-5" d="M66.2,55v1.22H65l0,0c0-.32,0-.65,0-1s.07-.24.25-.24Z"/><path class="cls-5" d="M69.85,48.86l0,1.23H68.65a4,4,0,0,1,.06-1.2Z"/><path class="cls-5" d="M71.09,46.42H69.88a3.73,3.73,0,0,1,.05-1.2l1.14,0Z"/><path class="cls-5" d="M52.76,118.49v1.22a4,4,0,0,1-1.19-.06l0-1.15Z"/><path class="cls-5" d="M54,118.49H52.76v-1.22a4,4,0,0,1,1.19.06Z"/><path d="M69.86,34.2v1.23l-1.2,0,0-1.2h1.22Z"/><path class="cls-6" d="M69.87,34.21H68.64A4,4,0,0,1,68.71,33l1.16,0Z"/><path d="M65,56.2H66.2v1c0,.15-.06.21-.21.21-.34,0-.68,0-1,0Z"/><path d="M69.86,55h1c.22,0,.27.09.27.28,0,.73,0,1.45,0,2.17H69.86Z"/><path d="M71.08,57.42c.32,0,.64,0,1,0s.27.09.27.29c0,.72,0,1.44,0,2.16H71.09Z"/><path d="M72.3,59.86h1c.15,0,.21.06.21.21v1H72.31Z"/><path d="M74.75,39.09v1.22H73.53V39.09Z"/><path class="cls-2" d="M102.85,74.52V73.3a4,4,0,0,1,1.19.07l0,1.15Z"/><path class="cls-2" d="M102.85,42.75h1.22V44l-1.15,0A4,4,0,0,1,102.85,42.75Z"/><path class="cls-4" d="M109,89.18a4.38,4.38,0,0,0-.07-1.2c-.39,0-.77,0-1.15,0a3.72,3.72,0,0,1-1.2-.06l0-1.15h3.68v2.44Z"/><path class="cls-6" d="M109,90.41c-.4-.06-.8.08-1.19-.08l0-1.14H109Z"/><path class="cls-4" d="M113.85,84.3v2.43h-1.22c0-.31,0-.61,0-.92s-.07-.32-.31-.31h-1.89c-.18,0-.26-.06-.25-.25s0-.65,0-1h3.68Z"/><path class="cls-6" d="M112.61,88a4.66,4.66,0,0,1-1.18-.07l0-1.15h1.23Z"/><path class="cls-3" d="M112.62,86.74H109V84.29h1.21c0,.32,0,.65,0,1s.07.25.25.25h1.89c.24,0,.32.07.31.31S112.62,86.43,112.62,86.74Z"/><path d="M112.62,84.29h-2.44V81.85h1.2l0,1.14c.38.16.79,0,1.18.08Z"/><path class="cls-6" d="M112.61,83.08c-.39-.06-.8.08-1.18-.08l0-1.14h1.23Z"/><path class="cls-6" d="M116.28,85.52a4.31,4.31,0,0,1-1.19-.08l0-1.14h1.23Z"/><path class="cls-6" d="M104.06,86.74h1.23V88a4.66,4.66,0,0,1-1.18-.07Z"/><path d="M109,85.52v1.21h-2.43V84.3h1.21l0,1.14A4.31,4.31,0,0,0,109,85.52Z"/><path class="cls-6" d="M109,85.52a4.31,4.31,0,0,1-1.19-.08l0-1.14H109Z"/><path class="cls-2" d="M88.19,59.86v1.22H87l0-1.15A4,4,0,0,1,88.19,59.86Z"/><path class="cls-4" d="M90.63,37.86c0-.71,0-1.42,0-2.13,0-.25.08-.31.31-.31h4.27c.25,0,.31.08.32.31s-.16.69.08.87.55.06.83,0,.3.08.31.32-.16.68.08.86.55.06.83,0,.31.09.31.32c0,.61,0,1.22,0,1.83,0,.25.08.32.31.31s.66-.09.82,0,.07.61.09.93,0,.81,0,1.22c0,.18-.08.23-.26.24s-.73-.16-.92.09-.05.59-.05.89-.07.24-.25.24H94.54c-.19,0-.24-.07-.25-.25s.16-.73-.09-.92-.58-.05-.88-.05-.24-.08-.25-.25.16-.73-.09-.92-.58-.06-.89-.05-.23-.08-.24-.26.16-.73-.09-.92-.59,0-.89,0-.24-.08-.24-.26C90.64,39.33,90.63,38.6,90.63,37.86Z"/><path class="cls-2" d="M96.74,31.76V33a4,4,0,0,1-1.19-.07l0-1.14Z"/><path class="cls-2" d="M98,33V34.2a4,4,0,0,1-1.19-.07l0-1.15Z"/><path class="cls-2" d="M98,34.2h1.22v1.23L98,35.4A4.38,4.38,0,0,1,98,34.2Z"/><path class="cls-2" d="M100.41,36.65v1.22h-1c-.15,0-.21-.06-.21-.21,0-.34,0-.68,0-1Z"/><path class="cls-2" d="M100.41,37.87h1.22v1.22l-1.15,0A4.31,4.31,0,0,1,100.41,37.87Z"/><path class="cls-2" d="M101.63,40.31h1.22v1.23l-1.15,0A4.4,4.4,0,0,1,101.63,40.31Z"/><path class="cls-2" d="M99.18,53.75V55H98A4,4,0,0,1,98,53.78Z"/><path class="cls-2" d="M100.41,52.53v1.22H99.18a4,4,0,0,1,.07-1.19Z"/><path class="cls-2" d="M101.63,51.31v1.22h-1.22a4.4,4.4,0,0,1,.06-1.2Z"/><path class="cls-2" d="M100.41,62.3v1.22h-1c-.15,0-.21-.06-.21-.21,0-.33,0-.67,0-1Z"/></svg>