<svg id="Layer_1" data-name="Layer 1" xmlns="http://www.w3.org/2000/svg" viewBox="0 0 64 64"><defs><style>.cls-1{fill:#45283c;}.cls-2{fill:#222034;}.cls-3{fill:#37936e;}.cls-4{fill:#4b692f;}.cls-5{fill:#663931;}.cls-6{fill:#323c39;}.cls-7{fill:#edc299;}.cls-8{fill:#de7126;}.cls-9{fill:#639afe;}.cls-10{fill:#5b6ee0;}</style></defs><title>icon</title><path class="cls-1" d="M19.1,64v-.08c0-.14,0-.32,0-.42s-.27,0-.41,0-.12,0-.11-.13V63c0-.07,0-.1-.1-.1h-.32c-.09,0-.12,0-.13-.12s.07-.32,0-.41-.26,0-.39,0-.11,0-.11-.1v-.43h.74c.11,0,.24,0,.31,0s0,.22,0,.34v.08c0,.08,0,.1.11.1s.31,0,.39,0,0,.27,0,.41,0,.11.11.11.31-.05.39,0,0,.27,0,.41,0,.11.11.11h1V64Z"/><path d="M33.74.54V0h2.17V.54H33.74Z"/><path d="M7.17,52.61H6.63v-.54h.54v.54Z"/><path d="M20.73,64v-.54h.54V64Z"/><path d="M47.3,44.48a1.52,1.52,0,0,1,0,.52l-.5,0H40.25v-.51a1.56,1.56,0,0,0-.53,0l-.51,0a1.87,1.87,0,0,1,0-.53h1.62c0,.14,0,.27,0,.4s.05.15.16.15H47.3Z"/><path d="M48.93,22.78H49c.14,0,.32-.05.42,0s0,.27,0,.41.08.11.16.11H52c.15,0,.15,0,.15.17s0,.25,0,.38H50.11c-.07,0-.1,0-.1.1s0,.3,0,.45V26h-.54V24c0-.08,0-.12-.1-.12s-.29,0-.44,0V22.78Z"/><path d="M52.19,27.66c0,.31,0,.61,0,.92,0,.15,0,.17.18.17.41,0,.81,0,1.22,0s.23,0,.23.24v.3H52.28c-.07,0-.1,0-.1.09s0,.3,0,.45v1.63h-.54V28.36c0-.11,0-.17-.14-.16s-.27,0-.4,0h0v-.54h1.09Z"/><path d="M54.36,34.17v.08c0,.14,0,.32,0,.42s-.27,0-.41,0-.11,0-.11.13v4c0,.22,0,.19-.19.19h-.35V34.17h1.09Z"/><path d="M24,59.12v2c0,.15,0,.16-.16.16h-.38v-.51a1.59,1.59,0,0,0-.53,0h-.55V60.2h.41c.11,0,.14,0,.14-.14s0-.29,0-.37.25,0,.38,0,.14,0,.14-.13-.07-.31,0-.39.26,0,.39,0Z"/><path d="M46.22,11.39a1.91,1.91,0,0,1,.53,0c0,.17,0,.33,0,.5v2.54c0,.21,0,.18-.19.18h-.35V11.39Z"/><path d="M30,53.15a2.33,2.33,0,0,1,0,.53,2.79,2.79,0,0,1-.5,0,3.53,3.53,0,0,1-.46,0c-.07,0-.1,0-.1.09s0,.22,0,.33,0,.13-.14.13-.26,0-.4,0h0V53.8c0-.08,0-.11-.11-.11a3.53,3.53,0,0,1-.46,0,1.68,1.68,0,0,1-.5,0,2.9,2.9,0,0,1,0-.51Z"/><path d="M46.76,16.81a2.27,2.27,0,0,1,0-.52l.51,0h2.5c.25,0,.21,0,.22.22s0,.22,0,.32H46.76Z"/><path d="M54.9,30.92a1.82,1.82,0,0,1,.52,0,2.18,2.18,0,0,1,0,.51v2c0,.22,0,.19-.19.19H54.9V30.91Z"/><path d="M52.73,24.41a1.82,1.82,0,0,1,.52,0,2.18,2.18,0,0,1,0,.51v2c0,.22,0,.19-.19.19h-.35V24.41Z"/><path d="M45.68,15.19v1.62h-.54v-1q0-.09-.09-.09h-.45v-.54Z"/><path d="M50.56,17.36a1.82,1.82,0,0,1,.52,0,2.18,2.18,0,0,1,0,.51v1.48c0,.15,0,.15-.16.16h-.38V17.35Z"/><path d="M43.51,10.85a1.87,1.87,0,0,1,0-.53,2.9,2.9,0,0,1,.51,0h1.43c.24,0,.2,0,.21.22v.32H43.51Z"/><path d="M42.42,10.85h1.09v.54h-.44c-.07,0-.1,0-.1.09s0,.3,0,.45v.54h-.55V10.85Z"/><path d="M32.12,52.61v.32c0,.24,0,.22-.21.22H30v-.53Z"/><path d="M38.08,47.19a.34.34,0,0,1,0,.1c0,.14.07.32,0,.41s-.26,0-.39,0-.12,0-.12.12.07.32,0,.4-.26,0-.39,0H37v-.55c0-.18,0-.37,0-.56a1.39,1.39,0,0,1,0-.5,2.9,2.9,0,0,1,.51,0v.51a2.39,2.39,0,0,0,.53,0Z"/><path d="M45.68,16.81h1.08v.55h0l-.51,0a1.56,1.56,0,0,0,0,.53h-.54V16.81Z"/><path d="M53.27,39.05v1.42c0,.23,0,.21-.19.21h-.35V39.05Z"/><path d="M48.93,43.93v.35c0,.21,0,.19-.21.19H47.3v-.53h1.62Z"/><path d="M51.1,42.85c0,.14,0,.28,0,.42s0,.12-.12.12H50v-.54H51.1Z"/><path d="M50,43.39c0,.14,0,.29,0,.43s0,.11-.13.11h-1v-.54H50Z"/><path d="M37,1.63h.43c.09,0,.11,0,.11.12v1H37V1.63Z"/><path d="M38.08,3.25h.43c.1,0,.12,0,.12.13,0,.32,0,.64,0,1h-.54V3.25Z"/><path d="M37,48.27v1c0,.09,0,.13-.12.13h-.42V48.28Z"/><path d="M38.63,4.34h.42c.1,0,.12,0,.12.12v1h-.54V4.34Z"/><path d="M39.71,6h.43c.1,0,.11,0,.11.13v1h-.54V6Z"/><path d="M40.25,7.05h.43c.1,0,.12,0,.12.12,0,.32,0,.64,0,1h-.54V7.05Z"/><path d="M34.29,51.52c0,.15,0,.29,0,.43s0,.12-.13.12h-1v-.54h1.08Z"/><path d="M33.2,52.07v.42c0,.1,0,.12-.12.12h-1v-.54Z"/><path d="M41.34,8.68h.42c.1,0,.12,0,.12.12v1h-.54V8.68Z"/><path d="M41.88,9.76h.43c.1,0,.11,0,.11.13v1h-.54V9.76Z"/><path d="M26.15,56.41v1c0,.1,0,.14-.13.13h-.41c0-.18,0-.36,0-.54a1.56,1.56,0,0,1,0-.53Z"/><path d="M50.56,19.53c0,.31,0,.63,0,.95,0,.1,0,.14-.14.13H50V19.53h.54Z"/><path d="M48.93,21.7v1.08h-.54V21.69h.54Z"/><path d="M54.35,29.83c.15,0,.29,0,.43,0s.12,0,.12.12c0,.32,0,.65,0,1h-.54V29.83Z"/><path d="M52.73,40.68c0,.32,0,.64,0,1,0,.09,0,.13-.12.12h-.43V40.68Z"/><path d="M35.91.54h.45c.07,0,.1,0,.1.09s0,.3,0,.45h-.55V.54Z"/><path d="M36.46,1.08c.15,0,.3,0,.45,0s.09,0,.09.1v.45h-.54V1.09Z"/><path d="M37.54,2.71H38c.07,0,.09,0,.09.09v.45h-.54V2.71Z"/><path d="M39.17,5.42h.45c.07,0,.09,0,.09.1V6h-.54V5.42Z"/><path d="M40.8,8.13h.45c.06,0,.09,0,.09.1v.45H40.8V8.14Z"/><path d="M45.68,10.85h.45c.06,0,.09,0,.09.09v.45h-.54v-.54Z"/><path d="M46.22,14.65a1.91,1.91,0,0,1,0,.53h-.51v-.55h.54Z"/><path d="M50,16.81c.15,0,.3,0,.46,0s.09,0,.09.1v.45H50v-.55Z"/><path d="M53.81,29.29h.45c.07,0,.1,0,.09.09v.45h-.54v-.54Z"/><path d="M54.9,33.63a2.36,2.36,0,0,1,0,.53h-.52l0-.51a1.87,1.87,0,0,1,.53,0Z"/><path d="M52.18,23.87h.45c.07,0,.1,0,.1.1s0,.3,0,.45h-.54v-.55Z"/><path d="M52.19,41.76c0,.15,0,.3,0,.45s0,.1-.1.1-.3,0-.45,0h0v-.54h.55Z"/><path d="M51.64,42.31v.45c0,.06,0,.09-.09.09H51.1v-.54h.54Z"/><path d="M52.73,27.12a2.33,2.33,0,0,1,0,.53h-.52v-.54Z"/><path d="M40.25,45a1.89,1.89,0,0,1,0,.53h-.51v-.51a1.89,1.89,0,0,1,.53,0Z"/><path d="M39.71,45.56a1.87,1.87,0,0,1,0,.53h-.51v-.54h.54Z"/><path d="M39.17,46.1a1.87,1.87,0,0,1,0,.53l-.51,0h0V46.1h.54Z"/><path d="M38.63,46.65a2.39,2.39,0,0,1,0,.53h-.52v-.55h.55Z"/><path d="M36.45,49.35c0,.16,0,.31,0,.46s0,.09-.1.09h-.44c0-.15,0-.3,0-.45s0-.1.1-.09h.44Z"/><path d="M35.91,49.9v.45c0,.07,0,.09-.09.09h-.45V49.9h.53Z"/><path d="M35.37,50.44v.45c0,.07,0,.1-.09.09h-.45v-.53Z"/><path d="M34.83,51v.45c0,.07,0,.1-.09.1h-.45V51Z"/><path d="M49.47,21.15a1.87,1.87,0,0,1,0,.53l-.51,0h0v-.51a1.91,1.91,0,0,1,.53,0Z"/><path d="M28.32,54.24a1.89,1.89,0,0,1,0,.53h-.51v-.51a1.87,1.87,0,0,1,.53,0Z"/><path d="M27.78,54.78a1.87,1.87,0,0,1,0,.53h-.52l0-.51a1.87,1.87,0,0,1,.53,0Z"/><path d="M27.24,55.32a2.33,2.33,0,0,1,0,.53l-.52,0h0l0-.51a1.82,1.82,0,0,1,.52,0Z"/><path d="M26.69,55.87a1.91,1.91,0,0,1,0,.53h-.51V55.9a1.93,1.93,0,0,1,.53,0Z"/><path d="M50,20.61a2.33,2.33,0,0,1,0,.53h-.52v-.54H50Z"/><path d="M25.61,57.49a1.87,1.87,0,0,1,0,.53h-.51v-.51a1.87,1.87,0,0,1,.53,0Z"/><path d="M25.07,58a2.45,2.45,0,0,1,0,.54h-.52l0-.52a1.87,1.87,0,0,1,.53,0Z"/><path d="M24.52,58.58a1.91,1.91,0,0,1,0,.53H24v-.51a1.91,1.91,0,0,1,.53,0Z"/><path d="M23.44,61.29a1.87,1.87,0,0,1,0,.53H22.9v-.54h.54Z"/><path d="M22.9,61.83a2.33,2.33,0,0,1,0,.53h-.52v-.54h.54Z"/><path d="M22.36,62.37a1.87,1.87,0,0,1,0,.53l-.51,0h0v-.54h.55Z"/><path d="M21.81,62.92a1.91,1.91,0,0,1,0,.53h-.51v-.54h.54Z"/><path d="M13.68,40.68V31s0-.07.08-.07h.46v3.8c0,.1,0,.2,0,.3v5.13c0,.17,0,.34,0,.51a2.33,2.33,0,0,1-.53,0Z"/><path d="M8.79,49.9a2.33,2.33,0,0,1,0-.53h1c.06,0,.09,0,.09-.1v-.21c0-.27,0-.23.22-.24h.32v1.08l-.51,0a1.56,1.56,0,0,0,0,.53H9.34v-.51a1.91,1.91,0,0,0-.53,0Z"/><path d="M13.13,43.39v-2.5c0-.24,0-.21.22-.21h.32v.84c0,.62,0,1.24,0,1.86Z"/><path d="M14.22,30.92V29c0-.24,0-.2.22-.2h.32v2.17h-.54Z"/><path d="M32.12,3.26h0a2.07,2.07,0,0,1-.5,0c0-.16,0-.32,0-.48,0-.32,0-.64,0-1,0-.15,0-.15.16-.15h.38V3.25Z"/><path d="M35.91,11.39V9.76h0l.52,0a2.33,2.33,0,0,1,0,.53v1.08Z"/><path d="M24.52,14.1a2.27,2.27,0,0,1-.52,0,2.18,2.18,0,0,1,0-.51v-.91c0-.22,0-.18.19-.19h.35V14.1Z"/><path d="M30.49,12.48v1.08H29.4V13l.51,0a1.82,1.82,0,0,0,0-.52h.54Z"/><path d="M12.59,45V43.54c0-.15,0-.15.14-.15h.4V45Z"/><path d="M14.76,28.75V27.27c0-.15,0-.15.14-.15h.4v1.62h-.54Z"/><path d="M25.61,16.27c0-.14,0-.28,0-.42s0-.12-.12-.12-.32.07-.41-.05,0-.25,0-.39v-.1h1.08v1.08Z"/><path d="M32.66,1.08V.57a1.87,1.87,0,0,1,.53,0h.54v.54H32.66Z"/><path d="M24.52,18.44c0-.32,0-.64,0-1,0-.09,0-.13.12-.13h.42v1.08Z"/><path d="M12.05,46.1v-1c0-.09,0-.13.11-.12h.43V46.1Z"/><path d="M11.51,47.19v-1c0-.09,0-.13.11-.13h.43v.55l0,.53h-.53Z"/><path d="M32.66,4.34a1.87,1.87,0,0,1-.53,0c0-.17,0-.34,0-.51V3.26h.4c.11,0,.14,0,.14.14v.95Z"/><path d="M11,48.27c0-.32,0-.64,0-1,0-.09,0-.13.12-.13h.43v1.09H11Z"/><path d="M33.2,5.43c-.18,0-.36,0-.53,0,0-.17,0-.34,0-.51V4.34h.41c.1,0,.14,0,.13.14v.94Z"/><path d="M8.25,51c0-.31,0-.63,0-.95,0-.1,0-.14.14-.13H8.8V51H8.25Z"/><path d="M34.28,7.05a1.91,1.91,0,0,1-.53,0c0-.17,0-.34,0-.51V6h.41c.11,0,.14,0,.14.14,0,.32,0,.63,0,1Z"/><path d="M34.83,8.14a2.33,2.33,0,0,1-.53,0c0-.17,0-.35,0-.52s0-.36,0-.54h.41c.11,0,.14,0,.14.14v.94Z"/><path d="M35.91,9.76a1.89,1.89,0,0,1-.53,0c0-.17,0-.34,0-.51V8.68h.41c.11,0,.14,0,.14.13,0,.32,0,.64,0,.95Z"/><path d="M28.32,10.3v-.13c0-.13-.06-.29,0-.38s.24,0,.37,0h.42c.26,0,.26,0,.27.28v.26H28.32Z"/><path d="M27.23,10.85a3.08,3.08,0,0,0,0-.43c0-.1,0-.12.13-.12h1c0,.13,0,.27,0,.4s0,.14-.14.14h-.95Z"/><path d="M26.15,11.39c0-.14,0-.29,0-.43s0-.11.12-.11h1v.54H26.15Z"/><path d="M25.07,11.93c0-.14,0-.28,0-.43s0-.11.13-.11h1v.54H25.07Z"/><path d="M30.49,11.39h.08c.15,0,.34-.07.44,0s0,.29,0,.44,0,.28,0,.42,0,.18-.19.18h-.35V11.39Z"/><path d="M34.83,11.93V11.5c0-.09,0-.11.12-.11h1v.54H34.83Z"/><path d="M21.81,20.61c0-.14,0-.28,0-.43s0-.11.13-.11h.95v.53l-.53,0Z"/><path d="M33.74,12.47c0-.14,0-.28,0-.42s0-.12.13-.12h1v.54H33.74Z"/><path d="M20.19,21.7c0-.15,0-.29,0-.43s0-.12.13-.12c.32,0,.64,0,1,0h0v.54H20.19Z"/><path d="M32.66,13v-.43c0-.1,0-.12.12-.12h1V13H32.66Z"/><path d="M18.56,22.78v-.43c0-.09,0-.12.12-.11h1v.53l-.54,0Z"/><path d="M31.57,13.56c0-.14,0-.29,0-.43s0-.12.13-.11h1v.54H31.57Z"/><path d="M15.85,26c0-.33,0-.65,0-1,0-.09,0-.13.12-.12h.43v.54l0,.54h-.53Z"/><path d="M30.49,13.56h1.09v.54H30.49v-.54Z"/><path d="M15.3,27.12c0-.32,0-.64,0-1,0-.09,0-.13.12-.13h.42v1.08Z"/><path d="M25.07,15.19h-.43c-.1,0-.12,0-.12-.13,0-.32,0-.64,0-1h.54v1.08Z"/><path d="M25.07,17.36c0-.32,0-.64,0-1,0-.08,0-.13.12-.12s.29,0,.43,0h0v1.08h-.54Z"/><path d="M32.12,1.63a1.87,1.87,0,0,1,0-.53l.51,0h0v.54h-.54Z"/><path d="M33.74,6a2.39,2.39,0,0,1-.53,0V5.43h0l.51,0c.07.17,0,.35,0,.52Z"/><path d="M35.37,8.68a1.87,1.87,0,0,1-.53,0V8.14h0l.51,0a1.87,1.87,0,0,1,0,.53Z"/><path d="M29.41,10.3h.45c.06,0,.09,0,.09.1v.45h-.54v-.54Z"/><path d="M30,10.85a1.91,1.91,0,0,1,.53,0v.51H30v-.54Z"/><path d="M24.52,12.47c0-.15,0-.3,0-.45s0-.09.1-.09h.45v.54h-.55Z"/><path d="M24,19v-.45a.08.08,0,0,1,.09-.09h.45V19H24Z"/><path d="M23.44,19.53v-.45c0-.07,0-.1.09-.1H24v.54h-.54Z"/><path d="M22.9,20.07v-.45c0-.07,0-.1.09-.1h.45v.55H22.9Z"/><path d="M16.39,25V24.5c0-.07,0-.1.09-.09h.45V25h-.54Z"/><path d="M16.93,24.41V24c0-.07,0-.1.09-.1h.45v.55h-.54Z"/><path d="M17.47,23.87c0-.15,0-.31,0-.46s0-.09.1-.09H18v.54h-.54Z"/><path d="M18,23.32c0-.15,0-.3,0-.45s0-.09.1-.09h.45v.54H18Z"/><path d="M10.42,48.81v-.45a.08.08,0,0,1,.09-.09H11v.54h-.54Z"/><path d="M7.71,51.52a1.91,1.91,0,0,1,0-.53h.51v.54H7.71Z"/><path d="M7.17,52.07a1.87,1.87,0,0,1,0-.53l.51,0h0v.54Z"/><path d="M19.64,22.24v-.45c0-.07,0-.1.09-.1h.45v.55h-.54Z"/><path d="M21.27,21.15V20.7c0-.07,0-.09.09-.09h.45v.54h-.54Z"/><path class="cls-1" d="M16.93,61.29h-.44c-.08,0-.1,0-.1-.11s.07-.33,0-.41-.26,0-.39,0-.12-.06-.12-.14c0-.31,0-.63,0-.94v0h.45c.07,0,.1,0,.1-.09v-.45h.51a1.91,1.91,0,0,0,0-.53l.51,0a1.87,1.87,0,0,0,0-.53H18l0,.52a1.87,1.87,0,0,0,.53,0c0,.31,0,.63,0,.94,0,.11,0,.15-.14.14s-.28,0-.36,0,0,.25,0,.39,0,.14-.14.14-.28-.05-.37,0,0,.26,0,.39,0,.14-.14.14-.3-.07-.38,0,0,.26,0,.4a.34.34,0,0,0,0,.1Z"/><path class="cls-1" d="M13.13,58h-1c-.1,0-.14,0-.13-.14s0-.27,0-.41h0c.18,0,.36,0,.54,0a1.56,1.56,0,0,1,.53,0l0,.51Z"/><path class="cls-1" d="M14.76,59.66a1.87,1.87,0,0,1-.53,0v-.51H15.3v.55h-.55Z"/><path class="cls-1" d="M7.71,53.16c-.18,0-.36,0-.53,0v-.51H7.6c.08,0,.11,0,.11.11v.43Z"/><path class="cls-1" d="M8.25,53.7c-.18,0-.36,0-.53,0v-.5h.51a1.91,1.91,0,0,1,0,.53Z"/><path class="cls-1" d="M8.79,54.24a1.91,1.91,0,0,1-.53,0V53.7h0l.51,0c.07.17,0,.35,0,.52Z"/><path class="cls-1" d="M9.33,54.78a1.82,1.82,0,0,1-.52,0l0-.51h0l.51,0a1.87,1.87,0,0,1,0,.53Z"/><path class="cls-1" d="M9.88,55.33c-.18,0-.36,0-.53,0l0-.51h.52a1.87,1.87,0,0,1,0,.53Z"/><path class="cls-1" d="M10.42,55.87c-.18,0-.36,0-.53,0v-.5h.51a1.91,1.91,0,0,1,0,.53Z"/><path class="cls-1" d="M11,56.41a1.91,1.91,0,0,1-.53,0v-.51h0l.51,0c.07.17,0,.35,0,.52Z"/><path class="cls-1" d="M11.5,57a1.82,1.82,0,0,1-.52,0l0-.51h0l.51,0a1.87,1.87,0,0,1,0,.53Z"/><path class="cls-1" d="M12.05,57.49a1.87,1.87,0,0,1-.53,0l0-.51H12a1.87,1.87,0,0,1,0,.53Z"/><path class="cls-1" d="M13.67,58.58a2.27,2.27,0,0,1-.52,0l0-.51h0l.51,0a1.82,1.82,0,0,1,0,.52Z"/><path class="cls-1" d="M14.22,59.12a1.87,1.87,0,0,1-.53,0l0-.51h0l.51,0a1.87,1.87,0,0,1,0,.53Z"/><path d="M15.31,59.67v-.55h.55v.55Z"/><path d="M14.76,59.66h.55c0,.14,0,.27,0,.4s-.05.15-.16.14-.27,0-.36,0,0-.24,0-.36Z"/><path class="cls-1" d="M17.47,61.84c-.18,0-.36,0-.53,0v-.51h.43c.09,0,.12,0,.11.11s0,.28,0,.43Z"/><path class="cls-2" d="M17.48,61.83c0-.15,0-.29,0-.43s0-.11-.11-.11h-.42a.34.34,0,0,1,0-.1c0-.14-.05-.3,0-.4s.25,0,.38,0,.13,0,.14-.14-.07-.31,0-.39.25,0,.37,0,.14,0,.14-.14-.07-.31,0-.39.24,0,.36,0,.14,0,.14-.14c0-.31,0-.63,0-.94h.54V59a.08.08,0,0,0,.09.09h.45v.51a2,2,0,0,0,.54,0h.54v.51a1.56,1.56,0,0,0,.53,0h.54v.52a2.39,2.39,0,0,0,.53,0h.55v.54h-.45c-.07,0-.1,0-.1.09s0,.3,0,.45h-.44c-.07,0-.1,0-.1.09v.45h-.45c-.06,0-.09,0-.09.1v.45h-.45c-.07,0-.09,0-.09.1v.45h-1c-.08,0-.1,0-.11-.11s.07-.32,0-.41-.25,0-.39,0-.11,0-.11-.11.07-.33,0-.41-.26,0-.39,0-.12,0-.11-.1v-.08c0-.12.05-.26,0-.34s-.2,0-.31,0Z"/><path class="cls-3" d="M31,14.11H32c.1,0,.15,0,.14-.13s0-.27,0-.41h.94c.1,0,.15,0,.14-.13s0-.27,0-.41h.95c.1,0,.15,0,.14-.13s0-.28,0-.41h.94c.1,0,.15,0,.14-.14s0-.27,0-.4h1c.07,0,.1,0,.1-.09s0-.3,0-.45v-.54h.95c.08,0,.14,0,.13-.11s0-.31,0-.4.27,0,.41,0,.11,0,.1-.12,0-.41,0-.62.05-.24,0-.31-.22,0-.33,0h-.08c-.09,0-.11,0-.11-.11V8.54c0-.13,0-.28,0-.37s-.24,0-.36,0H37.1c-.08,0-.1,0-.1-.12s0-.3,0-.39-.27,0-.41,0-.11,0-.11-.12,0-.38,0-.57,0-.28,0-.36-.23,0-.36,0h0c-.08,0-.11,0-.11-.11s0-.31,0-.39-.27,0-.41,0-.11,0-.11-.11V5.29c0-.13,0-.28,0-.37s-.24,0-.36,0h-.05c-.09,0-.11,0-.11-.11V4.18c0-.12,0-.27,0-.34s-.24,0-.36,0h0c-.11,0-.14,0-.14-.14,0-.27,0-.54,0-.81,0-.11,0-.15-.14-.14s-.29,0-.37,0,0-.25,0-.38,0-.14-.14-.14-.31.06-.38,0,0-.26,0-.39V1.63h.45c.07,0,.1,0,.09-.1V1.08h.44A.1.1,0,0,0,34.29,1c0-.14,0-.29,0-.43h1.08v.51a1.9,1.9,0,0,0,.53,0h0c0,.15,0,.3,0,.45s0,.1.1.1h.45c0,.14,0,.28,0,.43s0,.11.11.11H37v1c0,.07,0,.1.09.09h.45v.44c0,.07,0,.11.11.11h.43v.54c0,.13,0,.27,0,.4s0,.15.13.14h.41v1c0,.07,0,.1.09.1h.45V6.4c0,.08,0,.11.1.11h.44v.54c0,.13,0,.27,0,.4s0,.15.13.15h.41v.53c0,.15,0,.3,0,.45s0,.1.09.1h.46c0,.14,0,.29,0,.43s0,.11.11.11h.43v.95c0,.1,0,.14.13.14h.41v.53c0,.14,0,.28,0,.41s0,.15.13.14h.41v1.08c0,.14,0,.27,0,.41s0,.15.13.14H43v.54c0,.13,0,.27,0,.4s0,.15.14.14h.4v1c0,.09,0,.13.11.13h.43v.51a1.91,1.91,0,0,0,.53,0h0v.43c0,.08,0,.11.11.11h.43v.54c0,.14,0,.27,0,.41s0,.15.14.14h.4v.53c0,.14,0,.28,0,.41s0,.15.14.14.27,0,.4,0v.95c0,.1,0,.15.13.14s.27,0,.41,0v.53c0,.14,0,.28,0,.41s0,.15.13.14h.41v.54c0,.14,0,.28,0,.42s0,.13.12.13h.42l0,.51a1.82,1.82,0,0,0,.52,0v.94c0,.1,0,.15.13.14h.41v.54c0,.14,0,.27,0,.41s0,.15.13.14.27,0,.41,0V26c0,.14,0,.27,0,.41s0,.15.13.14H50v.54c0,.14,0,.28,0,.42s0,.13.12.12h.43v.51a1.56,1.56,0,0,0,.53,0h0v1c0,.07,0,.11.11.11h.43v2.16c0,.14,0,.28,0,.41s0,.15.13.14.27,0,.41,0v1.08c0,.14,0,.27,0,.41s0,.15.14.14.27,0,.4,0v1.48c0,.1,0,.15.13.15h.4V38h-.4c-.12,0-.14,0-.13.15v2l-.51,0a1.87,1.87,0,0,0,0,.53v.54h-.51a2.39,2.39,0,0,0,0,.53h-.45c-.06,0-.09,0-.09.1v.45h-.43c-.08,0-.12,0-.11.11v.43h-1c-.1,0-.15,0-.14.13s0,.27,0,.41h-.94c-.1,0-.15,0-.14.13v.41H46.9c-.1,0-.15,0-.14.13s0,.27,0,.41H41.88V44c0-.09,0-.11-.11-.11h-1c0-.14,0-.28,0-.42s0-.12-.13-.12h-1v-.11c0-.13,0-.3,0-.39s-.26,0-.39,0h0c-.08,0-.11,0-.11-.11s0-.31,0-.39-.27,0-.41,0-.11,0-.11-.11.05-.31,0-.4-.27,0-.41,0-.11,0-.11-.12,0-.3,0-.39-.27,0-.41,0-.11,0-.11-.11,0-.31,0-.39-.27,0-.41,0-.11,0-.11-.11V40c0-.13,0-.28,0-.37s-.23,0-.35,0h-.06c-.08,0-.11,0-.11-.11s0-.38,0-.57,0-.28,0-.36-.23,0-.36,0h0c-.08,0-.11,0-.11-.11a5.42,5.42,0,0,0,0-.57c0-.13,0-.28,0-.37s-.24,0-.36,0h-.05c-.08,0-.11,0-.11-.11v-.57c0-.12,0-.28,0-.36s-.24,0-.36,0h-.05c-.09,0-.11,0-.11-.11s0-.31,0-.39-.27,0-.41,0-.11,0-.1-.11v-.57c0-.13,0-.28,0-.37s-.23,0-.36,0h0c-.08,0-.11,0-.11-.11s0-.31,0-.39-.27,0-.41,0-.11,0-.11-.11v-.57c0-.13,0-.28,0-.37s-.24,0-.36,0h0c-.09,0-.11,0-.11-.11s0-.3,0-.39-.27,0-.41,0-.11,0-.1-.11v-.57c0-.12,0-.28,0-.36s-.23,0-.36,0h-.05c-.08,0-.11,0-.11-.11a5.42,5.42,0,0,0,0-.57c0-.13,0-.28,0-.37s-.24,0-.36,0h-.05c-.09,0-.11,0-.11-.11v-.57c0-.12,0-.28,0-.36s-.24,0-.36,0h0c-.09,0-.11,0-.11-.11s0-.31,0-.4-.27,0-.41,0-.1,0-.1-.12v-1H31l0,.51a1.87,1.87,0,0,0,.53,0h4.85a2.07,2.07,0,0,0,0-.5v0c.18,0,.36,0,.54,0a1.58,1.58,0,0,0,.53,0v-.51h1c.08,0,.12,0,.12-.11s0-.29,0-.43h1.08v.54H39.3c-.11,0-.14,0-.13.14v2.43c0,.11,0,.15.13.14h.41v.43c0,.09,0,.12.12.11h1.91c.1,0,.15,0,.14-.13s0-.27,0-.4h1q.1,0,.09-.09V28.21c0-.14,0-.29,0-.43s0-.12-.12-.12h-.43v-.51a1.87,1.87,0,0,0-.53,0v-.43c0-.09,0-.12-.12-.11h-2V26l.51,0a1.82,1.82,0,0,0,0-.52h1c.09,0,.13,0,.13-.12s0-.28,0-.42h.51a1.91,1.91,0,0,0,0-.53l.51,0a1.82,1.82,0,0,0,0-.52l.51,0c.07-.17,0-.35,0-.53h.42c.09,0,.12,0,.12-.12s0-.28,0-.42v-.54l.51,0a1.82,1.82,0,0,0,0-.52h.41c.11,0,.13,0,.13-.14V19.12c0-.1,0-.15-.13-.14h-.41c0-.18,0-.36,0-.54a1.56,1.56,0,0,0,0-.53h-.51c0-.18,0-.36,0-.54a1.57,1.57,0,0,0,0-.53l-.51,0,0-.51a1.87,1.87,0,0,0-.53,0v-1c0-.08,0-.12-.11-.11h-.43v-.5a1.59,1.59,0,0,0-.53,0v-.51a1.91,1.91,0,0,0-.53,0l0-.51a1.87,1.87,0,0,0-.53,0v-.35c0-.18,0-.2-.18-.19H37.14c-.1,0-.15,0-.14.13s0,.27,0,.4h-1c-.1,0-.15,0-.14.13s0,.27,0,.41H35c-.1,0-.15,0-.14.13s0,.27,0,.41h-.95c-.1,0-.15,0-.14.14s0,.27,0,.4H32.8c-.1,0-.15,0-.14.14s0,.27,0,.4h-1c-.09,0-.13,0-.13.12s0,.28,0,.42h-.51a1.87,1.87,0,0,0,0,.53h-.54V16.7c0-.13,0-.3,0-.39s-.26,0-.39,0-.14,0-.13-.13V14.65h.94c.1,0,.15,0,.14-.14Zm11.39,19v.51a1.91,1.91,0,0,0,.53,0c0,.14,0,.28,0,.42s0,.12.13.12h1.47a1.91,1.91,0,0,0,0-.53h.35c.19,0,.2,0,.19-.19v-2c0-.17,0-.34,0-.51a1.87,1.87,0,0,0-.53,0c0-.14,0-.29,0-.43s0-.11-.12-.11H43.1c-.1,0-.15,0-.14.13s0,.28,0,.41H42c-.09,0-.13,0-.12.12v.43h-.44c-.08,0-.1,0-.1.11v.86c0,.08,0,.12.1.11h.44v.51C42.06,33.12,42.24,33.06,42.42,33.09Zm0,4.33H40.91c-.1,0-.12,0-.12.13,0,.24,0,.48,0,.72s0,.24.24.24h.3v.43c0,.08,0,.11.1.11H42c.14,0,.32-.06.41,0s0,.24,0,.37v0c0,.08,0,.12.11.11H43c0,.14,0,.28,0,.43s0,.11.11.11h.55c.13,0,.3,0,.39,0s0,.25,0,.38v0c0,.08,0,.11.11.11h.43v.51a1.64,1.64,0,0,0,.54,0h.51a2.39,2.39,0,0,1,0,.53H44.17c-.1,0-.12,0-.12.13v.72c0,.27,0,.23.25.24h.29v.43c0,.07,0,.11.1.11h.89c.09,0,.1,0,.1-.12s0-.28,0-.43V41.76h.54v.43c0,.07,0,.12.1.12.29,0,.59,0,.88,0,.09,0,.11-.05.1-.12V40.68h.55c0,.14,0,.28,0,.43s0,.11.11.11h.88c.09,0,.1,0,.1-.12V39.59H50a1.46,1.46,0,0,0,.51,0V38.51h1.11a1.67,1.67,0,0,0,.5,0V38c0-.15,0-.3,0-.45s0-.1-.1-.1H50.56v-.54c0-.15,0-.3,0-.45s0-.09-.1-.09H48.93v-1c0-.07,0-.1-.09-.1H47.3V34.17h.55c0,.14,0,.28,0,.43s0,.11.11.11h.88c.09,0,.1,0,.1-.11V33.18c0-.07,0-.1-.09-.1H47.42c-.09,0-.12,0-.12.13,0,.32,0,.64,0,1H45.79c-.09,0-.12,0-.12.12,0,.32,0,.64,0,1H44.17c-.1,0-.12,0-.12.13v1H42.54c-.1,0-.12,0-.12.12Zm-3.26-4.34V31.46c0-.15,0-.3,0-.45s0-.1-.1-.1H36.58c-.09,0-.13,0-.13.12s0,.28,0,.43H36c-.08,0-.11,0-.11.11V33c0,.08,0,.12.11.12s.29,0,.43,0,0,.28,0,.42,0,.12.13.12h2.49c.07,0,.1,0,.1-.1S39.17,33.23,39.16,33.08Zm5.43-4.87c0,.14,0,.28,0,.42s0,.12.12.12h2.5c.07,0,.09,0,.09-.1V26.13c0-.07,0-.1-.09-.1h-2.5c-.08,0-.12,0-.12.12s0,.28,0,.42h-.43c-.09,0-.11,0-.11.11v1.4c0,.08,0,.12.11.11Z"/><path class="cls-4" d="M34.29.55c0,.14,0,.29,0,.43a.1.1,0,0,1-.11.11h-.44V.54Z"/><path class="cls-4" d="M35.91,1.08a1.9,1.9,0,0,1-.53,0V.55h.54Z"/><path class="cls-5" d="M14.22,59.12a1.87,1.87,0,0,0,0-.53l-.51,0a1.82,1.82,0,0,0,0-.52l-.51,0,0-.51a1.56,1.56,0,0,0-.53,0c-.18,0-.36,0-.54,0A1.87,1.87,0,0,0,12,57h-.51a1.87,1.87,0,0,0,0-.53l-.51,0c0-.17,0-.35,0-.52l-.51,0a1.91,1.91,0,0,0,0-.53H9.88a1.87,1.87,0,0,0,0-.53H9.34a1.87,1.87,0,0,0,0-.53l-.51,0c0-.17,0-.35,0-.52l-.51,0a1.91,1.91,0,0,0,0-.53H7.71v-.43c0-.09,0-.11-.11-.11H7.17v-.54h1A.08.08,0,0,0,8.25,52v-.46H8.7c.07,0,.1,0,.1-.1s0-.3,0-.45H9.88v.51a1.9,1.9,0,0,0,.53,0V52a1.91,1.91,0,0,0,.53,0l0,.51a1.87,1.87,0,0,0,.53,0v.51a1.87,1.87,0,0,0,.53,0v.51a1.87,1.87,0,0,0,.53,0v.51a1.91,1.91,0,0,0,.53,0l0,.51a1.87,1.87,0,0,0,.53,0v.45c0,.07,0,.09.09.09h1v.51a1.93,1.93,0,0,0,.53,0l0,.51a1.82,1.82,0,0,0,.52,0l0,.51a1.87,1.87,0,0,0,.53,0V58l-.51,0a1.87,1.87,0,0,0,0,.53h-.51a2.33,2.33,0,0,0,0,.53H14.22Z"/><path class="cls-1" d="M20.73,63.46V63c0-.07,0-.1.09-.1h.45v.54Z"/><path class="cls-5" d="M39.71,45.56h-.54c0-.15,0-.29,0-.43s0-.12-.11-.11-.31,0-.39,0,0-.27,0-.41,0-.11-.11-.11h-.6c-.12,0-.26,0-.34,0s0-.23,0-.36v0c0-.11,0-.14-.14-.14h-.84c-.08,0-.11,0-.11-.11s0-.3,0-.39-.27,0-.41,0-.11,0-.11-.11.05-.31,0-.39-.27,0-.41,0-.11,0-.11-.11,0-.31,0-.39-.27,0-.41,0-.11,0-.11-.11,0-.31,0-.4-.27,0-.41,0-.11,0-.1-.12,0-.3,0-.39-.27,0-.41,0-.11,0-.11-.11,0-.31,0-.39-.27,0-.41,0-.11,0-.11-.11,0-.31,0-.39-.27,0-.41,0-.11,0-.11-.12,0-.3,0-.39-.27,0-.41,0-.1,0-.1-.12,0-.31,0-.39-.27,0-.41,0-.11,0-.11-.11,0-.42,0-.62,0-.25,0-.32-.22,0-.33,0h0c-.12,0-.14,0-.14-.14s.07-.31,0-.38-.26,0-.39,0-.11,0-.11.12,0,.3,0,.39-.27,0-.41,0-.1,0-.1.12v.62c0,.11,0,.24,0,.32s-.22,0-.34,0h-.08c-.08,0-.11,0-.11.11s0,.38,0,.57c0,.44,0,.44-.44.41-.09,0-.11,0-.11-.12a1.2,1.2,0,0,0,0-.19V35.09c0-.12,0-.26,0-.34s-.24,0-.36,0-.16,0-.16-.16V32.38c0-.12,0-.27,0-.34s-.24,0-.36,0h-.05c-.08,0-.11,0-.11-.11V31.3c0-.12,0-.27,0-.35s-.24,0-.36,0a0,0,0,0,0,0,0c-.11,0-.14,0-.14-.14s.07-.31,0-.38-.26,0-.4,0h-.11v-.45c0-.06,0-.09-.09-.09h-.45V28.38c0-.19,0-.18-.17-.18s-.25,0-.37,0V26.58h.54v1c0,.08,0,.13.12.12h.42v.45c0,.07,0,.09.1.09h.45c0,.32,0,.64,0,1,0,.09,0,.13.12.13h.43v1c0,.09,0,.13.11.12h.43v.45c0,.07,0,.1.09.1h.45c0,.32,0,.64,0,1,0,.08,0,.13.12.12s.28,0,.43,0c0,.32,0,.64,0,1,0,.09,0,.13.12.13H30v.45c0,.07,0,.1.09.1h.45v1c0,.08,0,.13.12.12H31v1c0,.09,0,.13.12.13h.43c0,.15,0,.3,0,.45s0,.09.1.09h.45v1c0,.09,0,.13.11.13h.43v1c0,.09,0,.13.12.13h.42V39a.08.08,0,0,0,.09.09h.45c0,.32,0,.64,0,1,0,.09,0,.13.12.13h.43v.45c0,.07,0,.1.09.1h.45v.45a.08.08,0,0,0,.09.09h.45v.45c0,.07,0,.09.09.09h.45c0,.15,0,.3,0,.45s0,.1.1.1h.45v.45c0,.07,0,.1.09.1H37v.42c0,.1,0,.12.12.12h1c0,.14,0,.28,0,.43s0,.11.13.11h1a1.87,1.87,0,0,0,0,.53l.51,0a1.56,1.56,0,0,1,.53,0V45a1.89,1.89,0,0,0-.53,0Z"/><path class="cls-4" d="M39.71,43.39h1c.09,0,.13,0,.13.12s0,.28,0,.42H39.71Z"/><path class="cls-4" d="M40.79,43.93h1c.08,0,.11,0,.11.11v.43H41c-.11,0-.17,0-.16-.15S40.79,44.07,40.79,43.93Z"/><path class="cls-6" d="M39.71,43.39v.54h-.54v-.54Z"/><path class="cls-4" d="M46.76,44.47c0-.14,0-.27,0-.41s0-.13.14-.13h.41v.53Z"/><path class="cls-7" d="M52.72,25V26l-.51,0a2.33,2.33,0,0,0,0,.53H50.57l0-.53c0-.13,0-.25,0-.38s0-.17-.19-.17H50V24.41l.51,0a1.8,1.8,0,0,0,0-.52h1.08a2.9,2.9,0,0,0,0,.51,2.33,2.33,0,0,0,.53,0h0c0,.14,0,.27,0,.41s0,.15.13.14Z"/><path class="cls-8" d="M52.19,24.41a2.33,2.33,0,0,1-.53,0,2.9,2.9,0,0,1,0-.51h.55Z"/><path class="cls-4" d="M50,26.58H49.6c-.11,0-.13,0-.13-.14s0-.27,0-.41H50Z"/><path class="cls-8" d="M50,25.49h.35c.19,0,.19,0,.19.17s0,.25,0,.38H50Z"/><path class="cls-8" d="M50.56,23.87a1.8,1.8,0,0,1,0,.52l-.51,0c0-.15,0-.3,0-.45s0-.1.1-.1Z"/><path class="cls-4" d="M49.47,24.41c-.14,0-.27,0-.41,0s-.14,0-.13-.14,0-.27,0-.41.29,0,.44,0,.11,0,.1.12Z"/><path class="cls-4" d="M48.93,23.32h-.41c-.11,0-.14,0-.13-.14v-.4h.54Z"/><path class="cls-7" d="M54.35,30.38v.53c0,.32,0,.63,0,.95,0,.09,0,.15-.14.14s-.28,0-.36,0,0,.25,0,.38,0,.14-.15.14h-.92l0-1.08c0-.12,0-.25,0-.38s0-.17-.19-.17-.23,0-.35,0V29.83h.51a1.82,1.82,0,0,0,0-.52h.54a4.17,4.17,0,0,0,0,.5,2.39,2.39,0,0,0,.53,0h0c0,.13,0,.27,0,.4s0,.15.13.15Z"/><path class="cls-5" d="M52.19,27.12v.54H51.1v-.54h1.09Z"/><path class="cls-4" d="M51.64,29.29h-.43c-.09,0-.11,0-.11-.11v-1c.13,0,.27,0,.4,0s.15.05.14.16Z"/><path class="cls-8" d="M53.81,29.83a2.39,2.39,0,0,1-.53,0,4.17,4.17,0,0,1,0-.5h.54Z"/><path class="cls-4" d="M51.1,28.2a1.56,1.56,0,0,1-.53,0v-.51h.54Z"/><path class="cls-8" d="M52.19,30.91c.12,0,.24,0,.35,0s.19,0,.19.17,0,.26,0,.38h-.53Z"/><path class="cls-8" d="M52.73,29.3a1.82,1.82,0,0,1,0,.52h-.51c0-.15,0-.3,0-.45s0-.09.1-.09Z"/><path class="cls-4" d="M52.18,32c-.14,0-.27,0-.41,0s-.13,0-.13-.14,0-.27,0-.41h.53Z"/><path class="cls-5" d="M54.9,33.63a1.87,1.87,0,0,0-.53,0l0,.51H53.27V33.09h.67c.13,0,.3.06.39,0s0-.24,0-.37,0-.15.14-.14h.4Z"/><path class="cls-4" d="M53.26,35.26h-.4c-.12,0-.14,0-.13-.15v-.94h.54Z"/><path class="cls-4" d="M52.73,39.05v-.94c0-.1,0-.15.13-.15h.4v1.09Z"/><path class="cls-5" d="M24.52,58.58a1.91,1.91,0,0,0-.53,0v.51h-.11c-.13,0-.3,0-.39,0s0,.25,0,.39,0,.13-.14.13-.3-.06-.38,0,0,.24,0,.37,0,.14-.14.14h-.4a2.94,2.94,0,0,1,0-.42c0-.1,0-.12-.13-.12h-1v-.54h.94c.1,0,.15,0,.15-.13s-.05-.29,0-.37.25,0,.38,0,.14,0,.14-.14,0-.52,0-.78,0-.16.16-.17.26,0,.34,0,0-.23,0-.36,0-.16.16-.16.26,0,.34,0,0-.24,0-.36,0-.16.16-.16.27,0,.34,0,0-.23,0-.35,0-.16.17-.17.26,0,.34,0,0-.23,0-.36,0-.15.17-.16.27,0,.34,0,0-.24,0-.36,0-.16.16-.16.27,0,.34,0,0-.24,0-.36,0-.15.17-.16.28.06.35,0,0-.25,0-.37,0-.14-.14-.14-.31.07-.38,0,0-.26,0-.39,0-.11.11-.11h1a2.9,2.9,0,0,0,0,.51,1.68,1.68,0,0,0,.5,0,3.53,3.53,0,0,0,.46,0c.08,0,.11,0,.11.11v.44a1.87,1.87,0,0,0-.53,0v.51a1.87,1.87,0,0,0-.53,0l0,.51a1.82,1.82,0,0,0-.52,0l0,.51a1.93,1.93,0,0,0-.53,0v.51h-.51a1.56,1.56,0,0,0,0,.53c0,.18,0,.36,0,.54a1.87,1.87,0,0,0-.53,0V58a1.87,1.87,0,0,0-.53,0Z"/><path class="cls-1" d="M22.35,60.75a2.39,2.39,0,0,1-.53,0V60.2h.54Z"/><path class="cls-1" d="M22.9,61.29v-.54a1.59,1.59,0,0,1,.53,0v.51Z"/><path class="cls-8" d="M45.68,11.39h.54V14.1l-.5,0a1.52,1.52,0,0,0,0,.52H44.6c0-.14,0-.29,0-.43s0-.11-.11-.11h-.43v-.54H45c.17,0,.17,0,.17-.15s-.05-.28,0-.36.24,0,.37,0,.15,0,.15-.15C45.67,12.38,45.68,11.88,45.68,11.39Z"/><path class="cls-5" d="M45.68,14.64a1.52,1.52,0,0,1,0-.52l.5,0v.54Z"/><path class="cls-8" d="M27.24,53.16h-1c-.07,0-.11,0-.11.11s0,.3,0,.39.25,0,.38,0,.15,0,.14.14,0,.28,0,.37-.23,0-.35,0-.16,0-.17.16.06.28,0,.36-.22,0-.34,0-.15,0-.16.16.06.28,0,.36-.22,0-.34,0-.16,0-.17.16.06.29,0,.36-.23,0-.34,0-.16,0-.17.17.06.28,0,.35-.22,0-.34,0-.15,0-.16.16.06.28,0,.36-.22,0-.34,0-.15,0-.16.16.06.29,0,.36-.23,0-.34,0-.16,0-.16.17,0,.52,0,.78,0,.14-.14.14-.31-.07-.38,0,0,.24,0,.37-.05.13-.15.13H20.73l0-.5a1.56,1.56,0,0,0-.53,0h0V57.36c0-.45,0-.45-.44-.41-.07,0-.1,0-.1.09v.3c0,.15,0,.15-.14.15H18V57h.08c.15,0,.32,0,.42,0s0-.27,0-.41,0-.12.1-.11.31,0,.4,0,0-.27,0-.41,0-.12.13-.12h.54c.13,0,.3.06.39,0s0-.24,0-.37,0-.15.14-.14h.54c.13,0,.3.06.38,0s0-.24,0-.37,0-.14.16-.14H22c.12,0,.28,0,.36,0s0-.22,0-.33,0-.17.16-.17.27,0,.34,0,0-.24,0-.36,0-.16.16-.17.27,0,.35,0,0-.24,0-.36,0-.16.16-.17.26,0,.34,0,0-.23,0-.35,0-.16.16-.17.29.06.36,0,0-.24,0-.36,0-.14-.16-.14h-.81c-.08,0-.11,0-.11-.11s0-.3,0-.39-.27,0-.41,0-.12-.05-.11-.14,0-.36,0-.54.07-.3,0-.38-.24,0-.37,0-.14,0-.14-.13,0-.51,0-.76,0-.2-.18-.19H20.6c-.14,0-.3.07-.39,0s0-.24,0-.37,0-.13-.15-.14h-.82c-.07,0-.11,0-.11-.1s0-.31,0-.4-.27,0-.41,0-.12,0-.11-.1,0-.31,0-.4-.27,0-.41,0-.12,0-.12-.11,0-.3,0-.39-.26,0-.4,0-.12,0-.12-.14V46.4c0-.3,0-.3.3-.3s.24,0,.25.24a1.21,1.21,0,0,1,0,.19c0,.08,0,.12.11.12s.31,0,.39,0,0,.26,0,.4,0,.12.1.12.31,0,.4,0,0,.27,0,.41,0,.11.13.11h.6c.11,0,.25,0,.33,0s0,.21,0,.32,0,.19.19.19h1.84c.1,0,.15,0,.15.13s-.05.29,0,.37.26,0,.39,0,.15,0,.14.14,0,.28,0,.36.25,0,.38,0,.14,0,.14.16v.82c0,.07,0,.11.1.11s.31,0,.4,0,0,.27,0,.41,0,.12.11.11.3,0,.39,0,0,.27,0,.41.05.12.14.12h.54c.13,0,.3-.07.38,0s0,.24,0,.37,0,.15.13.14h.57c.12,0,.28-.06.36,0s0,.23,0,.34,0,.17.16.17h3.09v.55Zm-1.63-.27c0-.28,0-.28-.29-.28h-.19s-.06,0-.06.07-.06.33,0,.44.24,0,.36,0h.05c.07,0,.1,0,.1-.09Z"/><path class="cls-7" d="M47.31,16.82h2.16a2.9,2.9,0,0,0,0,.51,2.33,2.33,0,0,0,.53,0h0c0,.32,0,.64,0,.95,0,.1,0,.15-.14.14s-.28,0-.36,0,0,.25,0,.38,0,.15-.14.15-.28,0-.37,0,0,.25,0,.38,0,.14-.16.14c-.48,0-1,0-1.46,0v-.91c0-.17,0-.17-.18-.17h-.35V17.35h.4c.1,0,.15,0,.15-.13S47.31,17,47.31,16.82Z"/><path class="cls-8" d="M47.31,16.82c0,.14,0,.27,0,.41s-.05.13-.15.13h-.4v-.55Z"/><path class="cls-8" d="M50,17.36a2.33,2.33,0,0,1-.53,0,2.9,2.9,0,0,1,0-.51H50Z"/><path class="cls-8" d="M54.89,32.54h-.4c-.12,0-.14,0-.14.14s.06.29,0,.37-.26,0-.39,0H52.73v-.55h.92c.15,0,.14,0,.15-.14s-.07-.3,0-.38.24,0,.36,0,.14-.05.14-.14c0-.32,0-.63,0-.95h.54Z"/><path class="cls-8" d="M52.18,26.58a2.33,2.33,0,0,1,0-.53l.51,0v.54Z"/><path class="cls-8" d="M52.72,25h-.41c-.11,0-.13,0-.13-.14s0-.27,0-.41h.54Z"/><path class="cls-5" d="M52.18,26.58h.54v.55h-.55v-.53Z"/><path class="cls-5" d="M44.6,14.64h1.08v.55H44.59v-.54Z"/><path class="cls-4" d="M44.59,15.73a1.91,1.91,0,0,1-.53,0v-.51h.54Z"/><path class="cls-4" d="M45.13,16.27H44.7c-.09,0-.11,0-.11-.11v-.43H45q.1,0,.09.09Z"/><path class="cls-4" d="M45.67,17.36h-.4c-.12,0-.14,0-.14-.14s0-.27,0-.41h.54Z"/><path class="cls-8" d="M47.31,19.52c.49,0,1,0,1.46,0,.16,0,.15,0,.16-.14s-.07-.3,0-.38.25,0,.37,0,.13,0,.14-.15-.07-.3,0-.38.24,0,.36,0,.14,0,.14-.14c0-.31,0-.63,0-.95h.54V19L50,19a1.87,1.87,0,0,0,0,.53v.53l-.51,0a2.33,2.33,0,0,0,0,.53H47.85l0-.51a1.56,1.56,0,0,0-.53,0Z"/><path class="cls-5" d="M50,19.53A1.87,1.87,0,0,1,50,19l.51,0v.54Z"/><path class="cls-7" d="M45.68,11.39c0,.49,0,1,0,1.48,0,.16,0,.15-.15.15s-.28,0-.37,0,0,.23,0,.36,0,.15-.17.15h-.91c0-.13,0-.27,0-.4s0-.15-.13-.15h-.41V12.5a3.2,3.2,0,0,0-.53,0h0v-.54a4.34,4.34,0,0,0,.51,0,2.39,2.39,0,0,0,0-.53h.4c.1,0,.15,0,.14-.13s0-.27,0-.4h1.08a4.26,4.26,0,0,0,0,.5,2.33,2.33,0,0,0,.53,0Z"/><path class="cls-8" d="M44.05,10.86c0,.13,0,.27,0,.4s0,.14-.14.13H43.5v-.54Z"/><path class="cls-8" d="M45.68,11.39a2.33,2.33,0,0,1-.53,0,4.26,4.26,0,0,1,0-.5h.55Z"/><path class="cls-4" d="M42.42,11.39H42c-.11,0-.14,0-.13-.14s0-.27,0-.41h.54Z"/><path class="cls-8" d="M43.51,11.39a2.39,2.39,0,0,1,0,.53,4.34,4.34,0,0,1-.51,0c0-.15,0-.3,0-.45s0-.09.1-.09Z"/><path class="cls-4" d="M43,13h-.41c-.11,0-.13,0-.13-.14s0-.27,0-.41H43Z"/><path class="cls-8" d="M32.12,52.07v.54H30v0c0-.14,0-.28,0-.43s0-.11.11-.1h2.06Z"/><path class="cls-8" d="M26.69,30.37h.11c.14,0,.3,0,.4,0s0,.25,0,.38,0,.15.14.14a0,0,0,0,1,0,0c.12,0,.28-.06.36,0s0,.23,0,.35v.59c0,.08,0,.12.11.11h.05c.12,0,.28-.06.36,0s0,.22,0,.34v2.17c0,.16,0,.15.16.16s.29-.06.36,0,0,.22,0,.34v4.74a1.2,1.2,0,0,1,0,.19c0,.08,0,.11.11.12.44,0,.43,0,.44-.41,0-.19,0-.38,0-.57s0-.12.11-.11h.08c.12,0,.26.05.34,0s0-.21,0-.32v-.62c0-.08,0-.11.1-.12s.33.07.41,0,0-.26,0-.39,0-.12.11-.12.3,0,.39,0,0,.25,0,.38,0,.15.14.14h0c.11,0,.26-.06.33,0s0,.21,0,.32,0,.41,0,.62,0,.11.11.11.33-.07.41,0,0,.26,0,.39,0,.11.1.12.33-.07.41,0,0,.26,0,.39,0,.11.11.12.32-.07.41,0,0,.25,0,.39,0,.11.11.11.32-.07.41,0,0,.26,0,.39,0,.11.11.11.33-.07.41,0,0,.26,0,.39,0,.11.1.12.33-.08.41,0,0,.26,0,.4,0,.1.11.11.32-.07.41,0,0,.25,0,.39,0,.1.11.11.32-.07.41,0,0,.26,0,.39,0,.11.11.11.33-.07.41,0,0,.26,0,.39,0,.11.11.11h.84c.11,0,.16,0,.14.14v0c0,.13-.06.29,0,.36s.22,0,.34,0h.6c.08,0,.1,0,.11.11s-.07.33,0,.41.25,0,.39,0,.11,0,.11.11,0,.28,0,.43h-.51a1.58,1.58,0,0,0,0,.53h-.52a1.91,1.91,0,0,0,0,.53h-.54a2.9,2.9,0,0,0-.51,0,1.39,1.39,0,0,0,0,.5c0,.19,0,.38,0,.56l-.51,0a2,2,0,0,0,0,.54v1.08H36c-.07,0-.1,0-.1.09s0,.3,0,.45h-.55V46.78c0-.11,0-.14-.14-.14s-.28,0-.36,0,0-.25,0-.38,0-.14-.14-.14-.31.07-.38,0,0-.26,0-.39v-.11h.16c.4,0,.4,0,.38-.42,0-.09,0-.13-.12-.12h-.42c0-.15,0-.3,0-.45s0-.1-.1-.1h-.45V44c0-.07,0-.1-.09-.1H33.2v-.45c0-.06,0-.09-.09-.09h-.45v-.16c0-.4,0-.4-.42-.38-.09,0-.13,0-.12.11v.43H32c-.13,0-.3,0-.4,0s0-.25,0-.39,0-.14-.14-.13H29c-.11,0-.14,0-.14.13,0,.27,0,.55,0,.82,0,.1,0,.13-.13.14s-.31-.07-.39,0,0,.26,0,.4v.1c0,.18,0,.35,0,.52a1.91,1.91,0,0,1-.53,0V43.39h.46c.05,0,.08,0,.08-.08V39.44c0-.43,0-.43-.45-.39-.06,0-.1,0-.09.09v4.25H27.4c-.16,0-.17,0-.17.18,0,.48,0,1,0,1.45H26.7c0-.1,0-.2,0-.3v-8c0-.13.06-.3,0-.38s-.25,0-.37,0-.14,0-.14-.16V35.12c0-.13.06-.3,0-.38s-.24,0-.36,0-.15,0-.14-.13V33.52c0-.14.06-.32,0-.41s-.24,0-.37,0h0c-.08,0-.12,0-.12-.1s0-.4,0-.6.06-.28,0-.36-.23,0-.34,0-.17,0-.17-.16c0-.44,0-.89,0-1.33,0-.1,0-.15-.14-.14s-.29,0-.37,0,0-.25,0-.38,0-.15-.13-.14-.29,0-.37,0,0-.25,0-.39,0-.13-.14-.14-.31.07-.38,0,0-.26,0-.4v-.1h1.49c.1,0,.14,0,.14.14s-.05.29,0,.37.25,0,.38,0,.14,0,.14.14-.07.31,0,.39.26,0,.39,0h.11v.51a1.87,1.87,0,0,0,.53,0h0v1c0,.09,0,.13.12.13s.28,0,.42,0v1.78c0,.12-.05.28,0,.36s.24,0,.37,0,.14,0,.14-.15c0-.5,0-1,0-1.49,0-.17,0-.33,0-.5a1.56,1.56,0,0,0-.53,0V30.37ZM27.78,35v-.44c0-.4,0-.39-.41-.38-.1,0-.14,0-.14.13,0,.37,0,.74,0,1.11s0,.4.4.39c.1,0,.14,0,.14-.14S27.78,35.21,27.78,35Z"/><path class="cls-5" d="M37.54,46.65h.54v.55a2.39,2.39,0,0,1-.53,0Z"/><path class="cls-5" d="M36.46,48.28a2,2,0,0,1,0-.54l.51,0v.55Z"/><path class="cls-8" d="M46.76,17.35v.55h-.54a1.56,1.56,0,0,1,0-.53Z"/><path class="cls-4" d="M46.21,18.44c-.13,0-.27,0-.4,0s-.14,0-.14-.14,0-.27,0-.41h.54Z"/><path class="cls-4" d="M52.19,40.68a1.87,1.87,0,0,1,0-.53l.51,0v.55Z"/><path class="cls-4" d="M48.39,43.93v-.41c0-.11,0-.14.14-.13h.4v.54Z"/><path class="cls-4" d="M50.56,42.84v-.43c0-.08,0-.11.11-.11h.43v.54Z"/><path class="cls-4" d="M49.47,43.39c0-.14,0-.28,0-.41s0-.14.14-.13H50v.54Z"/><path class="cls-4" d="M37,2.17h-.43c-.08,0-.11,0-.11-.11s0-.29,0-.43H37Z"/><path class="cls-4" d="M37.54,3.25h-.45c-.07,0-.09,0-.09-.09V2.71h.54Z"/><path class="cls-4" d="M38.08,3.8h-.43c-.09,0-.11,0-.11-.11V3.25h.54Z"/><path class="cls-4" d="M38.62,4.88h-.41c-.11,0-.13,0-.13-.14s0-.27,0-.4h.53Z"/><path class="cls-4" d="M39.17,6h-.45c-.07,0-.1,0-.09-.1V5.42h.54Z"/><path class="cls-4" d="M39.71,6.51h-.44c-.08,0-.11,0-.1-.11V6h.54Z"/><path class="cls-4" d="M40.25,7.6h-.41c-.11,0-.14,0-.13-.15s0-.27,0-.4h.54Z"/><path class="cls-4" d="M40.8,8.68h-.46c-.06,0-.09,0-.09-.1s0-.3,0-.45h.53Z"/><path class="cls-8" d="M34.29,51v.54H33.2c0-.13,0-.27,0-.4s0-.14.14-.14h.95Z"/><path class="cls-8" d="M33.2,52.07H32.11c0-.13,0-.27,0-.4s0-.14.14-.14h1Z"/><path class="cls-4" d="M41.33,9.22H40.9c-.08,0-.11,0-.11-.11s0-.29,0-.43h.54Z"/><path class="cls-4" d="M41.88,10.31h-.41c-.11,0-.14,0-.13-.14V9.76h.54Z"/><path class="cls-5" d="M49.47,20.61a2.33,2.33,0,0,1,0-.53l.51,0v.55Z"/><path class="cls-5" d="M47.85,20.61h1.62v.54a1.91,1.91,0,0,0-.53,0v.51h-.54v-.45c0-.07,0-.1-.1-.1h-.44Z"/><path class="cls-4" d="M48.38,22.24a1.82,1.82,0,0,1-.52,0l0-.51h.55Z"/><path class="cls-8" d="M54.35,30.38h-.41c-.11,0-.13-.05-.13-.15s0-.27,0-.4h.55Z"/><path class="cls-4" d="M51.64,41.76a2.39,2.39,0,0,1,0-.53h.51v.54Z"/><path class="cls-4" d="M36.46,1.63H36c-.07,0-.1,0-.1-.1s0-.3,0-.45h.55Z"/><path class="cls-4" d="M51.1,42.31v-.45c0-.07,0-.1.09-.1h.45v.54Z"/><path class="cls-5" d="M38.63,46.1a1.58,1.58,0,0,1,0-.53h.51v.54Z"/><path class="cls-5" d="M38.08,46.64a1.91,1.91,0,0,1,0-.53h.52v.54Z"/><path class="cls-8" d="M35.37,50.44h-.54v0c0-.14,0-.28,0-.42s0-.11.11-.11h.44Z"/><path class="cls-8" d="M34.83,51h-.55c0-.15,0-.29,0-.43s0-.11.1-.11h.43V51Z"/><path class="cls-1" d="M22.35,61.83c0-.15,0-.3,0-.45s0-.09.1-.09h.45v.54Z"/><path class="cls-1" d="M21.81,62.37v-.45c0-.06,0-.09.1-.09h.45v.54Z"/><path class="cls-1" d="M21.27,62.92v-.45c0-.07,0-.1.09-.1h.45v.54Z"/><path class="cls-7" d="M34.82,50.43h-.43c-.08,0-.11,0-.1.11s0,.28,0,.43h-.94c-.1,0-.15,0-.14.14s0,.27,0,.4h-1c-.1,0-.14,0-.14.14s0,.27,0,.4H30.06c-.08,0-.12,0-.11.1s0,.29,0,.43H26.85c-.15,0-.15,0-.16-.17s0-.26,0-.34-.24,0-.36,0h-.57c-.11,0-.14,0-.13-.14s0-.29,0-.37-.25,0-.38,0h-.54c-.09,0-.14,0-.14-.12s.07-.32,0-.41-.26,0-.39,0-.1,0-.11-.11.07-.32,0-.41-.26,0-.4,0-.1,0-.1-.11v-.82c0-.15,0-.14-.14-.16s-.3.07-.38,0,0-.24,0-.36,0-.14-.14-.14-.31.07-.39,0,0-.24,0-.37-.05-.13-.15-.13H20.37c-.21,0-.18,0-.19-.19s.05-.24,0-.32-.22,0-.33,0h-.6c-.08,0-.13,0-.13-.11s.07-.33,0-.41-.26,0-.4,0-.1,0-.1-.12.07-.32,0-.4-.26,0-.39,0-.11,0-.11-.12a1.21,1.21,0,0,0,0-.19c0-.27,0-.24-.25-.24s-.3,0-.3.3v.65c0,.09,0,.14.12.14s.32-.07.4,0,0,.26,0,.39,0,.1.12.11.32-.07.41,0,0,.26,0,.4,0,.1.11.1.33-.07.41,0,0,.27,0,.4,0,.11.11.1H20c.15,0,.15,0,.15.14s-.05.29,0,.37.25,0,.39,0h1.57c.21,0,.18,0,.18.19s0,.51,0,.76,0,.14.14.13.29,0,.37,0,0,.25,0,.38,0,.36,0,.54,0,.13.11.14.32-.07.41,0,0,.26,0,.39,0,.11.11.11h.81c.16,0,.16,0,.16.14s0,.28,0,.36-.24,0-.36,0-.15,0-.16.17.06.28,0,.35-.23,0-.34,0-.15,0-.16.17.06.28,0,.36-.23,0-.35,0-.14,0-.16.17.07.29,0,.36-.22,0-.34,0-.15,0-.16.17,0,.26,0,.33-.24,0-.36,0h-.54c-.16,0-.15,0-.16.14s.05.28,0,.37-.25,0-.38,0h-.54c-.12,0-.14,0-.14.14s.06.29,0,.37-.26,0-.39,0h-.54c-.08,0-.13,0-.13.12s.07.32,0,.41-.26,0-.4,0-.1,0-.1.11.07.33,0,.41-.27,0-.42,0h-.61l0-.5c-.17-.07-.35,0-.52,0,0-.14,0-.29,0-.43s0-.11-.11-.11h-.43v-.43c0-.08,0-.11-.11-.11h-.43a4.35,4.35,0,0,0,0-.51,1.58,1.58,0,0,0-.53,0l-.54,0v-.5c-.17-.07-.35,0-.53,0V53.8c0-.08,0-.11-.11-.11s-.29,0-.43,0,0-.29,0-.43,0-.11-.11-.11h-.43c0-.15,0-.29,0-.43s0-.11-.1-.11H12.6c0-.14,0-.28,0-.42s0-.11-.11-.11h-.43v-.43c0-.08,0-.11-.11-.11h-.43v-.43c0-.08,0-.11-.11-.11H11c0-.15,0-.29,0-.43s0-.11-.11-.11h-.43V49.36a4.35,4.35,0,0,0,.51,0,1.87,1.87,0,0,0,0-.53h.45c.07,0,.1,0,.1-.09s0-.3,0-.45v-.54h.36c.18,0,.18,0,.18-.17s0-.25,0-.38l0-.53h.35c.19,0,.19,0,.18-.16v-.92H13c.19,0,.19,0,.18-.17V43.93h.35c.19,0,.19,0,.19-.17s0-.25,0-.38c0-.62,0-1.24,0-1.86v-.3h1.08v1c0,.09,0,.13.12.13h.42c0,.14,0,.27,0,.41s0,.14.16.14c.48,0,.37.09.39-.39,0-.11,0-.17-.15-.16h-.4v-1c0-.09,0-.14-.11-.13h-.43V34.83c0-.1,0-.12-.13-.12h-.4V31.46h.35c.19,0,.18,0,.18-.17v-2h.35c.19,0,.19,0,.18-.17V27.66h.35c.19,0,.19,0,.19-.17s0-.25,0-.38v-.53h.36c.18,0,.18,0,.18-.17s0-.25,0-.38l0-.54a4.21,4.21,0,0,0,.5,0,2.39,2.39,0,0,0,0-.53h.45c.07,0,.09,0,.09-.09V24.4h0c.15,0,.3,0,.45,0s.1,0,.1-.1,0-.3,0-.45h.45c.07,0,.1,0,.1-.09v-.45H19c.1,0,.15,0,.14-.13s0-.27,0-.4l.54,0h.45c.07,0,.1,0,.1-.09s0-.3,0-.45h.41c.1,0,.15,0,.14-.13s0-.27,0-.41h1c.06,0,.09,0,.09-.1v-.45h.4c.1,0,.15,0,.15-.13s0-.27,0-.4l.53,0h.45c.07,0,.1,0,.1-.09v-.45h.45c.06,0,.09,0,.09-.1v-.45h.45c.07,0,.1,0,.09-.1V19h1c.09,0,.13,0,.13-.11s0-.29,0-.43h.45c.06,0,.09,0,.09-.09v-1a2.77,2.77,0,0,0,.5,0,1.56,1.56,0,0,0,0-.53V15.73h1.08c0,.15,0,.29,0,.43s0,.11.1.11h.43l0,.54c0,.49,0,1,0,1.46v.59c0,.1,0,.13-.12.12h-.33c-.07,0-.09,0-.09.1v1.4c0,.09,0,.14-.12.13h-.27c-.15,0-.15,0-.15.14s0,.55,0,.82c0,.08,0,.13-.12.13s-.3-.06-.39,0,0,.27,0,.41,0,.11-.12.11h-1c0-.14,0-.27,0-.4s-.05-.15-.16-.15c-.48,0-.37-.09-.39.39,0,.11,0,.17.15.16h.4v.65c0,.13,0,.3,0,.39s-.25,0-.38,0h0c-.08,0-.12,0-.12.11s0,.36,0,.54,0,.3,0,.4-.25,0-.38,0h0c-.08,0-.11,0-.11.1s0,.42,0,.63,0,.24,0,.31-.22,0-.33,0-.19,0-.19.19V27c0,.08,0,.14-.11.14s-.3,0-.39,0,0,.27,0,.41,0,.11-.11.11h-.6c-.11,0-.26,0-.34,0s0,.24,0,.36,0,.16-.17.16H20.05c-.44,0-.44,0-.41.44v0a.07.07,0,0,0,.08.08H22.9v.1c0,.14,0,.31,0,.4s.25,0,.38,0,.14,0,.14.14-.06.31,0,.39.24,0,.37,0,.13,0,.13.14-.06.3,0,.38.24,0,.37,0,.14,0,.14.14c0,.44,0,.89,0,1.33,0,.16,0,.16.17.16S25,32,25,32s0,.24,0,.36,0,.4,0,.6,0,.11.12.1h0c.13,0,.3,0,.37,0s0,.27,0,.41v1.06c0,.11,0,.14.14.13s.28,0,.36,0,0,.25,0,.38v1.06c0,.15,0,.15.14.16s.29,0,.37,0,0,.25,0,.38v8c0,.1,0,.2,0,.3v.54h-.4c-.12,0-.14,0-.14.15v.94H25.7c-.07,0-.09,0-.09.1v.45h-.45q-.11,0-.09.09v.45c-.14,0-.27,0-.4,0s-.15,0-.15.15c0,.48-.09.37.39.39.11,0,.17,0,.16-.14s0-.27,0-.4h.46a.08.08,0,0,0,.09-.09v-.45h.45c.06,0,.09,0,.09-.1v-.45h.4c.13,0,.16,0,.14-.16v-.05c0-.11,0-.24,0-.31s.2,0,.31,0,.21,0,.21-.19v-.35h.44c.07,0,.1,0,.1-.09V45h0a1.91,1.91,0,0,0,.53,0c0-.17,0-.34,0-.52v-.1c0-.14,0-.31,0-.4s.26,0,.39,0,.14,0,.13-.14c0-.27,0-.55,0-.82,0-.11,0-.14.14-.13h2.44c.11,0,.14,0,.14.13s-.07.31,0,.39.27,0,.4,0h.11v.45c0,.07,0,.09.09.09h.45v.45c0,.07,0,.1.09.1h.45v.45c0,.07,0,.1.09.1h.45c0,.15,0,.3,0,.45s0,.09.1.09h.45v.11c0,.13,0,.3,0,.39s.25,0,.38,0,.14,0,.14.14-.06.3,0,.38.24,0,.36,0,.14,0,.14.14v3.11h-.43c-.08,0-.11,0-.11.11S34.82,50.29,34.82,50.43ZM21.27,52.61h.11c.13,0,.3,0,.39,0s0-.25,0-.38,0-.13.14-.14.31.07.38,0,0-.26,0-.4,0-.11-.1-.11H20.84c-.08,0-.12,0-.11.11s0,.29,0,.43l-.5,0c-.07.17,0,.35,0,.53h-.43c-.08,0-.11,0-.11.11v.57c0,.12,0,.28,0,.37s-.24,0-.36,0a0,0,0,0,1-.05,0c-.08,0-.11,0-.11.11v.57c0,.44,0,.44.43.41.08,0,.11,0,.11-.11s0-.3,0-.39.26,0,.4,0,.12,0,.12-.11-.05-.31,0-.39.27,0,.41,0,.11,0,.11-.11,0-.29,0-.43l.51,0A1.87,1.87,0,0,0,21.27,52.61Z"/><path class="cls-8" d="M14.76,41.22H13.68v-.54a2.33,2.33,0,0,0,.53,0c0-.17,0-.34,0-.51V35c0-.1,0-.2,0-.3h.4c.09,0,.14,0,.13.12v6.39Z"/><path class="cls-8" d="M14.76,30.91v.38c0,.17,0,.17-.18.17h-.35v-.55Z"/><path class="cls-1" d="M9.88,51H8.79v-.54H9.88V51Z"/><path class="cls-8" d="M11,48.81a1.87,1.87,0,0,1,0,.53,4.35,4.35,0,0,1-.51,0v-.55Z"/><path class="cls-2" d="M9.34,50.44H8.8V49.9a1.91,1.91,0,0,1,.53,0Z"/><path class="cls-8" d="M10.42,49.89v.56H9.88a1.56,1.56,0,0,1,0-.53Z"/><path class="cls-8" d="M13.67,43.38c0,.13,0,.26,0,.38s0,.18-.19.17h-.35v-.54Z"/><path class="cls-8" d="M15.3,28.74v.38c0,.17,0,.17-.18.17h-.35v-.55Z"/><path class="cls-6" d="M35.37,8.68a1.87,1.87,0,0,0,0-.53l-.51,0V7.19c0-.11,0-.15-.14-.14h-.4c0-.32,0-.63,0-1,0-.1,0-.14-.14-.14h-.4c0-.17,0-.35,0-.52l-.51,0V4.48c0-.11,0-.15-.13-.14h-.41V3.39c0-.11,0-.14-.14-.14h-.4V1.63h.54v.65c0,.13,0,.3,0,.39s.25,0,.38,0h0c.08,0,.11,0,.11.11s0,.36,0,.54-.06.32,0,.41.24,0,.37,0h0c.08,0,.12,0,.11.1s0,.37,0,.55-.07.31,0,.41.24,0,.37,0h0c.08,0,.11,0,.11.11s0,.3,0,.39.27,0,.41,0,.11,0,.11.11,0,.36,0,.54-.07.32,0,.41.24,0,.36,0h0c.08,0,.11,0,.11.11s0,.36,0,.54-.06.32,0,.41.24,0,.37,0h0c.08,0,.12,0,.11.11s0,.31,0,.39.27,0,.41,0,.11,0,.11.11a4.86,4.86,0,0,0,0,.54c0,.15-.07.32,0,.42s.24,0,.36,0h0c.08,0,.11,0,.11.11v.86c0,.08,0,.12-.11.12h-.43a2.33,2.33,0,0,0,0-.53l-.52,0c0-.31,0-.63,0-.95,0-.1,0-.14-.14-.13Z"/><path class="cls-4" d="M36.46,10.31h.43c.09,0,.11,0,.11-.12V9.33c0-.09,0-.12-.11-.11h0c-.12,0-.29,0-.36,0s0-.27,0-.42a4.86,4.86,0,0,1,0-.54c0-.08,0-.1-.11-.11s-.33.07-.41,0,0-.26,0-.39,0-.11-.11-.11h0c-.13,0-.3,0-.37,0s0-.27,0-.41,0-.36,0-.54,0-.12-.11-.11h0c-.12,0-.29,0-.36,0s0-.27,0-.41,0-.36,0-.54,0-.1-.11-.11-.33.07-.41,0,0-.26,0-.39,0-.12-.11-.11h0c-.13,0-.29,0-.37,0s0-.27,0-.41,0-.37,0-.55,0-.11-.11-.1h0c-.13,0-.3,0-.37,0s0-.27,0-.41,0-.36,0-.54,0-.12-.11-.11h0c-.13,0-.3.07-.38,0s0-.26,0-.39V1.63h.54v.11c0,.13,0,.3,0,.39s.25,0,.38,0,.14,0,.14.14-.07.3,0,.38.25,0,.37,0,.14,0,.14.14c0,.27,0,.54,0,.81,0,.11,0,.15.14.14h0c.12,0,.28-.06.36,0s0,.22,0,.34v.59c0,.08,0,.12.11.11H35c.12,0,.29-.06.36,0s0,.24,0,.37v.57c0,.07,0,.1.11.11s.32-.07.41,0,0,.25,0,.39,0,.12.11.11h0c.13,0,.29-.06.36,0s0,.24,0,.36,0,.38,0,.57,0,.11.11.12.33-.07.41,0,0,.26,0,.39,0,.12.1.12h.06c.12,0,.29-.06.36,0s0,.24,0,.37v.57c0,.08,0,.12.11.11h.08c.11,0,.25-.05.33,0s0,.2,0,.31,0,.42,0,.62,0,.11-.1.12-.33-.07-.41,0,0,.26,0,.4,0,.11-.13.11h-.95Z"/><path class="cls-4" d="M36.45,11.39c0,.15,0,.3,0,.45s0,.09-.1.09h-.45v-.54Z"/><path class="cls-3" d="M25.07,14.64v-.53c0-.14,0-.28,0-.41s0-.15-.14-.14h-.4V13L25,13a2.33,2.33,0,0,0,0-.53h.54v1.25c0,.4,0,.4.4.38.11,0,.15,0,.14-.13V13c0-.17,0-.34,0-.51a1.58,1.58,0,0,0-.53,0v-.54h1.08v1.25c0,.4,0,.39.41.38.11,0,.14,0,.14-.14,0-.31,0-.63,0-.95s0-.34,0-.51a1.87,1.87,0,0,0-.53,0v-.54h1.08v1.25c0,.39,0,.39.4.38.11,0,.14,0,.14-.14s-.06-.31,0-.38.26,0,.39,0h.11v1.07h-.94c-.1,0-.15,0-.14.13v.41h-1c-.1,0-.15,0-.14.13s0,.27,0,.41H25.07Z"/><path class="cls-4" d="M25.07,12.47A2.33,2.33,0,0,1,25,13l-.51,0v-.54Z"/><path class="cls-4" d="M24.53,13.56h.4c.12,0,.14,0,.14.14s0,.27,0,.41h-.54Z"/><path class="cls-6" d="M30,11.39h.54v1.08H30Z"/><path class="cls-4" d="M28.86,13.55V12.48h.54v1.09h-.54Z"/><path class="cls-6" d="M29.41,13v-.55H30a1.82,1.82,0,0,1,0,.52Z"/><path class="cls-6" d="M29.4,13.56H30v.54H29.4v-.54Z"/><path class="cls-4" d="M30,14.1v-.54h.54v.54H30Z"/><path class="cls-8" d="M13.13,45v.38c0,.17,0,.17-.18.17H12.6V45Z"/><path class="cls-8" d="M15.84,27.11c0,.13,0,.26,0,.38s0,.17-.19.17h-.35v-.54Z"/><path class="cls-4" d="M25.07,14.64h1.08v.54H25.07Z"/><path class="cls-9" d="M26.69,15.73v1.08h-.54V15.73Z"/><path class="cls-10" d="M26.69,15.73h-.53v-.54h.54v.54Z"/><path class="cls-10" d="M26.15,16.27v.54h-.53v-.55Z"/><path class="cls-6" d="M33.2,1.63h-.54V1.09h.54v.54Z"/><path class="cls-4" d="M33.2,1.63V1.09h.54v.45c0,.07,0,.1-.09.1Z"/><path class="cls-8" d="M25.61,18.44c0,.14,0,.28,0,.43s0,.12-.13.11h-1v-.54h1.09Z"/><path class="cls-10" d="M25.06,17.35h.55v.55h-.54Z"/><path class="cls-9" d="M25.07,17.9h.54v.54h-.54Z"/><path class="cls-8" d="M12.59,46.1v.38c0,.16,0,.17-.18.16h-.35V46.1Z"/><path class="cls-8" d="M12,47.18c0,.13,0,.25,0,.38s0,.17-.18.17h-.36v-.55Z"/><path class="cls-8" d="M11.5,48.27c0,.15,0,.3,0,.45s0,.1-.1.09H11v-.54Z"/><path class="cls-1" d="M8.79,51c0,.15,0,.3,0,.45s0,.1-.1.1H8.25V51Z"/><path class="cls-4" d="M27.78,11.39h-.55v-.54h.94c.11,0,.15,0,.14-.14s0-.27,0-.4H29.4v.54H29c-.11,0-.14,0-.14.13,0,.5,0,1,0,1.49h-.11c-.13,0-.3,0-.39,0s0,.25,0,.38,0,.14-.14.14c-.4,0-.4,0-.4-.38v-.71h.38c.16,0,.16,0,.16-.16s0-.27,0-.34-.24,0-.36,0Z"/><path class="cls-4" d="M26.69,11.93h-.54v-.54h.55v.54Z"/><path class="cls-4" d="M25.61,11.94v.54h-.54v-.54Z"/><path class="cls-4" d="M35.37,11.94c0,.13,0,.27,0,.4s0,.14-.14.14h-.4v-.54Z"/><path class="cls-8" d="M22.36,20.62c0,.13,0,.27,0,.4s-.05.14-.15.13h-.4v-.54Z"/><path class="cls-8" d="M23.44,20.07v.45c0,.07,0,.09-.1.09h-.45v-.53Z"/><path class="cls-4" d="M34.29,12.48c0,.13,0,.27,0,.41s0,.13-.14.13h-.41v-.53Z"/><path class="cls-8" d="M20.73,21.7c0,.14,0,.27,0,.41s0,.13-.14.13h-.41v-.55Z"/><path class="cls-8" d="M21.81,21.15v.45c0,.07,0,.1-.09.1h-.46v-.54Z"/><path class="cls-4" d="M33.2,13c0,.14,0,.27,0,.41s0,.14-.14.13h-.4V13Z"/><path class="cls-8" d="M19.1,22.79c0,.13,0,.27,0,.4s0,.14-.14.13h-.4v-.54Z"/><path class="cls-8" d="M20.18,22.24c0,.15,0,.3,0,.45s0,.09-.1.09h-.45v-.53Z"/><path class="cls-4" d="M32.12,13.56c0,.14,0,.28,0,.41s0,.14-.14.13h-.41v-.54Z"/><path class="cls-8" d="M16.38,26c0,.13,0,.25,0,.38s0,.17-.18.17h-.36V26Z"/><path class="cls-8" d="M16.93,25a2.39,2.39,0,0,1,0,.53,4.21,4.21,0,0,1-.5,0V25Z"/><path class="cls-4" d="M31,14.11v.4c0,.12,0,.14-.14.14h-.4V14.1H31Z"/><path class="cls-9" d="M25.61,17.9V16.82h.53V17.9Z"/><path class="cls-4" d="M30,12.47h-.54V10.85H30v1.62Z"/><path class="cls-8" d="M24.52,19v.45c0,.07,0,.1-.09.1H24V19Z"/><path class="cls-8" d="M24,19.52V20c0,.07,0,.1-.09.1h-.45v-.55Z"/><path class="cls-8" d="M17.47,24.4v.46c0,.06,0,.09-.09.09h-.45v-.54Z"/><path class="cls-8" d="M18,23.86c0,.15,0,.3,0,.45s0,.1-.1.1-.3,0-.45,0v-.55Z"/><path class="cls-8" d="M18.56,23.32v.45c0,.07,0,.1-.1.09H18v-.54Z"/><path class="cls-1" d="M8.25,51.52V52a.08.08,0,0,1-.09.09H7.71v-.54Z"/><path class="cls-2" d="M18,58h-.54v-.45c0-.07,0-.09.1-.09H18V58Z"/><path class="cls-2" d="M17.47,58a1.87,1.87,0,0,1,0,.53l-.51,0h0V58h.54Z"/><path class="cls-2" d="M18.56,58.58a1.87,1.87,0,0,1-.53,0L18,58h.55v.55Z"/><path class="cls-2" d="M16.93,58.58a1.91,1.91,0,0,1,0,.53h-.51v-.54h.54Z"/><path class="cls-2" d="M15.84,59.65v-.53h.54v.45c0,.07,0,.09-.1.09Z"/><path class="cls-1" d="M15.3,59.12a2.33,2.33,0,0,1,0-.53h.52v.54H15.3Z"/><path d="M19.64,59.12h-.45A.08.08,0,0,1,19.1,59v-.45h1.08v.54h-.54Z"/><path d="M20.73,59.11h.54v.54H20.19v-.54h.54Z"/><path d="M22.36,60.2H21.27v-.54h1c.09,0,.13,0,.13.12A2.94,2.94,0,0,0,22.36,60.2Z"/><path d="M18.56,58.58V58l.51,0a1.87,1.87,0,0,1,0,.53h-.54Z"/><path class="cls-1" d="M20.19,59.12v.54a2,2,0,0,1-.54,0v-.51Z"/><path class="cls-1" d="M21.27,59.66v.54a1.56,1.56,0,0,1-.53,0v-.51Z"/><path class="cls-4" d="M39.71,43.39H38.63l0-.51a1.56,1.56,0,0,0-.53,0h0v-.11c0-.13,0-.3,0-.39s-.25,0-.38,0a0,0,0,0,0,0,0c-.08,0-.11,0-.11-.11s0-.31,0-.4-.27,0-.41,0-.11,0-.11-.12,0-.3,0-.39-.27,0-.41,0-.11,0-.11-.11,0-.31,0-.39-.27,0-.41,0-.11,0-.11-.11,0-.31,0-.39-.27,0-.41,0-.11,0-.11-.11,0-.31,0-.4-.27,0-.41,0-.11,0-.11-.12v-.57c0-.12,0-.28,0-.36s-.23,0-.35,0h-.06c-.08,0-.11,0-.1-.11s0-.31,0-.39-.27,0-.41,0-.11,0-.11-.11a5.42,5.42,0,0,0,0-.57c0-.13,0-.28,0-.37s-.24,0-.36,0h0c-.08,0-.11,0-.11-.11V36.2c0-.12,0-.28,0-.37s-.24,0-.36,0h0c-.09,0-.11,0-.11-.11s0-.31,0-.4-.27,0-.41,0-.11,0-.1-.12v-.57c0-.12,0-.28,0-.36s-.23,0-.36,0h-.05c-.08,0-.11,0-.11-.11a5.42,5.42,0,0,0,0-.57c0-.13,0-.28,0-.37s-.23,0-.36,0h-.05c-.08,0-.11,0-.11-.11s0-.3,0-.39-.27,0-.41,0-.11,0-.11-.11v-.62c0-.11,0-.25,0-.32s-.22,0-.34,0h-.08c-.08,0-.1,0-.1-.11v-.63c0-.1,0-.24,0-.31s-.21,0-.33,0h-.08c-.08,0-.11,0-.11-.11s.05-.31,0-.39-.27,0-.41,0-.11,0-.11-.11,0-.42,0-.62.05-.25,0-.32-.22,0-.33,0a.11.11,0,0,0-.08,0c-.09,0-.11,0-.11-.12V28c0-.11.05-.24,0-.31s-.22,0-.34,0h-.08c-.08,0-.1,0-.1-.11v-.62c0-.11,0-.24,0-.32s-.22,0-.34,0h-.05c-.11,0-.14,0-.14-.14,0-.5,0-1,0-1.49v-.54h.55V25c0,.17,0,.34,0,.51a1.87,1.87,0,0,0,.53,0c0,.18,0,.36,0,.54a1.56,1.56,0,0,0,0,.53l.51,0v.51a1.91,1.91,0,0,0,.53,0c0,.15,0,.3,0,.45s0,.09.1.09H30v1c0,.08,0,.11.1.12s.33-.07.41,0,0,.26,0,.4,0,.12.11.11h0c.12,0,.29-.06.36,0s0,.24,0,.36v.57c0,.08,0,.12.11.11h.05c.12,0,.29-.06.36,0s0,.24,0,.37a5.42,5.42,0,0,1,0,.57c0,.07,0,.12.11.11h.05c.13,0,.29-.06.36,0s0,.24,0,.36v.57c0,.08,0,.11.1.11s.33-.07.41,0,0,.26,0,.39,0,.12.11.11h0c.12,0,.29-.06.36,0s0,.24,0,.37v.57c0,.08,0,.11.11.11s.32-.07.41,0,0,.26,0,.39,0,.12.11.11h0c.13,0,.29-.06.36,0s0,.24,0,.37v.57c0,.07,0,.1.1.11s.33-.07.41,0,0,.25,0,.39,0,.12.11.11H35c.12,0,.29-.06.36,0s0,.24,0,.36v.57c0,.08,0,.12.11.11h.05c.12,0,.29-.06.36,0s0,.24,0,.37a5.42,5.42,0,0,1,0,.57c0,.08,0,.12.11.11h0c.13,0,.29-.06.36,0s0,.24,0,.36,0,.38,0,.57,0,.12.11.11h.06c.12,0,.29-.06.35,0s0,.24,0,.37v.57c0,.08,0,.11.11.11s.32-.07.41,0,0,.26,0,.39,0,.11.11.11.32-.07.41,0,0,.26,0,.39,0,.11.11.12.33-.08.41,0,0,.26,0,.4,0,.1.11.11.33-.07.41,0,0,.25,0,.39,0,.12.11.11h0c.13,0,.31-.07.39,0s0,.26,0,.39Z"/><path d="M34.83,28.2H31.58v-.54h3.26Z"/><path class="cls-4" d="M30,14.65v1.49c0,.1,0,.13.13.13s.31-.06.39,0,0,.26,0,.39v.11H30a.08.08,0,0,0-.09.09v.45h-.54V14.64Z"/><path d="M44.59,30.91a1.87,1.87,0,0,1,.53,0c0,.17,0,.34,0,.51v2c0,.21,0,.19-.19.19h-.35V30.91Z"/><path class="cls-4" d="M44.05,19h.41c.11,0,.13,0,.13.14v2.44c0,.1,0,.14-.13.14h-.41V19Z"/><path class="cls-4" d="M39.71,29.83H39.3c-.11,0-.14,0-.13-.14V27.26c0-.11,0-.15.13-.14h.41v2.71Z"/><path class="cls-4" d="M47.85,40.68H47.3V40.3c0-.16,0-.17-.18-.17H46.4c-.19,0-.18,0-.18-.17v-.38h1.63Z"/><path class="cls-4" d="M48.93,36.34h.55v1.08h-.55c0-.13,0-.27,0-.4s0-.14-.13-.14H48c-.08,0-.12,0-.12-.11s0-.28,0-.43h1.09Z"/><path class="cls-4" d="M44.59,40.68h-.43c-.09,0-.12,0-.11-.11v0c0-.13.06-.31,0-.38s-.26,0-.39,0h-.55c-.08,0-.11,0-.11-.11s0-.29,0-.43h1.63v1.08Z"/><path class="cls-4" d="M49.48,39.59h-.55v-.37c0-.17,0-.17-.18-.17H48c-.19,0-.19,0-.18-.17v-.37h1.63Z"/><path class="cls-4" d="M47.3,35.25h.55v1.08H47.3c0-.14,0-.27,0-.41s0-.14-.14-.14h-.84c-.08,0-.11,0-.11-.11v-.43H47.3Z"/><path class="cls-4" d="M43,39.6h-.43c-.08,0-.12,0-.11-.11v0c0-.13,0-.3,0-.37s-.27,0-.41,0h-.55c-.08,0-.11,0-.1-.11v-.43H43v1.08Z"/><path class="cls-4" d="M51.1,38.51h-.54c0-.14,0-.27,0-.41s0-.14-.14-.14h-.84c-.08,0-.11,0-.11-.11s0-.29,0-.43H51.1Z"/><path class="cls-4" d="M46.22,41.76h-.54a2.39,2.39,0,0,0,0-.53h-.51a1.64,1.64,0,0,1-.54,0v-.51h1.63Z"/><path d="M42.42,38.51H41.34V37.43h.54v.51a1.87,1.87,0,0,0,.53,0Z"/><path d="M50.56,37.42H49.48V36.34H50l0,.51a1.82,1.82,0,0,0,.52,0Z"/><path d="M43,36.34h.53l0,.51a1.87,1.87,0,0,0,.53,0v.54H43Z"/><path d="M47.85,36.34V35.26h.54v.51a1.87,1.87,0,0,0,.53,0v.54Z"/><path d="M45.14,26h1.62v.54H45.13Z"/><path class="cls-4" d="M34.83,28.2v-.54h1.63v0a2.07,2.07,0,0,1,0,.5h-1.6Z"/><path d="M44.59,35.26h.54l0,.51a1.82,1.82,0,0,0,.52,0v.54H44.59Z"/><path d="M37,30.92h1.62v.54H37Z"/><path d="M47.3,35.25H46.22V34.17h.54v.51a1.87,1.87,0,0,0,.53,0Z"/><path d="M31,27.67H30v-.54H31a2.9,2.9,0,0,1,.51,0,1.9,1.9,0,0,1,0,.53H31Z"/><path d="M44.59,41.77h.54l0,.5c.17.07.35,0,.52,0v.53H44.59Z"/><path d="M46.22,41.76V40.68h.54v.51a1.87,1.87,0,0,0,.53,0v.54Z"/><path d="M47.3,26.58V28.2h-.54V26.58h.54Z"/><path d="M47.85,40.68V39.6h.54v.5a1.87,1.87,0,0,0,.53,0v.53Z"/><path d="M37.54,13h1.62v.54H37.54Z"/><path d="M46.76,28.74H45.14V28.2h1.63Z"/><path d="M38.62,33.62H37v-.53h1.63Z"/><path d="M49.48,39.59V38.51H50L50,39a1.82,1.82,0,0,0,.52,0v.51a1.46,1.46,0,0,1-.51,0Z"/><path class="cls-4" d="M44.59,28.21h-.43c-.09,0-.11,0-.11-.11v-1.4c0-.08,0-.12.11-.11h.43V28.2Z"/><path class="cls-4" d="M36.45,33.09c-.14,0-.29,0-.43,0s-.11,0-.11-.12v-1.4c0-.08,0-.12.11-.11h.44v1.62Z"/><path d="M51.1,38.51V37.43h.54v.51a1.91,1.91,0,0,0,.53,0v.51a1.67,1.67,0,0,1-.5,0Z"/><path d="M39.16,31.46v1.62h-.53V31.46h.53Z"/><path d="M39.16,26.57H37.54V26h1.63Z"/><path d="M47.85,33.09h.54v.51a1.87,1.87,0,0,0,.53,0v.54H47.85Z"/><path d="M52.74,32.54v.55h-.54V31.45h.54Z"/><path class="cls-4" d="M44.59,42.85h1.08c0,.15,0,.29,0,.43s0,.12-.1.12h-.89c-.08,0-.1,0-.1-.11Z"/><path class="cls-4" d="M43,16.81l.51,0a1.57,1.57,0,0,1,0,.53c0,.18,0,.36,0,.54H43V16.82Z"/><path class="cls-4" d="M43.51,17.9H44a1.56,1.56,0,0,1,0,.53c0,.18,0,.36,0,.54h-.54V17.9Z"/><path d="M46.21,18.44V17.9h.54V19h-.54Z"/><path d="M47.31,19.52v.55h-.54V19h.54Z"/><path d="M47.85,20.61v.54h-.54V20.07h0a1.56,1.56,0,0,1,.53,0Z"/><path d="M43.51,22.24v.54H43V21.7h.54Z"/><path d="M43,13v-.55a3.2,3.2,0,0,1,.53,0v1.06H43Z"/><path class="cls-4" d="M39.17,13.56V13h.91c.21,0,.18,0,.18.19v.35H39.17Z"/><path d="M40.79,25.49H39.71V25H40.8Z"/><path d="M50,26h.53l0,.53v.55H50V26Z"/><path d="M36.46,13.56h1.08v.54H36.46Z"/><path class="cls-4" d="M37.54,26.58h1.09c0,.14,0,.29,0,.43s0,.11-.12.11h-1v-.54Z"/><path d="M40.26,26.58h1.07v.54H40.25Z"/><path d="M44.05,13.56v1.09h-.54V13.56h.54Z"/><path class="cls-4" d="M37.54,27.12v.51a1.58,1.58,0,0,1-.53,0c-.18,0-.36,0-.54,0h0v-.54Z"/><path d="M30,14.65h-.54V14.1h1.08v.54Z"/><path class="cls-4" d="M44.59,35.26v1.08h-.54v-1c0-.09,0-.13.12-.13Z"/><path d="M35.37,14.1h1.09v.54H35.37Z"/><path d="M43,28.21v1.07h-.54V28.2Z"/><path d="M42.42,29.83H41.34v-.54h1.08Z"/><path d="M41.33,30.37H40.26v-.54h1.09Z"/><path d="M34.29,14.65h1.08v.55H34.29Z"/><path d="M43.51,30.38h1c.08,0,.12,0,.12.11s0,.29,0,.43H43.51Z"/><path d="M42.43,30.92h1.08v.54H42.42Z"/><path class="cls-4" d="M41.88,32.54h-.44c-.08,0-.1,0-.1-.11v-.86c0-.08,0-.12.1-.11h.44v1.08Z"/><path class="cls-4" d="M47.85,33.09v1.08H47.3c0-.32,0-.64,0-1,0-.09,0-.13.12-.13Z"/><path d="M52.73,33.09h.54v1.08h-.54V33.08Z"/><path d="M33.2,15.19h1.09v.54H33.2Z"/><path d="M44.59,33.63a1.91,1.91,0,0,1,0,.53H43.51v-.54h1.08Z"/><path class="cls-4" d="M46.22,34.17v1.08h-.54c0-.33,0-.65,0-1,0-.09,0-.13.12-.12Z"/><path class="cls-4" d="M41.88,15.18h.43c.09,0,.11,0,.11.11v1h-.54V15.19Z"/><path class="cls-4" d="M47.85,34.17h1.08v.43c0,.07,0,.11-.1.11H48c-.09,0-.11,0-.11-.11S47.85,34.31,47.85,34.17Z"/><path d="M32.12,15.73H33.2v.54H32.12Z"/><path class="cls-4" d="M43,36.34v1.08h-.55v-1c0-.09,0-.13.12-.12Z"/><path class="cls-4" d="M41.34,37.43v1.08H41c-.27,0-.24,0-.24-.24s0-.48,0-.72c0-.09,0-.13.12-.13Z"/><path class="cls-4" d="M47.85,40.68h1.08v.43c0,.08,0,.12-.1.12H48c-.09,0-.11,0-.11-.11S47.85,40.82,47.85,40.68Z"/><path class="cls-4" d="M44.59,41.77v1.08H44.3c-.28,0-.25,0-.25-.24v-.72c0-.09,0-.13.12-.13Z"/><path class="cls-4" d="M46.22,41.76H47.3v.43c0,.07,0,.12-.1.12-.29,0-.59,0-.88,0-.09,0-.1-.05-.1-.12Z"/><path d="M30.49,16.81h1.08v.55H30.49v-.54Z"/><path class="cls-4" d="M37.54,13.56H37c0-.13,0-.27,0-.4s0-.14.14-.13h.4Z"/><path class="cls-4" d="M36.46,14.1h-.55c0-.14,0-.27,0-.41s0-.14.14-.13h.41Z"/><path class="cls-4" d="M40.25,13.56a1.87,1.87,0,0,1,.53,0l0,.51h-.55v-.54Z"/><path class="cls-4" d="M43.51,13.56v.54h-.4c-.12,0-.14,0-.14-.14s0-.27,0-.4Z"/><path class="cls-4" d="M35.37,14.64h-.54c0-.14,0-.27,0-.41s0-.14.14-.13h.4Z"/><path class="cls-4" d="M40.8,14.1a1.91,1.91,0,0,1,.53,0v.51h-.55V14.1Z"/><path class="cls-4" d="M34.29,15.19h-.55c0-.13,0-.27,0-.4s0-.14.14-.14h.41Z"/><path class="cls-4" d="M41.34,14.64a1.59,1.59,0,0,1,.53,0v.5h-.54v-.54Z"/><path class="cls-4" d="M43.51,14.64h.54v.54h-.43c-.09,0-.12,0-.11-.13Z"/><path class="cls-4" d="M33.2,15.73h-.54c0-.13,0-.27,0-.4s0-.14.14-.14h.4Z"/><path class="cls-4" d="M32.12,15.73v.54h-.55c0-.14,0-.28,0-.42s0-.13.13-.12Z"/><path class="cls-4" d="M31.57,16.81H31a1.87,1.87,0,0,1,0-.53h.52v.54Z"/><path class="cls-4" d="M42.42,16.27a1.87,1.87,0,0,1,.53,0l0,.51h-.55v-.54Z"/><path class="cls-4" d="M46.76,19v.55c-.14,0-.27,0-.41,0s-.14,0-.13-.14V19Z"/><path class="cls-4" d="M37,33.09v.53h-.42c-.09,0-.13,0-.13-.12s0-.28,0-.42H37Z"/><path class="cls-4" d="M38.63,33.08h.53c0,.15,0,.3,0,.45s0,.1-.1.1h-.45Z"/><path class="cls-4" d="M43,33.63a1.91,1.91,0,0,1-.53,0v-.51H43v.54Z"/><path class="cls-4" d="M41.34,27.12v-.54h.43c.08,0,.12,0,.12.11v.43h-.54Z"/><path class="cls-6" d="M48.93,33.63a1.87,1.87,0,0,1-.53,0v-.51h.45c.06,0,.09,0,.09.1Z"/><path class="cls-4" d="M52.73,33.08v.55c-.13,0-.27,0-.4,0s-.14,0-.14-.14,0-.27,0-.41Z"/><path class="cls-4" d="M43.51,33.63v.54h-.42c-.09,0-.13,0-.13-.12s0-.28,0-.42h.55Z"/><path class="cls-4" d="M40.26,26.58v.54h-.54v-.54h.55Z"/><path class="cls-4" d="M40.25,29.83v.54h-.43c-.09,0-.13,0-.12-.11v-.43h.54Z"/><path class="cls-6" d="M47.3,34.71a1.87,1.87,0,0,1-.53,0v-.51h.54Z"/><path class="cls-4" d="M46.76,28.74V28.2h.54v.45c0,.07,0,.1-.09.1Z"/><path class="cls-4" d="M41.33,30.37v-.54h.54c0,.13,0,.27,0,.4s0,.14-.14.13Z"/><path class="cls-6" d="M45.67,35.8a1.82,1.82,0,0,1-.52,0l0-.51h.55Z"/><path class="cls-4" d="M47.3,26.58h-.54V26h.45c.07,0,.09,0,.09.1Z"/><path class="cls-4" d="M45.14,26v.54h-.54c0-.14,0-.28,0-.42s0-.12.12-.12Z"/><path class="cls-6" d="M48.93,35.8a1.87,1.87,0,0,1-.53,0v-.51h.45c.06,0,.09,0,.09.1Z"/><path class="cls-4" d="M39.16,26.57V26h.54v.54h-.55Z"/><path class="cls-6" d="M44.05,36.88a1.87,1.87,0,0,1-.53,0l0-.51h.55Z"/><path class="cls-4" d="M39.71,25.49h.54a1.82,1.82,0,0,1,0,.52l-.51,0h0v-.54Z"/><path class="cls-6" d="M50.55,36.88a1.82,1.82,0,0,1-.52,0l0-.51h.45c.07,0,.1,0,.1.09S50.55,36.73,50.55,36.88Z"/><path class="cls-4" d="M43.51,30.92H43c0-.13,0-.27,0-.41s0-.13.14-.13h.41Z"/><path class="cls-4" d="M40.79,25.49V25h.54c0,.14,0,.28,0,.42s0,.13-.13.12Z"/><path class="cls-6" d="M42.42,38a1.87,1.87,0,0,1-.53,0v-.51h.54Z"/><path class="cls-4" d="M41.88,24.41a1.91,1.91,0,0,1,0,.53h-.52v-.54h.54Z"/><path class="cls-6" d="M52.18,38a1.91,1.91,0,0,1-.53,0v-.51h.45c.07,0,.1,0,.1.1S52.18,37.82,52.18,38Z"/><path class="cls-4" d="M42.42,23.87a1.82,1.82,0,0,1,0,.52l-.51,0h0v-.54h.54Z"/><path class="cls-6" d="M50.55,39.05A1.82,1.82,0,0,1,50,39l0-.51h.55Z"/><path class="cls-4" d="M43,23.32c0,.18,0,.36,0,.53l-.51,0h0v-.54H43Z"/><path class="cls-6" d="M48.93,40.14a1.87,1.87,0,0,1-.53,0v-.5h.54Z"/><path class="cls-4" d="M43,22.78h.54c0,.14,0,.28,0,.42s0,.13-.12.12H43v-.54Z"/><path class="cls-6" d="M47.3,41.22a1.87,1.87,0,0,1-.53,0v-.51h.54Z"/><path class="cls-4" d="M37,30.92v.54h-.55c0-.15,0-.29,0-.43s0-.12.13-.12Z"/><path class="cls-6" d="M45.67,42.31c-.17,0-.35,0-.52,0l0-.5h.55Z"/><path class="cls-4" d="M39.16,31.46h-.53v-.54h.45c.07,0,.1,0,.1.1S39.17,31.31,39.16,31.46Z"/><path class="cls-4" d="M42.43,30.92v.54h-.54V31c0-.09,0-.12.12-.12Z"/><path class="cls-4" d="M45.13,28.2v.54h-.43c-.08,0-.12,0-.12-.12s0-.28,0-.42h.54Z"/><path class="cls-4" d="M31,27.67h.54v.54a1.87,1.87,0,0,1-.53,0Z"/><path class="cls-4" d="M50,27.12h.54v.54h-.43c-.09,0-.12,0-.12-.12S50,27.26,50,27.12Z"/><path class="cls-4" d="M43.51,22.24v-.55h.54a1.82,1.82,0,0,1,0,.52Z"/><path class="cls-4" d="M41.88,27.12a1.87,1.87,0,0,1,.53,0v.51h-.54v-.54Z"/><path class="cls-4" d="M42.42,29.83v-.54H43v.46q0,.09-.09.09Z"/><path class="cls-4" d="M47.31,21.15h.53v.54h-.43c-.09,0-.12,0-.12-.13S47.31,21.29,47.31,21.15Z"/><path class="cls-4" d="M43,28.21h-.54v-.54h.43c.09,0,.12,0,.12.12S43,28.07,43,28.21Z"/><path class="cls-4" d="M42.42,33.09c-.18,0-.36,0-.53,0v-.51h.54v.54Z"/><path class="cls-4" d="M47.3,20.07v.54h-.41c-.11,0-.14,0-.13-.14s0-.27,0-.41Z"/><path d="M14.76,54.77l.54,0v.53H14.22v-.54Z"/><path class="cls-1" d="M16.39,58V57h.54V58h-.54Z"/><path class="cls-1" d="M10.42,51.53a1.9,1.9,0,0,1-.53,0V51h.54v.54Z"/><path class="cls-1" d="M11,52.07a1.91,1.91,0,0,1-.53,0v-.51H11v.55Z"/><path class="cls-1" d="M11.51,52.61a1.87,1.87,0,0,1-.53,0l0-.51h.55v.55Z"/><path class="cls-1" d="M12.05,53.15a1.87,1.87,0,0,1-.53,0v-.51h.54v.54Z"/><path class="cls-1" d="M12.59,53.7a1.87,1.87,0,0,1-.53,0v-.51h.54v.54Z"/><path class="cls-1" d="M13.13,54.24a1.91,1.91,0,0,1-.53,0V53.7h.54v.55Z"/><path class="cls-1" d="M13.68,54.78a1.87,1.87,0,0,1-.53,0l0-.51h.55v.55Z"/><path class="cls-1" d="M14.22,54.78v.54h-.45c-.06,0-.09,0-.09-.09v-.45h.54Z"/><path class="cls-1" d="M14.76,55.32h.54v.54h0a1.93,1.93,0,0,1-.53,0Z"/><path class="cls-1" d="M15.84,56.41a1.82,1.82,0,0,1-.52,0l0-.51h.55v.55Z"/><path class="cls-1" d="M16.39,57a1.87,1.87,0,0,1-.53,0l0-.51h.55V57Z"/><path class="cls-1" d="M15.84,58.58a1.87,1.87,0,0,1,0-.53l.51,0h0v.54h-.55Z"/><path d="M25.61,26.58V28.2h-.45c-.07,0-.09,0-.09-.09s0-.3,0-.45V26.58Z"/><path d="M25.61,28.2c.12,0,.25,0,.37,0s.17,0,.17.18v1.45h-.54V28.2Z"/><path d="M38.08,43.39h-1c-.08,0-.13,0-.12-.12v-.42h1.08v.54Z"/><path d="M38.63,43.39h.54v.54h-1c-.09,0-.13,0-.13-.11s0-.29,0-.43h.55Z"/><path d="M26.15,26.58h-.54V25.5h.54v1.09Z"/><path d="M26.69,27.66h-.42c-.1,0-.12,0-.12-.12v-1h.43c.09,0,.12,0,.11.13v1Z"/><path d="M27.78,29.29h-.43c-.1,0-.12,0-.12-.13,0-.32,0-.64,0-1h0c.15,0,.29,0,.43,0s.12,0,.12.13v1Z"/><path d="M28.32,30.37h-.43c-.09,0-.11,0-.11-.12v-1h.42c.1,0,.12,0,.12.12v1Z"/><path d="M29.41,32c-.15,0-.29,0-.43,0s-.12,0-.12-.12c0-.33,0-.65,0-1h.43c.1,0,.12,0,.12.13,0,.32,0,.64,0,1Z"/><path d="M30,33.08h-.43c-.1,0-.12,0-.12-.13,0-.32,0-.64,0-1h.42c.1,0,.12,0,.12.12,0,.33,0,.65,0,1Z"/><path d="M31,34.71h-.42c-.1,0-.12,0-.12-.12v-1h.43c.09,0,.11,0,.11.12v1Z"/><path d="M31.58,35.8h-.43c-.1,0-.12,0-.12-.13v-1h.43c.1,0,.12,0,.12.13,0,.32,0,.64,0,1Z"/><path d="M32.66,37.42h-.43c-.09,0-.12,0-.11-.13v-1h.42c.1,0,.12,0,.12.12v1Z"/><path d="M33.2,38.51h-.42c-.1,0-.12,0-.12-.13v-1h.43c.09,0,.11,0,.11.13v1Z"/><path d="M34.29,40.13h-.43c-.1,0-.12,0-.12-.13,0-.32,0-.64,0-1h0c.15,0,.29,0,.43,0s.12,0,.12.13c0,.32,0,.64,0,1Z"/><path d="M30.49,33.63H30c-.07,0-.09,0-.09-.1v-.45h.45c.06,0,.09,0,.09.1v.45Z"/><path d="M26.15,29.83h.45c.07,0,.09,0,.09.09v.45h-.54v-.54Z"/><path d="M32.12,36.34h-.45c-.07,0-.1,0-.1-.09s0-.3,0-.45H32c.07,0,.1,0,.1.09v.45Z"/><path d="M28.86,30.91h-.45c-.06,0-.09,0-.09-.1v-.45h.45c.07,0,.09,0,.09.1v.45Z"/><path d="M33.74,39.05h-.45A.08.08,0,0,1,33.2,39v-.45h.45c.07,0,.1,0,.09.09v.45Z"/><path d="M34.83,40.68h-.45c-.07,0-.1,0-.09-.1v-.45h.45q.09,0,.09.09v.45Z"/><path d="M35.37,41.22h-.45a.08.08,0,0,1-.09-.09v-.45h.45c.06,0,.09,0,.09.09v.45Z"/><path d="M35.91,41.76h-.45c-.06,0-.09,0-.09-.09v-.45h.45c.07,0,.09,0,.09.09v.45Z"/><path d="M36.46,42.3H36c-.07,0-.1,0-.1-.1s0-.3,0-.45h.45c.07,0,.1,0,.1.1s0,.3,0,.45Z"/><path d="M37,42.85h-.45c-.07,0-.1,0-.09-.1V42.3h.45c.06,0,.09,0,.09.1v.45Z"/><path d="M27.24,28.2h-.45c-.07,0-.1,0-.1-.09v-.45h.45c.07,0,.1,0,.1.09s0,.3,0,.45Z"/><path class="cls-8" d="M50.56,27.12v-.55h1.62v.53H50.56Z"/><path d="M50.56,27.12h.54v.54h-.54Z"/><path class="cls-5" d="M44.05,14.65V14.1h.43c.08,0,.11,0,.11.11s0,.29,0,.43h-.55Z"/><path class="cls-5" d="M19.1,58.58a1.87,1.87,0,0,0,0-.53l-.51,0h0V57.5h.95c.14,0,.14,0,.14-.15V57c0-.06,0-.09.1-.09.44,0,.44,0,.44.41v1.22Z"/><path d="M16.93,58V57H18v.54h-.45c-.07,0-.1,0-.1.09V58Z"/><path class="cls-5" d="M25.61,52.89v.17c0,.06,0,.1-.1.09h-.05c-.12,0-.29.06-.36,0s0-.29,0-.44,0-.07.06-.07h.19C25.61,52.61,25.61,52.61,25.61,52.89Z"/><path d="M18.55,57.5V58H18v-.54Z"/><path class="cls-5" d="M20.73,59.11h-.55v-.54a1.56,1.56,0,0,1,.53,0Z"/><path class="cls-8" d="M47.3,19h-.54v-.54h.35c.19,0,.19,0,.18.17Z"/><path d="M44.05,14.64h.54v.54h-.54Z"/><path class="cls-8" d="M44.05,13.56h-.54V13h.41c.11,0,.14.05.13.15S44.05,13.43,44.05,13.56Z"/><path class="cls-5" d="M25.61,28.2v1.63H25.5c-.13,0-.3,0-.39,0s0-.26,0-.39,0-.13-.14-.14-.3.07-.38,0,0-.24,0-.37,0-.14-.14-.14H22.9c0-.14,0-.27,0-.41s0-.14.14-.14q.54,0,1.08,0c.14,0,.31.07.39,0s0-.24,0-.37,0-.15.14-.14.27,0,.4,0,0,.3,0,.45,0,.09.09.09Z"/><path class="cls-5" d="M27.78,43.39V39.14c0-.06,0-.08.09-.09.45,0,.45,0,.45.39v3.87c0,.06,0,.08-.08.08Z"/><path class="cls-5" d="M26.69,31.46a1.56,1.56,0,0,1,.53,0c0,.17,0,.33,0,.5,0,.5,0,1,0,1.49,0,.14,0,.15-.14.15s-.28,0-.37,0,0-.24,0-.36V31.46Z"/><path class="cls-5" d="M27.24,45c0-.48,0-1,0-1.45,0-.19,0-.18.17-.18h.38V45h-.54Z"/><path class="cls-5" d="M27.78,35c0,.22,0,.45,0,.67s0,.14-.14.14c-.4,0-.4,0-.4-.39s0-.74,0-1.11c0-.11,0-.13.14-.13.41,0,.41,0,.41.38Z"/><path class="cls-5" d="M26.15,30.37h.54v1.09h0c-.14,0-.28,0-.42,0s-.12,0-.12-.13Z"/><path class="cls-5" d="M26.15,29.83v.54a1.87,1.87,0,0,1-.53,0v-.51Z"/><path class="cls-7" d="M32.12,43.39V43c0-.09,0-.11.12-.11.42,0,.42,0,.42.38v.16h-.54Z"/><path class="cls-7" d="M32.66,43.39h.45c.07,0,.09,0,.09.09v.45h-.54v-.54Z"/><path class="cls-7" d="M33.2,43.93h.45c.07,0,.1,0,.09.1v.45H33.2v-.55Z"/><path class="cls-7" d="M33.74,44.48h.45c.07,0,.1,0,.1.1s0,.3,0,.45h-.54v-.55Z"/><path class="cls-5" d="M26.69,45.56V45h.53v.54h-.55Z"/><path class="cls-7" d="M34.29,45h.42c.1,0,.12,0,.12.12,0,.42,0,.42-.38.42h-.16V45Z"/><path d="M47.85,21.69v-.54h.45c.07,0,.1,0,.1.1v.45Z"/><path class="cls-8" d="M25.06,27.66c-.13,0-.27,0-.4,0s-.14,0-.14.14,0,.29,0,.37-.25,0-.39,0q-.54,0-1.08,0c-.11,0-.14,0-.14.14s0,.27,0,.41H19.72a.07.07,0,0,1-.08-.08v0c0-.44,0-.44.41-.44h2.14c.16,0,.16,0,.17-.16s-.06-.28,0-.36.23,0,.34,0h.6c.08,0,.11,0,.11-.11s-.07-.32,0-.41.26,0,.39,0S24,27.06,24,27v-1.3c0-.19,0-.18.19-.19s.26.05.33,0,0-.2,0-.31,0-.42,0-.63,0-.11.11-.1h0c.13,0,.31.06.38,0s0-.26,0-.4,0-.36,0-.54,0-.12.12-.11h0c.13,0,.31.07.38,0s0-.26,0-.39v-.65h1c.08,0,.11,0,.12-.11s-.07-.32,0-.41.26,0,.39,0,.12-.05.12-.13c0-.27,0-.54,0-.82s0-.14.15-.14h.27c.1,0,.12,0,.12-.13v-1.4c0-.07,0-.1.09-.1h.33c.09,0,.12,0,.12-.12v-.59c0-.49,0-1,0-1.46h.53v3.25l-.51,0a1.58,1.58,0,0,0,0,.53v1.08l-.51,0a1.87,1.87,0,0,0,0,.53v.54H26.23s-.08,0-.08.06a1.12,1.12,0,0,0,0,.45c0,.09.21,0,.32,0h.09c.08,0,.1,0,.1.11v1h-.43c-.08,0-.11,0-.11.1v.43c-.17,0-.35,0-.51,0a2,2,0,0,0,0,.54V26l-.51,0a1.87,1.87,0,0,0,0,.53Z"/><path class="cls-8" d="M20.73,53.16c0,.14,0,.28,0,.43s0,.1-.11.11-.33-.07-.41,0,0,.26,0,.39,0,.1-.12.11-.32-.07-.4,0,0,.26,0,.39,0,.11-.11.11c-.43,0-.43,0-.43-.41V53.8c0-.08,0-.11.11-.11a0,0,0,0,0,.05,0c.12,0,.29.06.36,0s0-.25,0-.37v-.57c0-.08,0-.11.11-.11h.44v.51a1.52,1.52,0,0,0,.52,0Z"/><path class="cls-8" d="M20.72,52.06c0-.14,0-.28,0-.43s0-.11.11-.11h1.41c.08,0,.11,0,.1.11s0,.3,0,.4-.25,0-.38,0-.14,0-.14.14.07.31,0,.38-.26,0-.39,0h-.11V52.1a1.58,1.58,0,0,0-.53,0Z"/><path class="cls-8" d="M26.69,45.56h.55v.35c0,.21,0,.19-.21.19s-.24-.05-.31,0,0,.2,0,.31v.05c0,.11,0,.17-.14.16h-.4v-.94c0-.11,0-.16.14-.15Z"/><path class="cls-8" d="M26.7,15.73v-.54h1.09v.53H26.7Z"/><path d="M28.86,16.81h-.53l0-.54v-.54h.42c.1,0,.12,0,.12.12v1Z"/><path class="cls-8" d="M15.3,42.3h-.42c-.1,0-.12,0-.12-.13v-1h.43c.09,0,.12,0,.11.13v1Z"/><path class="cls-8" d="M28.32,15.73v.54h-.43c-.08,0-.1,0-.1-.11s0-.28,0-.43h.55Z"/><path class="cls-8" d="M26.16,17.35v-.53h.54a1.56,1.56,0,0,1,0,.53A2.77,2.77,0,0,1,26.16,17.35Z"/><path class="cls-8" d="M25.61,17.9h.54v.45c0,.07,0,.09-.09.09h-.45Z"/><path class="cls-8" d="M15.3,42.31h.4c.13,0,.15.05.15.16,0,.48.09.37-.39.39-.11,0-.17,0-.16-.14s0-.27,0-.41Z"/><path class="cls-8" d="M32.66,43.39v.54h-.45c-.07,0-.09,0-.09-.09v-.45Z"/><path class="cls-8" d="M33.2,43.93v.55h-.45c-.06,0-.09,0-.09-.1v-.45Z"/><path class="cls-8" d="M33.75,44.47V45h-.46c-.06,0-.09,0-.09-.1v-.45Z"/><path class="cls-8" d="M27.24,45.56V45h.55v.45c0,.06,0,.09-.1.09Z"/><path class="cls-8" d="M34.29,45v.54h-.45c-.07,0-.1,0-.1-.09s0-.3,0-.45Z"/><path class="cls-8" d="M25.61,47.19v-.45c0-.07,0-.1.09-.1h.45v.45c0,.07,0,.1-.09.1Z"/><path class="cls-8" d="M25.07,47.73v-.45q0-.11.09-.09h.45v.45a.08.08,0,0,1-.09.09h-.45Z"/><path class="cls-8" d="M25.06,47.73c0,.13,0,.27,0,.4s-.05.15-.16.14c-.48,0-.37.09-.39-.39,0-.11,0-.16.15-.15s.26,0,.4,0Z"/><path class="cls-8" d="M25.61,22.24h-.4c-.13,0-.15,0-.15-.16,0-.48-.09-.37.39-.39.11,0,.17,0,.16.15s0,.26,0,.4Z"/><path class="cls-8" d="M10.43,50.43h.43c.08,0,.11,0,.11.11s0,.28,0,.43h-.54v-.55Z"/><path class="cls-8" d="M11,51h.43c.08,0,.11,0,.11.11v.43H11V51Z"/><path class="cls-8" d="M11.51,51.52h.43c.08,0,.11,0,.11.11v.43h-.54v-.54Z"/><path class="cls-8" d="M12.05,52.06h.43c.08,0,.11,0,.11.11s0,.28,0,.42v0h-.54v-.54Z"/><path class="cls-8" d="M20.18,52.61c0-.18,0-.36,0-.53l.5,0h0v.54h-.55Z"/><path class="cls-8" d="M12.6,52.6H13c.08,0,.11,0,.1.11s0,.28,0,.43h-.55V52.6Z"/><path class="cls-8" d="M21.27,52.61a1.87,1.87,0,0,1,0,.53l-.51,0h0v-.54h.54Z"/><path class="cls-8" d="M13.14,53.15h.43c.08,0,.11,0,.11.11s0,.29,0,.43h-.54v-.53Z"/><path class="cls-8" d="M13.68,53.69c.14,0,.29,0,.43,0s.11,0,.11.11v.43h-.54V53.7Z"/><path class="cls-8" d="M14.76,54.77h-.54v-.54h0c.18,0,.36,0,.53,0Z"/><path class="cls-8" d="M15.31,55.32v-.53a1.58,1.58,0,0,1,.53,0,4.35,4.35,0,0,1,0,.51h-.54Z"/><path class="cls-8" d="M15.85,55.32h.43c.08,0,.11,0,.11.11v.43h-.54v-.53Z"/><path class="cls-8" d="M16.39,55.86h.43c.08,0,.11,0,.11.11s0,.29,0,.43h-.55v-.54Z"/><path class="cls-8" d="M17.48,56.94h-.55v-.54h0c.17,0,.35,0,.52,0Z"/><path d="M10.42,50.45V51H9.88v-.54Z"/><path d="M27.78,15.19H26.15v-.54h1c.08,0,.12,0,.12-.1s0-.29,0-.44h1.08v.54h0l-.51,0a1.87,1.87,0,0,0,0,.53Z"/><path class="cls-4" d="M26.69,11.93a1.87,1.87,0,0,1,.53,0c0,.17,0,.34,0,.51s0,.64,0,.95c0,.11,0,.14-.14.14-.41,0-.41,0-.41-.38V11.93Z"/><path class="cls-4" d="M25.61,12.48a1.58,1.58,0,0,1,.53,0c0,.17,0,.34,0,.51v1c0,.1,0,.13-.14.13-.4,0-.4,0-.4-.38V12.47Z"/><path d="M29.41,13.56v.54H28.32v-.54h1.09Z"/><path class="cls-6" d="M27.78,11.39h.16c.12,0,.28-.06.36,0s0,.22,0,.34,0,.16-.16.16h-.38Z"/><path class="cls-4" d="M28.32,13.56v.54h-.54v-.41c0-.11,0-.14.14-.13Z"/><path class="cls-4" d="M27.24,14.1c0,.15,0,.29,0,.44s0,.11-.12.1h-.43c0-.14,0-.27,0-.41s0-.14.14-.13Z"/><path class="cls-6" d="M29.4,10.85v1.62h-.55c0-.49,0-1,0-1.49,0-.1,0-.14.14-.13Z"/><path d="M16.39,58.58V58h.54v.55Z"/><path d="M15.85,58.58h.54v.54h-.55Z"/><path class="cls-6" d="M27.23,28.2c0-.15,0-.3,0-.45s0-.09-.1-.09h-.45v-1c0-.09,0-.13-.11-.13h-.43V25.49h.45c.07,0,.09,0,.09-.09V25h.54c0,.49,0,1,0,1.49,0,.1,0,.15.14.14h.05c.12,0,.26,0,.34,0s0,.21,0,.32v.62c0,.08,0,.12.1.11H28c.12,0,.26-.05.34,0s0,.2,0,.31v.62c0,.08,0,.12.11.12a.11.11,0,0,1,.08,0c.11,0,.25-.05.33,0s0,.21,0,.32,0,.41,0,.62,0,.11.11.11.32-.07.41,0,0,.26,0,.39,0,.12.11.11h.08c.12,0,.26-.05.33,0s0,.21,0,.31v.63c0,.07,0,.12.1.11h.08c.12,0,.27-.05.34,0s0,.21,0,.32v.62c0,.08,0,.11.11.11s.32-.07.41,0,0,.26,0,.39,0,.12.11.11h.05c.13,0,.29-.06.36,0s0,.24,0,.37a5.42,5.42,0,0,1,0,.57c0,.08,0,.12.11.11h.05c.13,0,.29-.06.36,0s0,.24,0,.36v.57c0,.08,0,.11.1.12s.33-.07.41,0,0,.26,0,.4,0,.11.11.11h0c.12,0,.29-.06.36,0s0,.25,0,.37v.57c0,.08,0,.12.11.11h0c.12,0,.29-.06.36,0s0,.24,0,.37a5.42,5.42,0,0,1,0,.57c0,.07,0,.1.11.11s.33-.07.41,0,0,.25,0,.39,0,.12.1.11h.06c.12,0,.29-.06.35,0s0,.24,0,.36v.57c0,.08,0,.11.11.12s.32-.07.41,0,0,.26,0,.4,0,.1.11.11.32-.07.41,0,0,.25,0,.39,0,.1.11.11.33-.07.41,0,0,.26,0,.39,0,.11.11.11.33-.07.41,0,0,.26,0,.39,0,.11.11.12.32-.08.41,0,0,.26,0,.4,0,.11.11.11a0,0,0,0,1,0,0c.13,0,.31-.07.38,0s0,.26,0,.39v.11H37V42.4c0-.07,0-.1-.09-.1h-.45c0-.15,0-.3,0-.45s0-.1-.1-.1h-.45v-.45c0-.06,0-.09-.09-.09h-.45v-.45c0-.07,0-.09-.09-.09h-.45v-.45q0-.1-.09-.09h-.45c0-.32,0-.64,0-1,0-.09,0-.14-.12-.13s-.28,0-.43,0V38.6c0-.07,0-.09-.09-.09H33.2v-1c0-.09,0-.13-.11-.13h-.43v-1c0-.08,0-.13-.12-.12h-.42v-.45c0-.07,0-.09-.1-.09h-.45c0-.32,0-.64,0-1,0-.09,0-.13-.12-.13H31v-1c0-.09,0-.13-.11-.12h-.43v-.45c0-.07,0-.1-.09-.1H30c0-.32,0-.64,0-1,0-.08,0-.13-.12-.12H29.4c0-.32,0-.64,0-1,0-.09,0-.13-.12-.13h-.43v-.45c0-.07,0-.1-.09-.1h-.45v-1c0-.08,0-.13-.12-.12h-.42v-1c0-.09,0-.13-.12-.13S27.38,28.2,27.23,28.2Z"/><path d="M27.77,22.78v-.54h.54v2.17H27.24c0-.32,0-.65,0-1,0-.09,0-.12.13-.12h.29c.09,0,.13,0,.13-.12S27.77,22.92,27.77,22.78Z"/><path class="cls-3" d="M27.78,24.41h.54v1.08h0a1.87,1.87,0,0,1-.53,0c0-.17,0-.34,0-.51Z"/><path class="cls-3" d="M28.86,26.58l-.51,0a1.56,1.56,0,0,1,0-.53c0-.18,0-.36,0-.54h.54v1.09Z"/><path class="cls-3" d="M29.4,27.12a1.91,1.91,0,0,1-.53,0v-.51h.54v.54Z"/><path d="M27.23,25h-.54v-.54h.54Z"/><path class="cls-6" d="M38.63,43.39h-.55v-.54a1.56,1.56,0,0,1,.53,0Z"/><path class="cls-3" d="M29.94,27.12v.54H29.5c-.07,0-.1,0-.1-.09s0-.3,0-.45h.54Z"/><path class="cls-2" d="M28.32,24.41V22.24h.41c.1,0,.14,0,.13-.14V20.61h.35c.19,0,.19,0,.19-.19,0-.61,0-1.23,0-1.84,0-.11,0-.14.14-.14s.31.07.38,0,0-.26,0-.39V17.9h.54v.73c0,.11,0,.24,0,.31s-.22,0-.33,0-.19,0-.19.19V21.8c0,.14,0,.3,0,.4s.25,0,.38,0,.14,0,.14.14v1.06c0,.13,0,.3,0,.39s.25,0,.39,0,.14,0,.13.14v.84c0,.08,0,.11.11.11s.31,0,.39,0,0,.27,0,.41,0,.11.11.11.31,0,.4,0,0,.27,0,.41,0,.11.12.11.3-.05.39,0,0,.27,0,.41,0,.11.11.11h.57c.12,0,.28,0,.37,0s0,.23,0,.36,0,0,0,0,0,.14.14.14h.95v.54H31.57a1.9,1.9,0,0,0,0-.53,2.9,2.9,0,0,0-.51,0H30v-.45c0-.07,0-.1-.1-.09H29.4c0-.32,0-.64,0-1,0-.09,0-.13-.12-.13s-.29,0-.43,0h0v-1c0-.09,0-.13-.11-.12Z"/><path d="M30,17.9V18c0,.13,0,.3,0,.39s-.25,0-.38,0-.14,0-.14.14c0,.61,0,1.23,0,1.84,0,.19,0,.19-.19.19h-.35v-3.8h.54v.53c0,.15,0,.3,0,.45s0,.1.1.1Z"/><path class="cls-6" d="M29.4,16.82h-.54v-1c0-.09,0-.13-.12-.12h-.42v-.54H29.4Z"/><path d="M29.4,15.18H28.32v-.55H29.4Z"/><path class="cls-6" d="M30.49,16.82v.54H30V16.9a.08.08,0,0,1,.09-.09Z"/><path class="cls-6" d="M30,17.9H29.5c-.07,0-.1,0-.1-.1s0-.3,0-.45H30v.54Z"/><path class="cls-6" d="M44.59,33.63h-.54v-.51a1.93,1.93,0,0,0-.53,0h0l0-.52a1.87,1.87,0,0,0-.53,0h0V31.46h.55a1.91,1.91,0,0,0,.53,0v-.51h.54Z"/><path d="M44.05,21.69h-.54V19h.54Z"/><path d="M40.25,29.83h-.54V27.12h.54v2.71Z"/><path class="cls-3" d="M47.3,40.68H45.67V39.59h.54V40c0,.16,0,.17.18.17h.72c.19,0,.19,0,.18.17Z"/><path class="cls-3" d="M48.93,39.59H47.3V38.51h.55v.37c0,.17,0,.17.18.17h.72c.19,0,.18,0,.18.17Z"/><path d="M47.3,39.05v.54H46.22V38.51h.54V39A1.87,1.87,0,0,0,47.3,39.05Z"/><path class="cls-3" d="M47.3,36.34h.54c0,.15,0,.29,0,.43s0,.11.12.11h.84c.1,0,.14,0,.13.14s0,.27,0,.4H47.3V36.34Z"/><path class="cls-3" d="M50.56,38.51H48.93V37.42h.54c0,.14,0,.29,0,.43s0,.11.11.11h.84c.11,0,.15,0,.14.14S50.56,38.37,50.56,38.51Z"/><path class="cls-3" d="M44.59,39.6h-.54V38.51h.54V39a1.64,1.64,0,0,0,.54,0h.51a2.39,2.39,0,0,1,0,.53H44.59Z"/><path d="M44.59,39.6h.54l0,.5a1.83,1.83,0,0,0,.52,0v.54H44.59Z"/><path d="M44.05,39.05v.54H43V38.51h.53l0,.51A1.87,1.87,0,0,0,44.05,39.05Z"/><path d="M48.93,38v.54H47.85V37.43h.54v.51A1.87,1.87,0,0,0,48.93,38Z"/><path class="cls-3" d="M45.67,35.8v-.55h.54v.43c0,.08,0,.11.11.11h.84c.11,0,.14,0,.14.14s0,.27,0,.41H45.67Z"/><path class="cls-3" d="M43.5,38.51H42.42V37.42H43.5a2.67,2.67,0,0,1,0,.4c0,.12,0,.14.15.14s.3-.07.38,0,0,.26,0,.39v.11H43.5Z"/><path class="cls-3" d="M44.05,36.88v-.54h.54v.37c0,.17,0,.17.18.17h.67c.26,0,.24,0,.24.22v.32H44.05Z"/><path class="cls-4" d="M44.05,37.42h.54v1.08h-.54V38.4c0-.13,0-.3,0-.39s-.25,0-.38,0-.15,0-.15-.14a2.67,2.67,0,0,0,0-.4Z"/><path class="cls-6" d="M46.22,28.2h-.54l0-.51a1.82,1.82,0,0,0-.52,0v-.54h.51a1.91,1.91,0,0,0,0-.53h.54v.51a1.87,1.87,0,0,0,.53,0v.54h-.51A1.91,1.91,0,0,0,46.22,28.2Z"/><path class="cls-2" d="M46.76,27.12a1.87,1.87,0,0,1-.53,0v-.51h.54Z"/><path class="cls-2" d="M45.68,26.58a1.91,1.91,0,0,1,0,.53h-.51v-.55h.55Z"/><path d="M34.83,27.66v-.54h1.63v.54Z"/><path class="cls-4" d="M45.68,37.42V37.1c0-.25,0-.22-.24-.22h-.67c-.19,0-.18,0-.18-.17v-.37h1.63v1.08h-.54Z"/><path class="cls-6" d="M38.62,32v.54h-.51a1.91,1.91,0,0,0,0,.53h-.54v-.51a1.87,1.87,0,0,0-.53,0V32h.51a1.89,1.89,0,0,0,0-.53h.54V32A1.91,1.91,0,0,0,38.62,32Z"/><path class="cls-2" d="M37.54,31.46a1.89,1.89,0,0,1,0,.53H37v-.54h.54Z"/><path class="cls-2" d="M38.62,32a1.91,1.91,0,0,1-.53,0v-.51h.55Z"/><path class="cls-2" d="M46.22,28.2a1.91,1.91,0,0,1,0-.53h.51v.54Z"/><path class="cls-6" d="M35.91,27.12h-2c-.1,0-.15,0-.14-.14s0,0,0,0,.06-.29,0-.36-.25,0-.37,0h-.57c-.08,0-.11,0-.11-.11s.07-.33,0-.41-.26,0-.39,0-.11,0-.12-.11.08-.33,0-.41-.26,0-.4,0-.1,0-.11-.11.07-.32,0-.41-.26,0-.39,0-.11,0-.11-.11V24c0-.11,0-.14-.13-.14s-.31.07-.39,0,0-.26,0-.39V22.37c0-.11,0-.13-.14-.14s-.31.07-.38,0,0-.26,0-.4V19.17c0-.18,0-.18.19-.19s.26.06.33,0,0-.2,0-.31V17.9H31a1.91,1.91,0,0,0,0-.53h.54a2.33,2.33,0,0,0,.53,0l0-.52h.51a1.87,1.87,0,0,0,0-.53h.54a1.87,1.87,0,0,0,.53,0v-.51h.55a1.91,1.91,0,0,0,.53,0v-.51h.54a2.33,2.33,0,0,0,.53,0v-.51h.54a1.64,1.64,0,0,0,.54,0V14.1h.54a1.87,1.87,0,0,0,.53,0v-.51h.54l0,.51a1.87,1.87,0,0,0,.53,0h.54v.51a1.59,1.59,0,0,0,.53,0h0v.52a2,2,0,0,0,.54,0h0a1.59,1.59,0,0,0,0,.53h.51v1c0,.07,0,.09.09.09h.45a1.87,1.87,0,0,0,0,.53l.51,0v.54a1.91,1.91,0,0,0,0,.53H43V19a1.87,1.87,0,0,0,0,.53l.52,0v1.62l-.52,0a1.87,1.87,0,0,0,0,.53v.54h-.51a1.87,1.87,0,0,0,0,.53h-.51a1.91,1.91,0,0,0,0,.53h-.51a1.91,1.91,0,0,0,0,.53h0l-.51,0a1.56,1.56,0,0,0,0,.53h0a1.56,1.56,0,0,0-.53,0l0,.51h-.54a1.87,1.87,0,0,0-.53,0v.51h-.51a1.93,1.93,0,0,0,0,.53H37.54a2.36,2.36,0,0,0-.53,0v.51h-.54a1.56,1.56,0,0,0-.53,0Zm1.63-10.31v1c0,.07,0,.11.11.11s.3,0,.39,0,0,.27,0,.41,0,.11.11.11.31,0,.39,0,0,.27,0,.41,0,.12.11.11.31,0,.4,0,0,.26,0,.41,0,.11.1.11q.7,0,1.41,0c.08,0,.12,0,.12-.11s0-.31,0-.39.27,0,.41,0,.11,0,.11-.11,0-.37,0-.55.06-.31,0-.41-.24,0-.37,0-.14,0-.14-.14c0-.27,0-.54,0-.81,0-.1,0-.14-.14-.14a.65.65,0,0,1-.37,0c-.1-.08,0-.25,0-.38s0-.15-.14-.14-.29,0-.37,0,0-.25,0-.38,0-.14-.13-.14h-1.9c-.11,0-.14,0-.14.13C37.55,16.18,37.54,16.49,37.54,16.81Z"/><path class="cls-2" d="M38.08,13.56v.51a1.87,1.87,0,0,1-.53,0v-.54Z"/><path class="cls-2" d="M39.17,14.1a1.87,1.87,0,0,1-.53,0l0-.51h.55Z"/><path class="cls-2" d="M45.14,27.66a1.82,1.82,0,0,1,.52,0l0,.51h-.55Z"/><path class="cls-2" d="M37,32.54a1.87,1.87,0,0,1,.53,0v.51H37Z"/><path class="cls-2" d="M38.08,33.08a1.91,1.91,0,0,1,0-.53h.51v.54Z"/><path d="M45.14,27.66v.54h-.54V26.58h.54v1.09Z"/><path d="M37,32.54v.55h-.54V31.46H37v1.08Z"/><path class="cls-2" d="M37,26.57v-.51a2.36,2.36,0,0,1,.53,0v.55H37Z"/><path class="cls-2" d="M38.62,26a1.93,1.93,0,0,1,0-.53h.51V26h-.55Z"/><path d="M43,19V17.9h.54V19H43Z"/><path d="M42.42,17.9V16.81H43V17.9h-.54Z"/><path class="cls-2" d="M42.42,22.78a1.87,1.87,0,0,1,0-.53H43v.54h-.54Z"/><path class="cls-2" d="M43,21.7a1.87,1.87,0,0,1,0-.53l.52,0v.55Z"/><path d="M39.17,14.1v-.54h1.08v.54H39.17Z"/><path class="cls-2" d="M39.17,25.49V25a1.87,1.87,0,0,1,.53,0v.54h-.54Z"/><path class="cls-2" d="M40.25,25l0-.51a1.56,1.56,0,0,1,.53,0V25h-.55Z"/><path class="cls-2" d="M37,14.1v.51a1.64,1.64,0,0,1-.54,0V14.1Z"/><path d="M37,26.57h.54v.54H36.46v-.54Z"/><path class="cls-6" d="M41.88,29.29H41c-.16,0-.16,0-.16-.16,0-.67,0-1.34,0-2h.54v1c0,.07,0,.09.09.09h1v.55h-.51A1.87,1.87,0,0,0,41.88,29.29Z"/><path class="cls-2" d="M40.8,27.12c0,.67,0,1.34,0,2,0,.15,0,.16.16.16h.38v.54H40.25V27.12Z"/><ellipse class="cls-6" cx="28.86" cy="14.37" rx="0.77" ry="0.38"/><path class="cls-2" d="M35.91,14.65v.51a2.33,2.33,0,0,1-.53,0v-.55Z"/><path class="cls-2" d="M41.88,29.29a1.87,1.87,0,0,1,0-.53h.51v.54Z"/><path class="cls-2" d="M34.83,15.19v.51a1.91,1.91,0,0,1-.53,0v-.54Z"/><path class="cls-2" d="M44.05,30.92v.51a1.91,1.91,0,0,1-.53,0v-.54Z"/><path class="cls-2" d="M43,31.46v1.08h-.54V31.46H43Z"/><path d="M42.42,31.46v1.08h-.54V31.46Z"/><path class="cls-2" d="M33.74,15.73v.51a1.87,1.87,0,0,1-.53,0v-.54Z"/><path class="cls-2" d="M43.51,33.08a1.93,1.93,0,0,1,.53,0v.51h-.54Z"/><path d="M41.34,16.27V15.19h.54v1.08h-.54Z"/><path d="M42.42,16.27v.54h-.54v-.54h.54Z"/><path class="cls-2" d="M32.66,16.27a1.87,1.87,0,0,1,0,.53h-.51v-.54h.54Z"/><path class="cls-2" d="M32.12,16.81l0,.52a2.33,2.33,0,0,1-.53,0v-.55h.55Z"/><path class="cls-2" d="M31,17.36a1.91,1.91,0,0,1,0,.53h-.51v-.54H31Z"/><path d="M40.79,14.1v.54h-.54V14.1h.54Z"/><path d="M41.33,14.65v.54H40.8v-.55h.53Z"/><path d="M32.12,16.81h-.55v-.54h.54Z"/><path d="M43.51,33.08v.55H43v-.54h.55Z"/><path d="M42.42,32.54H43v.54h-.54Z"/><path d="M41.34,27.66v-.54h.54v.54h-.54Z"/><path d="M39.17,25.49h.54V26h-.54Z"/><path d="M40.8,25v-.54h.54V25Z"/><path d="M41.88,23.86v.54h-.54v-.55h.54Z"/><path d="M42.42,23.32v.54h-.54v-.54h.54Z"/><path d="M42.42,22.78H43v.54h-.54v-.54Z"/><path d="M42.42,28.2h-.54v-.54h.54Z"/><path d="M16.92,56.41V57h-.54V56.4Z"/><path d="M11,51v.53h-.55V51Z"/><path d="M11.5,51.53v.54H11v-.55Z"/><path d="M12,52.07v.54h-.54v-.55Z"/><path d="M12.59,52.62v.53h-.54v-.54Z"/><path d="M13.13,53.16v.53h-.55v-.54Z"/><path d="M13.67,53.7v.54h-.55v-.55Z"/><path d="M14.21,54.24v.54h-.54v-.55Z"/><path d="M15.84,55.33v.53H15.3v-.54Z"/><path d="M16.38,55.87v.54h-.54v-.55Z"/><path class="cls-5" d="M25.07,26.58a1.87,1.87,0,0,1,0-.53l.51,0v.55Z"/><path class="cls-5" d="M25.61,25.5a2,2,0,0,1,0-.54c.16,0,.34,0,.51,0h0v.54h-.54Z"/><path class="cls-5" d="M27.24,24.41h-.55v-1c0-.08,0-.12-.1-.11H26.5c-.11,0-.28.06-.32,0a1.12,1.12,0,0,1,0-.45s0-.06.08-.06h1.54c0,.14,0,.28,0,.42s0,.13-.13.12h-.29c-.09,0-.13,0-.13.12C27.24,23.76,27.24,24.09,27.24,24.41Z"/><path d="M28.86,20.61V22.1c0,.11,0,.15-.13.14h-.41V20.61Z"/><path class="cls-5" d="M26.69,24.41V25h-.54v-.43c0-.08,0-.11.11-.1Z"/><path class="cls-5" d="M28.32,21.69v.55h-.54a1.87,1.87,0,0,1,0-.53Z"/><path class="cls-5" d="M28.86,20.61h-.53a1.58,1.58,0,0,1,0-.53l.51,0Z"/><path class="cls-5" d="M20.73,52.61v.54a1.52,1.52,0,0,1-.52,0v-.51Z"/><path class="cls-5" d="M21.27,52.61h-.54v-.54a1.58,1.58,0,0,1,.53,0Z"/><path d="M28.32,15.19v.54h-.54v-.53h.54Z"/><path class="cls-6" d="M28.32,15.19h-.54a1.87,1.87,0,0,1,0-.53l.51,0Z"/><path d="M26.16,25h.53v.45c0,.07,0,.09-.09.09h-.45Z"/><path d="M28.32,24.41h.43c.09,0,.11,0,.11.12v1h-.54Z"/><path d="M28.86,25.49c.14,0,.29,0,.43,0s.12,0,.12.13c0,.32,0,.64,0,1h-.54Z"/><path d="M29.4,26.58h.45c.07,0,.1,0,.1.09v.45h-.54Z"/><path d="M30.49,17.36v.54H30v-.54Z"/><path class="cls-2" d="M43,33.08v-.54a1.87,1.87,0,0,1,.53,0l0,.52Z"/><path class="cls-2" d="M43,19h.54v.55l-.52,0A1.87,1.87,0,0,1,43,19Z"/><path class="cls-4" d="M45.68,39.59a2.39,2.39,0,0,0,0-.53h-.51a1.64,1.64,0,0,1-.54,0v-.51h1.63v1.08Z"/><path class="cls-6" d="M45.67,40.14a1.83,1.83,0,0,1-.52,0l0-.5h.55Z"/><path class="cls-4" d="M47.85,37.43v1.08H47.3c0-.14,0-.27,0-.41s0-.14-.14-.14h-.84c-.08,0-.11,0-.11-.11v-.43h1.63Z"/><path class="cls-6" d="M47.3,39.05a1.87,1.87,0,0,1-.53,0v-.51h.54Z"/><path class="cls-3" d="M47.3,38.51H45.67V37.42h.54v.43c0,.08,0,.11.11.11h.84c.11,0,.14,0,.14.14S47.3,38.37,47.3,38.51Z"/><path d="M47.3,37.42H46.22V36.34h.54v.51a1.87,1.87,0,0,0,.53,0Z"/><path class="cls-6" d="M47.3,36.88a1.87,1.87,0,0,1-.53,0v-.51h.54Z"/><path class="cls-6" d="M48.93,38a1.87,1.87,0,0,1-.53,0v-.51h.54Z"/><path class="cls-6" d="M43.5,38.51h.55v.54a1.87,1.87,0,0,1-.53,0Z"/><path d="M45.67,38v.54H44.59V37.43h.54l0,.51A1.82,1.82,0,0,0,45.67,38Z"/><path class="cls-6" d="M45.67,38a1.82,1.82,0,0,1-.52,0l0-.51h.55Z"/><path class="cls-2" d="M36.46,26.58v.54h-.55l0-.51A1.56,1.56,0,0,1,36.46,26.58Z"/><path class="cls-4" d="M37.54,16.81c0-.32,0-.63,0-.95,0-.11,0-.13.14-.13h1.9c.1,0,.13,0,.13.14s-.06.3,0,.38.24,0,.37,0,.13,0,.14.14-.07.3,0,.38a.65.65,0,0,0,.37,0c.11,0,.14,0,.14.14,0,.27,0,.54,0,.81,0,.11,0,.14.14.14s.29,0,.37,0,0,.27,0,.41,0,.37,0,.55,0,.1-.11.11-.33-.08-.41,0,0,.25,0,.39,0,.11-.12.11q-.7,0-1.41,0c-.08,0-.1,0-.1-.11s.07-.33,0-.41-.26,0-.4,0-.1,0-.11-.11.07-.32,0-.41-.26,0-.39,0-.1,0-.11-.11.07-.33,0-.41-.26,0-.39,0-.11,0-.11-.11Z"/><path class="cls-2" d="M40.25,14.1v.54a1.59,1.59,0,0,1-.53,0V14.1Z"/><path class="cls-2" d="M40.8,14.64v.55a2,2,0,0,1-.54,0v-.52Z"/><path class="cls-2" d="M40.8,15.19h.54v.54h-.51A1.59,1.59,0,0,1,40.8,15.19Z"/><path class="cls-2" d="M41.88,16.27v.54h-.45c-.07,0-.09,0-.09-.09v-.45Z"/><path class="cls-2" d="M41.88,16.81h.54v.55l-.51,0A1.87,1.87,0,0,1,41.88,16.81Z"/><path class="cls-2" d="M42.42,17.9H43v.54h-.51A1.91,1.91,0,0,1,42.42,17.9Z"/><path class="cls-2" d="M41.34,23.86v.55H40.8a1.56,1.56,0,0,1,0-.53Z"/><path class="cls-2" d="M41.88,23.32v.54h-.54a1.91,1.91,0,0,1,0-.53Z"/><path class="cls-2" d="M42.42,22.78v.54h-.54a1.91,1.91,0,0,1,0-.53Z"/><path class="cls-2" d="M41.88,27.66v.54h-.45c-.07,0-.09,0-.09-.09v-.45Z"/></svg>