<svg id="Layer_1" data-name="Layer 1" xmlns="http://www.w3.org/2000/svg" viewBox="0 0 16 16"><defs><style>.cls-1{fill:#45283c;}.cls-2{fill:#222034;}.cls-3{fill:#37936e;}.cls-4{fill:#4b692f;}.cls-5{fill:#663931;}.cls-6{fill:#323c39;}.cls-7{fill:#edc299;}.cls-8{fill:#de7126;}.cls-9{fill:#639afe;}.cls-10{fill:#5b6ee0;}</style></defs><title>icon</title><path class="cls-1" d="M5.05,16v0a.4.4,0,0,0,0-.11s-.07,0-.11,0,0,0,0,0,0-.05,0-.08,0,0,0,0H4.81a0,0,0,0,1,0,0s0-.08,0-.1-.07,0-.1,0,0,0,0,0v-.11h.19s.06,0,.08,0,0,.06,0,.09,0,0,0,0,0,0,0,0,.08,0,.1,0,0,.07,0,.1a0,0,0,0,0,0,0s.08,0,.1,0,0,.06,0,.1,0,0,0,0h.25V16Z"/><path d="M8.71.14V0h.54V.14H8.71Z"/><path d="M2.07,13.15H1.93V13h.14v.13Z"/><path d="M5.46,16v-.14h.13V16Z"/><path d="M12.1,11.12a.29.29,0,0,1,0,.13H10.34v-.12a.33.33,0,0,0-.14,0h-.12a.33.33,0,0,1,0-.14h.4a.33.33,0,0,1,0,.1,0,0,0,0,0,0,0H12.1Z"/><path d="M12.51,5.69h0s.08,0,.1,0,0,.07,0,.1,0,0,0,0h.6s0,0,0,0V6H12.8s0,0,0,0v.52h-.14V6s0,0,0,0h-.11V5.7Z"/><path d="M13.32,6.92v.22s0,.05,0,.05h.3c.07,0,.06,0,.06.06v.07h-.39s0,0,0,0v.51h-.13V7.32c0-.08,0-.15,0-.23s0,0,0,0h-.1V6.92Z"/><path d="M13.86,8.54v0s0,.08,0,.11-.07,0-.1,0,0,0,0,0v1s0,0-.05,0h-.09V8.54Z"/><path d="M6.27,14.78v.5s0,0,0,0h-.1v-.13H5.86v-.14H6a0,0,0,0,0,0,0s0-.07,0-.09.06,0,.09,0,0,0,0,0,0-.08,0-.09.06,0,.09,0Z"/><path d="M11.83,2.85a.57.57,0,0,1,.13,0s0,.09,0,.13v.63c0,.06,0,.05-.05.05h-.09V2.85Z"/><path d="M7.76,13.29a.57.57,0,0,1,0,.13H7.52a0,0,0,0,0,0,0v.08s0,0,0,0h-.1a.41.41,0,0,1,0-.11,0,0,0,0,0,0,0H7.09a.56.56,0,0,1,0-.13Z"/><path d="M12,4.2a.57.57,0,0,1,0-.13h.76c.06,0,0,0,0,0V4.2H12Z"/><path d="M14,7.73a.29.29,0,0,1,.13,0,.48.48,0,0,1,0,.12c0,.17,0,.33,0,.5s0,.05-.05.05H14V7.73Z"/><path d="M13.46,6.1s.09,0,.13,0a.48.48,0,0,1,0,.12v.5c0,.06,0,0,0,0h-.09V6.1Z"/><path d="M11.69,3.8v.4h-.13V4s0,0,0,0h-.12V3.8Z"/><path d="M12.91,4.34a.33.33,0,0,1,.14,0v.49s0,0,0,0h-.1V4.34Z"/><path d="M11.15,2.71s0-.09,0-.13a.56.56,0,0,1,.13,0h.35c.06,0,0,0,0,0v.08h-.54Z"/><path d="M10.88,2.71h.27v.14H11s0,0,0,0v.25h-.14V2.71Z"/><path d="M8.3,13.15v.08c0,.06,0,.06-.05.06H7.76v-.14H8.3Z"/><path d="M9.8,11.8v0s0,.08,0,.11-.07,0-.1,0a0,0,0,0,0,0,0s0,.08,0,.1-.06,0-.1,0h0v-.14a.66.66,0,0,1,0-.14.56.56,0,0,1,0-.13h.13v.13c.05,0,.09,0,.14,0Z"/><path d="M11.69,4.2H12v.14h-.13a.3.3,0,0,0,0,.13H11.7V4.2Z"/><path d="M13.59,9.76v.36c0,.05,0,.05-.05.05h-.08V9.76Z"/><path d="M12.51,11v.09s0,0,0,0H12.1V11h.41Z"/><path d="M13.05,10.71v.11a0,0,0,0,1,0,0h-.24v-.14h.27Z"/><path d="M12.78,10.85V11s0,0,0,0h-.24v-.13h.27Z"/><path d="M9.53.41h.1s0,0,0,0V.68H9.53V.41Z"/><path d="M9.8.81h.1s0,0,0,0v.24H9.8V.81Z"/><path d="M9.53,12.07a1.92,1.92,0,0,0,0,.24,0,0,0,0,1,0,0H9.39v-.27h.14Z"/><path d="M9.93,1.08a.41.41,0,0,0,.11,0s0,0,0,0v.24H9.93V1.08Z"/><path d="M10.2,1.49h.11a0,0,0,0,1,0,0v.24H10.2V1.49Z"/><path d="M10.34,1.76h.11s0,0,0,0V2h-.13V1.76Z"/><path d="M8.85,12.88V13a0,0,0,0,1,0,0H8.58v-.14Z"/><path d="M8.58,13a.34.34,0,0,0,0,.1s0,0,0,0H8.31V13Z"/><path d="M10.61,2.17h.11a0,0,0,0,1,0,0,1.92,1.92,0,0,0,0,.24h-.14V2.17Z"/><path d="M10.75,2.44h.1s0,0,0,0v.24h-.13V2.44Z"/><path d="M6.81,14.1v.24s0,0,0,0h-.1v-.13a.33.33,0,0,1,0-.14Z"/><path d="M12.92,4.88a1.92,1.92,0,0,0,0,.24s0,0,0,0h-.1V4.88h.14Z"/><path d="M12.51,5.42v.27h-.14V5.42Z"/><path d="M13.86,7.46H14s0,0,0,0v.24h-.13V7.46Z"/><path d="M13.46,10.17v.24a0,0,0,0,1,0,0h-.11v-.27Z"/><path d="M9.25.14h.12s0,0,0,0V.27H9.25V.14Z"/><path d="M9.39.27H9.5s0,0,0,0a.48.48,0,0,0,0,.12H9.39V.27Z"/><path d="M9.66.68h.11s0,0,0,0V.81H9.66V.68Z"/><path d="M10.07,1.36h.11s0,0,0,0v.11h-.13V1.36Z"/><path d="M10.47,2h.12s0,0,0,0v.11h-.14V2Z"/><path d="M11.69,2.71h.12l0,0v.12H11.7V2.71Z"/><path d="M11.83,3.66a.28.28,0,0,1,0,.13h-.13V3.66h.14Z"/><path d="M12.78,4.2h.11a0,0,0,0,1,0,0,.37.37,0,0,0,0,.11h-.13V4.2Z"/><path d="M13.73,7.32h.11s0,0,0,0v.11h-.13V7.32Z"/><path d="M14,8.41s0,.09,0,.13h-.13V8.41Z"/><path d="M13.32,6h.11s0,0,0,0V6.1h-.14V6Z"/><path d="M13.32,10.44v.11s0,0,0,0h-.11v-.14h.13Z"/><path d="M13.19,10.58v.11s0,0,0,0h-.11v-.13h.14Z"/><path d="M13.46,6.78s0,.09,0,.13h-.13V6.78Z"/><path d="M10.34,11.25c0,.05,0,.09,0,.14H10.2v-.13s.08,0,.13,0Z"/><path d="M10.2,11.39a.57.57,0,0,1,0,.13h-.13v-.14h.13Z"/><path d="M10.07,11.53s0,.08,0,.13H9.93v-.13h.14Z"/><path d="M9.93,11.66a.28.28,0,0,1,0,.13H9.8v-.14h.13Z"/><path d="M9.39,12.34v.11s0,0,0,0H9.25v-.11s0,0,0,0Z"/><path d="M9.25,12.47v.12s0,0,0,0H9.12v-.13Z"/><path d="M9.12,12.61v.11s0,0,0,0H9v-.14Z"/><path d="M9,12.75v.11s0,0,0,0H8.85v-.13Z"/><path d="M12.64,5.29a.57.57,0,0,1,0,.13h-.13V5.3a.29.29,0,0,1,.13,0Z"/><path d="M7.36,13.56s0,.09,0,.13H7.22v-.12a.33.33,0,0,1,.14,0Z"/><path d="M7.22,13.7a.3.3,0,0,1,0,.13H7.08V13.7h.13Z"/><path d="M7.08,13.83a.57.57,0,0,1,0,.13H7v-.13s.09,0,.13,0Z"/><path d="M7,14s0,.09,0,.13H6.81V14Z"/><path d="M12.78,5.15s0,.09,0,.14h-.13V5.15h.14Z"/><path d="M6.68,14.37c0,.05,0,.09,0,.14H6.54v-.13s.09,0,.14,0Z"/><path d="M6.54,14.51a.29.29,0,0,1,0,.13H6.41v-.12a.29.29,0,0,1,.13,0Z"/><path d="M6.41,14.64s0,.09,0,.14H6.27v-.13c.05,0,.09,0,.14,0Z"/><path d="M6.14,15.32s0,.09,0,.13H6v-.14h.14Z"/><path d="M6,15.46s0,.09,0,.13H5.86v-.13H6Z"/><path d="M5.86,15.59a.66.66,0,0,1,0,.14H5.73v-.14h.13Z"/><path d="M5.73,15.73s0,.09,0,.13H5.59v-.13h.14Z"/><path d="M3.69,10.17V7.75s0,0,0,0h.11v2.43a.33.33,0,0,1-.14,0Z"/><path d="M2.47,12.47s0-.08,0-.13h.24s0,0,0,0,0,0,0-.06,0-.06,0-.06h.08v.27H2.75a.57.57,0,0,0,0,.13H2.61v-.13s-.09,0-.14,0Z"/><path d="M3.56,10.85v-.63c0-.06,0-.05,0-.05h.08v.14s0,0,0,.07v.47Z"/><path d="M3.83,7.73V7.24c0-.06,0,0,.06,0H4v.54Z"/><path d="M8.3.81H8.17V.45s0,0,0,0h.1v.4Z"/><path d="M9.25,2.85V2.44h.13c0,.05,0,.09,0,.14v.27Z"/><path d="M6.41,3.53H6.27V3.16c0-.05,0,0,.05,0h.09v.41Z"/><path d="M7.9,3.12v.27H7.63V3.25h.12a.29.29,0,0,0,0-.13Z"/><path d="M3.42,11.25v-.36s0,0,0,0h.1v.4Z"/><path d="M4,7.19V6.82s0,0,0,0h.1v.41Z"/><path d="M6.68,4.07V4a0,0,0,0,0,0,0s-.08,0-.1,0,0-.06,0-.1v0h.27v.27Z"/><path d="M8.44.27V.14a.66.66,0,0,1,.14,0,.57.57,0,0,1,.13,0h0V.27H8.44Z"/><path d="M6.41,4.61V4.37s0,0,0,0h.1v.27Z"/><path d="M3.29,11.53v-.24s0,0,0,0h.1v.27Z"/><path d="M3.15,11.8v-.24s0,0,0,0h.11v.27Z"/><path d="M8.44,1.09H8.31A.53.53,0,0,0,8.3,1V.81h.11s0,0,0,0v.23Z"/><path d="M3,12.07v-.24s0,0,0,0h.1v.27Z"/><path d="M8.58,1.36c-.05,0-.09,0-.14,0V1.09h0a.34.34,0,0,0,.1,0s0,0,0,0v.24Z"/><path d="M2.34,12.75v-.24s0,0,0,0h.1v.27H2.34Z"/><path d="M8.85,1.76a.66.66,0,0,1-.14,0V1.49h.1s0,0,0,0v.23Z"/><path d="M9,2a.57.57,0,0,1-.13,0V1.76H9s0,0,0,0V2Z"/><path d="M9.25,2.44a.29.29,0,0,1-.13,0V2.17h.1s0,0,0,0v.24Z"/><path d="M7.36,2.58s0,0,0,0,0-.07,0-.09.06,0,.09,0h.11c.07,0,.07,0,.07.07v.07H7.36Z"/><path d="M7.08,2.71a.34.34,0,0,0,0-.1s0,0,0,0h.24a.33.33,0,0,0,0,.1s0,0,0,0Z"/><path d="M6.81,2.85V2.74a0,0,0,0,1,0,0h.24v.14H6.81Z"/><path d="M6.54,3v-.1s0,0,0,0h.24V3H6.54Z"/><path d="M7.9,2.85h0s.08,0,.11,0S8,2.93,8,3v.1c0,.06,0,.05,0,.05H7.9V2.85Z"/><path d="M9,3v-.1s0,0,0,0h.24V3H9Z"/><path d="M5.73,5.15v-.1s0,0,0,0H6v.13H5.73Z"/><path d="M8.71,3.12V3a0,0,0,0,1,0,0H9v.14H8.71Z"/><path d="M5.32,5.42v-.1s0,0,0,0h.24v.13H5.32Z"/><path d="M8.44,3.25v-.1s0,0,0,0h.24v.13H8.44Z"/><path d="M4.92,5.7a.37.37,0,0,0,0-.11s0,0,0,0h.24v.13H4.92Z"/><path d="M8.17,3.39V3.28a0,0,0,0,1,0,0h.24v.14H8.17Z"/><path d="M4.24,6.51V6.27s0,0,0,0h.1v.27Z"/><path d="M7.9,3.39h.27v.13H7.9V3.39Z"/><path d="M4.1,6.78V6.54a0,0,0,0,1,0,0h.11v.27Z"/><path d="M6.54,3.8h-.1s0,0,0,0V3.53h.13V3.8Z"/><path d="M6.54,4.34V4.1a0,0,0,0,1,0,0h.11v.27Z"/><path d="M8.3.41s0-.09,0-.14h.13V.41H8.3Z"/><path d="M8.71,1.49a.29.29,0,0,1-.13,0V1.36H8.7a.29.29,0,0,1,0,.13Z"/><path d="M9.12,2.17s-.09,0-.13,0V2h.13s0,.09,0,.13Z"/><path d="M7.63,2.58h.11s0,0,0,0v.11H7.63V2.58Z"/><path d="M7.76,2.71s.09,0,.14,0v.13H7.76V2.71Z"/><path d="M6.41,3.12V3s0,0,0,0h.11v.14H6.41Z"/><path d="M6.27,4.75V4.63l0,0h.12v.14H6.27Z"/><path d="M6.14,4.88V4.77s0,0,0,0h.11v.13H6.14Z"/><path d="M6,5V4.9a0,0,0,0,1,0,0h.11V5H6Z"/><path d="M4.37,6.24V6.12s0,0,0,0h.11v.14H4.37Z"/><path d="M4.51,6.1V6s0,0,0,0h.11V6.1H4.51Z"/><path d="M4.64,6V5.85s0,0,0,0h.11V6H4.64Z"/><path d="M4.78,5.83V5.72s0,0,0,0h.11v.14H4.78Z"/><path d="M2.88,12.2v-.11s0,0,0,0H3v.13H2.88Z"/><path d="M2.2,12.88s0-.09,0-.13h.13v.13H2.2Z"/><path d="M2.07,13a.66.66,0,0,1,0-.14H2.2V13Z"/><path d="M5.19,5.56V5.45s0,0,0,0h.11v.14H5.19Z"/><path d="M5.59,5.29V5.18a0,0,0,0,1,0,0h.11v.14H5.59Z"/><path class="cls-1" d="M4.51,15.32H4.4a0,0,0,0,1,0,0s0-.08,0-.1h-.1s0,0,0,0v-.23h.11s0,0,0,0v-.11H4.5s0-.09,0-.14h.13a.57.57,0,0,0,0-.13h.14v.13h.13a1.93,1.93,0,0,0,0,.24s0,0,0,0H4.79s0,.06,0,.1a0,0,0,0,1,0,0s-.08,0-.1,0,0,.06,0,.09,0,0,0,0-.08,0-.1,0,0,.06,0,.09v0Z"/><path class="cls-1" d="M3.56,14.51H3.32a0,0,0,0,1,0,0v-.11h.13c.05,0,.09,0,.14,0v.13Z"/><path class="cls-1" d="M4,14.92H3.83v-.13H4.1v.14H4Z"/><path class="cls-1" d="M2.2,13.29s-.09,0-.13,0v-.13h.11s0,0,0,0v.11Z"/><path class="cls-1" d="M2.34,13.42H2.21v-.13h.13s0,.09,0,.13Z"/><path class="cls-1" d="M2.47,13.56s-.09,0-.13,0v-.13h.13a.56.56,0,0,1,0,.13Z"/><path class="cls-1" d="M2.61,13.7H2.48v-.13H2.6s0,.09,0,.13Z"/><path class="cls-1" d="M2.74,13.83a.3.3,0,0,1-.13,0V13.7h.13s0,.09,0,.13Z"/><path class="cls-1" d="M2.88,14s-.09,0-.13,0v-.13h.13a.33.33,0,0,1,0,.14Z"/><path class="cls-1" d="M3,14.1a.33.33,0,0,1-.14,0V14H3s0,.09,0,.13Z"/><path class="cls-1" d="M3.15,14.24s-.09,0-.13,0V14.1h.12a.33.33,0,0,1,0,.14Z"/><path class="cls-1" d="M3.29,14.37a.66.66,0,0,1-.14,0v-.13h.13s0,.09,0,.13Z"/><path class="cls-1" d="M3.69,14.64H3.56v-.13h.13s0,.09,0,.13Z"/><path class="cls-1" d="M3.83,14.78s-.09,0-.13,0v-.13h.13a.29.29,0,0,1,0,.13Z"/><path d="M4.1,14.92v-.14h.14v.13H4.1Z"/><path d="M4,14.92H4.1V15s0,0,0,0S4,15.06,4,15,4,15,4,15A.08.08,0,0,1,4,14.92Z"/><path class="cls-1" d="M4.64,15.46s-.09,0-.13,0v-.13h.11s0,0,0,0v.11Z"/><path class="cls-2" d="M4.64,15.46v-.11s0,0,0,0H4.51v0s0-.07,0-.09.07,0,.1,0,0,0,0,0,0-.07,0-.09.06,0,.1,0a0,0,0,0,0,0,0s0-.08,0-.1h.09s0,0,0,0a1.93,1.93,0,0,1,0-.24h.14v.12l0,0h.12v.13h.27V15a.29.29,0,0,0,.13,0h.14v.13s.09,0,.13,0H6v.13H5.89a0,0,0,0,0,0,0v.11H5.75s0,0,0,0v.11H5.62a0,0,0,0,0,0,0v.11H5.48s0,0,0,0v.11H5.21s0,0,0,0,0-.08,0-.1-.07,0-.1,0a0,0,0,0,1,0,0s0-.08,0-.1-.06,0-.1,0,0,0,0,0,0,0,0,0,0-.07,0-.09-.06,0-.08,0Z"/><path class="cls-3" d="M8,3.53h.24a0,0,0,0,0,0,0,.34.34,0,0,1,0-.1h.23s0,0,0,0a.33.33,0,0,1,0-.1h.23s0,0,0,0v-.1h.23s0,0,0,0V3h.25s0,0,0,0V2.71h.24s0,0,0,0,0-.07,0-.09.06,0,.1,0a0,0,0,0,0,0,0V2.39s0-.06,0-.08,0,0-.08,0,0,0,0,0a0,0,0,0,1,0,0V2.13s0-.07,0-.09S9.6,2,9.57,2h0s0,0,0,0,0-.08,0-.1-.07,0-.1,0a0,0,0,0,1,0,0V1.73s0-.07,0-.09-.06,0-.09,0h0a0,0,0,0,1,0,0,.33.33,0,0,0,0-.1s-.07,0-.11,0,0,0,0,0V1.32s0-.07,0-.09-.06,0-.09,0H9a0,0,0,0,1,0,0V1S9,1,9,1s-.06,0-.09,0h0s0,0,0,0V.71s0,0,0,0-.07,0-.09,0,0-.06,0-.09,0,0,0,0-.08,0-.1,0a.33.33,0,0,1,0-.1v0h.11s0,0,0,0V.27h.11s0,0,0,0V.14h.27V.26a.3.3,0,0,0,.13,0h0V.38a0,0,0,0,0,0,0h.11v.1a0,0,0,0,0,0,0h.1V.68a.45.45,0,0,1,0,.11s0,0,0,0h.11V.92a0,0,0,0,0,0,0H9.8v.24s0,0,0,0h.1v.25a0,0,0,0,0,0,0h.12V1.6s0,0,0,0h.11v.23s0,0,0,0h.1v.25s0,0,0,0h.11v.11a0,0,0,0,0,0,0,.41.41,0,0,1,.11,0v.23s0,0,0,0a.33.33,0,0,1,.1,0v.13a.34.34,0,0,1,0,.1s0,0,0,0h.1v.37s0,0,0,0H11v.24s0,0,0,0h.1v.24a0,0,0,0,0,0,0h.11v.12a.29.29,0,0,0,.13,0h0V4a0,0,0,0,0,0,0h.11V4.3s0,0,0,0h.1v.13a.41.41,0,0,1,0,.11s0,0,0,0h.1v.24s0,0,0,0H12v.24s0,0,0,0h.1v.24s0,0,0,0h.11v.13s.09,0,.13,0V5.8s0,0,0,0h.1v.24s0,0,0,0h.1v.41a.34.34,0,0,1,0,.1s0,0,0,0h.1v.24s0,0,0,0h.1V7a.29.29,0,0,0,.13,0h0v.24a0,0,0,0,0,0,0h.1V8s0,0,0,0h.1v.37s0,0,0,0h.11v.37s0,0,0,0h.1v.68h-.1s0,0,0,0V10h-.13s0,.09,0,.13v.13h-.13a.57.57,0,0,0,0,.13h-.12a0,0,0,0,0,0,0v.12h-.11s0,0,0,0a.41.41,0,0,1,0,.11h-.23s0,0,0,0a.41.41,0,0,1,0,.11h-.23s0,0,0,0V11H12s0,0,0,0v.1H10.75a.41.41,0,0,1,0-.11,0,0,0,0,0,0,0h-.25v-.1s0,0,0,0H10.2v0a.33.33,0,0,0,0-.1s-.07,0-.1,0h0s0,0,0,0,0-.07,0-.09-.07,0-.1,0a0,0,0,0,1,0,0,.33.33,0,0,0,0-.1s-.07,0-.11,0,0,0,0,0,0-.07,0-.09-.07,0-.1,0,0,0,0,0,0-.08,0-.1-.06,0-.1,0a0,0,0,0,1,0,0,.33.33,0,0,0,0-.14s0-.07,0-.09-.06,0-.09,0h0a0,0,0,0,1,0,0V9.73s0-.07,0-.09-.06,0-.09,0h0a0,0,0,0,1,0,0V9.46s0-.07,0-.09-.06,0-.09,0h0s0,0,0,0V9.19s0-.07,0-.1-.06,0-.09,0H9s0,0,0,0A.33.33,0,0,0,9,9s-.07,0-.11,0,0,0,0,0V8.78s0-.07,0-.09-.06,0-.09,0h0a0,0,0,0,1,0,0s0-.08,0-.1-.06,0-.1,0,0,0,0,0V8.37a.25.25,0,0,0,0-.09s-.06,0-.09,0h0a0,0,0,0,1,0,0s0-.07,0-.09-.06,0-.1,0,0,0,0,0A.33.33,0,0,0,8.3,8a.33.33,0,0,0,0-.1s-.06,0-.09,0h0s0,0,0,0V7.69s0-.07,0-.09-.06,0-.09,0h0s0,0,0,0V7.42s0-.07,0-.09-.06,0-.09,0h0s0,0,0,0,0-.07,0-.09-.07,0-.1,0a0,0,0,0,1,0,0V6.91H8V7a.29.29,0,0,0,.13,0H9.38a.29.29,0,0,0,0-.13h.27V6.78H9.9a0,0,0,0,0,0,0v-.1h.27v.14h-.1s0,0,0,0v.61s0,0,0,0h.1v.1s0,0,0,0h.48s0,0,0,0a.34.34,0,0,1,0-.1H11a0,0,0,0,0,0,0V7s0,0,0,0h-.11V6.79a.3.3,0,0,0-.13,0,.41.41,0,0,1,0-.11s0,0,0,0a.34.34,0,0,1-.1,0H10.2V6.51h.13s0-.09,0-.14h.24s0,0,0,0v-.1h.13s0-.08,0-.13h.12a.29.29,0,0,0,0-.13H11s0-.09,0-.13h.1s0,0,0,0V5.56h.13s0-.09,0-.14h.1s0,0,0,0V4.78s0,0,0,0h-.1V4.61s0-.09,0-.13h-.13V4.34a.28.28,0,0,0,0-.13H11V4.08a.28.28,0,0,0-.13,0V3.82s0,0,0,0h-.1V3.67s-.09,0-.13,0V3.53h-.14V3.4a.29.29,0,0,0-.13,0V3.3s0,0-.05,0H9.56s0,0,0,0a.33.33,0,0,1,0,.1H9.29s0,0,0,0a.33.33,0,0,1,0,.1H9s0,0,0,0v.1H8.75s0,0,0,0V3.8H8.48s0,0,0,0v.1H8.2a0,0,0,0,0,0,0v.11H8s0,.09,0,.13H7.9v0s0-.08,0-.1-.06,0-.09,0,0,0,0,0V3.66H8s0,0,0,0Zm2.85,4.74V8.4s.09,0,.14,0v.1s0,0,0,0h.37a.57.57,0,0,0,0-.13h.09c.05,0,.05,0,.05-.05V7.74a.33.33,0,0,0-.14,0V7.62s0,0,0,0h-.35s0,0,0,0v.1h-.24s0,0,0,0a.34.34,0,0,1,0,.1h-.1a0,0,0,0,0,0,0v.22a0,0,0,0,0,0,0h.1v.12A.29.29,0,0,0,10.88,8.27Zm0,1.09H10.5s0,0,0,0v.18c0,.07,0,.06.07.06h.07v.11s0,0,0,0h.13s.08,0,.1,0,0,.06,0,.09h0a0,0,0,0,0,0,0H11V10s0,0,0,0h.14a.17.17,0,0,1,.1,0s0,.06,0,.1h0s0,0,0,0h.11v.13h.26a.57.57,0,0,1,0,.13h-.37s0,0,0,0v.18c0,.07,0,.06.06.06h.07v.11a0,0,0,0,0,0,0h.22s0,0,0,0v-.38h.14v.11s0,0,0,0h.22s0,0,0,0v-.38h.14v.11s0,0,0,0h.22s0,0,0,0V9.9h.28a.25.25,0,0,0,.12,0V9.63h.28s.09,0,.13,0V9.38s0,0,0,0h-.39V9.11s0,0,0,0h-.38V8.84a0,0,0,0,0,0,0H12.1V8.54h.14v.11s0,0,0,0h.22s0,0,0,0V8.29s0,0,0,0h-.35a0,0,0,0,0,0,0v.24h-.38a0,0,0,0,0,0,0,1.92,1.92,0,0,1,0,.24h-.37s0,0,0,0v.24h-.38s0,0,0,0Zm-.81-1.09V7.75s0,0,0,0H9.42s0,0,0,0v.1H9.28a0,0,0,0,0,0,0v.35a0,0,0,0,0,0,0h.11v.11a0,0,0,0,0,0,0H10a0,0,0,0,0,0,0Zm1.35-1.22v.11a0,0,0,0,0,0,0h.63s0,0,0,0V6.53a0,0,0,0,0,0,0h-.63s0,0,0,0v.1h-.11s0,0,0,0V7s0,0,0,0Z"/><path class="cls-4" d="M8.85.14v.1s0,0,0,0H8.71V.14Z"/><path class="cls-4" d="M9.25.27a.3.3,0,0,1-.13,0V.14h.13Z"/><path class="cls-5" d="M3.83,14.78a.29.29,0,0,0,0-.13H3.7s0-.09,0-.13H3.56v-.13c-.05,0-.09,0-.14,0H3.29s0-.09,0-.13H3.15a.33.33,0,0,0,0-.14H3S3,14,3,14H2.88a.33.33,0,0,0,0-.14H2.75s0-.09,0-.13H2.61s0-.08,0-.13H2.47a.56.56,0,0,0,0-.13H2.34s0-.09,0-.13H2.2v-.11s0,0,0,0H2.07V13h.25s0,0,0,0v-.11h.11s0,0,0,0v-.11h.28v.12a.29.29,0,0,0,.13,0V13C2.93,13,3,13,3,13v.12a.29.29,0,0,0,.13,0v.13s.08,0,.13,0v.13h.13v.13s.08,0,.13,0v.13h.13v.11s0,0,0,0H4V14s.09,0,.13,0v.12a.33.33,0,0,0,.14,0v.13s.09,0,.13,0v.27H4.24a.57.57,0,0,0,0,.13H4.11s0,.09,0,.13H3.83Z"/><path class="cls-1" d="M5.46,15.86v-.11s0,0,0,0h.11v.13Z"/><path class="cls-5" d="M10.2,11.39h-.13v-.11a0,0,0,0,0,0,0h-.1s0-.07,0-.1a0,0,0,0,0,0,0H9.76s-.07,0-.09,0,0-.06,0-.09h0s0,0,0,0H9.42s0,0,0,0,0-.08,0-.1-.06,0-.1,0a0,0,0,0,1,0,0,.33.33,0,0,0,0-.1s-.07,0-.1,0a0,0,0,0,1,0,0s0-.07,0-.09-.07,0-.1,0a0,0,0,0,1,0,0,.33.33,0,0,0,0-.1s-.07,0-.11,0,0,0,0,0,0-.07,0-.09-.07,0-.1,0,0,0,0,0a.33.33,0,0,0,0-.1s-.07,0-.11,0,0,0,0,0,0-.08,0-.1-.07,0-.1,0,0,0,0,0,0-.08,0-.1-.06,0-.1,0a0,0,0,0,1,0,0,.33.33,0,0,0,0-.1s-.07,0-.1,0,0,0,0,0V9.58s0-.06,0-.08-.05,0-.08,0h0s0,0,0,0,0-.08,0-.1h-.1s0,0,0,0,0,.08,0,.1-.07,0-.1,0a0,0,0,0,0,0,0v.16s0,.06,0,.07-.06,0-.09,0h0s0,0,0,0v.14c0,.11,0,.11-.11.1s0,0,0,0V8.77s0-.06,0-.08-.06,0-.09,0,0,0,0,0V8.09a.22.22,0,0,0,0-.08s-.06,0-.09,0h0a0,0,0,0,1,0,0V7.82s0-.06,0-.08,0,0-.08,0h0s0,0,0,0,0-.07,0-.09-.06,0-.09,0H7V7.48s0,0,0,0H6.81V7.1s0,0,0,0H6.68V6.64h.13v.24s0,0,0,0H7V7l0,0h.11v.24a0,0,0,0,0,0,0h.11v.24s0,0,0,0h.11v.12s0,0,0,0h.11V8a0,0,0,0,0,0,0h.11v.24s0,0,0,0h.1v.11a0,0,0,0,0,0,0H7.9v.24s0,0,0,0H8v.24a0,0,0,0,0,0,0h.11v.11s0,0,0,0H8.3a1.92,1.92,0,0,1,0,.24s0,0,0,0h.11V9.6s0,0,0,0h.11v.11s0,0,0,0h.11V10s0,0,0,0h.11v.12s0,0,0,0H9v.11a0,0,0,0,0,0,0h.11v.12s0,0,0,0h.11v.11a0,0,0,0,0,0,0h.11v.11s0,0,0,0h.12a.41.41,0,0,1,0,.11s0,0,0,0H9.8V11s0,0,0,0h.24a.33.33,0,0,0,0,.14h.12a.33.33,0,0,1,.14,0v.12c-.05,0-.09,0-.13,0Z"/><path class="cls-4" d="M10.2,10.85h.24s0,0,0,0V11H10.2Z"/><path class="cls-4" d="M10.47,11h.25a0,0,0,0,1,0,0,.41.41,0,0,0,0,.11h-.24a0,0,0,0,1,0,0A.33.33,0,0,0,10.47,11Z"/><path class="cls-6" d="M10.2,10.85V11h-.13v-.13Z"/><path class="cls-4" d="M12,11.12V11s0,0,0,0h.1v.14Z"/><path class="cls-7" d="M13.46,6.24v.27h-.13s0,.09,0,.13h-.4V6.42s0,0,0,0h-.09V6.1h.13s0-.09,0-.13h.27a.48.48,0,0,0,0,.12.29.29,0,0,0,.13,0h0v.1s0,0,0,0Z"/><path class="cls-8" d="M13.32,6.1a.29.29,0,0,1-.13,0,.48.48,0,0,1,0-.12h.13Z"/><path class="cls-4" d="M12.78,6.64h-.1s0,0,0,0a.34.34,0,0,0,0-.1h.14Z"/><path class="cls-8" d="M12.78,6.37h.09c.05,0,.05,0,0,0v.09h-.13Z"/><path class="cls-8" d="M12.92,6s0,.09,0,.13h-.13V6s0,0,0,0Z"/><path class="cls-4" d="M12.64,6.1h-.1s0,0,0,0V6h.11s0,0,0,0Z"/><path class="cls-4" d="M12.51,5.83h-.1s0,0,0,0V5.69h.14Z"/><path class="cls-7" d="M13.86,7.59v.14a1.85,1.85,0,0,0,0,.23s0,0,0,0h-.09s0,.07,0,.1,0,0,0,0h-.23V7.77s0,0-.05,0h-.09V7.46h.13s0-.08,0-.13h.13s0,.09,0,.13.08,0,.13,0h0v.1s0,0,0,0Z"/><path class="cls-5" d="M13.32,6.78v.14h-.27V6.78Z"/><path class="cls-4" d="M13.18,7.32h-.1a0,0,0,0,1,0,0V7.05h.1s0,0,0,0S13.19,7.24,13.18,7.32Z"/><path class="cls-8" d="M13.73,7.46c-.05,0-.09,0-.13,0s0-.08,0-.13h.14Z"/><path class="cls-4" d="M13.05,7.05a.29.29,0,0,1-.13,0V6.92h.14Z"/><path class="cls-8" d="M13.32,7.73h.09c.05,0,.05,0,.05,0v.1h-.14Z"/><path class="cls-8" d="M13.46,7.32s0,.09,0,.13h-.13V7.35s0,0,0,0Z"/><path class="cls-4" d="M13.32,8h-.1s0,0,0,0V7.86h.13Z"/><path class="cls-5" d="M14,8.41h-.13v.13h-.27V8.27h.17s.08,0,.1,0,0-.06,0-.09,0,0,0,0H14Z"/><path class="cls-4" d="M13.59,8.81h-.1s0,0,0,0V8.54h.13Z"/><path class="cls-4" d="M13.46,9.76V9.53s0,0,0,0h.1v.27Z"/><path class="cls-5" d="M6.41,14.64s-.09,0-.14,0v.13h0s-.07,0-.09,0,0,.06,0,.09,0,0,0,0-.07,0-.09,0S6,15,6,15a0,0,0,0,1,0,0H5.86v-.11s0,0,0,0H5.59v-.14h.24s0,0,0,0a.17.17,0,0,1,0-.1s.06,0,.09,0,0,0,0,0v-.2s0,0,0,0,.07,0,.09,0,0-.06,0-.09,0,0,0,0,.06,0,.08,0,0-.06,0-.09,0,0,0,0H6.4s0-.06,0-.09,0,0,0,0h.08s0-.06,0-.09,0,0,0,0,.07,0,.09,0,0-.05,0-.08,0,0,0-.05H6.8s0-.06,0-.09,0,0,0,0,.08,0,.09,0,0-.06,0-.09,0,0,0,0-.07,0-.09,0,0-.06,0-.1,0,0,0,0h.25a.56.56,0,0,0,0,.13h.24a0,0,0,0,1,0,0,.41.41,0,0,0,0,.11.33.33,0,0,0-.14,0v.12H7.09v.13s-.09,0-.13,0V14H6.82v.13H6.69a.33.33,0,0,0,0,.14v.13s-.09,0-.14,0v.13a.29.29,0,0,0-.13,0Z"/><path class="cls-1" d="M5.86,15.19s-.09,0-.13,0v-.13h.13Z"/><path class="cls-1" d="M6,15.32v-.13h.13v.13Z"/><path class="cls-8" d="M11.69,2.85h.14v.67H11.7s0,.09,0,.13h-.27V3.55s0,0,0,0h-.11V3.39h.23s0,0,0,0,0-.07,0-.09.06,0,.09,0,0,0,0,0Z"/><path class="cls-5" d="M11.69,3.66s0-.09,0-.13h.13v.14Z"/><path class="cls-8" d="M7.09,13.29H6.84s0,0,0,0,0,.08,0,.1.06,0,.09,0,0,0,0,0,0,.07,0,.09-.05,0-.09,0,0,0,0,0,0,.07,0,.09H6.72s0,0,0,.05,0,.07,0,.08-.06,0-.09,0,0,0,0,0,0,.07,0,.09H6.45s0,0,0,0,0,.07,0,.09H6.31s0,0,0,0,0,.07,0,.09-.06,0-.08,0,0,0,0,0,0,.07,0,.09-.06,0-.09,0,0,0,0,0v.2s0,0,0,0-.07,0-.09,0a.17.17,0,0,0,0,.1s0,0,0,0H5.46v-.13s-.08,0-.13,0h0v-.3c0-.11,0-.11-.11-.1s0,0,0,0v.08s0,0,0,0H4.78v-.13h0s.08,0,.1,0,0-.06,0-.1,0,0,0,0H5s0-.07,0-.11,0,0,0,0h.14s.07,0,.1,0,0-.06,0-.09,0,0,0,0h.14s.07,0,.1,0,0-.06,0-.09,0,0,0,0h.14s.07,0,.09,0,0-.06,0-.09,0,0,0,0,.07,0,.09,0,0-.05,0-.08,0-.05,0-.05h.08s0-.06,0-.09,0,0,0,0,.07,0,.09,0,0-.06,0-.09,0,0,0,0,.07,0,.09,0a.25.25,0,0,0,0-.09s0,0,0,0H6.16a0,0,0,0,1,0,0s0-.08,0-.1-.07,0-.1,0,0,0,0,0v-.14s0-.07,0-.09-.06,0-.09,0,0,0,0,0a1.2,1.2,0,0,0,0-.19c0-.05,0-.05,0-.05h-.4s-.07,0-.09,0,0-.06,0-.09,0,0,0,0h-.2s0,0,0,0a.33.33,0,0,0,0-.1s-.07,0-.11,0a0,0,0,0,1,0,0,.12.12,0,0,0,0-.1s-.07,0-.1,0,0,0,0,0,0-.08,0-.1-.06,0-.1,0,0,0,0,0V11.6c0-.07,0-.08.08-.07s.06,0,.06.06v0s0,0,0,0,.07,0,.09,0,0,.06,0,.1,0,0,0,0a.33.33,0,0,1,.1,0s0,.07,0,.1,0,0,0,0h.15s.07,0,.09,0,0,.05,0,.08,0,.05,0,.05h.46s0,0,0,0,0,.07,0,.09.06,0,.09,0,0,0,0,0,0,.07,0,.09.07,0,.1,0,0,0,0,0a1.34,1.34,0,0,1,0,.2,0,0,0,0,0,0,0s.08,0,.1,0,0,.06,0,.1a0,0,0,0,0,0,0s.07,0,.1,0,0,.07,0,.1,0,0,0,0h.13s.08,0,.1,0,0,.06,0,.09,0,0,0,0h.14s.07,0,.09,0,0,.05,0,.08,0,0,0,0h.77v.14Zm-.41-.07c0-.07,0-.07-.07-.07H6.56l0,0s0,.08,0,.11.06,0,.09,0h0a0,0,0,0,0,0,0Z"/><path class="cls-7" d="M12.1,4.21h.54s0,.08,0,.12a.29.29,0,0,0,.13,0h0v.24a0,0,0,0,1,0,0,.17.17,0,0,0-.1,0s0,.06,0,.09,0,0,0,0h-.09s0,.06,0,.1,0,0,0,0H12.1V4.65s0,0,0,0H12V4.34h.1s0,0,0,0Z"/><path class="cls-8" d="M12.1,4.21v.1s0,0,0,0H12V4.2Z"/><path class="cls-8" d="M12.78,4.34a.29.29,0,0,1-.13,0s0-.08,0-.12h.14Z"/><path class="cls-8" d="M14,8.13h-.1s0,0,0,0,0,.07,0,.09-.07,0-.1,0h-.3V8.13h.23s0,0,0,0,0-.08,0-.1h.09s0,0,0,0a1.85,1.85,0,0,1,0-.23H14Z"/><path class="cls-8" d="M13.32,6.64s0-.08,0-.13h.13v.13Z"/><path class="cls-8" d="M13.46,6.24h-.11s0,0,0,0V6.1h.14Z"/><path class="cls-5" d="M13.32,6.64h.14v.14h-.14V6.64Z"/><path class="cls-5" d="M11.42,3.66h.27V3.8h-.27V3.66Z"/><path class="cls-4" d="M11.42,3.93a.29.29,0,0,1-.13,0V3.8h.13Z"/><path class="cls-4" d="M11.56,4.07h-.11a0,0,0,0,1,0,0V3.93h.12s0,0,0,0Z"/><path class="cls-4" d="M11.69,4.34h-.1s0,0,0,0V4.2h.13Z"/><path class="cls-8" d="M12.1,4.88h.37s0,0,0,0,0-.08,0-.1h.09s0,0,0,0,0-.08,0-.09a.17.17,0,0,1,.1,0,0,0,0,0,0,0,0V4.34h.14v.4h-.12a.29.29,0,0,0,0,.13V5h-.13s0,.09,0,.13h-.4V5H12.1Z"/><path class="cls-5" d="M12.78,4.88a.29.29,0,0,1,0-.13h.12v.14Z"/><path class="cls-7" d="M11.69,2.85v.37s0,0,0,0-.07,0-.09,0,0,.06,0,.09,0,0,0,0h-.23v-.1s0,0,0,0h-.11V3.13a.29.29,0,0,0-.13,0h0V3a.56.56,0,0,0,.13,0,.57.57,0,0,0,0-.13h.1s0,0,0,0v-.1h.27a.56.56,0,0,0,0,.13s.09,0,.14,0Z"/><path class="cls-8" d="M11.29,2.71v.1s0,0,0,0h-.1V2.71Z"/><path class="cls-8" d="M11.7,2.85s-.09,0-.14,0a.56.56,0,0,1,0-.13h.13Z"/><path class="cls-4" d="M10.88,2.85h-.1s0,0,0,0a.34.34,0,0,0,0-.1h.13Z"/><path class="cls-8" d="M11.15,2.85a.57.57,0,0,1,0,.13A.56.56,0,0,1,11,3V2.87s0,0,0,0Z"/><path class="cls-4" d="M11,3.25h-.11s0,0,0,0v-.1H11Z"/><path class="cls-8" d="M8.31,13v.13H7.76V13s0,0,0,0h.52Z"/><path class="cls-8" d="M7,7.59H7s.07,0,.09,0,0,.06,0,.09,0,0,0,0h0s.07,0,.08,0,0,0,0,.08V8a0,0,0,0,0,0,0h0s.07,0,.09,0a.22.22,0,0,1,0,.08v.55s0,0,0,0,.07,0,.09,0,0,.05,0,.08V10s0,0,0,0,.11,0,.11-.1V9.79s0,0,0,0h0s.07,0,.09,0,0-.05,0-.07V9.52a0,0,0,0,1,0,0s.08,0,.1,0,0-.06,0-.1,0,0,0,0H8s0,.06,0,.1,0,0,0,0h0s.07,0,.08,0,0,.05,0,.08v.15s0,0,0,0,.08,0,.1,0a.33.33,0,0,1,0,.1,0,0,0,0,0,0,0s.08,0,.1,0,0,.06,0,.1,0,0,0,0,.08,0,.1,0,0,.07,0,.1,0,0,0,0,.08,0,.11,0a.33.33,0,0,1,0,.1s0,0,0,0,.08,0,.1,0,0,.06,0,.09,0,0,0,0,.09,0,.11,0a.33.33,0,0,1,0,.1,0,0,0,0,0,0,0s.08,0,.1,0,0,.06,0,.09a0,0,0,0,0,0,0s.08,0,.1,0a.33.33,0,0,1,0,.1,0,0,0,0,0,0,0s.08,0,.1,0,0,.06,0,.1,0,0,0,0h.21s0,0,0,0h0s0,.07,0,.09.06,0,.09,0H9.9a0,0,0,0,1,0,0s0,.08,0,.1H10a0,0,0,0,1,0,0v.11H9.94s0,.09,0,.14H9.8a.57.57,0,0,0,0,.13H9.53a.56.56,0,0,0,0,.13.66.66,0,0,0,0,.14H9.4a.28.28,0,0,0,0,.13v.27H9.28s0,0,0,0v.11H9.12v-.78s0,0,0,0-.07,0-.09,0,0-.06,0-.09,0,0,0,0-.08,0-.1,0a.34.34,0,0,1,0-.1v0h0c.1,0,.1,0,.09-.1s0,0,0,0h-.1v-.11s0,0,0,0H8.71V11s0,0,0,0H8.58v-.11s0,0,0,0H8.44v0c0-.1,0-.1-.1-.1s0,0,0,0a.41.41,0,0,1,0,.11h0s-.08,0-.1,0,0-.06,0-.09,0,0,0,0H7.53s0,0,0,0V11s0,0,0,0-.08,0-.1,0a.34.34,0,0,0,0,.1v.16H7.22v-.4h.11s0,0,0,0v-1c0-.11,0-.11-.12-.1s0,0,0,0v1.06H7.13s0,0,0,0v.36H7V9.19s0-.08,0-.1H6.85s0,0,0,0V8.78s0-.08,0-.1H6.71s0,0,0,0V8.38s0-.08,0-.1-.06,0-.09,0h0s0,0,0,0V8.1s0-.08,0-.09,0,0-.08,0,0,0,0,0V7.63s0,0,0,0H6.28s0-.07,0-.1a0,0,0,0,0,0,0s-.07,0-.09,0,0-.06,0-.09,0,0,0,0-.08,0-.09,0,0-.06,0-.1v0h.37s0,0,0,0,0,.07,0,.09.07,0,.1,0,0,0,0,0,0,.07,0,.09a.17.17,0,0,0,.1,0h0v.13h.13v.24s0,0,0,0H7v.45s0,.07,0,.09.06,0,.09,0,0,0,0,0v-.5H7V7.59Zm.27,1.16V8.64c0-.1,0-.1-.1-.1s0,0,0,0a2.43,2.43,0,0,1,0,.27c0,.1,0,.1.11.1a0,0,0,0,0,0,0Z"/><path class="cls-5" d="M9.66,11.66H9.8v.14c-.05,0-.09,0-.14,0Z"/><path class="cls-5" d="M9.39,12.07a.28.28,0,0,1,0-.13h.12v.14Z"/><path class="cls-8" d="M12,4.34v.14h-.13a.3.3,0,0,1,0-.13Z"/><path class="cls-4" d="M11.83,4.61h-.1s0,0,0,0a.41.41,0,0,0,0-.11h.13Z"/><path class="cls-4" d="M13.32,10.17s0-.09,0-.13h.13v.14Z"/><path class="cls-4" d="M12.37,11v-.1s0,0,0,0h.1V11Z"/><path class="cls-4" d="M12.91,10.71a.41.41,0,0,0,0-.11s0,0,0,0h.11v.13Z"/><path class="cls-4" d="M12.64,10.85a.41.41,0,0,0,0-.11s0,0,0,0h.1v.14Z"/><path class="cls-4" d="M9.52.54h-.1a0,0,0,0,1,0,0V.41h.13Z"/><path class="cls-4" d="M9.66.81H9.55s0,0,0,0a.45.45,0,0,0,0-.11h.13Z"/><path class="cls-4" d="M9.8,1H9.69a0,0,0,0,1,0,0V.81H9.8Z"/><path class="cls-4" d="M9.93,1.22h-.1s0,0,0,0V1.08h.13Z"/><path class="cls-4" d="M10.07,1.49H10a0,0,0,0,1,0,0V1.36h.14Z"/><path class="cls-4" d="M10.2,1.63h-.11s0,0,0,0V1.49h.13Z"/><path class="cls-4" d="M10.34,1.9h-.1s0,0,0,0v-.1h.14Z"/><path class="cls-4" d="M10.47,2.17h-.11s0,0,0,0V2h.13Z"/><path class="cls-8" d="M8.85,12.75v.13H8.57s0-.07,0-.1,0,0,0,0h.24Z"/><path class="cls-8" d="M8.58,13H8.3a.41.41,0,0,0,0-.11s0,0,0,0h.24Z"/><path class="cls-4" d="M10.61,2.31a.41.41,0,0,0-.11,0,0,0,0,0,1,0,0V2.17h.14Z"/><path class="cls-4" d="M10.74,2.58a.33.33,0,0,0-.1,0s0,0,0,0v-.1h.14Z"/><path class="cls-5" d="M12.64,5.15s0-.09,0-.13h.13v.13Z"/><path class="cls-5" d="M12.24,5.15h.4v.14a.29.29,0,0,0-.13,0v.12h-.14V5.31s0,0,0,0h-.11Z"/><path class="cls-4" d="M12.37,5.56s-.09,0-.13,0V5.42h.13Z"/><path class="cls-8" d="M13.86,7.59h-.1s0,0,0,0v-.1h.13Z"/><path class="cls-4" d="M13.19,10.44a.57.57,0,0,1,0-.13h.13v.14Z"/><path class="cls-4" d="M9.39.41H9.28a0,0,0,0,1,0,0V.27h.14Z"/><path class="cls-4" d="M13.05,10.58v-.12a0,0,0,0,1,0,0h.12v.14Z"/><path class="cls-5" d="M9.93,11.53s0-.09,0-.14h.13v.14Z"/><path class="cls-5" d="M9.8,11.66a.57.57,0,0,1,0-.13h.13v.13Z"/><path class="cls-8" d="M9.12,12.61H9V12.5a0,0,0,0,1,0,0h.11Z"/><path class="cls-8" d="M9,12.75H8.85v-.1s0,0,0,0H9Z"/><path class="cls-1" d="M5.86,15.46v-.11a0,0,0,0,1,0,0H6v.14Z"/><path class="cls-1" d="M5.73,15.59v-.11s0,0,0,0h.11v.13Z"/><path class="cls-1" d="M5.59,15.73v-.11a0,0,0,0,1,0,0h.11v.14Z"/><path class="cls-7" d="M9,12.61H8.87s0,0,0,0v.1H8.61s0,0,0,0,0,.07,0,.1H8.34s0,0,0,0a.41.41,0,0,1,0,.11H7.79s0,0,0,0v.11H7s0,0,0,0,0-.06,0-.08-.06,0-.09,0H6.71s0,0,0,0,0-.07,0-.09-.06,0-.1,0H6.44s0,0,0,0,0-.08,0-.1-.07,0-.1,0a0,0,0,0,1,0,0s0-.08,0-.1-.07,0-.1,0a0,0,0,0,1,0,0,1.34,1.34,0,0,0,0-.2s0,0,0,0-.08,0-.1,0,0-.06,0-.09,0,0,0,0-.07,0-.09,0,0-.06,0-.09,0,0,0,0H5.37s0,0,0-.05,0-.06,0-.08-.06,0-.09,0H5.08s0,0,0,0,0-.08,0-.1a.33.33,0,0,0-.1,0s0,0,0,0,0-.08,0-.1-.06,0-.09,0,0,0,0,0v0c0-.07,0-.06-.06-.06s-.08,0-.08.07v.16s0,0,0,0,.08,0,.1,0,0,.06,0,.1,0,0,0,0,.08,0,.1,0a.12.12,0,0,1,0,.1,0,0,0,0,0,0,0s.08,0,.11,0a.33.33,0,0,1,0,.1s0,0,0,0h.2s0,0,0,0,0,.07,0,.09.06,0,.09,0h.4s0,0,0,.05a1.2,1.2,0,0,1,0,.19s0,0,0,0,.07,0,.09,0,0,.06,0,.09v.14s0,0,0,0,.08,0,.1,0,0,.07,0,.1a0,0,0,0,0,0,0h.21s0,0,0,0a.25.25,0,0,1,0,.09s-.06,0-.09,0,0,0,0,0,0,.08,0,.09-.06,0-.09,0,0,0,0,0,0,.07,0,.09H6s0,0,0,.05,0,.07,0,.08-.06,0-.09,0,0,0,0,0,0,.07,0,.09-.06,0-.09,0H5.63s0,0,0,0,0,.07,0,.09-.07,0-.1,0H5.35s0,0,0,0,0,.07,0,.09-.07,0-.1,0H5.08s0,0,0,0,0,.09,0,.11h-.1s0,0,0,0,0,.08,0,.1-.07,0-.1,0H4.64v-.13s-.09,0-.13,0V14s0,0,0,0H4.37v-.1s0,0,0,0H4.24s0-.09,0-.13H4v-.12s-.09,0-.13,0v-.11a0,0,0,0,0,0,0H3.7s0-.07,0-.1,0,0,0,0H3.56v-.11a0,0,0,0,0,0,0H3.42V13s0,0,0,0H3.29v-.11a0,0,0,0,0,0,0H3.15v-.11s0,0,0,0H3v-.1a0,0,0,0,0,0,0H2.88v-.27H3c0-.05,0-.09,0-.14h.11s0,0,0,0v-.25h.09s0,0,0,0v-.23h.09s0,0,0,0v-.23h.08c.05,0,.05,0,.05,0V11h.09c.05,0,.05,0,0,0v-.56s0-.05,0-.07H4v.25s0,0,0,0H4.1v.1s0,0,0,0,.09,0,.1-.1,0,0,0,0H4.1v-.24s0,0,0,0H4V8.73a0,0,0,0,1,0,0s0,0,0,0h-.1V7.87h.09c.05,0,.05,0,.05,0s0-.06,0-.09V7.32h.09s0,0,0,0V6.92h.09s0,0,0,0V6.64h.09s0,0,0,0V6.37H4.5s0-.09,0-.13h.11s0,0,0,0V6.1h.12s0,0,0,0V6h.11s0,0,0,0V5.83H5s0,0,0,0V5.7H5.3s0,0,0,0V5.56h.1s0,0,0,0v-.1H5.7s0,0,0,0V5.29h.1s0,0,0,0V5.15h.25s0,0,0,0a.4.4,0,0,1,0-.11h.11s0,0,0,0V4.88h.11s0,0,0,0V4.75h.24a0,0,0,0,0,0,0V4.61h.11s0,0,0,0V4.34h.13s0-.09,0-.14V3.93h.27V4a0,0,0,0,0,0,0h.1v.5a.75.75,0,0,0,0,.15s0,0,0,0H7.24s0,0,0,0v.35a0,0,0,0,1,0,0H7.12s0,0,0,0v.2s0,0,0,0-.08,0-.1,0,0,.07,0,.1a0,0,0,0,1,0,0H6.68v-.1s0,0,0,0-.09,0-.1.1,0,0,0,0h.1v.16s0,.08,0,.1-.06,0-.09,0h0a0,0,0,0,0,0,0V6a.33.33,0,0,1,0,.1s-.07,0-.1,0h0s0,0,0,0v.15a.17.17,0,0,1,0,.08s-.05,0-.08,0-.05,0-.05,0v.33s0,0,0,0-.07,0-.09,0,0,.06,0,.1,0,0,0,0H5.87s0,.06,0,.09,0,0,0,0H5.29c-.11,0-.11,0-.1.11h0s0,0,0,0H6v0s0,.08,0,.1.06,0,.09,0,0,0,0,0,0,.07,0,.09.06,0,.09,0a0,0,0,0,1,0,0s0,.08,0,.1h.09s0,0,0,0V8s0,0,0,0,.06,0,.08,0,0,.05,0,.09v.14s0,0,0,0h0s.07,0,.09,0,0,.07,0,.1v.26s0,0,0,0H6.8s0,.07,0,.1V9s0,0,0,0h.09s0,.06,0,.1v2.2h-.1s0,0,0,0v.23H6.7s0,0,0,0v.12H6.57s0,0,0,0v.11h-.1s0,0,0,0,0,.09.09.1,0,0,0,0v-.1h.11s0,0,0,0V11.8h.11s0,0,0,0v-.11h.1s0,0,0,0H7s0-.06,0-.08,0,0,.07,0,0,0,0,0v-.09H7.2a0,0,0,0,0,0,0v-.12h.13v-.16a.34.34,0,0,1,0-.1s.06,0,.1,0,0,0,0,0v-.2s0,0,0,0h.61s0,0,0,0,0,.07,0,.09.06,0,.1,0h0a.4.4,0,0,1,0,.11s0,0,0,0h.11v.12l0,0h.12v.11s0,0,0,0h.11v.12a0,0,0,0,0,0,0h.12v0a.34.34,0,0,0,0,.1s.07,0,.1,0,0,0,0,0,0,.07,0,.09.06,0,.09,0,0,0,0,0v.78H9a0,0,0,0,0,0,0Zm-3.39.54h.13s0-.07,0-.1,0,0,0,0,.08,0,.1,0a.34.34,0,0,0,0-.1s0,0,0,0H5.48s0,0,0,0V13H5.33s0,.09,0,.13H5.21s0,0,0,0v.14a.25.25,0,0,1,0,.09s-.06,0-.09,0h0a0,0,0,0,0,0,0v.14c0,.11,0,.11.11.11s0,0,0,0a.33.33,0,0,1,0-.1s.07,0,.1,0a0,0,0,0,0,0,0,.17.17,0,0,1,0-.1s.06,0,.1,0,0,0,0,0v-.11h.13A.66.66,0,0,0,5.59,13.15Z"/><path class="cls-8" d="M4,10.3H3.7v-.14a.33.33,0,0,0,.14,0V8.68h.1s0,0,0,0a0,0,0,0,0,0,0v1.58Z"/><path class="cls-8" d="M4,7.73s0,.06,0,.09,0,0-.05,0H3.83V7.73Z"/><path class="cls-1" d="M2.75,12.75H2.47v-.14h.28v.14Z"/><path class="cls-8" d="M3,12.2c0,.05,0,.09,0,.14H2.88V12.2Z"/><path class="cls-2" d="M2.61,12.61H2.47v-.13s.09,0,.14,0Z"/><path class="cls-8" d="M2.88,12.47v.14H2.75a.57.57,0,0,1,0-.13Z"/><path class="cls-8" d="M3.69,10.85v.09s0,0,0,0H3.56v-.13Z"/><path class="cls-8" d="M4.1,7.19v.09s0,0,0,0H4V7.19Z"/><path class="cls-6" d="M9.12,2.17s0-.09,0-.13H9V1.8s0,0,0,0h-.1V1.53s0,0,0,0h-.1a.29.29,0,0,0,0-.13H8.58V1.12s0,0,0,0a.34.34,0,0,1-.1,0V.85s0,0,0,0h-.1V.41h.13V.57a.17.17,0,0,0,0,.1s.06,0,.09,0h0s0,0,0,0a.65.65,0,0,0,0,.14s0,.08,0,.1.06,0,.09,0h0a0,0,0,0,1,0,0v.13s0,.08,0,.1.06,0,.09,0h0a0,0,0,0,1,0,0,.34.34,0,0,0,0,.1s.07,0,.11,0,0,0,0,0v.14s0,.08,0,.1.06,0,.09,0h0s0,0,0,0v.14s0,.08,0,.1.06,0,.09,0h0s0,0,0,0,0,.08,0,.1.07,0,.1,0a0,0,0,0,1,0,0V2.2s0,.08,0,.1h.1s0,0,0,0a.81.81,0,0,0,0,.22,0,0,0,0,1,0,0H9.39c0-.05,0-.09,0-.14H9.25V2.2s0,0,0,0Z"/><path class="cls-4" d="M9.39,2.58H9.5a0,0,0,0,0,0,0,.81.81,0,0,1,0-.22s0,0,0,0H9.4s0-.07,0-.1V2.06a0,0,0,0,0,0,0s-.08,0-.1,0,0-.06,0-.1,0,0,0,0h0s-.07,0-.09,0,0-.07,0-.1V1.65s0,0,0,0h0s-.07,0-.09,0,0-.07,0-.1V1.38s0,0,0,0-.09,0-.11,0a.34.34,0,0,1,0-.1,0,0,0,0,0,0,0h0s-.07,0-.09,0,0-.06,0-.1V1a0,0,0,0,0,0,0h0s-.08,0-.09,0,0-.06,0-.1a.65.65,0,0,1,0-.14s0,0,0,0h0s-.08,0-.09,0a.17.17,0,0,1,0-.1V.41h.14v0a.33.33,0,0,0,0,.1s.06,0,.1,0,0,0,0,0,0,.07,0,.09.06,0,.09,0,0,0,0,0V.92s0,0,0,0h0S9,.93,9,1,9,1,9,1v.15a0,0,0,0,0,0,0H9s.08,0,.09,0,0,.06,0,.09v.14s0,0,0,0,.09,0,.11,0a.33.33,0,0,1,0,.1,0,0,0,0,0,0,0h0s.08,0,.09,0,0,.06,0,.09v.14a0,0,0,0,0,0,0s.08,0,.1,0,0,.06,0,.1,0,0,0,0h0s.07,0,.08,0,0,.06,0,.09v.15a0,0,0,0,0,0,0s0,0,0,0,.06,0,.08,0,0,.06,0,.08v.16a0,0,0,0,1,0,0s-.08,0-.1,0,0,.06,0,.09,0,0,0,0H9.39Z"/><path class="cls-4" d="M9.39,2.85V3s0,0,0,0H9.25V2.85Z"/><path class="cls-3" d="M6.54,3.66V3.42s0,0,0,0h-.1V3.25h.12a.29.29,0,0,0,0-.13h.14v.31c0,.1,0,.1.1.1s0,0,0,0V3.13a.29.29,0,0,0-.13,0V3H7v.31c0,.1,0,.1.1.1s0,0,0,0V3S7,3,7,3V2.85h.27v.31c0,.1,0,.1.1.09s0,0,0,0,0-.08,0-.1.06,0,.09,0h0v.27H7.25s0,0,0,0v.1H7s0,0,0,0v.1H6.54Z"/><path class="cls-4" d="M6.54,3.12a.29.29,0,0,1,0,.13H6.41V3.12Z"/><path class="cls-4" d="M6.41,3.39h.1s0,0,0,0v.11H6.41Z"/><path class="cls-6" d="M7.76,2.85H7.9v.27H7.76Z"/><path class="cls-4" d="M7.49,3.39V3.12h.14v.27H7.49Z"/><path class="cls-6" d="M7.63,3.25V3.12h.13a.29.29,0,0,1,0,.13Z"/><path class="cls-6" d="M7.63,3.39h.13v.13H7.63V3.39Z"/><path class="cls-4" d="M7.76,3.52V3.39H7.9v.14H7.76Z"/><path class="cls-8" d="M3.56,11.25v.1s0,0-.05,0H3.43v-.14Z"/><path class="cls-8" d="M4.24,6.78v.09s0,0,0,0H4.1V6.78Z"/><path class="cls-4" d="M6.54,3.66h.27V3.8H6.54Z"/><path class="cls-9" d="M7,3.93V4.2H6.81V3.93Z"/><path class="cls-10" d="M7,3.93H6.82V3.8H7v.13Z"/><path class="cls-10" d="M6.81,4.07V4.2H6.68V4.07Z"/><path class="cls-6" d="M8.58.41H8.44V.27h.14V.41Z"/><path class="cls-4" d="M8.58.41V.27h.13V.38s0,0,0,0Z"/><path class="cls-8" d="M6.68,4.61v.11a0,0,0,0,1,0,0H6.41V4.61h.27Z"/><path class="cls-10" d="M6.54,4.34h.14v.13H6.54Z"/><path class="cls-9" d="M6.54,4.47h.14v.13H6.54Z"/><path class="cls-8" d="M3.42,11.52v.1s0,0,0,0H3.29v-.13Z"/><path class="cls-8" d="M3.29,11.8v.09s0,0,0,0H3.15V11.8Z"/><path class="cls-8" d="M3.15,12.07v.11s0,0,0,0H3v-.13Z"/><path class="cls-1" d="M2.47,12.75v.11s0,0,0,0H2.34v-.13Z"/><path class="cls-4" d="M7.22,2.85H7.08V2.71h.24s0,0,0,0a.33.33,0,0,1,0-.1h.27v.13h-.1s0,0,0,0v.37h0s-.07,0-.09,0,0,.07,0,.1,0,0,0,0-.1,0-.1-.09V3h.1s0,0,0,0a.19.19,0,0,0,0-.08s-.06,0-.09,0Z"/><path class="cls-4" d="M7,3H6.81V2.85H7V3Z"/><path class="cls-4" d="M6.68,3v.14H6.54V3Z"/><path class="cls-4" d="M9.12,3v.11s0,0,0,0H9V3Z"/><path class="cls-8" d="M5.86,5.15v.11s0,0,0,0h-.1V5.15Z"/><path class="cls-8" d="M6.14,5a.4.4,0,0,0,0,.11s0,0,0,0H6V5Z"/><path class="cls-4" d="M8.85,3.12v.1s0,0,0,0h-.1V3.12Z"/><path class="cls-8" d="M5.46,5.43v.1s0,0,0,0h-.1V5.42Z"/><path class="cls-8" d="M5.73,5.29V5.4s0,0,0,0H5.59V5.29Z"/><path class="cls-4" d="M8.58,3.26a.33.33,0,0,0,0,.1s0,0,0,0h-.1V3.25Z"/><path class="cls-8" d="M5.05,5.7v.1s0,0,0,0H4.91V5.69Z"/><path class="cls-8" d="M5.32,5.56v.11s0,0,0,0H5.18V5.56Z"/><path class="cls-4" d="M8.31,3.39a.34.34,0,0,0,0,.1,0,0,0,0,1,0,0h-.1V3.39Z"/><path class="cls-8" d="M4.37,6.51V6.6s0,0,0,0H4.24V6.51Z"/><path class="cls-8" d="M4.51,6.24s0,.09,0,.13H4.37V6.24Z"/><path class="cls-4" d="M8,3.53v.1s0,0,0,0H7.9V3.53H8Z"/><path class="cls-9" d="M6.68,4.47V4.2h.13v.27H6.68Z"/><path class="cls-4" d="M7.76,3.12H7.63V2.71h.13v.41Z"/><path class="cls-8" d="M6.41,4.75v.11s0,0,0,0H6.27V4.75Z"/><path class="cls-8" d="M6.27,4.88V5s0,0,0,0H6.13V4.88Z"/><path class="cls-8" d="M4.64,6.1v.11s0,0,0,0H4.51V6.1Z"/><path class="cls-8" d="M4.78,6v.11s0,0,0,0H4.64V6Z"/><path class="cls-8" d="M4.91,5.83v.11s0,0,0,0H4.78V5.83Z"/><path class="cls-1" d="M2.34,12.88V13s0,0,0,0H2.2v-.14Z"/><path class="cls-2" d="M4.78,14.51H4.64V14.4a0,0,0,0,1,0,0h.11v.14Z"/><path class="cls-2" d="M4.64,14.51a.57.57,0,0,1,0,.13H4.51v-.13h.13Z"/><path class="cls-2" d="M4.91,14.64H4.78v-.13h.13v.13Z"/><path class="cls-2" d="M4.51,14.64s0,.09,0,.14H4.37v-.14h.14Z"/><path class="cls-2" d="M4.24,14.91v-.13h.13v.11s0,0,0,0Z"/><path class="cls-1" d="M4.1,14.78s0-.09,0-.13h.13v.14H4.1Z"/><path d="M5.19,14.78H5.07l0,0v-.12h.27v.14H5.19Z"/><path d="M5.46,14.78h.13v.14H5.32v-.14h.14Z"/><path d="M5.86,15.05H5.59v-.13h.24s0,0,0,0Z"/><path d="M4.92,14.64v-.13H5a.29.29,0,0,1,0,.13H4.92Z"/><path class="cls-1" d="M5.32,14.78v.14H5.19v-.13Z"/><path class="cls-1" d="M5.59,14.92v.13a.29.29,0,0,1-.13,0v-.12Z"/><path class="cls-4" d="M10.2,10.85H9.93v-.13s-.09,0-.13,0h0v0s0-.07,0-.09-.06,0-.1,0h0a0,0,0,0,1,0,0s0-.08,0-.1-.06,0-.1,0a0,0,0,0,1,0,0s0-.07,0-.09-.07,0-.1,0,0,0,0,0,0-.08,0-.1-.06,0-.1,0a0,0,0,0,1,0,0,.34.34,0,0,0,0-.1s-.07,0-.1,0,0,0,0,0,0-.08,0-.1S9,9.9,9,9.9a0,0,0,0,1,0,0V9.73s0-.07,0-.09-.06,0-.09,0h0s0,0,0,0,0-.08,0-.1-.07,0-.1,0a0,0,0,0,1,0,0V9.32s0-.07,0-.09-.06,0-.09,0h0s0,0,0,0V9.05a.25.25,0,0,0,0-.09s-.06,0-.09,0h0a0,0,0,0,1,0,0s0-.08,0-.1-.06,0-.1,0,0,0,0,0a.38.38,0,0,0,0-.15s0-.07,0-.09-.06,0-.09,0h0s0,0,0,0V8.37s0-.07,0-.09-.06,0-.09,0h0a0,0,0,0,1,0,0s0-.07,0-.09-.07,0-.11,0,0,0,0,0V8s0-.06,0-.08,0,0-.08,0h0s0,0,0,0V7.68s0-.06,0-.08-.06,0-.09,0h0s0,0,0,0,0-.08,0-.1-.07,0-.1,0a0,0,0,0,1,0,0V7.27s0-.06,0-.07-.06,0-.09,0h0s0,0,0,0V7s0-.06,0-.08,0,0-.08,0h0a0,0,0,0,1,0,0V6.73s0-.06,0-.08,0,0-.08,0h0s0,0,0,0V6.1h.14v.27h.14a.66.66,0,0,0,0,.14.57.57,0,0,0,0,.13h.13v.13a.33.33,0,0,0,.14,0v.11s0,0,0,0h.11v.25a0,0,0,0,0,0,0s.08,0,.1,0,0,.06,0,.09,0,0,0,0h0s.07,0,.09,0,0,.06,0,.09v.15s0,0,0,0h0s.08,0,.09,0,0,.06,0,.09v.15s0,0,0,0h0s.07,0,.09,0a.33.33,0,0,1,0,.1.33.33,0,0,1,0,.14s0,0,0,0,.08,0,.1,0,0,.06,0,.09a0,0,0,0,0,0,0h0s.07,0,.09,0a.25.25,0,0,1,0,.09v.14s0,0,0,0,.08,0,.1,0,0,.07,0,.1a0,0,0,0,0,0,0h0s.07,0,.09,0,0,.06,0,.09v.14s0,0,0,0S9,8.93,9,9a.33.33,0,0,1,0,.1s0,0,0,0H9s.08,0,.09,0,0,.06,0,.1v.14s0,0,0,0h0s.07,0,.09,0,0,.06,0,.09V9.6a0,0,0,0,0,0,0h0s.08,0,.09,0,0,.06,0,.09v.14a0,0,0,0,0,0,0h0s.07,0,.09,0,0,.06,0,.09a.33.33,0,0,1,0,.14,0,0,0,0,0,0,0s.08,0,.1,0,0,.06,0,.1,0,0,0,0,.08,0,.1,0,0,.06,0,.09,0,0,0,0,.08,0,.11,0a.33.33,0,0,1,0,.1,0,0,0,0,0,0,0s.08,0,.1,0,0,.06,0,.09,0,0,0,0h0s.08,0,.1,0a.33.33,0,0,1,0,.1Z"/><path d="M9,7.05H8.17V6.92H9Z"/><path class="cls-4" d="M7.76,3.66V4s0,0,0,0,.07,0,.09,0,0,.06,0,.1v0H7.79a0,0,0,0,0,0,0v.11H7.63V3.66Z"/><path d="M11.42,7.73a.33.33,0,0,1,.14,0v.62c0,.05,0,.05-.05.05h-.09V7.73Z"/><path class="cls-4" d="M11.29,4.75h.1s0,0,0,0v.61s0,0,0,0h-.1V4.75Z"/><path class="cls-4" d="M10.2,7.46h-.1s0,0,0,0V6.81s0,0,0,0h.1v.68Z"/><path class="cls-4" d="M12.24,10.17H12.1v-.09c0-.05,0-.05,0-.05h-.18c-.05,0-.05,0-.05,0V9.9h.41Z"/><path class="cls-4" d="M12.51,9.08h.13v.27h-.13V9.25s0,0,0,0h-.21s0,0,0,0v-.1h.27Z"/><path class="cls-4" d="M11.42,10.17h-.11s0,0,0,0h0s0-.08,0-.1a.17.17,0,0,0-.1,0H11s0,0,0,0V9.9h.4v.27Z"/><path class="cls-4" d="M12.64,9.9h-.13V9.8s0,0,0,0h-.18s0,0,0,0V9.63h.4Z"/><path class="cls-4" d="M12.1,8.81h.14v.27H12.1V9a0,0,0,0,0,0,0h-.21a0,0,0,0,1,0,0V8.81h.27Z"/><path class="cls-4" d="M11,9.9h-.11a0,0,0,0,1,0,0h0s0-.07,0-.09-.06,0-.1,0h-.13s0,0,0,0V9.63H11V9.9Z"/><path class="cls-4" d="M13.05,9.63h-.14a.31.31,0,0,1,0-.1s0,0,0,0h-.21s0,0,0,0v-.1h.41Z"/><path class="cls-4" d="M11.83,10.44h-.14a.57.57,0,0,0,0-.13h-.26v-.13h.41Z"/><path d="M10.88,9.63h-.27V9.36h.13v.12a.29.29,0,0,0,.13,0Z"/><path d="M12.91,9.36h-.27V9.09h.14v.12a.3.3,0,0,0,.13,0Z"/><path d="M11,9.09h.13v.12a.28.28,0,0,0,.13,0v.14H11Z"/><path d="M12.24,9.08V8.81h.13v.13s.08,0,.13,0v.13Z"/><path d="M11.56,6.51H12v.13h-.41Z"/><path class="cls-4" d="M9,7.05V6.92h.41a.29.29,0,0,1,0,.13H9Z"/><path d="M11.42,8.81h.14v.13s.09,0,.13,0v.13h-.27Z"/><path d="M9.53,7.73h.4v.13H9.52Z"/><path d="M12.1,8.81h-.27V8.54H12v.13s.09,0,.13,0Z"/><path d="M8,6.92H7.76V6.78h.4a.33.33,0,0,1,0,.14H8Z"/><path d="M11.42,10.44h.14v.13s.09,0,.13,0v.13h-.27Z"/><path d="M11.83,10.44v-.27H12v.13h.13v.13Z"/><path d="M12.1,6.64v.41H12V6.64h.13Z"/><path d="M12.24,10.17V9.9h.13V10h.13v.14Z"/><path d="M9.66,3.25h.41v.14H9.66Z"/><path d="M12,7.19h-.4V7.05H12Z"/><path d="M9.93,8.41h-.4V8.27h.41Z"/><path d="M12.64,9.9V9.63h.14v.12a.3.3,0,0,0,.13,0v.13a.25.25,0,0,1-.12,0Z"/><path class="cls-4" d="M11.42,7.05h-.11s0,0,0,0V6.67s0,0,0,0h.11v.41Z"/><path class="cls-4" d="M9.39,8.27H9.28a0,0,0,0,1,0,0V7.89a0,0,0,0,1,0,0h.11v.4Z"/><path d="M13.05,9.63V9.36h.14v.12a.29.29,0,0,0,.13,0v.13s-.09,0-.13,0Z"/><path d="M10.07,7.87v.4H9.93V7.86h.14Z"/><path d="M10.07,6.64H9.66V6.51h.41Z"/><path d="M12.24,8.27h.13V8.4s.08,0,.13,0v.13h-.27Z"/><path d="M13.46,8.13v.14h-.14V7.86h.14Z"/><path class="cls-4" d="M11.42,10.71h.27v.11s0,0,0,0h-.22a0,0,0,0,1,0,0Z"/><path class="cls-4" d="M11,4.2h.12a.28.28,0,0,1,0,.13v.13H11V4.2Z"/><path class="cls-4" d="M11.15,4.47h.13s0,.09,0,.13v.14h-.14V4.48Z"/><path d="M11.83,4.61V4.47H12v.27h-.14Z"/><path d="M12.1,4.88V5H12V4.75h.13Z"/><path d="M12.24,5.15v.14H12.1V5h.13Z"/><path d="M11.15,5.56v.13H11V5.42h.13Z"/><path d="M11,3.25V3.12a.29.29,0,0,1,.13,0v.26H11Z"/><path class="cls-4" d="M10.07,3.39V3.25h.22c.06,0,.05,0,.05,0v.09h-.27Z"/><path d="M10.47,6.37H10.2V6.24h.27Z"/><path d="M12.78,6.51h.13v.27h-.14V6.51Z"/><path d="M9.39,3.39h.27v.14H9.39Z"/><path class="cls-4" d="M9.66,6.64h.27v.1a0,0,0,0,1,0,0H9.66V6.64Z"/><path d="M10.34,6.64h.27v.14h-.27Z"/><path d="M11.29,3.39v.27h-.14V3.39h.14Z"/><path class="cls-4" d="M9.66,6.78v.13H9.39V6.78Z"/><path d="M7.76,3.66H7.63V3.53H7.9v.13Z"/><path class="cls-4" d="M11.42,8.81v.27h-.13V8.84s0,0,0,0Z"/><path d="M9.12,3.53h.27v.13H9.12Z"/><path d="M11,7.05v.27h-.14V7.05Z"/><path d="M10.88,7.46h-.27V7.32h.27Z"/><path d="M10.61,7.59h-.27V7.46h.27Z"/><path d="M8.85,3.66h.27V3.8H8.85Z"/><path d="M11.15,7.59h.25s0,0,0,0v.11h-.27Z"/><path d="M10.88,7.73h.27v.13h-.27Z"/><path class="cls-4" d="M10.74,8.14h-.1a0,0,0,0,1,0,0V7.89a0,0,0,0,1,0,0h.11v.26Z"/><path class="cls-4" d="M12.24,8.27v.27H12.1V8.3a0,0,0,0,1,0,0Z"/><path d="M13.46,8.27h.13v.27h-.13V8.27Z"/><path d="M8.58,3.8h.27v.13H8.58Z"/><path d="M11.42,8.41a.57.57,0,0,1,0,.13h-.27V8.41h.27Z"/><path class="cls-4" d="M11.83,8.54v.27h-.14a1.92,1.92,0,0,0,0-.24,0,0,0,0,1,0,0Z"/><path class="cls-4" d="M10.75,3.8h.1s0,0,0,0v.25h-.13V3.8Z"/><path class="cls-4" d="M12.24,8.54h.27v.11s0,0,0,0h-.22s0,0,0,0Z"/><path d="M8.31,3.93h.27v.14H8.3Z"/><path class="cls-4" d="M11,9.09v.27h-.14V9.12s0,0,0,0Z"/><path class="cls-4" d="M10.61,9.36v.27h-.07c-.07,0-.07,0-.07-.06V9.39s0,0,0,0Z"/><path class="cls-4" d="M12.24,10.17h.27v.11s0,0,0,0h-.22s0,0,0,0Z"/><path class="cls-4" d="M11.42,10.44v.27h-.07c-.07,0-.06,0-.06-.06v-.18s0,0,0,0Z"/><path class="cls-4" d="M11.83,10.44h.27v.11s0,0,0,0h-.22s0,0,0,0Z"/><path d="M7.9,4.2h.27v.14H7.9V4.2Z"/><path class="cls-4" d="M9.66,3.39H9.52a.33.33,0,0,0,0-.1s0,0,0,0h.1Z"/><path class="cls-4" d="M9.39,3.53H9.25a.33.33,0,0,0,0-.1s0,0,0,0h.1Z"/><path class="cls-4" d="M10.34,3.39a.29.29,0,0,1,.13,0v.12h-.13V3.39Z"/><path class="cls-4" d="M11.15,3.39v.14h-.1s0,0,0,0v-.1Z"/><path class="cls-4" d="M9.12,3.66H9v-.1s0,0,0,0h.1Z"/><path class="cls-4" d="M10.47,3.52h.14v.13h-.14V3.53Z"/><path class="cls-4" d="M8.85,3.8H8.71V3.69s0,0,0,0h.1Z"/><path class="cls-4" d="M10.61,3.66s.09,0,.13,0V3.8h-.14V3.66Z"/><path class="cls-4" d="M11.15,3.66h.14V3.8h-.11a0,0,0,0,1,0,0Z"/><path class="cls-4" d="M8.58,3.93H8.44v-.1s0,0,0,0h.1Z"/><path class="cls-4" d="M8.31,3.93v.14H8.17V4a0,0,0,0,1,0,0Z"/><path class="cls-4" d="M8.17,4.2H8s0-.09,0-.13h.13V4.2Z"/><path class="cls-4" d="M10.88,4.07a.28.28,0,0,1,.13,0V4.2h-.14V4.07Z"/><path class="cls-4" d="M12,4.75v.13h-.1s0,0,0,0V4.74Z"/><path class="cls-4" d="M9.52,8.27v.14H9.42a0,0,0,0,1,0,0V8.27h.13Z"/><path class="cls-4" d="M9.93,8.27h.14v.11a0,0,0,0,1,0,0H9.93Z"/><path class="cls-4" d="M11,8.41s-.09,0-.14,0V8.27H11v.14Z"/><path class="cls-4" d="M10.61,6.78V6.64a.34.34,0,0,0,.1,0s0,0,0,0a.41.41,0,0,0,0,.11h-.14Z"/><path class="cls-6" d="M12.51,8.41s-.09,0-.13,0V8.27h.11s0,0,0,0Z"/><path class="cls-4" d="M13.46,8.27v.14h-.11s0,0,0,0v-.1Z"/><path class="cls-4" d="M11.15,8.41v.13h-.1s0,0,0,0v-.1h.13Z"/><path class="cls-4" d="M10.34,6.64v.14H10.2V6.64h.14Z"/><path class="cls-4" d="M10.34,7.46v.13h-.11s0,0,0,0v-.1h.14Z"/><path class="cls-6" d="M12.1,8.68s-.09,0-.13,0V8.54h.14Z"/><path class="cls-4" d="M12,7.19V7.05h.13v.11s0,0,0,0Z"/><path class="cls-4" d="M10.61,7.59V7.46h.14a.34.34,0,0,0,0,.1s0,0,0,0Z"/><path class="cls-6" d="M11.69,9s-.09,0-.13,0V8.81h.13Z"/><path class="cls-4" d="M12.1,6.64H12V6.51h.12a0,0,0,0,1,0,0Z"/><path class="cls-4" d="M11.56,6.51v.13h-.14v-.1s0,0,0,0Z"/><path class="cls-6" d="M12.51,9s-.09,0-.13,0V8.81h.11a0,0,0,0,1,0,0Z"/><path class="cls-4" d="M10.07,6.64V6.51h.13v.13h-.13Z"/><path class="cls-6" d="M11.29,9.22a.28.28,0,0,1-.13,0V9.09h.14Z"/><path class="cls-4" d="M10.2,6.37h.14s0,.09,0,.14H10.2V6.37Z"/><path class="cls-6" d="M12.91,9.22a.3.3,0,0,1-.13,0V9.09h.11s0,0,0,0Z"/><path class="cls-4" d="M11.15,7.73H11v-.1s0,0,0,0h.1Z"/><path class="cls-4" d="M10.47,6.37V6.24h.14v.1s0,0,0,0Z"/><path class="cls-6" d="M10.88,9.49a.29.29,0,0,1-.13,0V9.36h.14Z"/><path class="cls-4" d="M10.75,6.1c0,.05,0,.09,0,.13h-.13V6.1h.14Z"/><path class="cls-6" d="M13.32,9.49a.29.29,0,0,1-.13,0V9.36h.11s0,0,0,0Z"/><path class="cls-4" d="M10.88,6a.29.29,0,0,1,0,.13h-.13V6Z"/><path class="cls-6" d="M12.91,9.76a.3.3,0,0,1-.13,0V9.63h.13Z"/><path class="cls-4" d="M11,5.83s0,.09,0,.13h-.13V5.83Z"/><path class="cls-6" d="M12.51,10h-.13V9.9h.14Z"/><path class="cls-4" d="M11,5.7h.13V5.8s0,0,0,0H11V5.69Z"/><path class="cls-6" d="M12.1,10.31H12v-.13h.14Z"/><path class="cls-4" d="M9.53,7.73v.13H9.39v-.1s0,0,0,0Z"/><path class="cls-6" d="M11.69,10.58s-.09,0-.13,0v-.13h.13Z"/><path class="cls-4" d="M10.07,7.87H9.93V7.73H10s0,0,0,0Z"/><path class="cls-4" d="M10.88,7.73v.13h-.14a.34.34,0,0,0,0-.1s0,0,0,0Z"/><path class="cls-4" d="M11.56,7.05v.14h-.11a0,0,0,0,1,0,0V7.05h.14Z"/><path class="cls-4" d="M8,6.92h.14v.13A.29.29,0,0,1,8,7Z"/><path class="cls-4" d="M12.78,6.78h.13v.13h-.11s0,0,0,0Z"/><path class="cls-4" d="M11.15,5.56V5.42h.14s0,.09,0,.14Z"/><path class="cls-4" d="M10.75,6.78a.3.3,0,0,1,.13,0v.12h-.13V6.78Z"/><path class="cls-4" d="M10.88,7.46V7.32H11v.11a0,0,0,0,1,0,0Z"/><path class="cls-4" d="M12.1,5.29h.14v.13h-.11s0,0,0,0Z"/><path class="cls-4" d="M11,7.05h-.14V6.92H11s0,0,0,0Z"/><path class="cls-4" d="M10.88,8.27a.29.29,0,0,1-.13,0V8.14h.14v.13Z"/><path class="cls-4" d="M12.1,5v.13H12s0,0,0,0V5Z"/><path d="M4,13.69H4.1v.13H3.83v-.14Z"/><path class="cls-1" d="M4.37,14.51v-.27h.14v.27H4.37Z"/><path class="cls-1" d="M2.88,12.88a.29.29,0,0,1-.13,0v-.12h.13v.14Z"/><path class="cls-1" d="M3,13s-.09,0-.14,0v-.13H3V13Z"/><path class="cls-1" d="M3.15,13.15a.29.29,0,0,1-.13,0V13h.13v.13Z"/><path class="cls-1" d="M3.29,13.29s-.09,0-.13,0v-.13h.14v.14Z"/><path class="cls-1" d="M3.42,13.42H3.29v-.13h.13v.13Z"/><path class="cls-1" d="M3.56,13.56c-.05,0-.09,0-.13,0v-.13h.14v.14Z"/><path class="cls-1" d="M3.69,13.7H3.56v-.13h.13v.13Z"/><path class="cls-1" d="M3.83,13.69v.14H3.72s0,0,0,0V13.7h.14Z"/><path class="cls-1" d="M4,13.83H4.1V14h0S4,14,4,14Z"/><path class="cls-1" d="M4.24,14.1a.33.33,0,0,1-.14,0V14h.14v.13Z"/><path class="cls-1" d="M4.37,14.24s-.09,0-.13,0V14.1h.13v.14Z"/><path class="cls-1" d="M4.24,14.64a.57.57,0,0,1,0-.13h.13v.13H4.24Z"/><path d="M6.68,6.64v.41H6.56l0,0V6.65Z"/><path d="M6.68,7.05h.09s0,0,0,0v.36H6.68V7.05Z"/><path d="M9.8,10.85H9.56s0,0,0,0a.41.41,0,0,0,0-.11H9.8v.14Z"/><path d="M9.93,10.85h.14V11H9.83s0,0,0,0v-.1h.13Z"/><path d="M6.81,6.64H6.68V6.37h.13v.27Z"/><path d="M7,6.92H6.84s0,0,0,0V6.64h0a.41.41,0,0,0,.11,0s0,0,0,0v.24Z"/><path d="M7.22,7.32H7.11a0,0,0,0,1,0,0V7.05h.11s0,0,0,0v.24Z"/><path d="M7.36,7.59H7.25s0,0,0,0V7.32h.11a0,0,0,0,1,0,0,1.92,1.92,0,0,0,0,.24Z"/><path d="M7.63,8H7.52a0,0,0,0,1,0,0V7.73H7.6a0,0,0,0,1,0,0V8Z"/><path d="M7.76,8.27h-.1s0,0,0,0V8h.1s0,0,0,0v.24Z"/><path d="M8,8.68h-.1s0,0,0,0V8.41H8s0,0,0,0v.24Z"/><path d="M8.17,9H8.06a0,0,0,0,1,0,0V8.68h.11a0,0,0,0,1,0,0V9Z"/><path d="M8.44,9.36H8.33s0,0,0,0a1.92,1.92,0,0,0,0-.24h.11s0,0,0,0v.24Z"/><path d="M8.58,9.63H8.47s0,0,0,0V9.36h.11s0,0,0,0v.24Z"/><path d="M8.85,10H8.74s0,0,0,0V9.76h.11a0,0,0,0,1,0,0V10Z"/><path d="M7.9,8.41H7.79a0,0,0,0,1,0,0V8.27h.11s0,0,0,0v.12Z"/><path d="M6.81,7.46h.12s0,0,0,0v.11H6.81V7.46Z"/><path d="M8.3,9.08H8.19s0,0,0,0V9h.11s0,0,0,0v.11Z"/><path d="M7.49,7.73H7.38s0,0,0,0V7.59h.11s0,0,0,0v.11Z"/><path d="M8.71,9.76H8.6s0,0,0,0V9.63h.11s0,0,0,0v.11Z"/><path d="M9,10.17H8.87s0,0,0,0V10H9s0,0,0,0v.11Z"/><path d="M9.12,10.3H9a0,0,0,0,1,0,0v-.11h.11s0,0,0,0v.12Z"/><path d="M9.25,10.44H9.14s0,0,0,0V10.3h.11s0,0,0,0v.11Z"/><path d="M9.39,10.58H9.28a0,0,0,0,1,0,0v-.11h.12a0,0,0,0,1,0,0v.12Z"/><path d="M9.53,10.71H9.41s0,0,0,0v-.11H9.5s0,0,0,0a.41.41,0,0,0,0,.11Z"/><path d="M7.08,7.05H7L7,7V6.92h.11s0,0,0,0v.11Z"/><path class="cls-8" d="M12.92,6.78V6.64h.4v.14h-.4Z"/><path d="M12.91,6.78h.14v.14h-.13Z"/><path class="cls-5" d="M11.29,3.66V3.52h.11s0,0,0,0v.11h-.13Z"/><path class="cls-5" d="M5.05,14.64a.29.29,0,0,0,0-.13H4.92v-.14h.24s0,0,0,0v-.08s0,0,0,0,.11,0,.11.1v.3Z"/><path d="M4.51,14.51v-.27h.27v.13H4.67a0,0,0,0,0,0,0v.11Z"/><path class="cls-5" d="M6.68,13.22v0a0,0,0,0,1,0,0h0s-.07,0-.09,0,0-.07,0-.11l0,0h.05C6.68,13.15,6.68,13.15,6.68,13.22Z"/><path d="M4.91,14.37v.14H4.78v-.14Z"/><path class="cls-5" d="M5.46,14.78H5.32v-.14s.09,0,.13,0Z"/><path class="cls-8" d="M12.1,4.75H12V4.61h.09s0,0,0,0Z"/><path d="M11.29,3.66h.13V3.8h-.13Z"/><path class="cls-8" d="M11.29,3.39h-.14V3.25h.11s0,0,0,0Z"/><path class="cls-5" d="M6.68,7.05v.41h0a.17.17,0,0,1-.1,0s0-.06,0-.09,0,0,0,0-.08,0-.1,0,0-.06,0-.09,0,0,0,0H6v-.1s0,0,0,0H6.3s.08,0,.1,0,0-.06,0-.09,0,0,0,0h.1V7l0,0Z"/><path class="cls-5" d="M7.22,10.85V9.79s0,0,0,0,.12,0,.12.1v1s0,0,0,0Z"/><path class="cls-5" d="M7,7.86h.13v.5s0,0,0,0S7,8.42,7,8.4s0-.06,0-.09V7.86Z"/><path class="cls-5" d="M7.08,11.25v-.36s0,0,0,0h.09v.4H7.08Z"/><path class="cls-5" d="M7.22,8.75v.17a0,0,0,0,1,0,0c-.11,0-.11,0-.11-.1a2.43,2.43,0,0,0,0-.27s0,0,0,0,.1,0,.1.1Z"/><path class="cls-5" d="M6.81,7.59H7v.27H6.84s0,0,0,0Z"/><path class="cls-5" d="M6.81,7.46v.13H6.68V7.46Z"/><path class="cls-7" d="M8.3,10.85a.41.41,0,0,0,0-.11s0,0,0,0,.1,0,.1.1v0H8.3Z"/><path class="cls-7" d="M8.44,10.85h.11s0,0,0,0V11H8.44v-.13Z"/><path class="cls-7" d="M8.58,11h.11s0,0,0,0v.11H8.58V11Z"/><path class="cls-7" d="M8.71,11.12h.11s0,0,0,0v.11H8.71v-.13Z"/><path class="cls-5" d="M7,11.39v-.14h.13v.14H7Z"/><path class="cls-7" d="M8.85,11.25H9s0,0,0,0,0,.1-.09.1h0v-.14Z"/><path d="M12.24,5.42V5.29h.11s0,0,0,0v.11Z"/><path class="cls-8" d="M6.54,6.91h-.1s0,0,0,0,0,.07,0,.09-.06,0-.1,0H6s0,0,0,0v.1H5.21s0,0,0,0h0c0-.11,0-.11.1-.11h.53s0,0,0,0,0-.07,0-.09h.24s0,0,0,0,0-.08,0-.1.06,0,.09,0,0,0,0,0V6.42s0,0,.05,0,.06,0,.08,0a.17.17,0,0,0,0-.08V6.13s0,0,0,0h0s.08,0,.1,0a.33.33,0,0,0,0-.1V5.86a0,0,0,0,1,0,0h0s.07,0,.09,0,0-.06,0-.1V5.56h.24a0,0,0,0,0,0,0s0-.08,0-.1.06,0,.1,0,0,0,0,0v-.2s0,0,0,0h.07a0,0,0,0,0,0,0V4.77s0,0,0,0h.08s0,0,0,0a.75.75,0,0,1,0-.15V4.2h.13V5H7.36a.57.57,0,0,0,0,.13v.27H7.23a.29.29,0,0,0,0,.13v.13H6.81a.37.37,0,0,0,0,.11s0,0,.08,0h0a0,0,0,0,1,0,0V6.1H6.84a0,0,0,0,0,0,0v.11H6.68a.57.57,0,0,0,0,.13v.14H6.55a.33.33,0,0,0,0,.14Z"/><path class="cls-8" d="M5.46,13.29v.11s0,0,0,0-.08,0-.1,0a.17.17,0,0,0,0,.1,0,0,0,0,1,0,0s-.08,0-.1,0a.33.33,0,0,0,0,.1s0,0,0,0-.11,0-.11-.11v-.14a0,0,0,0,1,0,0h0s.07,0,.09,0a.25.25,0,0,0,0-.09v-.14s0,0,0,0h.11v.13s.09,0,.14,0Z"/><path class="cls-8" d="M5.46,13v-.11s0,0,0,0h.36s0,0,0,0a.34.34,0,0,1,0,.1s-.06,0-.1,0,0,0,0,0,0,.08,0,.1H5.59V13Z"/><path class="cls-8" d="M7,11.39h.13v.09s0,0,0,0-.06,0-.07,0,0,.05,0,.08H7s0,0,0,0h-.1v-.23s0,0,0,0Z"/><path class="cls-8" d="M7,3.93V3.8h.27v.13H7Z"/><path d="M7.49,4.2H7.36V3.93h.11s0,0,0,0V4.2Z"/><path class="cls-8" d="M4.1,10.58H4s0,0,0,0V10.3h.1s0,0,0,0v.24Z"/><path class="cls-8" d="M7.35,3.93v.14h-.1a0,0,0,0,1,0,0V3.93h.13Z"/><path class="cls-8" d="M6.81,4.34V4.2H7s0,.09,0,.14Z"/><path class="cls-8" d="M6.68,4.48h.13v.12s0,0,0,0H6.68Z"/><path class="cls-8" d="M4.1,10.58h.1s0,0,0,0,0,.1-.1.1,0,0,0,0v-.1Z"/><path class="cls-8" d="M8.44,10.85V11H8.33s0,0,0,0a.4.4,0,0,0,0-.11Z"/><path class="cls-8" d="M8.58,11v.14H8.46l0,0V11Z"/><path class="cls-8" d="M8.71,11.12v.13H8.6s0,0,0,0v-.11Z"/><path class="cls-8" d="M7.08,11.39v-.14h.14v.12a0,0,0,0,1,0,0Z"/><path class="cls-8" d="M8.85,11.25v.14H8.73a0,0,0,0,1,0,0v-.12Z"/><path class="cls-8" d="M6.68,11.8v-.12s0,0,0,0h.11v.11s0,0,0,0Z"/><path class="cls-8" d="M6.54,11.93v-.11s0,0,0,0h.11v.11s0,0,0,0Z"/><path class="cls-8" d="M6.54,11.93V12s0,0,0,0-.09,0-.09-.1,0,0,0,0Z"/><path class="cls-8" d="M6.68,5.56h-.1s0,0,0,0,0-.09.1-.1,0,0,0,0v.1Z"/><path class="cls-8" d="M2.88,12.61H3a0,0,0,0,1,0,0v.1H2.88v-.14Z"/><path class="cls-8" d="M3,12.74h.11s0,0,0,0v.11H3v-.13Z"/><path class="cls-8" d="M3.15,12.88h.11a0,0,0,0,1,0,0V13H3.15v-.14Z"/><path class="cls-8" d="M3.29,13H3.4s0,0,0,0v.11H3.29V13Z"/><path class="cls-8" d="M5.32,13.15s0-.09,0-.13h.13v.13H5.32Z"/><path class="cls-8" d="M3.42,13.15h.11a0,0,0,0,1,0,0v.11H3.42v-.14Z"/><path class="cls-8" d="M5.59,13.15a.66.66,0,0,1,0,.14H5.46v-.14h.13Z"/><path class="cls-8" d="M3.56,13.29h.11s0,0,0,0,0,.07,0,.1H3.56v-.13Z"/><path class="cls-8" d="M3.7,13.42h.1a0,0,0,0,1,0,0v.11H3.7v-.13Z"/><path class="cls-8" d="M4,13.69H3.83v-.13h0s.09,0,.13,0Z"/><path class="cls-8" d="M4.1,13.83V13.7h.13s0,.09,0,.13H4.1Z"/><path class="cls-8" d="M4.24,13.83h.11s0,0,0,0V14H4.24v-.14Z"/><path class="cls-8" d="M4.37,14h.11s0,0,0,0v.11H4.37V14Z"/><path class="cls-8" d="M4.64,14.24H4.51V14.1h0s.09,0,.13,0Z"/><path d="M2.88,12.61v.14H2.75v-.14Z"/><path d="M7.22,3.8H6.81V3.66h.25s0,0,0,0a.34.34,0,0,1,0-.1h.27v.13H7.23a.33.33,0,0,0,0,.14Z"/><path class="cls-4" d="M7,3S7,3,7.08,3v.37s0,0,0,0-.1,0-.1-.1V3Z"/><path class="cls-4" d="M6.68,3.12a.29.29,0,0,1,.13,0v.36s0,0,0,0-.1,0-.1-.1V3.12Z"/><path d="M7.63,3.39v.14H7.36V3.39h.27Z"/><path class="cls-6" d="M7.22,2.85h0s.07,0,.09,0a.19.19,0,0,1,0,.08s0,0,0,0h-.1Z"/><path class="cls-4" d="M7.36,3.39v.14H7.22v-.1s0,0,0,0Z"/><path class="cls-4" d="M7.09,3.53a.34.34,0,0,0,0,.1s0,0,0,0H7v-.1s0,0,0,0Z"/><path class="cls-6" d="M7.63,2.71v.41H7.49V2.75s0,0,0,0Z"/><path d="M4.37,14.64v-.13h.14v.13Z"/><path d="M4.24,14.64h.13v.14H4.24Z"/><path class="cls-6" d="M7.08,7.05V6.94s0,0,0,0H7V6.68s0,0,0,0a.41.41,0,0,1-.11,0V6.37h.12s0,0,0,0V6.24h.13v.37s0,0,0,0h0s.07,0,.08,0,0,0,0,.08v.16a0,0,0,0,0,0,0h0s.06,0,.08,0,0,.06,0,.08v.16s0,0,0,0h0s.07,0,.09,0,0,0,0,.07v.16a0,0,0,0,0,0,0s.08,0,.1,0,0,.06,0,.1,0,0,0,0h0s.07,0,.09,0,0,.05,0,.08v.16s0,0,0,0h0s.06,0,.08,0,0,.06,0,.08v.16s0,0,0,0,.09,0,.11,0,0,.06,0,.09a0,0,0,0,0,0,0h0s.08,0,.09,0,0,.06,0,.09v.14s0,0,0,0h0s.07,0,.09,0,0,.06,0,.09a.38.38,0,0,1,0,.15s0,0,0,0,.08,0,.1,0,0,.07,0,.1a0,0,0,0,0,0,0h0s.07,0,.09,0a.25.25,0,0,1,0,.09v.14s0,0,0,0h0s.07,0,.09,0,0,.06,0,.09v.14a0,0,0,0,0,0,0s.08,0,.1,0,0,.07,0,.1,0,0,0,0h0s.07,0,.09,0,0,.06,0,.09v.14a0,0,0,0,0,0,0s.08,0,.1,0,0,.06,0,.1,0,0,0,0,.08,0,.1,0a.34.34,0,0,1,0,.1,0,0,0,0,0,0,0s.08,0,.1,0,0,.06,0,.1,0,0,0,0,.08,0,.1,0,0,.06,0,.09a0,0,0,0,0,0,0s.08,0,.1,0,0,.07,0,.1a0,0,0,0,0,0,0h0s.08,0,.1,0,0,.06,0,.09v0H9.52a.41.41,0,0,1,0-.11s0,0,0,0H9.39v-.12a0,0,0,0,0,0,0H9.25v-.11s0,0,0,0H9.12v-.12s0,0,0,0H9v-.11s0,0,0,0H8.85V9.79a0,0,0,0,0,0,0H8.71V9.65s0,0,0,0H8.58V9.39s0,0,0,0H8.44V9.12s0,0,0,0H8.3V9s0,0,0,0H8.17V8.71a0,0,0,0,0,0,0H8V8.44s0,0,0,0H7.9V8.29s0,0,0,0H7.76V8s0,0,0,0h-.1V7.76a0,0,0,0,0,0,0H7.49V7.62s0,0,0,0H7.36a1.92,1.92,0,0,1,0-.24,0,0,0,0,0,0,0H7.22V7.08s0,0,0,0Z"/><path d="M7.22,5.69V5.56h.14V6.1H7.08a1.92,1.92,0,0,0,0-.24s0,0,0,0h.07s0,0,0,0Z"/><path class="cls-3" d="M7.22,6.1h.13v.27H7.22V6.1Z"/><path class="cls-3" d="M7.49,6.64H7.36a.57.57,0,0,1,0-.13.66.66,0,0,1,0-.14h.13v.27Z"/><path class="cls-3" d="M7.63,6.78a.33.33,0,0,1-.14,0V6.64h.14v.14Z"/><path d="M7.08,6.24H7V6.1h.13Z"/><path class="cls-6" d="M9.93,10.85H9.8v-.14s.09,0,.13,0Z"/><path class="cls-3" d="M7.76,6.78v.14H7.65s0,0,0,0V6.78h.13Z"/><path class="cls-2" d="M7.36,6.1V5.56h.1a0,0,0,0,0,0,0V5.15h.09s0,0,0,0V4.64s0,0,0,0,.08,0,.1,0a.33.33,0,0,0,0-.1v0H7.9v.19s0,.06,0,.08,0,0-.08,0,0,0,0,0v.66s0,.08,0,.1.06,0,.09,0,0,0,0,0v.27a.34.34,0,0,0,0,.1S8,6,8,6,8,6,8,6v.21a0,0,0,0,0,0,0h.1s0,.07,0,.11,0,0,0,0,.07,0,.09,0,0,.07,0,.1,0,0,0,0h.1s0,.07,0,.11,0,0,0,0H8.7s0,.06,0,.09h0s0,0,0,0H9v.14H8.17a.33.33,0,0,0,0-.14h-.4V6.67s0,0,0,0H7.63V6.4a0,0,0,0,0,0,0H7.49V6.13s0,0,0,0h-.1Z"/><path d="M7.76,4.47v0a.33.33,0,0,1,0,.1s-.07,0-.1,0,0,0,0,0v.47s0,0,0,0H7.49v-1h.14v.25s0,0,0,0Z"/><path class="cls-6" d="M7.63,4.2H7.49V4s0,0,0,0h-.1V3.8h.27Z"/><path d="M7.63,3.8H7.36V3.66h.27Z"/><path class="cls-6" d="M7.9,4.2v.14H7.76V4.23a0,0,0,0,1,0,0Z"/><path class="cls-6" d="M7.76,4.47H7.65s0,0,0,0V4.34h.13v.13Z"/><path class="cls-6" d="M11.42,8.41h-.13V8.28s-.08,0-.13,0h0V8.14H11V7.86h.26V7.73h.13Z"/><path d="M11.29,5.42h-.14V4.75h.14Z"/><path d="M10.34,7.46H10.2V6.78h.14v.68Z"/><path class="cls-3" d="M12.1,10.17h-.41V9.9h.14V10s0,0,.05,0h.18s0,0,0,.05Z"/><path class="cls-3" d="M12.51,9.9H12.1V9.63h.14v.09s0,0,0,0h.18s0,0,0,0Z"/><path d="M12.1,9.76V9.9h-.27V9.63H12v.12A.29.29,0,0,0,12.1,9.76Z"/><path class="cls-3" d="M12.1,9.08h.14v.1s0,0,0,0h.21s0,0,0,0v.11H12.1V9.08Z"/><path class="cls-3" d="M12.91,9.63h-.4V9.36h.13v.1s0,0,0,0h.21s0,0,0,0A.31.31,0,0,0,12.91,9.63Z"/><path class="cls-3" d="M11.42,9.9h-.13V9.63h.13v.13h.26a.56.56,0,0,1,0,.13h-.27Z"/><path d="M11.42,9.9h.14V10h.13v.14h-.27Z"/><path d="M11.29,9.76V9.9H11V9.63h.13v.12A.28.28,0,0,0,11.29,9.76Z"/><path d="M12.51,9.49v.14h-.27V9.36h.13v.12A.28.28,0,0,0,12.51,9.49Z"/><path class="cls-3" d="M11.69,9V8.81h.14v.11a0,0,0,0,0,0,0h.21a0,0,0,0,1,0,0v.1h-.41Z"/><path class="cls-3" d="M11.15,9.63h-.27V9.36h.27v.1s0,0,0,0,.07,0,.09,0a.17.17,0,0,1,0,.1v0h-.14Z"/><path class="cls-3" d="M11.29,9.22V9.08h.13v.1s0,0,.05,0h.17c.06,0,0,0,0,.06v.08h-.4Z"/><path class="cls-4" d="M11.29,9.36h.13v.27h-.13v0a.17.17,0,0,0,0-.1s-.06,0-.09,0,0,0,0,0v-.1Z"/><path class="cls-6" d="M11.83,7.05h-.14V6.92h-.13V6.78h.13a.66.66,0,0,0,0-.14h.14v.13c.05,0,.09,0,.14,0v.14h-.13A.29.29,0,0,0,11.83,7.05Z"/><path class="cls-2" d="M12,6.78c-.05,0-.09,0-.14,0V6.64H12Z"/><path class="cls-2" d="M11.69,6.64a.66.66,0,0,1,0,.14h-.13V6.64h.13Z"/><path d="M9,6.92V6.78h.41v.13Z"/><path class="cls-4" d="M11.69,9.36V9.28c0-.07,0-.06,0-.06h-.17c-.05,0-.05,0-.05,0v-.1h.41v.27h-.14Z"/><path class="cls-6" d="M9.93,8v.14H9.8a.57.57,0,0,0,0,.13H9.66V8.14H9.53V8h.12a.33.33,0,0,0,0-.14H9.8V8A.29.29,0,0,0,9.93,8Z"/><path class="cls-2" d="M9.66,7.86a.33.33,0,0,1,0,.14H9.53V7.86h.14Z"/><path class="cls-2" d="M9.93,8A.29.29,0,0,1,9.8,8V7.86h.13Z"/><path class="cls-2" d="M11.83,7.05a.29.29,0,0,1,0-.13H12v.13Z"/><path class="cls-6" d="M9.25,6.78h-.5s0,0,0,0h0s0-.07,0-.09H8.47s0,0,0,0,0-.08,0-.11h-.1s0,0,0,0,0-.08,0-.1-.06,0-.09,0,0,0,0,0,0-.09,0-.11h-.1a0,0,0,0,1,0,0V6S8,6,8,6s-.08,0-.1,0a.34.34,0,0,1,0-.1V5.59s0,0,0,0-.07,0-.09,0,0-.07,0-.1V4.79s0,0,0,0,.07,0,.08,0,0-.06,0-.08V4.47H8a.57.57,0,0,0,0-.13h.14s.09,0,.13,0V4.2h.13a.29.29,0,0,0,0-.13h.14s.08,0,.13,0V3.93h.14a.29.29,0,0,0,.13,0V3.8h.14s.09,0,.13,0V3.66h.14a.29.29,0,0,0,.13,0V3.53h.26V3.39h.13v.13h.26v.12a.28.28,0,0,0,.13,0h0v.13s.09,0,.13,0h0s0,.09,0,.13h.13v.25s0,0,0,0h.12a.66.66,0,0,0,0,.14h.13v.13s0,.09,0,.14H11v.14a.56.56,0,0,0,0,.13h.13v.41H11a.57.57,0,0,0,0,.13v.14h-.13c0,.05,0,.09,0,.13h-.13a.57.57,0,0,0,0,.13h-.13a.33.33,0,0,0,0,.14h-.13s0,.09,0,.13h0s-.08,0-.13,0v.13h-.27v.13H9.94s0,.08,0,.13H9.66a.29.29,0,0,0-.13,0v.12H9.39s-.09,0-.13,0ZM9.66,4.2v.25s0,0,0,0a.17.17,0,0,1,.1,0s0,.07,0,.1,0,0,0,0,.08,0,.1,0,0,.06,0,.1a0,0,0,0,0,0,0h.1s0,.07,0,.1,0,0,0,0h.36s0,0,0,0,0-.07,0-.09.07,0,.1,0,0,0,0,0V4.58s0-.08,0-.1-.06,0-.09,0,0,0,0,0a1.34,1.34,0,0,0,0-.2s0,0,0,0h-.09s0-.07,0-.1,0,0,0,0-.07,0-.09,0,0-.06,0-.09,0,0,0,0H9.7s0,0,0,0Z"/><path class="cls-2" d="M9.8,3.39v.13H9.66V3.39Z"/><path class="cls-2" d="M10.07,3.53H9.94V3.39h.14Z"/><path class="cls-2" d="M11.56,6.92h.13v.13h-.13Z"/><path class="cls-2" d="M9.53,8.14h.13v.13H9.52Z"/><path class="cls-2" d="M9.8,8.27a.57.57,0,0,1,0-.13h.13v.13Z"/><path d="M11.56,6.92v.13h-.14V6.64h.14v.28Z"/><path d="M9.53,8.14v.13H9.39v-.4h.13v.28Z"/><path class="cls-2" d="M9.52,6.64V6.52a.29.29,0,0,1,.13,0v.13H9.52Z"/><path class="cls-2" d="M9.93,6.51s0-.09,0-.13h.13v.14H9.93Z"/><path d="M11,4.75V4.47h.13v.27H11Z"/><path d="M10.88,4.47V4.2H11v.27h-.14Z"/><path class="cls-2" d="M10.88,5.69s0-.08,0-.13H11V5.7h-.14Z"/><path class="cls-2" d="M11,5.42a.57.57,0,0,1,0-.13h.13v.13Z"/><path d="M10.07,3.53V3.39h.27v.14h-.27Z"/><path class="cls-2" d="M10.07,6.37V6.24h.13v.13h-.13Z"/><path class="cls-2" d="M10.34,6.24V6.11c.05,0,.09,0,.13,0v.14h-.13Z"/><path class="cls-2" d="M9.53,3.53v.12a.29.29,0,0,1-.13,0V3.53Z"/><path d="M9.52,6.64h.14v.14H9.39V6.64Z"/><path class="cls-6" d="M10.75,7.32h-.23s0,0,0,0v-.5h.14V7a0,0,0,0,0,0,0h.25v.14h-.13A.57.57,0,0,0,10.75,7.32Z"/><path class="cls-2" d="M10.47,6.78v.5s0,0,0,0h.09v.14h-.27V6.78Z"/><ellipse class="cls-6" cx="7.49" cy="3.59" rx="0.19" ry="0.1"/><path class="cls-2" d="M9.25,3.66v.13s-.09,0-.13,0V3.66Z"/><path class="cls-2" d="M10.75,7.32a.57.57,0,0,1,0-.13h.13v.13Z"/><path class="cls-2" d="M9,3.8v.12a.29.29,0,0,1-.13,0V3.8Z"/><path class="cls-2" d="M11.29,7.73v.13h-.13V7.73Z"/><path class="cls-2" d="M11,7.86v.28h-.14V7.86H11Z"/><path d="M10.88,7.86v.28h-.13V7.87Z"/><path class="cls-2" d="M8.71,3.93v.13c-.05,0-.09,0-.13,0V3.93Z"/><path class="cls-2" d="M11.15,8.27s.09,0,.13,0v.13h-.14Z"/><path d="M10.61,4.07V3.8h.13v.27h-.14Z"/><path d="M10.88,4.07V4.2h-.13V4.07h.13Z"/><path class="cls-2" d="M8.44,4.07a.29.29,0,0,1,0,.13H8.3V4.07h.14Z"/><path class="cls-2" d="M8.3,4.2v.13s-.09,0-.13,0V4.2H8.3Z"/><path class="cls-2" d="M8,4.34a.57.57,0,0,1,0,.13H7.9V4.34H8Z"/><path d="M10.47,3.53v.13h-.13V3.53h.13Z"/><path d="M10.61,3.66V3.8h-.14V3.66h.14Z"/><path d="M8.3,4.2H8.17V4.07H8.3Z"/><path d="M11.15,8.27v.14H11V8.27h.13Z"/><path d="M10.88,8.14H11v.13h-.14Z"/><path d="M10.61,6.91V6.78h.13v.14h-.14Z"/><path d="M10.07,6.37h.13v.14h-.13Z"/><path d="M10.47,6.24V6.1h.14v.14Z"/><path d="M10.75,6V6.1h-.13V6h.14Z"/><path d="M10.88,5.83V6h-.13V5.83h.13Z"/><path d="M10.88,5.69H11v.14h-.14V5.69Z"/><path d="M10.88,7.05h-.13V6.92h.13Z"/><path d="M4.51,14.1v.14H4.37V14.1Z"/><path d="M3,12.75v.13H2.88v-.14Z"/><path d="M3.15,12.88V13H3v-.14Z"/><path d="M3.29,13v.13H3.15V13Z"/><path d="M3.42,13.15v.14H3.29v-.14Z"/><path d="M3.56,13.29v.13H3.42v-.13Z"/><path d="M3.69,13.43v.13H3.56v-.14Z"/><path d="M3.83,13.56v.13H3.69v-.13Z"/><path d="M4.24,13.83V14H4.1v-.14Z"/><path d="M4.37,14v.13H4.24V14Z"/><path class="cls-5" d="M6.54,6.65a.33.33,0,0,1,0-.14h.13v.13Z"/><path class="cls-5" d="M6.68,6.37a.57.57,0,0,1,0-.13h.13v.13H6.68Z"/><path class="cls-5" d="M7.08,6.1H7V5.86a0,0,0,0,0,0,0h0s-.07,0-.08,0a.37.37,0,0,1,0-.11h.41V5.8s0,0,0,0H7.12s0,0,0,0A1.92,1.92,0,0,1,7.08,6.1Z"/><path d="M7.49,5.15v.38a0,0,0,0,1,0,0h-.1V5.15Z"/><path class="cls-5" d="M7,6.1v.14H6.81V6.13a0,0,0,0,1,0,0Z"/><path class="cls-5" d="M7.35,5.42v.14H7.22a.29.29,0,0,1,0-.13Z"/><path class="cls-5" d="M7.49,5.15H7.36a.57.57,0,0,1,0-.13h.13Z"/><path class="cls-5" d="M5.46,13.15v.14s-.09,0-.14,0v-.13Z"/><path class="cls-5" d="M5.59,13.15H5.46V13h.13Z"/><path d="M7.36,3.8v.13H7.22V3.8h.14Z"/><path class="cls-6" d="M7.36,3.8H7.22a.33.33,0,0,1,0-.14h.13Z"/><path d="M6.81,6.24H7v.11s0,0,0,0H6.81Z"/><path d="M7.35,6.1h.11s0,0,0,0v.24H7.36Z"/><path d="M7.49,6.37H7.6a0,0,0,0,1,0,0v.24H7.49Z"/><path d="M7.63,6.64h.11s0,0,0,0v.11H7.63Z"/><path d="M7.9,4.34v.13H7.76V4.34Z"/><path class="cls-2" d="M11,8.27V8.14h.13v.13Z"/><path class="cls-2" d="M11,4.75h.13v.13H11A.56.56,0,0,1,11,4.75Z"/><path class="cls-4" d="M11.69,9.9a.56.56,0,0,0,0-.13h-.26V9.63h.41V9.9Z"/><path class="cls-6" d="M11.69,10h-.13V9.9h.13Z"/><path class="cls-4" d="M12.24,9.36v.27H12.1v-.1s0,0,0,0h-.21s0,0,0,0v-.1h.41Z"/><path class="cls-6" d="M12.1,9.76a.29.29,0,0,1-.13,0V9.63h.14Z"/><path class="cls-3" d="M12.1,9.63h-.41V9.36h.14v.1s0,0,0,0h.21s0,0,0,0Z"/><path d="M12.1,9.36h-.27V9.09H12v.12a.29.29,0,0,0,.13,0Z"/><path class="cls-6" d="M12.1,9.22a.29.29,0,0,1-.13,0V9.09h.14Z"/><path class="cls-6" d="M12.51,9.49a.28.28,0,0,1-.13,0V9.36h.14Z"/><path class="cls-6" d="M11.15,9.63h.14v.13a.28.28,0,0,1-.13,0Z"/><path d="M11.69,9.49v.14h-.27V9.36h.14v.12A.29.29,0,0,0,11.69,9.49Z"/><path class="cls-6" d="M11.69,9.49a.29.29,0,0,1-.13,0V9.36h.13Z"/><path class="cls-2" d="M9.39,6.64v.14H9.25V6.65S9.35,6.65,9.39,6.64Z"/><path class="cls-4" d="M9.66,4.2V4s0,0,0,0h.47s0,0,0,0,0,.07,0,.09.06,0,.09,0,0,0,0,0,0,.08,0,.1h.09s0,0,0,0a1.34,1.34,0,0,1,0,.2s0,0,0,0,.07,0,.09,0,0,.07,0,.1v.14s0,0,0,0-.08,0-.1,0,0,.06,0,.09,0,0,0,0h-.36s0,0,0,0,0-.08,0-.1H10a0,0,0,0,1,0,0s0-.08,0-.1-.06,0-.1,0,0,0,0,0,0-.08,0-.1a.17.17,0,0,0-.1,0s0,0,0,0Z"/><path class="cls-2" d="M10.34,3.53v.13a.28.28,0,0,1-.13,0V3.53Z"/><path class="cls-2" d="M10.47,3.66V3.8s-.09,0-.13,0V3.66Z"/><path class="cls-2" d="M10.47,3.8h.14v.13h-.13S10.48,3.84,10.47,3.8Z"/><path class="cls-2" d="M10.75,4.07V4.2h-.12s0,0,0,0V4.07Z"/><path class="cls-2" d="M10.75,4.2h.13v.14h-.13A.66.66,0,0,1,10.75,4.2Z"/><path class="cls-2" d="M10.88,4.47H11v.14h-.13C10.87,4.56,10.89,4.52,10.88,4.47Z"/><path class="cls-2" d="M10.61,6V6.1h-.14s0-.09,0-.13Z"/><path class="cls-2" d="M10.75,5.83V6h-.14a.33.33,0,0,1,0-.14Z"/><path class="cls-2" d="M10.88,5.69v.14h-.13a.57.57,0,0,1,0-.13Z"/><path class="cls-2" d="M10.75,6.92v.13h-.12a0,0,0,0,1,0,0V6.91Z"/></svg>